<svg xmlns="http://www.w3.org/2000/svg" xmlns:xlink="http://www.w3.org/1999/xlink" width="95.001" height="95" viewBox="0 0 95.001 95">
  <defs>
    <clipPath id="clip-path">
      <rect id="Rectangle_414121" data-name="Rectangle 414121" width="59.981" height="58.5" fill="none"/>
    </clipPath>
  </defs>
  <g id="Group_1223084" data-name="Group 1223084" transform="translate(-8383.999 4656)">
    <rect id="Rectangle_414067" data-name="Rectangle 414067" width="95" height="95" transform="translate(8384 -4656)" fill="none"/>
    <g id="Group_1222984" data-name="Group 1222984" transform="translate(-4586.437 5681.898)">
      <ellipse id="Ellipse_12935" data-name="Ellipse 12935" cx="27.416" cy="27.416" rx="27.416" ry="27.416" transform="translate(13010.604 -10302.149)" fill="#ffc94a"/>
      <ellipse id="Ellipse_12936" data-name="Ellipse 12936" cx="19.939" cy="19.939" rx="19.939" ry="19.939" transform="translate(12970.436 -10333.479)" fill="#ffc94a"/>
    </g>
    <g id="Group_1223019" data-name="Group 1223019" transform="translate(8401.51 -4637.75)">
      <path id="Path_1286726" data-name="Path 1286726" d="M18.2,10.5H.5V58H58.665V10.5Z" fill="#d7deed"/>
      <path id="Path_1286768" data-name="Path 1286768" d="M3.777,10.5H.5V58H11.268V10.5Z" transform="translate(-0.001)" fill="#b9c9eb"/>
      <g id="Group_1223016" data-name="Group 1223016">
        <g id="Group_1223015" data-name="Group 1223015" clip-path="url(#clip-path)">
          <path id="Path_1286727" data-name="Path 1286727" d="M18.2,10.5H.5V58H58.666V10.5Z" fill="none" stroke="#000" stroke-miterlimit="10" stroke-width="1"/>
        </g>
      </g>
      <path id="Path_1286728" data-name="Path 1286728" d="M39.648,36.7l-10.116,10-10.115-10H39.648Z" fill="#1f3442"/>
      <path id="Path_1286729" data-name="Path 1286729" d="M39.648,36.7l-10.116,10-10.115-10H39.648Z" fill="none" stroke="#000" stroke-miterlimit="10" stroke-width="1"/>
      <g id="Group_1223018" data-name="Group 1223018">
        <g id="Group_1223017" data-name="Group 1223017" clip-path="url(#clip-path)">
          <path id="Path_1286730" data-name="Path 1286730" d="M34.591,22.5A15.644,15.644,0,1,1,13.752,37.3,15.582,15.582,0,0,1,24.475,22.5V36.7H19.417l10.115,10,10.117-10H34.591Z" fill="#2f4a5f"/>
          <path id="Path_1286731" data-name="Path 1286731" d="M34.591,22.5A15.644,15.644,0,1,1,13.752,37.3,15.582,15.582,0,0,1,24.475,22.5V36.7H19.417l10.115,10,10.117-10H34.591Z" fill="none" stroke="#000" stroke-miterlimit="10" stroke-width="1"/>
          <path id="Path_1286732" data-name="Path 1286732" d="M58.666,5.5v5H18.2V.5H58.666Z" fill="#414a56"/>
          <path id="Path_1286733" data-name="Path 1286733" d="M58.666,5.5v5H18.2V.5H58.666Z" fill="none" stroke="#000" stroke-miterlimit="10" stroke-width="1"/>
          <rect id="Rectangle_414122" data-name="Rectangle 414122" width="17.703" height="10" transform="translate(0.5 0.5)" fill="#57606f"/>
          <rect id="Rectangle_414123" data-name="Rectangle 414123" width="17.703" height="10" transform="translate(0.5 0.5)" fill="none" stroke="#000" stroke-miterlimit="10" stroke-width="1"/>
          <rect id="Rectangle_414124" data-name="Rectangle 414124" width="2.528" height="2.5" transform="translate(11.83 4.2)"/>
          <rect id="Rectangle_414125" data-name="Rectangle 414125" width="2.529" height="2.5" transform="translate(8.087 4.2)"/>
          <rect id="Rectangle_414126" data-name="Rectangle 414126" width="2.528" height="2.5" transform="translate(4.243 4.2)"/>
          <path id="Path_1286734" data-name="Path 1286734" d="M58.666,6.7h-26.6a1.332,1.332,0,0,1-1.316-1.3,1.332,1.332,0,0,1,1.316-1.3h26.6a1.331,1.331,0,0,1,1.315,1.3,1.406,1.406,0,0,1-1.315,1.3"/>
        </g>
      </g>
    </g>
  </g>
</svg>
