<svg xmlns="http://www.w3.org/2000/svg" xmlns:xlink="http://www.w3.org/1999/xlink" width="95.001" height="95" viewBox="0 0 95.001 95">
  <defs>
    <clipPath id="clip-path">
      <rect id="Rectangle_414098" data-name="Rectangle 414098" width="61.386" height="64.328" fill="none"/>
    </clipPath>
  </defs>
  <g id="Group_1223086" data-name="Group 1223086" transform="translate(-8005.999 4656)">
    <rect id="Rectangle_414065" data-name="Rectangle 414065" width="95" height="95" transform="translate(8006 -4656)" fill="none"/>
    <g id="Group_1222982" data-name="Group 1222982" transform="translate(-4964.437 5681.898)">
      <ellipse id="Ellipse_12935" data-name="Ellipse 12935" cx="27.416" cy="27.416" rx="27.416" ry="27.416" transform="translate(13010.604 -10302.149)" fill="#ffc94a"/>
      <ellipse id="Ellipse_12936" data-name="Ellipse 12936" cx="19.939" cy="19.939" rx="19.939" ry="19.939" transform="translate(12970.436 -10333.479)" fill="#ffc94a"/>
    </g>
    <g id="Group_1223004" data-name="Group 1223004" transform="translate(8022.807 -4640.664)">
      <g id="Group_1223003" data-name="Group 1223003" clip-path="url(#clip-path)">
        <path id="Path_1286658" data-name="Path 1286658" d="M56.628,6A3.244,3.244,0,0,1,59.88,9.216V40.737H1.314V9.216A3.245,3.245,0,0,1,4.568,6Z" transform="translate(0.095 0.433)" fill="#eff3f6"/>
        <path id="Path_1286659" data-name="Path 1286659" d="M48.453,11.2H11.8A5.357,5.357,0,0,0,8,12.808a5.427,5.427,0,0,0-1.626,3.752A5.34,5.34,0,0,0,11.8,21.921H48.345a5.352,5.352,0,0,0,3.8-1.608,5.423,5.423,0,0,0,1.628-3.752A5.314,5.314,0,0,0,48.453,11.2" transform="translate(0.46 0.808)" fill="#d7deed"/>
        <path id="Path_1286660" data-name="Path 1286660" d="M48.453,21.2H11.8A5.357,5.357,0,0,0,8,22.808a5.427,5.427,0,0,0-1.626,3.752A5.34,5.34,0,0,0,11.8,31.921H48.345a5.352,5.352,0,0,0,3.8-1.608,5.423,5.423,0,0,0,1.628-3.752A5.314,5.314,0,0,0,48.453,21.2" transform="translate(0.46 1.529)" fill="#ff7979"/>
        <path id="Path_1286661" data-name="Path 1286661" d="M53.877,6.339A5.354,5.354,0,0,0,48.453,1.3H11.8A5.357,5.357,0,0,0,8,2.908,5.7,5.7,0,0,0,6.373,6.446v.322A5.34,5.34,0,0,0,11.8,12.129h36.55a5.352,5.352,0,0,0,3.8-1.608,5.427,5.427,0,0,0,1.626-3.752.8.8,0,0,0,.109-.429" transform="translate(0.46 0.094)" fill="#ff7979"/>
        <path id="Path_1286662" data-name="Path 1286662" d="M16.281,38.4H1.314v5.79a3.245,3.245,0,0,0,3.254,3.216h52.06A3.244,3.244,0,0,0,59.88,44.19V38.4Z" transform="translate(0.095 2.77)" fill="#57606f"/>
        <rect id="Rectangle_414095" data-name="Rectangle 414095" width="22.342" height="2.68" transform="translate(11.604 26.803)"/>
        <rect id="Rectangle_414096" data-name="Rectangle 414096" width="22.342" height="2.68" transform="translate(11.604 16.082)"/>
        <rect id="Rectangle_414097" data-name="Rectangle 414097" width="22.342" height="2.68" transform="translate(11.604 5.361)"/>
        <path id="Path_1286663" data-name="Path 1286663" d="M28.117,40.8a1.394,1.394,0,1,1-1.411,1.394A1.3,1.3,0,0,1,28.117,40.8" transform="translate(1.926 2.943)"/>
        <path id="Path_1286664" data-name="Path 1286664" d="M45.053,8.374a2.037,2.037,0,1,1,0-4.074,1.983,1.983,0,0,1,2.061,2.037,1.983,1.983,0,0,1-2.061,2.037" transform="translate(3.101 0.31)"/>
        <path id="Path_1286665" data-name="Path 1286665" d="M39.995,8.374a2.037,2.037,0,1,1,0-4.074,1.983,1.983,0,0,1,2.061,2.037,1.983,1.983,0,0,1-2.061,2.037" transform="translate(2.736 0.31)"/>
        <path id="Path_1286666" data-name="Path 1286666" d="M38.085,61.05a1.363,1.363,0,0,1-1.3-.965l-3.9-12.866a1.4,1.4,0,0,1,.867-1.715,1.424,1.424,0,0,1,1.735.858l3.9,12.866a1.4,1.4,0,0,1-.867,1.715.827.827,0,0,1-.434.107" transform="translate(2.368 3.278)"/>
        <path id="Path_1286667" data-name="Path 1286667" d="M18.4,61.05a.828.828,0,0,1-.434-.107,1.315,1.315,0,0,1-.867-1.715l3.9-12.866A1.336,1.336,0,0,1,22.74,45.5a1.315,1.315,0,0,1,.867,1.715L19.7,60.085a1.2,1.2,0,0,1-1.3.965" transform="translate(1.229 3.278)"/>
        <path id="Path_1286668" data-name="Path 1286668" d="M46.174,60.188H12.335a1.394,1.394,0,1,1,0-2.788H46.174a1.394,1.394,0,1,1,0,2.788" transform="translate(0.788 4.141)"/>
        <path id="Path_1286669" data-name="Path 1286669" d="M16.376,39.788H1.409a1.394,1.394,0,1,1,0-2.788H16.268a1.427,1.427,0,0,1,1.41,1.394,1.276,1.276,0,0,1-1.3,1.394" transform="translate(0 2.669)"/>
        <path id="Path_1286670" data-name="Path 1286670" d="M58.968,39.788h-43.6a1.394,1.394,0,1,1,0-2.788h43.6a1.394,1.394,0,1,1,0,2.788" transform="translate(1.007 2.669)"/>
        <path id="Path_1286671" data-name="Path 1286671" d="M13.665,56.388H1.409a1.394,1.394,0,1,1,0-2.788H13.665a1.394,1.394,0,1,1,0,2.788" transform="translate(0 3.866)"/>
        <path id="Path_1286672" data-name="Path 1286672" d="M6.833,52.688H1.409a1.394,1.394,0,1,1,0-2.788H6.833a1.394,1.394,0,1,1,0,2.788" transform="translate(0 3.6)"/>
        <path id="Path_1286673" data-name="Path 1286673" d="M56.65,56.388H44.395a1.336,1.336,0,0,1-1.3-1.394,1.411,1.411,0,0,1,1.3-1.394H56.65a1.394,1.394,0,1,1,0,2.788" transform="translate(3.109 3.866)"/>
        <path id="Path_1286674" data-name="Path 1286674" d="M56.11,52.688H51.989a1.394,1.394,0,1,1,0-2.788H56.11a1.428,1.428,0,0,1,1.41,1.394,1.507,1.507,0,0,1-1.41,1.394" transform="translate(3.649 3.6)"/>
        <path id="Path_1286675" data-name="Path 1286675" d="M56.715,51.123H4.656A4.557,4.557,0,0,1,.1,46.62V9.31a4.557,4.557,0,0,1,4.556-4.5h2.17A1.427,1.427,0,0,1,8.234,6.2,1.427,1.427,0,0,1,6.826,7.595H4.656A1.889,1.889,0,0,0,2.813,9.417v37.31A1.889,1.889,0,0,0,4.656,48.55h52.06a1.889,1.889,0,0,0,1.843-1.823V9.31a1.889,1.889,0,0,0-1.843-1.823H54.22a1.428,1.428,0,0,1-1.411-1.394A1.428,1.428,0,0,1,54.22,4.7h2.495A4.556,4.556,0,0,1,61.27,9.2v37.31a4.511,4.511,0,0,1-4.554,4.61" transform="translate(0.007 0.339)"/>
        <path id="Path_1286676" data-name="Path 1286676" d="M48.548,13.4a1.394,1.394,0,1,1,0-2.788,4.416,4.416,0,0,0,2.928-1.179A4.12,4.12,0,0,0,52.67,6.54V6.326a4.033,4.033,0,0,0-4.013-3.86H11.891A4.421,4.421,0,0,0,8.962,3.645a4.085,4.085,0,0,0-1.192,2.68V6.54a4.1,4.1,0,0,0,4.121,4.074,1.394,1.394,0,1,1,0,2.788A6.835,6.835,0,0,1,5.058,6.647V6.326A6.6,6.6,0,0,1,7.01,1.93,6.769,6.769,0,0,1,11.781,0H48.44a6.663,6.663,0,0,1,6.724,6.326v.322a6.893,6.893,0,0,1-1.951,4.717A6.45,6.45,0,0,1,48.548,13.4" transform="translate(0.365)"/>
        <path id="Path_1286677" data-name="Path 1286677" d="M45.053,18.374a2.048,2.048,0,0,1-2.061-2.037,2.061,2.061,0,1,1,2.061,2.037" transform="translate(3.101 1.032)"/>
        <path id="Path_1286678" data-name="Path 1286678" d="M39.995,18.374a2.048,2.048,0,0,1-2.061-2.037,2.061,2.061,0,1,1,2.061,2.037" transform="translate(2.736 1.032)"/>
        <path id="Path_1286679" data-name="Path 1286679" d="M48.548,23.4a1.394,1.394,0,1,1,0-2.788,4.416,4.416,0,0,0,2.928-1.179,4.083,4.083,0,0,0-2.928-6.969H11.891a4.421,4.421,0,0,0-2.929,1.179,4.085,4.085,0,0,0,2.929,6.969,1.394,1.394,0,1,1,0,2.788,6.835,6.835,0,0,1-6.833-6.754A6.885,6.885,0,0,1,7.01,11.93,6.586,6.586,0,0,1,11.781,10H48.44a6.835,6.835,0,0,1,6.833,6.754,6.89,6.89,0,0,1-1.952,4.717,7.267,7.267,0,0,1-4.772,1.93" transform="translate(0.365 0.721)"/>
        <path id="Path_1286680" data-name="Path 1286680" d="M45.053,28.374a2.048,2.048,0,0,1-2.061-2.037,2.061,2.061,0,1,1,2.061,2.037" transform="translate(3.101 1.753)"/>
        <path id="Path_1286681" data-name="Path 1286681" d="M39.995,28.374a2.048,2.048,0,0,1-2.061-2.037,2.061,2.061,0,1,1,2.061,2.037" transform="translate(2.736 1.753)"/>
        <path id="Path_1286682" data-name="Path 1286682" d="M48.548,33.4H11.891A6.732,6.732,0,0,1,7.01,21.93,6.769,6.769,0,0,1,11.781,20h36.55a6.7,6.7,0,1,1,.217,13.4M11.891,22.68A4.416,4.416,0,0,0,8.963,23.86a4.084,4.084,0,0,0,2.928,6.969H48.548a4.421,4.421,0,0,0,2.929-1.179,4.084,4.084,0,0,0-2.929-6.969Z" transform="translate(0.365 1.443)"/>
      </g>
    </g>
  </g>
</svg>
