<svg xmlns="http://www.w3.org/2000/svg" xmlns:xlink="http://www.w3.org/1999/xlink" width="95.001" height="95" viewBox="0 0 95.001 95">
  <defs>
    <clipPath id="clip-path">
      <rect id="Rectangle_414147" data-name="Rectangle 414147" width="74.956" height="78.13" fill="none"/>
    </clipPath>
  </defs>
  <g id="Group_1223047" data-name="Group 1223047" transform="translate(249 4732)">
    <rect id="Rectangle_414158" data-name="Rectangle 414158" width="95" height="95" transform="translate(-249 -4732)" fill="none"/>
    <g id="Group_1223039" data-name="Group 1223039" transform="translate(-13219.436 5605.479)">
      <ellipse id="Ellipse_12935" data-name="Ellipse 12935" cx="27.416" cy="27.416" rx="27.416" ry="27.416" transform="translate(13010.604 -10302.149)" fill="#7fe5cf"/>
      <ellipse id="Ellipse_12936" data-name="Ellipse 12936" cx="19.939" cy="19.939" rx="19.939" ry="19.939" transform="translate(12970.436 -10333.479)" fill="#7fe5cf"/>
    </g>
    <g id="Group_1223030" data-name="Group 1223030" transform="translate(-243 -4728)">
      <g id="Group_1223029" data-name="Group 1223029" transform="translate(4.268 0)" clip-path="url(#clip-path)">
        <path id="Path_1286798" data-name="Path 1286798" d="M68.861,10.485H5.225A4.362,4.362,0,0,0,.807,14.9V62.113A4.361,4.361,0,0,0,5.225,66.53H68.861a4.361,4.361,0,0,0,4.417-4.417V14.9a4.36,4.36,0,0,0-4.417-4.418" transform="translate(0.298 3.87)" fill="#7d89aa"/>
        <rect id="Rectangle_414146" data-name="Rectangle 414146" width="62.256" height="40.584" transform="translate(6.35 19.601)" fill="#fff"/>
        <path id="Path_1286799" data-name="Path 1286799" d="M37.575,22.483V45.812H29.843V25.105Z" transform="translate(11.016 8.299)" fill="#e83a70"/>
        <path id="Path_1286800" data-name="Path 1286800" d="M26.281,26.314V44.4h-7.73V28.8Z" transform="translate(6.848 9.713)" fill="#e83a70"/>
        <path id="Path_1286801" data-name="Path 1286801" d="M43.357,20.568V46.52H35.49V23.191Z" transform="translate(13.101 7.592)" fill="#ff5987"/>
        <path id="Path_1286802" data-name="Path 1286802" d="M31.928,24.4V45.106H24.2V27.021Z" transform="translate(8.932 9.006)" fill="#ff5987"/>
        <path id="Path_1286804" data-name="Path 1286804" d="M50.367,52.485a3.322,3.322,0,0,1,.967,2.485,3.417,3.417,0,0,1-3.45,3.452H16.963a3.968,3.968,0,0,1-2.485-.967,3.127,3.127,0,0,1-.967-2.485,3.416,3.416,0,0,1,3.452-3.45H48.02a3.025,3.025,0,0,1,2.347.965" transform="translate(4.987 19.018)" fill="#5c6887"/>
        <path id="Path_1286805" data-name="Path 1286805" d="M20.673,28.129v15.6H12.8V30.751Z" transform="translate(4.727 10.383)" fill="#ff5987"/>
        <path id="Path_1286809" data-name="Path 1286809" d="M27.807,46.479a1.794,1.794,0,1,0,0,3.589,1.5,1.5,0,0,0,1.242-.552,1.75,1.75,0,0,0,0-2.485,1.5,1.5,0,0,0-1.242-.552" transform="translate(9.602 17.157)"/>
        <path id="Path_1286814" data-name="Path 1286814" d="M67.117,13.711H4.863a.892.892,0,0,0-.83.828V55.124a.892.892,0,0,0,.83.828H67.117a.892.892,0,0,0,.828-.828V14.539a.732.732,0,0,0-.828-.828m-.828,40.446H5.69V15.368h60.6Z" transform="translate(1.489 5.061)"/>
        <path id="Path_1286815" data-name="Path 1286815" d="M69.047,9.88H5.548A5.244,5.244,0,0,0,.3,15.127V62.336a5.243,5.243,0,0,0,5.245,5.245H18.387a4.4,4.4,0,0,0,.415,5.66,4.279,4.279,0,0,0,3.037,1.243H52.9a4.3,4.3,0,0,0,4.28-4.28,4.549,4.549,0,0,0-.828-2.623H69.186a5.243,5.243,0,0,0,5.245-5.245V15.127A5.276,5.276,0,0,0,69.047,9.88M55.382,70.343a2.621,2.621,0,0,1-2.623,2.622H21.838a2.623,2.623,0,1,1,0-5.245H52.9a2.509,2.509,0,0,1,2.486,2.623m17.254-8.007a3.655,3.655,0,0,1-3.589,3.59H5.548a3.655,3.655,0,0,1-3.589-3.59V15.127a3.654,3.654,0,0,1,3.589-3.589H69.186a3.654,3.654,0,0,1,3.589,3.589V62.336Z" transform="translate(0.112 3.647)"/>
        <path id="Path_1286816" data-name="Path 1286816" d="M13.028,47.578H51.817a.889.889,0,0,0,.828-.827V20.8a.884.884,0,0,0-1.1-.828c-3.865,1.242-34.51,11.457-38.789,12.975a.758.758,0,0,0-.553.828V46.751a.889.889,0,0,0,.828.827M50.99,45.922H44.915V24.112L50.99,22.04Zm-7.732,0H37.185V26.6l6.073-2.07Zm-7.73,0H29.455V29.357l6.073-2.072Zm-7.73,0H21.725V31.842L27.8,29.771Zm-13.8-11.458,6.075-2.07V45.922H13.995Z" transform="translate(4.503 7.361)"/>
        <path id="Path_1286817" data-name="Path 1286817" d="M13.881,30.831l33.681-11.32a.872.872,0,1,0-.552-1.655L13.466,29.174a.94.94,0,0,0-.552,1.1.785.785,0,0,0,.967.552" transform="translate(4.754 6.578)"/>
      </g>
    </g>
  </g>
</svg>
