<svg xmlns="http://www.w3.org/2000/svg" xmlns:xlink="http://www.w3.org/1999/xlink" width="95.001" height="95" viewBox="0 0 95.001 95">
  <defs>
    <clipPath id="clip-path">
      <rect id="Rectangle_414149" data-name="Rectangle 414149" width="72.673" height="75.751" fill="none"/>
    </clipPath>
  </defs>
  <g id="Group_1223048" data-name="Group 1223048" transform="translate(123 4732)">
    <rect id="Rectangle_414162" data-name="Rectangle 414162" width="95" height="95" transform="translate(-123 -4732)" fill="none"/>
    <g id="Group_1223043" data-name="Group 1223043" transform="translate(-13093.436 5605.479)">
      <ellipse id="Ellipse_12935" data-name="Ellipse 12935" cx="27.416" cy="27.416" rx="27.416" ry="27.416" transform="translate(13010.604 -10302.149)" fill="#7fe5cf"/>
      <ellipse id="Ellipse_12936" data-name="Ellipse 12936" cx="19.939" cy="19.939" rx="19.939" ry="19.939" transform="translate(12970.436 -10333.479)" fill="#7fe5cf"/>
    </g>
    <g id="Group_1223032" data-name="Group 1223032" transform="translate(-111.836 -4722.794)">
      <g id="Group_1223031" data-name="Group 1223031" transform="translate(0 0)" clip-path="url(#clip-path)">
        <path id="Path_1286818" data-name="Path 1286818" d="M71.172,14.769V60.54a4.228,4.228,0,0,1-4.282,4.284H5.191A4.228,4.228,0,0,1,.907,60.54V14.769a4.229,4.229,0,0,1,4.284-4.284h61.7a4.4,4.4,0,0,1,4.282,4.284" transform="translate(0.297 3.433)" fill="#7d89aa"/>
        <rect id="Rectangle_414148" data-name="Rectangle 414148" width="60.361" height="39.347" transform="translate(6.155 19.005)" fill="#fff"/>
        <path id="Path_1286821" data-name="Path 1286821" d="M49.245,52.457a3.225,3.225,0,0,1,.937,2.408,3.314,3.314,0,0,1-3.347,3.348H16.857a3.85,3.85,0,0,1-2.409-.937,3.039,3.039,0,0,1-.937-2.411,3.312,3.312,0,0,1,3.347-3.344H46.97a2.934,2.934,0,0,1,2.275.936" transform="translate(4.424 16.87)" fill="#5c6887"/>
        <path id="Path_1286822" data-name="Path 1286822" d="M29.3,11.8a8.03,8.03,0,1,1-8.03,8.031A8.055,8.055,0,0,1,29.3,11.8m3.881,8.031A3.881,3.881,0,1,0,29.3,23.709a3.885,3.885,0,0,0,3.881-3.881" transform="translate(6.966 3.862)" fill="#fc6"/>
        <path id="Path_1286823" data-name="Path 1286823" d="M52.883,20.922V24.8l-5.889,1.338a13.407,13.407,0,0,1-2.007,4.685L48.2,35.912l-2.812,2.81L40.3,35.511a15.956,15.956,0,0,1-4.683,2.007l-1.205,5.756H30.4l-1.338-5.889a13.455,13.455,0,0,1-4.685-2.008l-5.085,3.212-2.81-2.81,3.211-5.087a16.043,16.043,0,0,1-2.007-4.683L11.8,24.671V20.789l5.889-1.339c.134-.535.268-.937.4-1.471a15.406,15.406,0,0,1,1.6-3.347l-1.07-1.74L16.615,9.814,19.425,7l5.085,3.212a16,16,0,0,1,4.685-2.008l1.338-5.889h3.881l1.338,5.889a13.434,13.434,0,0,1,4.685,2.008L45.523,7l2.812,2.81L46.192,13.16,45.122,14.9a15.44,15.44,0,0,1,1.606,3.347c.133.4.267.937.4,1.472ZM40.437,22.93a8.03,8.03,0,1,0-8.03,8.03,8.054,8.054,0,0,0,8.03-8.03" transform="translate(3.863 0.759)" fill="#ff5987"/>
        <path id="Path_1286826" data-name="Path 1286826" d="M26.548,46.9a1.69,1.69,0,0,0-.536,1.2,1.74,1.74,0,1,0,3.479,0,1.452,1.452,0,0,0-.536-1.2,1.694,1.694,0,0,0-2.407,0" transform="translate(8.518 15.195)"/>
        <path id="Path_1286831" data-name="Path 1286831" d="M28.479,23.685A4.685,4.685,0,1,0,23.794,19a4.742,4.742,0,0,0,4.685,4.685m0-7.763A3.078,3.078,0,1,1,25.4,19a3.113,3.113,0,0,1,3.078-3.078" transform="translate(7.791 4.687)"/>
        <path id="Path_1286832" data-name="Path 1286832" d="M29.5,28.858a8.834,8.834,0,1,0-8.833-8.833A8.825,8.825,0,0,0,29.5,28.858m0-16.061a7.227,7.227,0,1,1-7.227,7.228A7.2,7.2,0,0,1,29.5,12.8" transform="translate(6.768 3.664)"/>
        <path id="Path_1286833" data-name="Path 1286833" d="M66.952,12.521H51.427l1.338-2.007a.83.83,0,0,0-.133-1.071l-2.812-2.81a1.008,1.008,0,0,0-1.07-.134L44.067,9.443a10.576,10.576,0,0,0-4.016-1.606l-1.2-5.354a.85.85,0,0,0-.8-.669H34.163a.848.848,0,0,0-.8.669l-1.2,5.354A18,18,0,0,0,28.14,9.443L23.455,6.5a.828.828,0,0,0-1.07.134l-2.812,2.81a1.013,1.013,0,0,0-.133,1.071l1.338,2.007H5.389A5.084,5.084,0,0,0,.3,17.608V63.379a5.084,5.084,0,0,0,5.087,5.087H17.835a4.27,4.27,0,0,0,.4,5.488,4.159,4.159,0,0,0,2.946,1.2H51.295a4.171,4.171,0,0,0,4.148-4.15,4.409,4.409,0,0,0-.8-2.542H67.087a5.084,5.084,0,0,0,5.085-5.087V17.608a5.115,5.115,0,0,0-5.221-5.087M15.56,25.9l5.354,1.205a17.9,17.9,0,0,0,1.606,4.016l-2.946,4.683a.847.847,0,0,0,.135.937l2.81,2.81a1.007,1.007,0,0,0,1.07.134l4.685-2.944a10.567,10.567,0,0,0,4.016,1.606l1.2,5.354a.85.85,0,0,0,.8.669h3.881a.85.85,0,0,0,.8-.669l1.2-5.354A18.03,18.03,0,0,0,44.2,36.746l4.685,2.944a.829.829,0,0,0,1.07-.134l2.81-2.81a1.01,1.01,0,0,0,.134-1.071l-2.944-4.683a10.554,10.554,0,0,0,1.606-4.016l5.354-1.205a.847.847,0,0,0,.669-.8v-3.88a.848.848,0,0,0-.669-.8L52.1,19.213H65.748v37.61H6.86V19.213H20.377L15.56,20.284a.847.847,0,0,0-.669.8v3.88a1,1,0,0,0,.669.937M23.189,8.372l4.551,2.812a1.139,1.139,0,0,0,.936,0,16.306,16.306,0,0,1,4.418-1.874,1.1,1.1,0,0,0,.668-.669l1.205-5.22h2.543l1.2,5.22a1.1,1.1,0,0,0,.669.669A12.959,12.959,0,0,1,43.8,11.183a1.142,1.142,0,0,0,.937,0l4.55-2.812,1.873,1.874L48.349,14.8a1.152,1.152,0,0,0,0,.937,12.929,12.929,0,0,1,1.472,3.078c.134.4.268.8.4,1.338a1.094,1.094,0,0,0,.669.669l5.22,1.205v2.542l-5.22,1.2a1.1,1.1,0,0,0-.669.67,12.97,12.97,0,0,1-1.874,4.416,1.149,1.149,0,0,0,0,.936l2.81,4.551-1.873,1.874-4.55-2.81a1.142,1.142,0,0,0-.937,0,14.179,14.179,0,0,1-4.416,1.873,1.1,1.1,0,0,0-.669.669l-1.2,5.22H34.966L33.76,37.95a1.1,1.1,0,0,0-.668-.669,12.974,12.974,0,0,1-4.418-1.873,1.139,1.139,0,0,0-.936,0l-4.551,2.81-1.874-1.874,2.812-4.551a1.149,1.149,0,0,0,0-.936,14.151,14.151,0,0,1-1.874-4.416,1.1,1.1,0,0,0-.669-.67l-5.22-1.2V22.025l5.22-1.205a1.1,1.1,0,0,0,.669-.669c.134-.4.268-.937.4-1.338a12.984,12.984,0,0,1,1.473-3.078,1.153,1.153,0,0,0,0-.937c-.8-1.2,0,0-2.812-4.551ZM53.7,71.142a2.541,2.541,0,0,1-2.543,2.543H21.181a2.543,2.543,0,1,1,0-5.086H51.295A2.431,2.431,0,0,1,53.7,71.142m16.73-7.763a3.544,3.544,0,0,1-3.481,3.481H5.389a3.544,3.544,0,0,1-3.481-3.481V17.608a3.544,3.544,0,0,1,3.481-3.481H22.117l.535.937q-.6,1.2-1.2,2.408H6.056a.865.865,0,0,0-.8.8V57.624a.864.864,0,0,0,.8.8H66.417a.863.863,0,0,0,.8-.8V18.41a.862.862,0,0,0-.8-.8H50.892A10.122,10.122,0,0,0,49.687,15.2l.536-.937H66.952a3.543,3.543,0,0,1,3.481,3.479Z" transform="translate(0.099 0.593)"/>
        <path id="Path_1286834" data-name="Path 1286834" d="M39.519,38h9.234a.8.8,0,0,0,0-1.606H39.519a.864.864,0,0,0-.8.806.771.771,0,0,0,.8.8" transform="translate(12.678 11.918)"/>
        <path id="Path_1286835" data-name="Path 1286835" d="M39.519,41.128h9.234a.8.8,0,0,0,0-1.606H39.519a.863.863,0,0,0-.8.8.772.772,0,0,0,.8.8" transform="translate(12.678 12.941)"/>
        <path id="Path_1286836" data-name="Path 1286836" d="M7.763,37.2a.863.863,0,0,0,.8.8H17.8a.8.8,0,1,0,0-1.6H8.566a.772.772,0,0,0-.8.8" transform="translate(2.542 11.918)"/>
        <path id="Path_1286837" data-name="Path 1286837" d="M17.8,39.522H8.566a.8.8,0,0,0,0,1.608H17.8a.865.865,0,0,0,.8-.8.772.772,0,0,0-.8-.8" transform="translate(2.542 12.941)"/>
      </g>
    </g>
  </g>
</svg>
