<svg xmlns="http://www.w3.org/2000/svg" xmlns:xlink="http://www.w3.org/1999/xlink" width="95.001" height="95" viewBox="0 0 95.001 95">
  <defs>
    <clipPath id="clip-path">
      <rect id="Rectangle_414183" data-name="Rectangle 414183" width="86.825" height="82.458" fill="none"/>
    </clipPath>
  </defs>
  <g id="Group_1223075" data-name="Group 1223075" transform="translate(134 8081)">
    <rect id="Rectangle_414165" data-name="Rectangle 414165" width="95" height="95" transform="translate(-134 -8081)" fill="none"/>
    <g id="Group_1223053" data-name="Group 1223053" transform="translate(-13104.436 2256.479)">
      <ellipse id="Ellipse_12935" data-name="Ellipse 12935" cx="27.416" cy="27.416" rx="27.416" ry="27.416" transform="translate(13010.604 -10302.149)" fill="#7fe5cf"/>
      <ellipse id="Ellipse_12936" data-name="Ellipse 12936" cx="19.939" cy="19.939" rx="19.939" ry="19.939" transform="translate(12970.436 -10333.479)" fill="#7fe5cf"/>
    </g>
    <g id="Group_1223062" data-name="Group 1223062" transform="translate(-130 -8075)">
      <g id="Group_1223061" data-name="Group 1223061" transform="translate(0 0)" clip-path="url(#clip-path)">
        <path id="Path_1286922" data-name="Path 1286922" d="M3.025,65.745V20.62A6.305,6.305,0,0,1,9.409,14.3H74.427a6.305,6.305,0,0,1,6.384,6.32V65.745Z" transform="translate(1.421 6.719)" fill="#57606f"/>
        <path id="Path_1286923" data-name="Path 1286923" d="M3.025,65.745V20.62A6.305,6.305,0,0,1,9.409,14.3H74.427a6.305,6.305,0,0,1,6.384,6.32V65.745Z" transform="translate(1.421 6.719)" fill="none" stroke="#000" stroke-miterlimit="10" stroke-width="1"/>
        <path id="Path_1286924" data-name="Path 1286924" d="M8.075,19.3V63.4H71.163V19.3Z" transform="translate(3.794 9.068)" fill="#ecf0f1"/>
        <path id="Path_1286925" data-name="Path 1286925" d="M8.075,19.3V63.4H71.163V19.3Z" transform="translate(3.794 9.068)" fill="none" stroke="#000" stroke-miterlimit="10" stroke-width="1"/>
        <path id="Path_1286926" data-name="Path 1286926" d="M35.131,39.439a2.5,2.5,0,1,0,2.524,2.5,2.49,2.49,0,0,0-2.524-2.5m17.813,2.5a17.391,17.391,0,0,1-4.6,11.759H21.92a21,21,0,0,1-2.078-2.94,17.569,17.569,0,0,1,0-17.638,19.517,19.517,0,0,1,6.532-6.466,18.031,18.031,0,0,1,17.813,0,17.509,17.509,0,0,1,8.757,15.285" transform="translate(8.207 11.418)" fill="#4e679b"/>
        <path id="Path_1286927" data-name="Path 1286927" d="M46.142,41.8a2.793,2.793,0,1,1,0,5.585,2.716,2.716,0,0,1-2.821-2.793A2.9,2.9,0,0,1,46.142,41.8" transform="translate(20.354 19.64)" fill="#193772"/>
        <path id="Path_1286928" data-name="Path 1286928" d="M14.633,23a2.8,2.8,0,0,1,2.819,2.793,2.716,2.716,0,0,1-2.819,2.793,2.793,2.793,0,1,1,0-5.585" transform="translate(5.549 10.807)" fill="#193772"/>
        <path id="Path_1286929" data-name="Path 1286929" d="M82.144,49.3h3.711A9.268,9.268,0,0,1,76.5,58.56H9.7a9.37,9.37,0,0,1-6.532-2.646A9.189,9.189,0,0,1,.5,49.448H82.144Z" transform="translate(0.235 23.164)" fill="#3c3b3d"/>
        <path id="Path_1286930" data-name="Path 1286930" d="M82.144,49.3h3.711A9.268,9.268,0,0,1,76.5,58.56H9.7a9.37,9.37,0,0,1-6.532-2.646A9.189,9.189,0,0,1,.5,49.448H82.144Z" transform="translate(0.235 23.164)" fill="none" stroke="#000" stroke-miterlimit="10" stroke-width="1"/>
        <path id="Path_1286931" data-name="Path 1286931" d="M47.3.5A10.213,10.213,0,0,1,57.545,10.642a10.243,10.243,0,0,1-20.485,0A10.212,10.212,0,0,1,47.3.5" transform="translate(17.412 0.235)" fill="#ef727a"/>
        <path id="Path_1286932" data-name="Path 1286932" d="M47.3.5A10.213,10.213,0,0,1,57.545,10.642a10.243,10.243,0,0,1-20.485,0A10.212,10.212,0,0,1,47.3.5Z" transform="translate(17.412 0.235)" fill="none" stroke="#000" stroke-miterlimit="10" stroke-width="1"/>
        <path id="Path_1286933" data-name="Path 1286933" d="M19.529.5A10.213,10.213,0,0,1,29.771,10.642a10.243,10.243,0,0,1-20.485,0A10.213,10.213,0,0,1,19.529.5" transform="translate(4.363 0.235)" fill="#80af52"/>
        <path id="Path_1286934" data-name="Path 1286934" d="M19.529.5A10.213,10.213,0,0,1,29.771,10.642a10.243,10.243,0,0,1-20.485,0A10.213,10.213,0,0,1,19.529.5Z" transform="translate(4.363 0.235)" fill="none" stroke="#000" stroke-miterlimit="10" stroke-width="1"/>
        <path id="Path_1286935" data-name="Path 1286935" d="M45.274,26.088a1.852,1.852,0,0,1,.594,1.321,1.428,1.428,0,0,1-.594,1.324,1.889,1.889,0,0,1-1.336.586,1.954,1.954,0,0,1-1.93-1.911,1.586,1.586,0,0,1,.594-1.321,1.89,1.89,0,0,1,1.336-.588,1.45,1.45,0,0,1,1.336.588" transform="translate(19.737 11.982)"/>
        <path id="Path_1286936" data-name="Path 1286936" d="M14.977,43.588a1.852,1.852,0,0,1,.594,1.321,1.592,1.592,0,0,1-.594,1.324,2.22,2.22,0,0,1-1.336.586,1.954,1.954,0,0,1-1.93-1.911,1.586,1.586,0,0,1,.594-1.321A2.221,2.221,0,0,1,13.641,43a1.45,1.45,0,0,1,1.336.588" transform="translate(5.502 20.204)"/>
        <path id="Path_1286937" data-name="Path 1286937" d="M30.1,31.131a1.955,1.955,0,0,1-1.93-1.911v-4.41a1.93,1.93,0,0,1,3.86,0v4.41a1.862,1.862,0,0,1-1.93,1.911" transform="translate(13.236 10.76)"/>
        <path id="Path_1286940" data-name="Path 1286940" d="M43.645,38.675H39.191a1.955,1.955,0,0,1-1.93-1.911A1.833,1.833,0,0,1,39.191,35h4.454a1.955,1.955,0,0,1,1.93,1.911,1.833,1.833,0,0,1-1.93,1.764" transform="translate(17.507 16.445)"/>
        <path id="Path_1286943" data-name="Path 1286943" d="M22.437,38.675H17.983a1.955,1.955,0,0,1-1.93-1.911A1.833,1.833,0,0,1,17.983,35h4.454a1.955,1.955,0,0,1,1.93,1.911,1.833,1.833,0,0,1-1.93,1.764" transform="translate(7.542 16.445)"/>
        <path id="Path_1286946" data-name="Path 1286946" d="M30.292,34.6a2.49,2.49,0,0,0-2.524,2.5,2.524,2.524,0,1,0,2.524-2.5m0,2.94a.588.588,0,1,1,.594-.586.634.634,0,0,1-.594.586" transform="translate(13.047 16.257)"/>
        <path id="Path_1286947" data-name="Path 1286947" d="M42.008,14.853a1.828,1.828,0,0,1-1.336-.588,1.85,1.85,0,0,1,0-2.646L48.39,3.976a1.9,1.9,0,0,1,2.672,0,1.848,1.848,0,0,1,0,2.644l-7.718,7.645a1.83,1.83,0,0,1-1.336.588" transform="translate(18.848 1.61)"/>
        <path id="Path_1286948" data-name="Path 1286948" d="M49.726,14.853a1.828,1.828,0,0,1-1.336-.588L40.671,6.62a1.851,1.851,0,0,1,0-2.644,1.9,1.9,0,0,1,2.672,0l7.72,7.643a1.85,1.85,0,0,1,0,2.646,1.828,1.828,0,0,1-1.336.588" transform="translate(18.848 1.61)"/>
        <path id="Path_1286949" data-name="Path 1286949" d="M15.343,12.858a1.827,1.827,0,0,1-1.633-1.029L12.077,8.595a1.806,1.806,0,0,1,.891-2.5,1.84,1.84,0,0,1,2.524.882l.891,1.617,5.938-2.94a1.966,1.966,0,0,1,2.522.882,1.931,1.931,0,0,1-.889,2.5l-7.571,3.675a3.375,3.375,0,0,1-1.039.147" transform="translate(5.58 2.576)"/>
      </g>
    </g>
  </g>
</svg>
