<svg xmlns="http://www.w3.org/2000/svg" xmlns:xlink="http://www.w3.org/1999/xlink" width="95.001" height="95" viewBox="0 0 95.001 95">
  <defs>
    <clipPath id="clip-path">
      <rect id="Rectangle_414157" data-name="Rectangle 414157" width="83.855" height="81.895" fill="none"/>
    </clipPath>
  </defs>
  <g id="Group_1223051" data-name="Group 1223051" transform="translate(-265 4732)">
    <rect id="Rectangle_414159" data-name="Rectangle 414159" width="95" height="95" transform="translate(265 -4732)" fill="none"/>
    <g id="Group_1223040" data-name="Group 1223040" transform="translate(-12705.436 5605.479)">
      <ellipse id="Ellipse_12935" data-name="Ellipse 12935" cx="27.416" cy="27.416" rx="27.416" ry="27.416" transform="translate(13010.604 -10302.149)" fill="#7fe5cf"/>
      <ellipse id="Ellipse_12936" data-name="Ellipse 12936" cx="19.939" cy="19.939" rx="19.939" ry="19.939" transform="translate(12970.436 -10333.479)" fill="#7fe5cf"/>
    </g>
    <g id="Group_1223038" data-name="Group 1223038" transform="translate(270 -4726)">
      <g id="Group_1223037" data-name="Group 1223037" transform="translate(0 0)" clip-path="url(#clip-path)">
        <path id="Path_1286883" data-name="Path 1286883" d="M55.631,64.573a6.6,6.6,0,0,1-6.637,6.636H17.021a6.6,6.6,0,0,1-6.636-6.636V14.8a6.6,6.6,0,0,1,6.636-6.637H48.844A6.6,6.6,0,0,1,55.478,14.8c.153,3.619.153,47.205.153,49.769" transform="translate(5.15 4.05)" fill="#d0dce7"/>
        <path id="Path_1286886" data-name="Path 1286886" d="M53.814,21.421a4.733,4.733,0,0,1,0,6.636L51.1,30.772l-3.318-3.318-3.318-3.319,2.715-2.714a4.733,4.733,0,0,1,6.636,0" transform="translate(22.048 9.95)" fill="#ff5987"/>
        <path id="Path_1286887" data-name="Path 1286887" d="M34.665,39.62l1.357,5.43-7.994,1.357,1.36-7.994Z" transform="translate(13.898 19.049)" fill="#ffe2b6"/>
        <path id="Path_1286888" data-name="Path 1286888" d="M57.2,28.322,44.682,40.84,33.822,51.7l-1.357-5.43L53.73,25Z" transform="translate(16.098 12.4)" fill="#f90"/>
        <path id="Path_1286889" data-name="Path 1286889" d="M55.479,26.1,34.214,47.369l-5.277-1.207L46.431,28.517l5.731-5.731Z" transform="translate(14.349 11.3)" fill="#fc6"/>
        <path id="Path_1286890" data-name="Path 1286890" d="M44.234,15.691l.151.3H16.031l.151-.3a20.771,20.771,0,0,1,3.62-4.525A14.743,14.743,0,0,1,27.041,7.7a3.605,3.605,0,0,1-.754-2.111,3.77,3.77,0,1,1,7.541,0A3.6,3.6,0,0,1,33.073,7.7a14.754,14.754,0,0,1,7.24,3.469,18.432,18.432,0,0,1,3.921,4.525" transform="translate(7.949 0.901)" fill="#7d89aa"/>
        <path id="Path_1286898" data-name="Path 1286898" d="M63.771,30.167c-1.206,1.207-6.334,6.334-6.936,6.938V18.253a7.724,7.724,0,0,0-7.692-7.692H43.864A16.087,16.087,0,0,0,37.68,7.394a5.306,5.306,0,0,0,.3-1.508,4.675,4.675,0,1,0-9.351,0,4.5,4.5,0,0,0,.3,1.508,16.1,16.1,0,0,0-6.182,3.167H17.471a7.723,7.723,0,0,0-7.69,7.692V68.022a7.723,7.723,0,0,0,7.69,7.692H49.294a7.723,7.723,0,0,0,7.69-7.692V53.092c1.66-1.659,13.725-13.725,14.932-14.93a5.557,5.557,0,0,0,0-7.994,5.734,5.734,0,0,0-8.145,0M39.19,57.917l3.77.905.905,3.771-5.731,1.055Zm4.223-.754-3.167-.754c.9-.905,17.042-17.043,21.415-21.417l1.961,1.961ZM30.442,8.9a1,1,0,0,0,.754-.6.71.71,0,0,0-.151-.905,3.038,3.038,0,0,1-.452-1.659,2.864,2.864,0,0,1,2.866-2.866,2.774,2.774,0,0,1,2.865,2.866,3.039,3.039,0,0,1-.453,1.659,1,1,0,0,0-.151.905,1.514,1.514,0,0,0,.755.6,15.115,15.115,0,0,1,9.651,6.335H20.789A12.982,12.982,0,0,1,23.5,12.22,16.5,16.5,0,0,1,30.442,8.9m24.583,59.12a5.73,5.73,0,0,1-5.731,5.732H17.322a5.729,5.729,0,0,1-5.731-5.732V18.253a5.727,5.727,0,0,1,5.731-5.731h3.316a22.786,22.786,0,0,0-2.262,3.016l-.151.3a.969.969,0,0,0,0,.905.829.829,0,0,0,.755.452H47.333a.829.829,0,0,0,.754-.452.96.96,0,0,0,0-.905l-.151-.3a21.591,21.591,0,0,0-2.111-3.016h3.318a5.728,5.728,0,0,1,5.731,5.731V38.915L37.68,56.107v.151a.148.148,0,0,1-.151.151v.151s-1.055,6.334-1.357,8.144a.9.9,0,0,0,1.056,1.056c8.748-1.508,7.994-1.357,8.145-1.357h.15a.148.148,0,0,0,.151-.151l9.2-9.2Zm-9.5-6.334-.754-3.167,20.209-20.36,1.961,1.96ZM70.409,36.8l-1.961,1.961c-1.357-1.358-3.469-3.469-5.279-5.279l1.961-1.961A3.733,3.733,0,1,1,70.409,36.8" transform="translate(4.85 0.601)"/>
        <path id="Path_1286899" data-name="Path 1286899" d="M23.791,16.446l-6.033,6.033-2.715-2.715a1.123,1.123,0,0,0-1.357,0,1.125,1.125,0,0,0,0,1.358L17,24.438a1.147,1.147,0,0,0,.6.3.785.785,0,0,0,.6-.3L24.847,17.8a1.127,1.127,0,0,0,0-1.357c0-.453-.6-.453-1.056,0" transform="translate(6.674 7.987)"/>
        <path id="Path_1286900" data-name="Path 1286900" d="M23.5,22.579H39.485a.905.905,0,0,0,0-1.81H23.5a.974.974,0,0,0-.908.905c-.15.452.3.905.908.905" transform="translate(11.189 10.3)"/>
        <path id="Path_1286901" data-name="Path 1286901" d="M23.5,19.454H35.716a.905.905,0,0,0,0-1.81H23.5a.974.974,0,0,0-.908.905c-.15.452.3.905.908.905" transform="translate(11.189 8.75)"/>
        <path id="Path_1286902" data-name="Path 1286902" d="M23.791,24.071,17.758,30.1l-2.715-2.715a1.127,1.127,0,0,0-1.357,0,1.125,1.125,0,0,0,0,1.358L17,32.065a1.154,1.154,0,0,0,.6.3.788.788,0,0,0,.6-.3l6.636-6.636a1.13,1.13,0,0,0,0-1.358c0-.3-.6-.3-1.056,0" transform="translate(6.674 11.825)"/>
        <path id="Path_1286903" data-name="Path 1286903" d="M40.381,29.337a.973.973,0,0,0-.9-.905H23.489a.905.905,0,1,0,0,1.81H39.476c.452.151.9-.3.9-.905" transform="translate(11.198 14.099)"/>
        <path id="Path_1286904" data-name="Path 1286904" d="M23.5,27.116H35.716a.9.9,0,1,0,0-1.809H23.5a.973.973,0,0,0-.908.9c-.15.6.3.905.908.905" transform="translate(11.189 12.55)"/>
      </g>
    </g>
  </g>
</svg>
