<svg xmlns="http://www.w3.org/2000/svg" xmlns:xlink="http://www.w3.org/1999/xlink" width="95" height="95" viewBox="0 0 95 95">
  <defs>
    <clipPath id="clip-path">
      <rect id="Rectangle_413855" data-name="Rectangle 413855" width="95" height="95" fill="none"/>
    </clipPath>
  </defs>
  <g id="Group_1222876" data-name="Group 1222876" transform="translate(80 9191)">
    <rect id="Rectangle_413861" data-name="Rectangle 413861" width="95" height="95" transform="translate(-80 -9191)" fill="none"/>
    <g id="Group_1222873" data-name="Group 1222873" transform="translate(-80 -9191)">
      <g id="Group_1222872" data-name="Group 1222872" clip-path="url(#clip-path)">
        <path id="Path_1285901" data-name="Path 1285901" d="M324.3,325.894v73.05a1.6,1.6,0,0,0,1.594,1.594h73.05a1.6,1.6,0,0,0,1.594-1.594v-73.05a1.6,1.6,0,0,0-1.594-1.594h-73.05a1.6,1.6,0,0,0-1.594,1.594m13.3,6.216h49.688a1.525,1.525,0,0,1,1.524,1.524v28.372a1.525,1.525,0,0,1-1.524,1.524h-6.468v8.7a1.525,1.525,0,0,1-1.524,1.524h-3.37v8.927a1.525,1.525,0,0,1-1.524,1.524H350.488a1.525,1.525,0,0,1-1.524-1.524V373.76h-3.37a1.525,1.525,0,0,1-1.524-1.524v-8.7H337.6a1.525,1.525,0,0,1-1.524-1.524V333.638a1.5,1.5,0,0,1,1.524-1.527m45.589,58.045a7.081,7.081,0,1,1,7.081,7.081,7.089,7.089,0,0,1-7.081-7.081m-48.595-7.081a7.081,7.081,0,1,1-7.081,7.081,7.089,7.089,0,0,1,7.081-7.081" transform="translate(-314.919 -314.919)" fill-rule="evenodd"/>
        <path id="Path_1285902" data-name="Path 1285902" d="M10.975,6.309h73.05a4.674,4.674,0,0,1,4.669,4.669v73.05A4.674,4.674,0,0,1,84.025,88.7H10.975a4.674,4.674,0,0,1-4.669-4.669V10.975a4.675,4.675,0,0,1,4.669-4.666m0-6.309A10.982,10.982,0,0,0,0,10.975v73.05A10.98,10.98,0,0,0,10.975,95h73.05A10.98,10.98,0,0,0,95,84.025V10.975A10.98,10.98,0,0,0,84.025,0Z" fill-rule="evenodd"/>
        <path id="Path_1285903" data-name="Path 1285903" d="M2470.307,2462.4a4.007,4.007,0,1,0,4.006,4.007,4.012,4.012,0,0,0-4.006-4.007" transform="translate(-2394.957 -2391.169)" fill="#2275e1" fill-rule="evenodd"/>
        <path id="Path_1285904" data-name="Path 1285904" d="M844.793,726.647v8.7h3.37a1.525,1.525,0,0,1,1.524,1.524V745.8h20.836V736.87a1.525,1.525,0,0,1,1.524-1.524h3.37v-8.7a1.525,1.525,0,0,1,1.525-1.524h6.468V699.8H836.8v25.3h6.468a1.53,1.53,0,0,1,1.525,1.548m15.326-11.7a1.525,1.525,0,0,1-1.525-1.524v-9.381a1.524,1.524,0,0,1,3.049,0v9.381a1.525,1.525,0,0,1-1.524,1.524m-8.745,0a1.525,1.525,0,0,1-1.524-1.524v-9.381a1.524,1.524,0,0,1,3.049,0v9.381a1.525,1.525,0,0,1-1.525,1.524m-8.745,0a1.525,1.525,0,0,1-1.525-1.524v-9.381a1.524,1.524,0,0,1,3.049,0v9.381a1.525,1.525,0,0,1-1.524,1.524m34.976,0a1.525,1.525,0,0,1-1.525-1.524v-9.381a1.524,1.524,0,1,1,3.049,0v9.381a1.523,1.523,0,0,1-1.524,1.524m-8.745,0a1.525,1.525,0,0,1-1.525-1.524v-9.381a1.525,1.525,0,0,1,3.049,0v9.381a1.521,1.521,0,0,1-1.525,1.524" transform="translate(-812.594 -679.557)" fill="#2275e1" fill-rule="evenodd"/>
        <path id="Path_1285905" data-name="Path 1285905" d="M546.48,2462.4m4.032,4.007a4.006,4.006,0,1,0-4.006,4.007,4.012,4.012,0,0,0,4.006-4.007" transform="translate(-526.807 -2391.169)" fill="#2275e1" fill-rule="evenodd"/>
      </g>
    </g>
  </g>
</svg>
