<svg xmlns="http://www.w3.org/2000/svg" xmlns:xlink="http://www.w3.org/1999/xlink" width="95" height="95" viewBox="0 0 95 95">
  <defs>
    <clipPath id="clip-path">
      <rect id="Rectangle_413854" data-name="Rectangle 413854" width="95" height="94.207" fill="none"/>
    </clipPath>
  </defs>
  <g id="Group_1222877" data-name="Group 1222877" transform="translate(-35 9191)">
    <rect id="Rectangle_413862" data-name="Rectangle 413862" width="95" height="95" transform="translate(35 -9191)" fill="none"/>
    <g id="Group_1222871" data-name="Group 1222871" transform="translate(35 -9191)">
      <g id="Group_1222870" data-name="Group 1222870" clip-path="url(#clip-path)">
        <path id="Path_1285888" data-name="Path 1285888" d="M93.434,144.683a3.763,3.763,0,0,1-2.678-1.114L68.434,121.247a3.763,3.763,0,0,1,0-5.334l3.942-3.942,1.05-12.04a1.189,1.189,0,0,1,.364-.771L89.771,83.178a5.586,5.586,0,0,1,7.884,0L109.18,94.7a1.242,1.242,0,0,1,0,1.735l-5.013,5.013a1.034,1.034,0,0,0,0,1.457l4.927,4.927a1.022,1.022,0,0,0,1.457,0l5.013-5.013a1.213,1.213,0,0,1,.878-.364,1.25,1.25,0,0,1,.878.364l11.526,11.526a5.586,5.586,0,0,1,0,7.884l-15.981,15.982a1.3,1.3,0,0,1-.771.364l-12.04,1.071-3.942,3.942a3.832,3.832,0,0,1-2.678,1.093m-17.567-44.11-1.05,12.04a1.189,1.189,0,0,1-.364.771l-4.263,4.285a1.293,1.293,0,0,0,0,1.842l22.323,22.323a1.293,1.293,0,0,0,1.842,0l4.263-4.263a1.3,1.3,0,0,1,.771-.364l12.04-1.071,15.682-15.682a3.1,3.1,0,0,0,0-4.37l-10.647-10.647-4.135,4.135a3.491,3.491,0,0,1-4.949,0l-4.927-4.927a3.471,3.471,0,0,1-1.028-2.464,3.434,3.434,0,0,1,1.028-2.464l4.135-4.135L95.941,84.935a3.1,3.1,0,0,0-4.37,0Z" transform="translate(-52.902 -64.08)"/>
        <path id="Path_1285889" data-name="Path 1285889" d="M75.035,294.3a1.288,1.288,0,0,1-.878-.364L58.3,278.08a1.242,1.242,0,0,1,0-1.735l5.591-5.591a1.268,1.268,0,0,1,1.757,0L81.5,286.606a1.241,1.241,0,0,1,0,1.757l-5.591,5.591a1.328,1.328,0,0,1-.878.343m-14.1-17.1,14.118,14.118,3.856-3.856L64.773,273.346Z" transform="translate(-45.535 -212.472)"/>
        <path id="Path_1285890" data-name="Path 1285890" d="M13.775,333.16a1.289,1.289,0,0,1-.878-.364L.364,320.264a1.241,1.241,0,0,1,0-1.757l14.053-14.053a1.268,1.268,0,0,1,1.757,0l12.532,12.532a1.241,1.241,0,0,1,0,1.757L14.653,332.817a1.229,1.229,0,0,1-.878.343M3,319.407l10.776,10.776,12.318-12.318L15.317,307.089Z" transform="translate(0 -238.953)"/>
        <path id="Path_1285891" data-name="Path 1285891" d="M234.919,136.116a3.4,3.4,0,0,1-2.464-1.028l-4.927-4.927a3.491,3.491,0,0,1,0-4.949l10.8-10.8a1.241,1.241,0,0,1,1.757,0l8.119,8.119a1.242,1.242,0,0,1,0,1.735l-10.8,10.8a3.336,3.336,0,0,1-2.485,1.05m4.263-19.066-9.919,9.919a1.022,1.022,0,0,0,0,1.457l4.927,4.927a1.034,1.034,0,0,0,1.457,0l9.919-9.919Z" transform="translate(-177.977 -89.617)"/>
        <path id="Path_1285892" data-name="Path 1285892" d="M301.505,54.6a1.25,1.25,0,0,1-.878-.364L280.4,34.015a1.268,1.268,0,0,1,0-1.757l7.005-7.005a1.242,1.242,0,0,1,1.735,0l20.223,20.223a1.241,1.241,0,0,1,0,1.757l-7.005,7.005a1.2,1.2,0,0,1-.857.364M283.038,33.159l18.467,18.467,5.27-5.27L288.309,27.888Z" transform="translate(-220.055 -19.566)" fill="#2275e1"/>
        <path id="Path_1285893" data-name="Path 1285893" d="M299.682,52.88a1.25,1.25,0,0,1-.878-.364,1.268,1.268,0,0,1,0-1.757l7.005-7.005a1.242,1.242,0,0,1,1.735,0,1.268,1.268,0,0,1,0,1.757l-7.005,7.005a1.165,1.165,0,0,1-.857.364" transform="translate(-234.513 -34.102)" fill="#2275e1"/>
        <path id="Path_1285894" data-name="Path 1285894" d="M318.882,71.98a1.25,1.25,0,0,1-.878-.364,1.268,1.268,0,0,1,0-1.757l7.005-7.005a1.242,1.242,0,0,1,1.735,0,1.268,1.268,0,0,1,0,1.757l-7.005,7.005a1.09,1.09,0,0,1-.857.364" transform="translate(-249.6 -49.111)" fill="#2275e1"/>
        <path id="Path_1285895" data-name="Path 1285895" d="M338.082,91.258a1.232,1.232,0,0,1-.878-2.1l7.005-7.005a1.242,1.242,0,0,1,1.735,0,1.268,1.268,0,0,1,0,1.757l-7.005,7.005a1.274,1.274,0,0,1-.857.343" transform="translate(-264.687 -64.276)" fill="#2275e1"/>
        <path id="Path_1285896" data-name="Path 1285896" d="M357.282,110.458a1.232,1.232,0,0,1-.878-2.1l7.005-7.005a1.227,1.227,0,0,1,1.735,1.735l-7.005,7.005a1.239,1.239,0,0,1-.857.364" transform="translate(-279.774 -79.363)" fill="#2275e1"/>
        <path id="Path_1285897" data-name="Path 1285897" d="M167.511,200.582a1.25,1.25,0,0,1-.878-.364L141.2,174.789a1.227,1.227,0,0,1,1.735-1.735l25.429,25.429a1.232,1.232,0,0,1-.857,2.1" transform="translate(-110.676 -135.703)" fill="#2275e1"/>
        <path id="Path_1285898" data-name="Path 1285898" d="M152.662,222.233a1.25,1.25,0,0,1-.878-.364l-22.88-22.88a1.227,1.227,0,0,1,1.735-1.735l22.88,22.88a1.242,1.242,0,0,1,0,1.735,1.2,1.2,0,0,1-.857.364" transform="translate(-101.011 -154.718)" fill="#2275e1"/>
        <path id="Path_1285899" data-name="Path 1285899" d="M141.734,247.806a1.289,1.289,0,0,1-.878-.364L123.5,230.089a1.227,1.227,0,0,1,1.735-1.735l17.353,17.353a1.242,1.242,0,0,1,0,1.735,1.12,1.12,0,0,1-.857.364" transform="translate(-96.768 -179.156)" fill="#2275e1"/>
        <path id="Path_1285900" data-name="Path 1285900" d="M231.9,52.24a1.25,1.25,0,0,1-.878-.364l-11.376-11.4a1.242,1.242,0,0,1,0-1.735l4.927-4.906-6.384-6.384-4.927,4.906a1.241,1.241,0,0,1-1.757,0l-11.4-11.4a1.268,1.268,0,0,1,0-1.757L218.956.353a1.242,1.242,0,0,1,1.735,0L251.6,31.267a1.242,1.242,0,0,1,0,1.735L232.752,51.854a1.079,1.079,0,0,1-.857.386m-9.64-12.618,9.64,9.64,17.117-17.117L219.855,2.988,202.739,20.105l9.64,9.64,4.927-4.906a1.241,1.241,0,0,1,1.757,0l8.119,8.119a1.242,1.242,0,0,1,0,1.735Z" transform="translate(-156.958 0)"/>
      </g>
    </g>
  </g>
</svg>
