<svg xmlns="http://www.w3.org/2000/svg" xmlns:xlink="http://www.w3.org/1999/xlink" width="95" height="95" viewBox="0 0 95 95">
  <defs>
    <clipPath id="clip-path">
      <rect id="Rectangle_413860" data-name="Rectangle 413860" width="95" height="76.743" fill="none"/>
    </clipPath>
  </defs>
  <g id="Group_1222878" data-name="Group 1222878" transform="translate(-150 9191)">
    <rect id="Rectangle_413863" data-name="Rectangle 413863" width="95" height="95" transform="translate(150 -9191)" fill="none"/>
    <g id="Group_1222875" data-name="Group 1222875" transform="translate(150 -9182)">
      <g id="Group_1222874" data-name="Group 1222874" clip-path="url(#clip-path)">
        <path id="Path_1285906" data-name="Path 1285906" d="M72.66,44.554V8.43a3.63,3.63,0,0,0-7.259,0V44.554Z" transform="translate(-51.27 -3.763)" fill="#53565a"/>
        <path id="Path_1285907" data-name="Path 1285907" d="M340.7,8.43V44.554h7.26V8.43a3.63,3.63,0,0,0-7.26,0" transform="translate(-267.09 -3.763)" fill="#53565a"/>
        <path id="Path_1285908" data-name="Path 1285908" d="M72.1,321.8H48.9v3.09a3.089,3.089,0,0,0,3.09,3.09h17a3.089,3.089,0,0,0,3.09-3.09Z" transform="translate(-38.335 -252.273)" fill="#53565a"/>
        <path id="Path_1285909" data-name="Path 1285909" d="M283.5,321.8v3.09a3.089,3.089,0,0,0,3.09,3.09h17a3.089,3.089,0,0,0,3.09-3.09V321.8Z" transform="translate(-222.248 -252.273)" fill="#53565a"/>
        <rect id="Rectangle_413856" data-name="Rectangle 413856" width="15.945" height="4.84" transform="translate(71.342 57.19)" fill="#c8d4e6"/>
        <rect id="Rectangle_413857" data-name="Rectangle 413857" width="15.945" height="8.858" transform="translate(71.342 48.31)" fill="#c8d4e6"/>
        <rect id="Rectangle_413858" data-name="Rectangle 413858" width="9.658" height="4.71" transform="translate(54.317 48.31)" fill="#c8d4e6"/>
        <rect id="Rectangle_413859" data-name="Rectangle 413859" width="9.658" height="4.71" transform="translate(54.317 57.32)" fill="#c8d4e6"/>
        <path id="Path_1285910" data-name="Path 1285910" d="M65.015,217.535H93.686a4.048,4.048,0,0,0,4.04-4.04V192.84a4.048,4.048,0,0,0-4.04-4.04H8.84a4.048,4.048,0,0,0-4.04,4.04V213.5a4.048,4.048,0,0,0,4.04,4.04H65.015Zm2.722-7.519H58.08v-4.71h9.658ZM47.622,205.2v4.84H37.878V205.2h-3.09V196.34H50.734V205.2Zm-20.2-8.88v8.858H24.31v4.84H14.587v-4.84H11.476v-8.858Zm63.629,13.7H75.1v-13.7H91.05v13.7Zm-23.312-8.988H58.08v-4.71h9.658Z" transform="translate(-3.763 -148.009)" fill="#53565a"/>
        <path id="Path_1285911" data-name="Path 1285911" d="M159.545,232.48V223.6H143.6v8.88h3.09V237.3h9.744V232.48Z" transform="translate(-112.574 -175.29)" fill="#c8d4e6"/>
        <path id="Path_1285912" data-name="Path 1285912" d="M51.645,232.48V223.6H35.7v8.88h3.111V237.3h9.744V232.48Z" transform="translate(-27.987 -175.29)" fill="#c8d4e6"/>
        <path id="Path_1285913" data-name="Path 1285913" d="M120.476,66.385a1.082,1.082,0,0,1-.778-.346,1.054,1.054,0,0,1,.108-1.469,33.54,33.54,0,0,1,42.693,0,1.042,1.042,0,0,1-1.361,1.577,31.427,31.427,0,0,0-39.97,0,1.116,1.116,0,0,1-.691.238" transform="translate(-93.642 -44.606)" fill="#206ae0"/>
        <path id="Path_1285914" data-name="Path 1285914" d="M177.279,97.689a1,1,0,0,1-.67-.259,22.153,22.153,0,0,0-28.174,0,1.054,1.054,0,0,1-1.469-.108,1.034,1.034,0,0,1,.108-1.469,24.265,24.265,0,0,1,30.9,0,1.052,1.052,0,0,1,.108,1.469,1.071,1.071,0,0,1-.8.367" transform="translate(-115.012 -70.79)" fill="#206ae0"/>
        <path id="Path_1285915" data-name="Path 1285915" d="M192.883,128.972a1,1,0,0,1-.67-.259,12.879,12.879,0,0,0-16.377,0,1.054,1.054,0,0,1-1.469-.108,1.034,1.034,0,0,1,.108-1.469,14.991,14.991,0,0,1,19.1,0,1.047,1.047,0,0,1-.691,1.836" transform="translate(-136.492 -96.974)" fill="#206ae0"/>
        <path id="Path_1285916" data-name="Path 1285916" d="M89.923,214.81H5.077A5.071,5.071,0,0,1,0,209.732V189.077A5.071,5.071,0,0,1,5.077,184H89.923A5.071,5.071,0,0,1,95,189.077v20.655a5.071,5.071,0,0,1-5.077,5.077M5.077,186.074a3,3,0,0,0-3,3v20.655a3,3,0,0,0,3,3H89.923a3,3,0,0,0,3-3V189.077a3,3,0,0,0-3-3Z" transform="translate(0 -144.246)"/>
        <path id="Path_1285917" data-name="Path 1285917" d="M65.252,325.253H48.227a4.14,4.14,0,0,1-4.127-4.127v-3.09A1.051,1.051,0,0,1,45.137,317a1.037,1.037,0,0,1,1.037,1.037v3.09a2.066,2.066,0,0,0,2.053,2.053h17a2.066,2.066,0,0,0,2.053-2.053v-3.09A1.037,1.037,0,0,1,68.32,317a1.024,1.024,0,0,1,1.037,1.037v3.09a4.094,4.094,0,0,1-4.105,4.127" transform="translate(-34.572 -248.51)"/>
        <path id="Path_1285918" data-name="Path 1285918" d="M299.83,325.253h-17a4.14,4.14,0,0,1-4.127-4.127v-3.09A1.037,1.037,0,0,1,279.737,317a1.024,1.024,0,0,1,1.037,1.037v3.09a2.066,2.066,0,0,0,2.053,2.053h17a2.066,2.066,0,0,0,2.053-2.053v-3.09A1.037,1.037,0,0,1,302.92,317a1.024,1.024,0,0,1,1.037,1.037v3.09a4.126,4.126,0,0,1-4.127,4.127" transform="translate(-218.485 -248.51)"/>
        <path id="Path_1285919" data-name="Path 1285919" d="M44.792,234.572H35.048a1.024,1.024,0,0,1-1.037-1.037v-3.8H31.937A1.024,1.024,0,0,1,30.9,228.7v-8.858a1.051,1.051,0,0,1,1.037-1.037H47.882a1.037,1.037,0,0,1,1.037,1.037V228.7a1.037,1.037,0,0,1-1.037,1.037H45.808v3.8a1.019,1.019,0,0,1-1.015,1.037M36.085,232.5h7.648v-3.8a1.052,1.052,0,0,1,1.037-1.037h2.074v-6.784H32.974v6.806h2.074a1.024,1.024,0,0,1,1.037,1.037Z" transform="translate(-24.224 -171.527)" fill="#206ae0"/>
        <path id="Path_1285920" data-name="Path 1285920" d="M152.671,234.572h-9.744a1.037,1.037,0,0,1-1.037-1.037v-3.8h-2.053A1.037,1.037,0,0,1,138.8,228.7v-8.858a1.037,1.037,0,0,1,1.037-1.037h15.945a1.037,1.037,0,0,1,1.037,1.037V228.7a1.037,1.037,0,0,1-1.037,1.037h-2.074v3.8a1.037,1.037,0,0,1-1.037,1.037m-8.707-2.074h7.648v-3.8a1.037,1.037,0,0,1,1.037-1.037h2.074v-6.784H140.853v6.806h2.074a1.037,1.037,0,0,1,1.037,1.037Z" transform="translate(-108.811 -171.527)" fill="#206ae0"/>
        <path id="Path_1285921" data-name="Path 1285921" d="M342.382,234.572H326.437a1.037,1.037,0,0,1-1.037-1.037v-13.7a1.037,1.037,0,0,1,1.037-1.037h15.945a1.037,1.037,0,0,1,1.037,1.037v13.7a1.037,1.037,0,0,1-1.037,1.037M327.474,232.5h13.871V220.874H327.474Z" transform="translate(-255.095 -171.527)" fill="#206ae0"/>
        <path id="Path_1285922" data-name="Path 1285922" d="M342.382,261.874H326.437a1.037,1.037,0,0,1-1.037-1.037,1.024,1.024,0,0,1,1.037-1.037h15.945a1.037,1.037,0,1,1,0,2.074" transform="translate(-255.095 -203.669)" fill="#206ae0"/>
        <path id="Path_1285923" data-name="Path 1285923" d="M257.295,225.584h-9.658a1.037,1.037,0,0,1-1.037-1.037v-4.71a1.037,1.037,0,0,1,1.037-1.037h9.658a1.037,1.037,0,0,1,1.037,1.037v4.71a1.037,1.037,0,0,1-1.037,1.037m-8.621-2.074h7.584V220.9h-7.584Z" transform="translate(-193.32 -171.527)" fill="#206ae0"/>
        <path id="Path_1285924" data-name="Path 1285924" d="M257.295,267.184h-9.658a1.037,1.037,0,0,1-1.037-1.037v-4.71a1.037,1.037,0,0,1,1.037-1.037h9.658a1.037,1.037,0,0,1,1.037,1.037v4.71a1.024,1.024,0,0,1-1.037,1.037m-8.621-2.074h7.584V262.5h-7.584Z" transform="translate(-193.32 -204.139)" fill="#206ae0"/>
        <path id="Path_1285925" data-name="Path 1285925" d="M68.9,41.829a1.024,1.024,0,0,1-1.037-1.037V4.667a2.593,2.593,0,0,0-5.185,0V40.791a1.052,1.052,0,0,1-1.037,1.037A1.037,1.037,0,0,1,60.6,40.791V4.667a4.667,4.667,0,1,1,9.334,0V40.791A1.037,1.037,0,0,1,68.9,41.829" transform="translate(-47.507)"/>
        <path id="Path_1285926" data-name="Path 1285926" d="M344.2,41.829a1.037,1.037,0,0,1-1.037-1.037V4.667a2.593,2.593,0,1,0-5.185,0V40.791a1.037,1.037,0,0,1-1.037,1.037,1.024,1.024,0,0,1-1.037-1.037V4.667a4.667,4.667,0,1,1,9.334,0V40.791a1.024,1.024,0,0,1-1.037,1.037" transform="translate(-263.327)"/>
      </g>
    </g>
  </g>
</svg>
