<svg xmlns="http://www.w3.org/2000/svg" xmlns:xlink="http://www.w3.org/1999/xlink" width="95" height="95" viewBox="0 0 95 95">
  <defs>
    <clipPath id="clip-path">
      <rect id="Rectangle_413853" data-name="Rectangle 413853" width="95" height="80.274" transform="translate(0 0)" fill="none"/>
    </clipPath>
  </defs>
  <g id="Group_1222879" data-name="Group 1222879" transform="translate(-265 9191)">
    <rect id="Rectangle_413864" data-name="Rectangle 413864" width="95" height="95" transform="translate(265 -9191)" fill="none"/>
    <g id="Group_1222869" data-name="Group 1222869" transform="translate(265 -9183.995)">
      <g id="Group_1222868" data-name="Group 1222868" transform="translate(0 -0.005)" clip-path="url(#clip-path)">
        <path id="Path_1285877" data-name="Path 1285877" d="M5.871,1959.247h83.27A5.87,5.87,0,0,1,95,1965.106v26.423a5.87,5.87,0,0,1-5.859,5.859H5.871a5.87,5.87,0,0,1-5.857-5.859v-12.088A1.984,1.984,0,0,1,0,1979.2a2.178,2.178,0,1,1,4.357,0,2.06,2.06,0,0,1-.01.208h.006v12.124a1.529,1.529,0,0,0,1.519,1.519h83.27a1.529,1.529,0,0,0,1.52-1.519v-26.423a1.529,1.529,0,0,0-1.52-1.519H5.871a1.529,1.529,0,0,0-1.519,1.519v4.763c0,.048,0,.1,0,.146a2.178,2.178,0,1,1-4.357,0,1.968,1.968,0,0,1,.014-.244v-4.665a5.87,5.87,0,0,1,5.857-5.859" transform="translate(0 -1917.114)"/>
        <path id="Path_1285878" data-name="Path 1285878" d="M1414.857,613.691a19.265,19.265,0,0,0-6.938,1.278,19.636,19.636,0,0,0-4.487,2.448l1.345,1.653a18.005,18.005,0,0,1,3.76-1.985,17.495,17.495,0,0,1,12.641,0,18.043,18.043,0,0,1,3.76,1.985l1.343-1.653a19.63,19.63,0,0,0-4.486-2.448,19.265,19.265,0,0,0-6.938-1.278Zm-8.481-2.756a23.512,23.512,0,0,1,16.961,0,24.283,24.283,0,0,1,7.432,4.541l1.543,1.376-6.79,8.356-1.689-1.5a13.77,13.77,0,0,0-4.2-2.584,13.455,13.455,0,0,0-9.556,0,13.75,13.75,0,0,0-4.2,2.584l-1.689,1.5-6.791-8.356,1.543-1.376a24.289,24.289,0,0,1,7.433-4.541" transform="translate(-1367.35 -596.249)"/>
        <path id="Path_1285879" data-name="Path 1285879" d="M1027.616,12.792a30.36,30.36,0,0,1,7.587-4.26,29.511,29.511,0,0,1,21.281,0,30.341,30.341,0,0,1,7.587,4.26l1.33-1.639a32.09,32.09,0,0,0-8.3-4.739,31.512,31.512,0,0,0-22.517,0,32.116,32.116,0,0,0-8.3,4.739l1.332,1.639Zm9.129-.227a26.11,26.11,0,0,0-7.988,4.9l-1.689,1.506-6.791-8.356,1.543-1.376a36.664,36.664,0,0,1,11.223-6.863,35.553,35.553,0,0,1,25.6,0,36.655,36.655,0,0,1,11.221,6.863l1.543,1.376-6.789,8.356-1.689-1.506a26.146,26.146,0,0,0-7.988-4.9,25.495,25.495,0,0,0-18.2,0Z" transform="translate(-998.336 0.005)"/>
        <path id="Path_1285880" data-name="Path 1285880" d="M1764.494,1182.917a5.507,5.507,0,1,0,1.432,1.894,5.5,5.5,0,0,0-1.432-1.894Zm-.181-5.038a9.821,9.821,0,1,1-3.4-.606,9.852,9.852,0,0,1,3.4.606Z" transform="translate(-1713.408 -1151.955)"/>
        <path id="Path_1285881" data-name="Path 1285881" d="M643.036,3059.969h63.986a1.723,1.723,0,0,1,1.723,1.723v.985a1.723,1.723,0,0,1-1.723,1.723H643.036a1.723,1.723,0,0,1-1.723-1.723v-.985a1.723,1.723,0,0,1,1.723-1.723" transform="translate(-627.522 -2994.166)" fill-rule="evenodd"/>
        <path id="Path_1285882" data-name="Path 1285882" d="M103.952,2162.568v4.763c0,.048,0,.1,0,.146a2.178,2.178,0,0,1-2.168,2.179v4.824a2.179,2.179,0,0,1,2.168,2.179,2.058,2.058,0,0,1-.01.208h.006v12.124a1.528,1.528,0,0,0,1.519,1.519h83.27a1.528,1.528,0,0,0,1.52-1.519v-26.423a1.529,1.529,0,0,0-1.52-1.519h-83.27a1.529,1.529,0,0,0-1.519,1.519m11.162,17.812H179.1a1.728,1.728,0,0,1,1.723,1.723v.984a1.727,1.727,0,0,1-1.723,1.721H115.114a1.727,1.727,0,0,1-1.723-1.721v-.984a1.728,1.728,0,0,1,1.723-1.723" transform="translate(-99.6 -2114.576)" fill="#2275e1" fill-rule="evenodd"/>
        <path id="Path_1285883" data-name="Path 1285883" d="M1956.406,1379.344a5.6,5.6,0,1,0,1.907-.334,5.5,5.5,0,0,0-1.907.334Z" transform="translate(-1910.806 -1349.355)" fill="#2275e1" fill-rule="evenodd"/>
        <path id="Path_1285884" data-name="Path 1285884" d="M1682.964,814.484a17.495,17.495,0,0,1,12.641,0,18.062,18.062,0,0,1,3.76,1.985l1.343-1.653a19.632,19.632,0,0,0-4.486-2.448,19.474,19.474,0,0,0-13.876,0,19.649,19.649,0,0,0-4.487,2.448l1.345,1.653a18,18,0,0,1,3.76-1.985Z" transform="translate(-1641.777 -793.647)" fill="#2275e1" fill-rule="evenodd"/>
        <path id="Path_1285885" data-name="Path 1285885" d="M1308.545,205.927a29.511,29.511,0,0,1,21.281,0,30.34,30.34,0,0,1,7.587,4.26l1.331-1.639a32.091,32.091,0,0,0-8.3-4.739,31.513,31.513,0,0,0-22.518,0,32.122,32.122,0,0,0-8.3,4.739l1.332,1.639a30.362,30.362,0,0,1,7.587-4.26Z" transform="translate(-1271.678 -197.391)" fill="#2275e1" fill-rule="evenodd"/>
        <path id="Path_1285886" data-name="Path 1285886" d="M1954.731,1382.592a5.515,5.515,0,0,1,8.592,1.894,5.386,5.386,0,0,1,.385,1.169,5.609,5.609,0,0,0,.116-1.132,5.513,5.513,0,1,0-10.909,1.132,5.386,5.386,0,0,1,.385-1.169,5.53,5.53,0,0,1,1.431-1.894" transform="translate(-1910.805 -1349.355)" fill="#39d5ff" fill-rule="evenodd"/>
        <path id="Path_1285887" data-name="Path 1285887" d="M287.183,2161.05h-83.27a1.528,1.528,0,0,0-1.519,1.519v2.275a1.531,1.531,0,0,1,1.519-1.521h83.27a1.531,1.531,0,0,1,1.52,1.521v-2.275a1.528,1.528,0,0,0-1.52-1.519" transform="translate(-198.042 -2114.578)" fill="#39d5ff" fill-rule="evenodd"/>
      </g>
    </g>
  </g>
</svg>
