<svg xmlns="http://www.w3.org/2000/svg" xmlns:xlink="http://www.w3.org/1999/xlink" width="95" height="95" viewBox="0 0 95 95">
  <defs>
    <clipPath id="clip-path">
      <rect id="Rectangle_413454" data-name="Rectangle 413454" width="95" height="84.829" fill="none"/>
    </clipPath>
  </defs>
  <g id="Group_1222574" data-name="Group 1222574" transform="translate(6437 9474)">
    <rect id="Rectangle_413440" data-name="Rectangle 413440" width="95" height="95" transform="translate(-6437 -9474)" fill="none"/>
    <g id="Group_1222573" data-name="Group 1222573" transform="translate(-6437 -9469)">
      <g id="Group_1222572" data-name="Group 1222572" clip-path="url(#clip-path)">
        <path id="Path_1285088" data-name="Path 1285088" d="M381.473,29.7a11.789,11.789,0,1,0-11.812-11.79A11.819,11.819,0,0,0,381.473,29.7" transform="translate(-299.425 -4.96)" fill="#fd4755" fill-rule="evenodd"/>
        <rect id="Rectangle_413449" data-name="Rectangle 413449" width="12.52" height="11.539" transform="translate(27.478 67.316)" fill="#1f86ce"/>
        <rect id="Rectangle_413450" data-name="Rectangle 413450" width="65.15" height="9.145" transform="translate(1.163 61.045)" fill="#26a6fe"/>
        <rect id="Rectangle_413451" data-name="Rectangle 413451" width="65.15" height="31.948" transform="translate(1.163 30.283)" fill="#c8effe"/>
        <path id="Path_1285089" data-name="Path 1285089" d="M118.938,401.36h22.279v-2.166a3.042,3.042,0,0,0-3.033-3.01H121.948a3.037,3.037,0,0,0-3.01,3.01Z" transform="translate(-96.34 -320.908)" fill="#26a6fe" fill-rule="evenodd"/>
        <path id="Path_1285090" data-name="Path 1285090" d="M405.488,44.527h-8.734a1.888,1.888,0,0,0-1.893,1.892v5.2a1.908,1.908,0,0,0,1.893,1.916h8.734V50.5l.433.228,2.965,1.733V45.6l-2.965,1.71-.433.251Z" transform="translate(-319.837 -36.067)" fill="#fd8087" fill-rule="evenodd"/>
        <path id="Path_1285091" data-name="Path 1285091" d="M381.473,184.765a11.789,11.789,0,1,0-11.812-11.789,11.819,11.819,0,0,0,11.812,11.789" transform="translate(-299.425 -130.561)" fill="#fd4755" fill-rule="evenodd"/>
        <path id="Path_1285092" data-name="Path 1285092" d="M381.473,339.733a11.8,11.8,0,1,0-11.812-11.79,11.819,11.819,0,0,0,11.812,11.79" transform="translate(-299.425 -256.066)" fill="#fd4755" fill-rule="evenodd"/>
        <rect id="Rectangle_413452" data-name="Rectangle 413452" width="8.323" height="11.63" transform="translate(79.288 38.013)" fill="#fd8087"/>
        <path id="Path_1285093" data-name="Path 1285093" d="M115.51,142.854l2.325-2.326,3.557,3.558-2.325,2.326a13.2,13.2,0,0,1,2.029,4.88h3.284v5.039H121.1a13.049,13.049,0,0,1-2.029,4.88l2.325,2.349-3.557,3.558-2.325-2.326a13.172,13.172,0,0,1-4.881,2.007V170.1h-5.04V166.8a13.008,13.008,0,0,1-4.88-2.007l-2.326,2.326-3.58-3.558,2.348-2.349a13.049,13.049,0,0,1-2.029-4.88H91.817v-5.039h3.306a13.2,13.2,0,0,1,2.029-4.88L94.8,144.085l3.58-3.558,2.326,2.326a13.012,13.012,0,0,1,4.88-2.007V137.54h5.04v3.307A13.18,13.18,0,0,1,115.51,142.854Z" transform="translate(-74.372 -111.407)" fill="#f2b633" fill-rule="evenodd"/>
        <path id="Path_1285094" data-name="Path 1285094" d="M395.608,353.129h2.3v-.045l.821-2.509h5.315l.82,2.509v.045h2.3a1.363,1.363,0,0,1,1.346,1.345v5.291a1.363,1.363,0,0,1-1.346,1.345H395.608a1.363,1.363,0,0,1-1.346-1.345v-5.291A1.363,1.363,0,0,1,395.608,353.129Z" transform="translate(-319.352 -283.966)" fill="#fd8087" fill-rule="evenodd"/>
        <path id="Path_1285095" data-name="Path 1285095" d="M423.854,375.777a1.854,1.854,0,0,0,1.848-1.847,1.859,1.859,0,1,0-1.848,1.847" transform="translate(-341.806 -301.369)" fill="#fd4755" fill-rule="evenodd"/>
        <path id="Path_1285096" data-name="Path 1285096" d="M146.787,185.188a7.229,7.229,0,1,1-7.206,7.229A7.231,7.231,0,0,1,146.787,185.188Z" transform="translate(-113.061 -150.002)" fill="#daa42e" fill-rule="evenodd"/>
        <rect id="Rectangle_413453" data-name="Rectangle 413453" width="8.346" height="11.63" transform="translate(76.461 35.186)" fill="#fdabb1"/>
        <path id="Path_1285097" data-name="Path 1285097" d="M76.917,18.631H85.65a1.168,1.168,0,0,0,1.162-1.163V16.441l1.643.958a1.176,1.176,0,0,0,1.162,0,1.16,1.16,0,0,0,.593-1V9.532a1.186,1.186,0,0,0-.57-1,1.174,1.174,0,0,0-1.163,0l-1.665.958V8.46A1.168,1.168,0,0,0,85.65,7.3H76.917a3.055,3.055,0,0,0-3.056,3.056v5.2a3.061,3.061,0,0,0,3.056,3.079m-.729-8.278a.72.72,0,0,1,.729-.73h7.57v1.87a1.16,1.16,0,0,0,.594,1,1.172,1.172,0,0,0,1.162,0l1.642-.958v2.828l-1.642-.958a1.174,1.174,0,0,0-1.162,0,1.161,1.161,0,0,0-.594,1V16.3h-7.57a.74.74,0,0,1-.729-.753Zm-8.871,1.437H65.1a1.152,1.152,0,0,0-1.049.684L56.508,29.12h-11.4l-.821-.821a1.2,1.2,0,0,0-1.642,0l-1.665,1.665A15.163,15.163,0,0,0,37.42,28.5V26.133a1.168,1.168,0,0,0-1.162-1.163h-5.04a1.169,1.169,0,0,0-1.164,1.163V28.5A15.184,15.184,0,0,0,26.5,29.964L24.832,28.3a1.156,1.156,0,0,0-1.642,0l-.821.821H1.163A1.168,1.168,0,0,0,0,30.283V70.167a1.168,1.168,0,0,0,1.163,1.163H26.315v2.782h-.707a4.176,4.176,0,0,0-4.173,4.174v2.166A1.168,1.168,0,0,0,22.6,81.614H44.877a1.167,1.167,0,0,0,1.163-1.162V78.285a4.18,4.18,0,0,0-4.2-4.174h-.684V71.329H63.577l.479,1.026a1.152,1.152,0,0,0,1.049.684h2.211a1.163,1.163,0,1,0,0-2.326h-1.46L55.869,48.64a1.212,1.212,0,0,0-1.072-.684H52.836a1.163,1.163,0,0,0,0,2.326h1.209l4.88,10.786H2.326V31.446h17.7l-.411.411a1.262,1.262,0,0,0-.342.821,1.175,1.175,0,0,0,.342.821L21.3,35.186a14.506,14.506,0,0,0-1.482,3.535H17.445a1.168,1.168,0,0,0-1.164,1.163v5.039a1.168,1.168,0,0,0,1.164,1.163h2.371A15.213,15.213,0,0,0,21.3,49.643l-1.688,1.687a1.159,1.159,0,0,0-.342.821,1.174,1.174,0,0,0,.342.821l3.58,3.557a1.156,1.156,0,0,0,1.642,0L26.5,54.866a15.2,15.2,0,0,0,3.557,1.459V58.7a1.168,1.168,0,0,0,1.164,1.163h5.04A1.168,1.168,0,0,0,37.42,58.7V56.325a15.166,15.166,0,0,0,3.558-1.459l1.665,1.664a1.158,1.158,0,0,0,.821.342,1.084,1.084,0,0,0,.821-.342l3.557-3.557a1.156,1.156,0,0,0,0-1.642l-1.665-1.687a15.2,15.2,0,0,0,1.483-3.557h2.349a1.167,1.167,0,0,0,1.163-1.163V39.883a1.167,1.167,0,0,0-1.163-1.163H47.66a15.075,15.075,0,0,0-1.483-3.558L47.842,33.5a1.156,1.156,0,0,0,0-1.642l-.41-.411h8.026l-1.413,3.1H52.836a1.163,1.163,0,1,0,0,2.326H54.8a1.211,1.211,0,0,0,1.072-.684l2.44-5.4a.084.084,0,0,0,.023-.069l7.525-16.6h1.46a1.163,1.163,0,1,0,0-2.325Zm-23.6,66.5v1H23.761v-1a1.869,1.869,0,0,1,1.847-1.847H41.844A1.874,1.874,0,0,1,43.715,78.285Zm-4.881-4.174H28.642V71.33H38.834ZM60,63.394,62.528,69H2.326v-5.61ZM46.724,41.046h2.121V43.76H46.724a1.17,1.17,0,0,0-1.14.935,11.6,11.6,0,0,1-1.847,4.446,1.171,1.171,0,0,0,.137,1.483l1.5,1.528-1.915,1.916-1.505-1.505a1.141,1.141,0,0,0-1.459-.137A12.431,12.431,0,0,1,36.03,54.25a1.171,1.171,0,0,0-.936,1.14v2.144H32.381V55.39a1.17,1.17,0,0,0-.935-1.14A11.982,11.982,0,0,1,27,52.426a1.174,1.174,0,0,0-1.483.137l-1.5,1.505-1.938-1.916L23.6,50.624a1.172,1.172,0,0,0,.137-1.483A11.949,11.949,0,0,1,21.892,44.7a1.134,1.134,0,0,0-1.14-.935H18.607V41.046h2.144a1.134,1.134,0,0,0,1.14-.935,12.049,12.049,0,0,1,1.847-4.447,1.172,1.172,0,0,0-.137-1.483l-1.505-1.5,1.528-1.528c.023-.023.068-.046.091-.091l.3-.3,1.5,1.505A1.145,1.145,0,0,0,27,32.4a11.982,11.982,0,0,1,4.446-1.824,1.133,1.133,0,0,0,.935-1.14V27.3h2.713V29.44a1.134,1.134,0,0,0,.936,1.14A12.427,12.427,0,0,1,40.5,32.4a1.14,1.14,0,0,0,1.459-.137l1.505-1.505,1.915,1.916-1.5,1.5a1.171,1.171,0,0,0-.137,1.483,12.065,12.065,0,0,1,1.847,4.447A1.169,1.169,0,0,0,46.724,41.046Zm20.591,2.531H52.836a1.163,1.163,0,1,1,0-2.326H65.15V31.446H61.068a1.163,1.163,0,0,1,0-2.326h5.245a1.167,1.167,0,0,1,1.163,1.163V41.275a1.138,1.138,0,0,1,1,1.14,1.168,1.168,0,0,1-1.164,1.163M82.048,25.9A12.952,12.952,0,1,0,69.072,12.952,12.973,12.973,0,0,0,82.048,25.9m0-23.579A10.626,10.626,0,1,1,71.4,12.952,10.637,10.637,0,0,1,82.048,2.326m0,27.136A12.953,12.953,0,1,0,95,42.415,12.978,12.978,0,0,0,82.048,29.462m0,23.579A10.627,10.627,0,1,1,92.674,42.415,10.657,10.657,0,0,1,82.048,53.041m0,5.861A12.964,12.964,0,1,0,95,71.877,12.983,12.983,0,0,0,82.048,58.9m0,23.6A10.638,10.638,0,1,1,92.674,71.877,10.658,10.658,0,0,1,82.048,82.5M87.611,36.85H85.969V35.186a1.168,1.168,0,0,0-1.162-1.163H76.461A1.167,1.167,0,0,0,75.3,35.186v11.63a1.168,1.168,0,0,0,1.163,1.163h1.664v1.664a1.169,1.169,0,0,0,1.163,1.163h8.323a1.168,1.168,0,0,0,1.163-1.163V38.014a1.168,1.168,0,0,0-1.163-1.163m-9.988-.5h6.02v9.3h-6.02ZM86.449,48.48h-6v-.5h4.356a1.168,1.168,0,0,0,1.162-1.163V39.176h.48Zm-18.973-2.6V66.131a1.163,1.163,0,1,1-2.325,0V45.881a1.163,1.163,0,1,1,2.325,0M32.564,66.222a1.187,1.187,0,0,1,1.163-1.185,1.148,1.148,0,0,1,1.163,1.14v.046a1.163,1.163,0,1,1-2.326,0Zm1.163-32.2a8.392,8.392,0,1,0,8.392,8.392A8.394,8.394,0,0,0,33.726,34.023Zm0,14.457a6.066,6.066,0,1,1,6.066-6.066,6.058,6.058,0,0,1-6.066,6.066M86.38,68l-.57-1.756a1.179,1.179,0,0,0-1.117-.8H79.379a1.129,1.129,0,0,0-1.094.8L77.692,68H76.255a2.5,2.5,0,0,0-2.508,2.508V75.8a2.5,2.5,0,0,0,2.508,2.508H87.816A2.5,2.5,0,0,0,90.324,75.8V70.509A2.5,2.5,0,0,0,87.816,68ZM88,70.509V75.8a.2.2,0,0,1-.183.183H76.255a.2.2,0,0,1-.183-.183V70.509a.2.2,0,0,1,.183-.182h2.3a1.17,1.17,0,0,0,1.118-.889l.547-1.665h3.626l.524,1.574a1.174,1.174,0,0,0,1.141.98h2.3a.2.2,0,0,1,.183.182m-5.952-.981a3.021,3.021,0,1,0,0,6.043,3.021,3.021,0,0,0,0-6.043m0,3.717a.691.691,0,0,1-.707-.684.71.71,0,0,1,.707-.707.722.722,0,0,1,.684.707.7.7,0,0,1-.684.684"/>
      </g>
    </g>
  </g>
</svg>
