<svg xmlns="http://www.w3.org/2000/svg" xmlns:xlink="http://www.w3.org/1999/xlink" width="95" height="95" viewBox="0 0 95 95">
  <defs>
    <clipPath id="clip-path">
      <rect id="Rectangle_413484" data-name="Rectangle 413484" width="95" height="95" transform="translate(0 0)" fill="none"/>
    </clipPath>
  </defs>
  <g id="Group_1222587" data-name="Group 1222587" transform="translate(3216 8723)">
    <rect id="Rectangle_413457" data-name="Rectangle 413457" width="95" height="95" transform="translate(-3216 -8723)" fill="none"/>
    <g id="Group_1222581" data-name="Group 1222581" transform="translate(-3216 -8723)">
      <g id="Group_1222580" data-name="Group 1222580" clip-path="url(#clip-path)">
        <path id="Path_1285111" data-name="Path 1285111" d="M185.538,193.875l.749.433.753-.426a29.744,29.744,0,0,0,15.106-25.761l0-.72-15.7-9.062-15.783,8.922,0,.72a29.744,29.744,0,0,0,14.876,25.894" transform="translate(-138.996 -128.961)" fill="#00c70d"/>
        <path id="Path_1285112" data-name="Path 1285112" d="M185.538,193.875l.749.433.753-.426a29.744,29.744,0,0,0,15.106-25.761l0-.72-15.7-9.062-15.783,8.922,0,.72a29.744,29.744,0,0,0,14.876,25.894" transform="translate(-138.996 -128.961)" fill="#00c70d"/>
        <path id="Path_1285113" data-name="Path 1285113" d="M185.539,195.348l.749.432.753-.426a29.743,29.743,0,0,0,15.106-25.761l0-.72-15.7-9.062-15.783,8.922,0,.72a29.743,29.743,0,0,0,14.876,25.894" transform="translate(-138.997 -130.16)" fill="#00c70d"/>
        <path id="Path_1285114" data-name="Path 1285114" d="M186.447,165.488l15.3,8.829a29.725,29.725,0,0,0,.4-4.723l0-.72-15.7-9.062-15.783,8.922,0,.72a29.715,29.715,0,0,0,.363,4.753Z" transform="translate(-138.996 -130.159)" fill="#00a90b"/>
        <path id="Path_1285115" data-name="Path 1285115" d="M216.83,207.906a8.924,8.924,0,1,1-8.924,8.924,8.924,8.924,0,0,1,8.924-8.924" transform="translate(-169.33 -169.33)" fill="#ccf4cf"/>
        <path id="Path_1285116" data-name="Path 1285116" d="M328.141,439.2h20.822V424.329H328.141Z" transform="translate(-267.255 -345.596)" fill="#ffd045"/>
        <path id="Path_1285117" data-name="Path 1285117" d="M328.142,428.791h20.822v-4.462H328.142Z" transform="translate(-267.256 -345.596)" fill="#ffb831"/>
        <rect id="Rectangle_413468" data-name="Rectangle 413468" width="11.898" height="11.898" transform="translate(81.707 80.22)" fill="#ffe3ad"/>
        <rect id="Rectangle_413469" data-name="Rectangle 413469" width="4.462" height="8.924" transform="translate(56.424 81.707)" fill="#fd7d28"/>
        <rect id="Rectangle_413470" data-name="Rectangle 413470" width="20.822" height="14.873" transform="translate(13.293 1.394)" fill="#ffd045"/>
        <rect id="Rectangle_413471" data-name="Rectangle 413471" width="20.822" height="4.462" transform="translate(13.293 1.394)" fill="#ffb831"/>
        <rect id="Rectangle_413472" data-name="Rectangle 413472" width="11.898" height="11.898" transform="translate(1.394 2.882)" fill="#ffe3ad"/>
        <rect id="Rectangle_413473" data-name="Rectangle 413473" width="4.462" height="8.924" transform="translate(34.114 4.369)" fill="#fd7d28"/>
        <rect id="Rectangle_413474" data-name="Rectangle 413474" width="2.975" height="2.789" transform="translate(17.754 4.462)" fill="#fff"/>
        <rect id="Rectangle_413475" data-name="Rectangle 413475" width="5.949" height="2.789" transform="translate(23.704 4.462)"/>
        <rect id="Rectangle_413476" data-name="Rectangle 413476" width="2.975" height="2.789" transform="translate(17.754 10.411)" fill="#fff"/>
        <rect id="Rectangle_413477" data-name="Rectangle 413477" width="5.949" height="2.789" transform="translate(23.704 10.411)"/>
        <rect id="Rectangle_413478" data-name="Rectangle 413478" width="2.789" height="5.949" transform="translate(5.949 5.856)"/>
        <path id="Path_1285118" data-name="Path 1285118" d="M50.883,115.093V91.3a2.326,2.326,0,0,1,2.324-2.324H74.621a31.1,31.1,0,0,0,10.394,9.792l1.439.831,1.447-.818A31.213,31.213,0,0,0,103.617,74.1h16.516a5.118,5.118,0,0,0,5.113-5.113v-23.8a5.118,5.118,0,0,0-5.113-5.113H80.721v2.789h39.413a2.326,2.326,0,0,1,2.324,2.324v23.8a2.326,2.326,0,0,1-2.324,2.324H103.718l0-1.031L86.629,60.415,69.448,70.127l-.007,1.529A31.106,31.106,0,0,0,72.98,86.183H53.207A5.118,5.118,0,0,0,48.094,91.3v23.8a5.118,5.118,0,0,0,5.113,5.113H92.619v-2.789H53.207a2.326,2.326,0,0,1-2.324-2.323M86.615,63.627l14.312,8.26a28.41,28.41,0,0,1-14.4,24.463l-.06.034-.06-.035A28.41,28.41,0,0,1,72.23,71.758Z" transform="translate(-39.17 -32.642)"/>
        <path id="Path_1285119" data-name="Path 1285119" d="M336.55,418.3h-11.9v-1.487H301.041v2.974h-4.462V431.5h4.462v2.975h11.805v-2.789h-9.017V419.6h18.033v12.084h-6.042v2.789h8.831v-1.487h11.9Zm-37.182,4.276h1.673v6.135h-1.673Zm34.393,7.622h-9.11v-9.11h9.11Z" transform="translate(-241.55 -339.475)"/>
        <path id="Path_1285120" data-name="Path 1285120" d="M11.9,17.661H35.509V14.687h4.462V2.975H35.509V0H23.7V2.789H32.72V14.873H14.687V2.789h6.042V0H11.9V1.487H0V16.174H11.9ZM37.182,11.9H35.509V5.763h1.673ZM2.789,4.276H11.9v9.11H2.789Z"/>
        <path id="Path_1285121" data-name="Path 1285121" d="M210.709,221.027a10.318,10.318,0,1,1,10.318-10.318,10.33,10.33,0,0,1-10.318,10.318m0-17.847a7.529,7.529,0,1,0,7.529,7.529,7.538,7.538,0,0,0-7.529-7.529" transform="translate(-163.209 -163.209)"/>
        <path id="Path_1285122" data-name="Path 1285122" d="M238.616,242.074l-3.961-3.96,1.972-1.972,1.989,1.989,3.476-3.476,1.972,1.972Z" transform="translate(-191.116 -191.115)"/>
        <rect id="Rectangle_413479" data-name="Rectangle 413479" width="2.975" height="2.789" transform="translate(74.271 87.75)" fill="#fff"/>
        <rect id="Rectangle_413480" data-name="Rectangle 413480" width="5.949" height="2.789" transform="translate(65.347 87.75)"/>
        <rect id="Rectangle_413481" data-name="Rectangle 413481" width="2.975" height="2.789" transform="translate(74.271 81.8)" fill="#fff"/>
        <rect id="Rectangle_413482" data-name="Rectangle 413482" width="5.949" height="2.789" transform="translate(65.347 81.8)"/>
        <rect id="Rectangle_413483" data-name="Rectangle 413483" width="2.789" height="5.949" transform="translate(86.262 83.195)"/>
      </g>
    </g>
  </g>
</svg>
