<svg xmlns="http://www.w3.org/2000/svg" xmlns:xlink="http://www.w3.org/1999/xlink" width="95" height="95" viewBox="0 0 95 95">
  <defs>
    <clipPath id="clip-path">
      <rect id="Rectangle_414339" data-name="Rectangle 414339" width="73.599" height="60.1" transform="translate(0 0)" fill="none"/>
    </clipPath>
  </defs>
  <g id="Group_1223145" data-name="Group 1223145" transform="translate(3019 11284)">
    <rect id="Rectangle_414276" data-name="Rectangle 414276" width="95" height="95" transform="translate(-3019 -11284)" fill="none"/>
    <g id="Group_1223133" data-name="Group 1223133" transform="translate(788.774 -237.197)">
      <ellipse id="Ellipse_12937" data-name="Ellipse 12937" cx="28.658" cy="28.658" rx="28.658" ry="28.658" transform="translate(-3770.09 -11011.514)" fill="#ffc94a"/>
      <ellipse id="Ellipse_12938" data-name="Ellipse 12938" cx="20.842" cy="20.842" rx="20.842" ry="20.842" transform="translate(-3806.617 -11044.803)" fill="#ffc94a"/>
    </g>
    <g id="Group_1223167" data-name="Group 1223167" transform="translate(-3007.721 -11266.747)">
      <g id="Group_1223167-2" data-name="Group 1223167" clip-path="url(#clip-path)">
        <path id="Path_1287336" data-name="Path 1287336" d="M64.813,38.9v2.6a4.932,4.932,0,0,1-4.949,4.9h-20.4a4.932,4.932,0,0,1-4.948-4.9V16.4h30.3Z" fill="#c4d3d6"/>
        <rect id="Rectangle_414333" data-name="Rectangle 414333" width="20.199" height="8.8" transform="translate(39.564 21.4)" fill="#4a78ff"/>
        <path id="Path_1287337" data-name="Path 1287337" d="M57.238,46.4v5H42.09v-5Z" fill="#ffd432"/>
        <path id="Path_1287338" data-name="Path 1287338" d="M69.863,38.9v3.7h-5.05V38.9Z" fill="#c4d3d6"/>
        <path id="Path_1287339" data-name="Path 1287339" d="M34.515,41.5v1.1h-5.05V38.9h5.05Z" fill="#c4d3d6"/>
        <path id="Path_1287340" data-name="Path 1287340" d="M34.515,42.6v3.8a2.525,2.525,0,0,1-5.05,0V42.6Z" fill="#273b51"/>
        <path id="Path_1287341" data-name="Path 1287341" d="M69.863,42.6v3.8a2.488,2.488,0,0,1-2.525,2.5,2.553,2.553,0,0,1-2.525-2.5V42.6Z" fill="#273b51"/>
        <path id="Path_1287342" data-name="Path 1287342" d="M69.863,16.4V38.9h-5.05V16.4h5.05Z" fill="#273b51"/>
        <path id="Path_1287343" data-name="Path 1287343" d="M34.515,16.4V38.9h-5.05V16.4h5.05Z" fill="#273b51"/>
        <path id="Path_1287344" data-name="Path 1287344" d="M69.256,10.1a3.131,3.131,0,0,1,3.131,3.1,2.926,2.926,0,0,1-.909,2.2,2.985,2.985,0,0,1-2.222.9H30.071a3.131,3.131,0,0,1-3.131-3.1,3.356,3.356,0,0,1,.909-2.2,2.985,2.985,0,0,1,2.222-.9H69.256Z" fill="#d94556"/>
        <rect id="Rectangle_414334" data-name="Rectangle 414334" width="5.05" height="5" transform="translate(61.076 5.1)" fill="#273b51"/>
        <rect id="Rectangle_414335" data-name="Rectangle 414335" width="5.05" height="5" transform="translate(33.303 5.1)" fill="#273b51"/>
        <path id="Path_1287345" data-name="Path 1287345" d="M61.076,5.1v5H38.353V1.4H61.076Z" fill="#ffd432"/>
        <path id="Path_1287346" data-name="Path 1287346" d="M69.256,17.6a1.3,1.3,0,1,1,0-2.6,1.935,1.935,0,0,0,1.314-.5,1.649,1.649,0,0,0,.5-1.3,1.908,1.908,0,0,0-1.919-1.9h-3.13a1.3,1.3,0,1,1,0-2.6h3.13A4.461,4.461,0,0,1,73.6,13.1a4.366,4.366,0,0,1-1.313,3.1,4.109,4.109,0,0,1-3.03,1.4"/>
        <path id="Path_1287347" data-name="Path 1287347" d="M30.071,17.6a4.461,4.461,0,0,1-4.444-4.4,4.366,4.366,0,0,1,1.313-3.1,4.453,4.453,0,0,1,3.131-1.3H33.2a1.3,1.3,0,1,1,0,2.6h-3.13a1.931,1.931,0,0,0-1.313.5,1.647,1.647,0,0,0-.5,1.3,1.908,1.908,0,0,0,1.919,1.9,1.33,1.33,0,0,1,1.313,1.3,1.509,1.509,0,0,1-1.414,1.2"/>
        <path id="Path_1287348" data-name="Path 1287348" d="M61.076,6.4a1.33,1.33,0,0,1-1.312-1.3V2.6h-20.2V5.1a1.313,1.313,0,0,1-2.626,0V1.3A1.33,1.33,0,0,1,38.252,0H60.975a1.329,1.329,0,0,1,1.313,1.3V5.1a1.314,1.314,0,0,1-1.212,1.3"/>
        <path id="Path_1287349" data-name="Path 1287349" d="M61.076,11.4H38.353a1.3,1.3,0,1,1,0-2.6H61.076a1.33,1.33,0,0,1,1.313,1.3,1.49,1.49,0,0,1-1.313,1.3"/>
        <path id="Path_1287350" data-name="Path 1287350" d="M67.337,50.1A3.817,3.817,0,0,1,63.5,46.3V41.4a1.313,1.313,0,0,1,2.626,0v4.9a1.313,1.313,0,0,0,2.626,0V17.6H64.813a1.3,1.3,0,1,1,0-2.6h5.049a1.33,1.33,0,0,1,1.313,1.3v30a3.817,3.817,0,0,1-3.838,3.8"/>
        <path id="Path_1287351" data-name="Path 1287351" d="M31.99,50.1a3.817,3.817,0,0,1-3.837-3.8v-30A1.33,1.33,0,0,1,29.465,15h5.05a1.3,1.3,0,1,1,0,2.6H30.677V46.4a1.313,1.313,0,0,0,2.626,0V41.5a1.313,1.313,0,0,1,2.626,0v4.9a3.959,3.959,0,0,1-3.939,3.7"/>
        <path id="Path_1287352" data-name="Path 1287352" d="M57.238,52.6H54.714a1.3,1.3,0,1,1,0-2.6h1.313V46.2a1.313,1.313,0,0,1,2.625,0v5a1.51,1.51,0,0,1-1.414,1.4"/>
        <path id="Path_1287353" data-name="Path 1287353" d="M44.614,52.6H42.089a1.33,1.33,0,0,1-1.313-1.3v-5a1.313,1.313,0,0,1,2.626,0v3.8h1.212a1.33,1.33,0,0,1,1.312,1.3,1.316,1.316,0,0,1-1.312,1.2"/>
        <path id="Path_1287354" data-name="Path 1287354" d="M54.713,60.1A1.33,1.33,0,0,1,53.4,58.8V52.5H45.826v6.3a1.313,1.313,0,0,1-2.626,0V51.3A1.33,1.33,0,0,1,44.513,50h10.1a1.33,1.33,0,0,1,1.313,1.3v7.5a1.185,1.185,0,0,1-1.212,1.3"/>
        <path id="Path_1287355" data-name="Path 1287355" d="M59.864,47.6h-20.4A6.091,6.091,0,0,1,33.3,41.5V16.4a1.33,1.33,0,0,1,1.313-1.3h30.3a1.33,1.33,0,0,1,1.313,1.3V41.5a6.332,6.332,0,0,1-6.363,6.1m-24.036-30V41.5a3.6,3.6,0,0,0,3.636,3.6h20.5A3.6,3.6,0,0,0,63.6,41.5V17.6Z"/>
        <path id="Path_1287356" data-name="Path 1287356" d="M69.863,43.9h-5.05a1.3,1.3,0,1,1,0-2.6h5.05a1.3,1.3,0,1,1,0,2.6"/>
        <path id="Path_1287357" data-name="Path 1287357" d="M69.863,40.1h-5.05a1.3,1.3,0,1,1,0-2.6h5.05a1.3,1.3,0,1,1,0,2.6"/>
        <path id="Path_1287358" data-name="Path 1287358" d="M34.515,40.1h-5.05a1.3,1.3,0,1,1,0-2.6h5.05a1.3,1.3,0,1,1,0,2.6"/>
        <path id="Path_1287359" data-name="Path 1287359" d="M34.515,43.9h-5.05a1.3,1.3,0,1,1,0-2.6h5.05a1.3,1.3,0,1,1,0,2.6"/>
        <path id="Path_1287360" data-name="Path 1287360" d="M66.126,11.4h-5.05a1.33,1.33,0,0,1-1.313-1.3v-5a1.33,1.33,0,0,1,1.313-1.3h5.05a1.33,1.33,0,0,1,1.313,1.3v5a1.492,1.492,0,0,1-1.313,1.3M62.288,8.9h2.525V6.4H62.288Z"/>
        <path id="Path_1287361" data-name="Path 1287361" d="M38.353,11.4H33.3a1.33,1.33,0,0,1-1.313-1.3v-5A1.33,1.33,0,0,1,33.3,3.8h5.05a1.33,1.33,0,0,1,1.313,1.3v5a1.493,1.493,0,0,1-1.313,1.3M34.515,8.9H37.04V6.4H34.515Z"/>
        <path id="Path_1287362" data-name="Path 1287362" d="M59.763,31.4h-20.2a1.33,1.33,0,0,1-1.313-1.3V21.3A1.33,1.33,0,0,1,39.564,20h20.2a1.33,1.33,0,0,1,1.313,1.3v8.8a1.33,1.33,0,0,1-1.313,1.3M40.878,28.9H58.552V22.6H40.878Z"/>
        <path id="Path_1287363" data-name="Path 1287363" d="M59.763,36.4h-20.2a1.3,1.3,0,1,1,0-2.6h20.2a1.3,1.3,0,1,1,0,2.6"/>
        <path id="Path_1287364" data-name="Path 1287364" d="M53.5,40.1H43.4a1.3,1.3,0,1,1,0-2.6H53.5a1.33,1.33,0,0,1,1.312,1.3A1.4,1.4,0,0,1,53.5,40.1"/>
        <path id="Path_1287365" data-name="Path 1287365" d="M20.3,20.1V38.2a9.436,9.436,0,0,1-9.494,9.4,9.436,9.436,0,0,1-9.493-9.4V20.1Z" fill="#273b51"/>
        <path id="Path_1287366" data-name="Path 1287366" d="M16.462,45.7v6.9H5.05V45.7a9.466,9.466,0,0,0,11.412,0" fill="#d94556"/>
        <path id="Path_1287367" data-name="Path 1287367" d="M10.806,33.8a4.4,4.4,0,1,1-4.444,4.4,4.422,4.422,0,0,1,4.444-4.4" fill="#f44321"/>
        <path id="Path_1287368" data-name="Path 1287368" d="M20.3,13.9v6.2H1.313V13.9H20.3Z" fill="#f44321"/>
        <rect id="Rectangle_414336" data-name="Rectangle 414336" width="13.938" height="11.3" transform="translate(3.837 2.6)" fill="#c4d3d6"/>
        <rect id="Rectangle_414337" data-name="Rectangle 414337" width="2.525" height="2.5" transform="translate(11.412 7.6)"/>
        <rect id="Rectangle_414338" data-name="Rectangle 414338" width="2.525" height="2.5" transform="translate(7.675 7.6)"/>
        <path id="Path_1287369" data-name="Path 1287369" d="M17.775,15.1a1.33,1.33,0,0,1-1.313-1.3V3.8H5.151v10a1.313,1.313,0,0,1-2.626,0V2.6A1.33,1.33,0,0,1,3.837,1.3H17.775a1.33,1.33,0,0,1,1.312,1.3V13.9a1.491,1.491,0,0,1-1.312,1.2"/>
        <path id="Path_1287370" data-name="Path 1287370" d="M10.806,43.9a5.6,5.6,0,1,1,0-11.2,5.535,5.535,0,0,1,5.656,5.5,5.7,5.7,0,0,1-5.656,5.7m0-8.8a3.1,3.1,0,1,0,3.131,3.1,3.131,3.131,0,0,0-3.131-3.1"/>
        <path id="Path_1287371" data-name="Path 1287371" d="M20.3,21.4H1.313a1.3,1.3,0,1,1,0-2.6H20.3a1.33,1.33,0,0,1,1.312,1.3A1.49,1.49,0,0,1,20.3,21.4"/>
        <path id="Path_1287372" data-name="Path 1287372" d="M13.937,60.1a1.33,1.33,0,0,1-1.313-1.3V52.5a1.313,1.313,0,0,1,2.626,0v6.3a1.33,1.33,0,0,1-1.313,1.3"/>
        <path id="Path_1287373" data-name="Path 1287373" d="M7.675,60.1a1.33,1.33,0,0,1-1.313-1.3V52.5a1.313,1.313,0,0,1,2.626,0v6.3a1.491,1.491,0,0,1-1.313,1.3"/>
        <path id="Path_1287374" data-name="Path 1287374" d="M16.462,53.9H5.151a1.33,1.33,0,0,1-1.313-1.3V45.7a1.313,1.313,0,0,1,2.625,0v5.6h8.888V45.7a1.313,1.313,0,0,1,2.626,0v6.9a1.7,1.7,0,0,1-1.515,1.3"/>
        <path id="Path_1287375" data-name="Path 1287375" d="M10.806,48.9a10.846,10.846,0,0,1-6.464-2.1A10.387,10.387,0,0,1,.1,38.3V13.9a1.329,1.329,0,0,1,1.311-1.3H20.4a1.33,1.33,0,0,1,1.313,1.3V38.3a10.543,10.543,0,0,1-3.131,7.5,10.023,10.023,0,0,1-1.111,1,12.754,12.754,0,0,1-6.665,2.1M2.625,15.1V38.2a8.028,8.028,0,0,0,3.333,6.5,7.92,7.92,0,0,0,4.949,1.6,8.578,8.578,0,0,0,4.948-1.6,6.458,6.458,0,0,0,.909-.8,8.156,8.156,0,0,0,2.424-5.7V15.1Z"/>
        <path id="Path_1287376" data-name="Path 1287376" d="M10.806,35.1a1.33,1.33,0,0,1-1.313-1.3V20.1a1.313,1.313,0,0,1,2.626,0V33.9a1.4,1.4,0,0,1-1.313,1.2"/>
      </g>
    </g>
  </g>
</svg>
