<svg xmlns="http://www.w3.org/2000/svg" xmlns:xlink="http://www.w3.org/1999/xlink" width="95" height="95" viewBox="0 0 95 95">
  <defs>
    <clipPath id="clip-path">
      <rect id="Rectangle_413485" data-name="Rectangle 413485" width="95" height="74.564" fill="none" stroke="#707070" stroke-width="3"/>
    </clipPath>
  </defs>
  <g id="Group_1222588" data-name="Group 1222588" transform="translate(3532 8723)">
    <rect id="Rectangle_413456" data-name="Rectangle 413456" width="95" height="95" transform="translate(-3532 -8723)" fill="none"/>
    <g id="Group_1222583" data-name="Group 1222583" transform="translate(-3532 -8712.782)">
      <g id="Group_1222582" data-name="Group 1222582" clip-path="url(#clip-path)">
        <path id="Path_1285123" data-name="Path 1285123" d="M418.094,76.785a4.307,4.307,0,1,1-4.307,4.307,4.307,4.307,0,0,1,4.307-4.307" transform="translate(-337.01 -62.538)" fill="#fff" stroke="#707070" stroke-width="3" fill-rule="evenodd"/>
        <path id="Path_1285124" data-name="Path 1285124" d="M384.062,51.367a4.307,4.307,0,1,1,4.307-4.307,4.307,4.307,0,0,1-4.307,4.307m12.061-4.307a12.061,12.061,0,0,0-24.121,0c0,4.545,3.653,9.87,7.3,14.317,1.713,2.088,3.426,3.982,4.759,5.511,1.333-1.529,3.045-3.423,4.759-5.511,3.649-4.447,7.3-9.772,7.3-14.317" transform="translate(-302.978 -28.505)" fill="#66e0f7" stroke="#707070" stroke-width="3" fill-rule="evenodd"/>
        <path id="Path_1285125" data-name="Path 1285125" d="M384.062,182.673c-1.333-1.529-3.045-3.423-4.759-5.511-4.43,1.139-7.3,3.75-7.3,6.637,0,3.989,5.4,7.223,12.061,7.223s12.061-3.234,12.061-7.223c0-2.888-2.872-5.5-7.3-6.637-1.713,2.088-3.426,3.982-4.759,5.511" transform="translate(-302.978 -144.29)" fill="#cbe558" stroke="#707070" stroke-width="3" fill-rule="evenodd"/>
        <path id="Path_1285126" data-name="Path 1285126" d="M56.093,216.786a4.307,4.307,0,1,1-4.307,4.307,4.307,4.307,0,0,1,4.307-4.307" transform="translate(-42.177 -176.562)" fill="#fff" stroke="#707070" stroke-width="3" fill-rule="evenodd"/>
        <path id="Path_1285127" data-name="Path 1285127" d="M26.368,187.061a4.307,4.307,0,1,1-4.307-4.307,4.307,4.307,0,0,1,4.307,4.307m7.753,0a12.061,12.061,0,1,0-24.121,0c0,4.545,3.653,9.87,7.3,14.317,1.713,2.088,3.426,3.982,4.759,5.511,1.333-1.529,3.045-3.423,4.759-5.511,3.649-4.447,7.3-9.772,7.3-14.317" transform="translate(-8.145 -142.529)" fill="#ff5d7d" stroke="#707070" stroke-width="3" fill-rule="evenodd"/>
        <path id="Path_1285128" data-name="Path 1285128" d="M26.819,317.162c-1.713,2.088-3.426,3.982-4.759,5.511-1.333-1.529-3.045-3.423-4.759-5.511-4.43,1.139-7.3,3.75-7.3,6.637,0,3.989,5.4,7.223,12.061,7.223s12.061-3.234,12.061-7.223c0-2.888-2.872-5.5-7.3-6.637" transform="translate(-8.145 -258.314)" fill="#cbe558" stroke="#707070" stroke-width="3" fill-rule="evenodd"/>
        <path id="Path_1285129" data-name="Path 1285129" d="M384.062,35a12.061,12.061,0,0,1,12.061,12.061c0,6.679-7.889,15.043-12.061,19.828C379.89,62.1,372,53.739,372,47.061A12.061,12.061,0,0,1,384.062,35Z" transform="translate(-302.978 -28.506)" fill="none" stroke="#000" stroke-linecap="round" stroke-linejoin="round" stroke-width="3"/>
        <path id="Path_1285130" data-name="Path 1285130" d="M414.094,79.452a4.307,4.307,0,1,1,2.364,5.614A4.307,4.307,0,0,1,414.094,79.452Z" transform="translate(-337 -62.524)" fill="none" stroke="#000" stroke-linecap="round" stroke-linejoin="round" stroke-width="3"/>
        <path id="Path_1285131" data-name="Path 1285131" d="M389.013,177.435c4.327,1.167,7.109,3.745,7.109,6.587,0,3.989-5.4,7.223-12.061,7.223S372,188.011,372,184.022c0-2.842,2.782-5.42,7.109-6.587" transform="translate(-302.978 -144.513)" fill="none" stroke="#000" stroke-linecap="round" stroke-linejoin="round" stroke-width="3"/>
        <path id="Path_1285132" data-name="Path 1285132" d="M22.061,175a12.061,12.061,0,0,1,12.061,12.061c0,6.679-7.889,15.043-12.061,19.828C17.889,202.1,10,193.739,10,187.061A12.061,12.061,0,0,1,22.061,175Z" transform="translate(-8.145 -142.529)" fill="none" stroke="#000" stroke-linecap="round" stroke-linejoin="round" stroke-width="3"/>
        <circle id="Ellipse_12920" data-name="Ellipse 12920" cx="4.307" cy="4.307" r="4.307" transform="translate(9.609 40.224)" fill="none" stroke="#000" stroke-linecap="round" stroke-linejoin="round" stroke-width="3"/>
        <path id="Path_1285133" data-name="Path 1285133" d="M27.012,317.436c4.327,1.167,7.109,3.745,7.109,6.587,0,3.989-5.4,7.223-12.061,7.223S10,328.012,10,324.023c0-2.842,2.782-5.42,7.109-6.587" transform="translate(-8.145 -258.537)" fill="none" stroke="#000" stroke-linecap="round" stroke-linejoin="round" stroke-width="3"/>
        <path id="Path_1285134" data-name="Path 1285134" d="M297,84.277l4.639-4.639L297,75" transform="translate(-241.894 -61.083)" fill="none" stroke="#000" stroke-linecap="round" stroke-linejoin="round" stroke-width="3"/>
        <path id="Path_1285135" data-name="Path 1285135" d="M79.639,84.277,75,79.638,79.639,75" transform="translate(-61.084 -61.083)" fill="none" stroke="#000" stroke-linecap="round" stroke-linejoin="round" stroke-width="3"/>
        <line id="Line_947" data-name="Line 947" x1="43.975" transform="translate(14.844 18.554)" fill="none" stroke="#000" stroke-linecap="round" stroke-linejoin="round" stroke-width="3"/>
        <path id="Path_1285136" data-name="Path 1285136" d="M173.5,19.277V10l4.639,4.639L182.778,10v9.277" transform="translate(-141.308 -8.145)" fill="none" stroke="#000" stroke-linecap="round" stroke-linejoin="round" stroke-width="3"/>
        <path id="Path_1285137" data-name="Path 1285137" d="M145,238.911h16.885A3.722,3.722,0,0,0,165.6,235.2v-.928m0-16.7v-.928a3.722,3.722,0,0,1,3.711-3.711h16.885" transform="translate(-118.096 -173.425)" fill="none" stroke="#000" stroke-linecap="round" stroke-linejoin="round" stroke-width="3"/>
        <line id="Line_948" data-name="Line 948" x2="0.001" transform="translate(47.499 52.497)" fill="none" stroke="#000" stroke-linecap="round" stroke-linejoin="round" stroke-width="3"/>
      </g>
    </g>
  </g>
</svg>
