<svg xmlns="http://www.w3.org/2000/svg" xmlns:xlink="http://www.w3.org/1999/xlink" width="95" height="95" viewBox="0 0 95 95">
  <defs>
    <clipPath id="clip-path">
      <rect id="Rectangle_413498" data-name="Rectangle 413498" width="82.618" height="95" fill="none"/>
    </clipPath>
  </defs>
  <g id="Group_1222589" data-name="Group 1222589" transform="translate(3848 8723)">
    <rect id="Rectangle_413455" data-name="Rectangle 413455" width="95" height="95" transform="translate(-3848 -8723)" fill="none"/>
    <g id="Group_1222585" data-name="Group 1222585" transform="translate(-3841.809 -8723)">
      <g id="Group_1222584" data-name="Group 1222584" clip-path="url(#clip-path)">
        <path id="Path_1285138" data-name="Path 1285138" d="M11.557,131.14a1.5,1.5,0,0,0-1.507,1.507v4.838L5.1,140.053v-7.406a1.5,1.5,0,0,1,1.507-1.507Z" transform="translate(-4.151 -106.738)" fill="#718dd0"/>
        <path id="Path_1285139" data-name="Path 1285139" d="M39.887,132.647v.6L31.7,137.485v-4.838a1.5,1.5,0,0,1,1.507-1.507H38.38a1.5,1.5,0,0,1,1.507,1.507" transform="translate(-25.801 -106.738)" fill="#7f9edb"/>
        <path id="Path_1285140" data-name="Path 1285140" d="M10.05,165.34v6.792L5.1,174.681v-6.792Z" transform="translate(-4.151 -134.574)" fill="#e8ecf0"/>
        <path id="Path_1285141" data-name="Path 1285141" d="M39.887,142.54v6.792L31.7,153.574v-6.792Z" transform="translate(-25.801 -116.017)" fill="#f2f4f6"/>
        <path id="Path_1285142" data-name="Path 1285142" d="M10.05,201.84v6.792L5.1,211.2v-6.81Z" transform="translate(-4.151 -164.282)" fill="#718dd0"/>
        <path id="Path_1285143" data-name="Path 1285143" d="M39.887,179.04v6.792L31.7,190.074v-6.792Z" transform="translate(-25.801 -145.725)" fill="#7f9edb"/>
        <path id="Path_1285144" data-name="Path 1285144" d="M10.05,274.94v6.773L5.1,284.281v-6.792Z" transform="translate(-4.151 -223.78)" fill="#718dd0"/>
        <path id="Path_1285145" data-name="Path 1285145" d="M39.887,252.14v6.792L31.7,263.156v-6.773Z" transform="translate(-25.801 -205.222)" fill="#7f9edb"/>
        <path id="Path_1285146" data-name="Path 1285146" d="M10.05,238.34v6.81L5.1,247.7v-6.792Z" transform="translate(-4.151 -193.99)" fill="#e8ecf0"/>
        <path id="Path_1285147" data-name="Path 1285147" d="M39.887,215.54v6.81L31.7,226.593v-6.81Z" transform="translate(-25.801 -175.433)" fill="#f2f4f6"/>
        <path id="Path_1285148" data-name="Path 1285148" d="M10.05,311.34v6.81L5.1,320.718v-6.81Z" transform="translate(-4.151 -253.407)" fill="#e8ecf0"/>
        <path id="Path_1285149" data-name="Path 1285149" d="M39.887,288.64v6.792L31.7,299.674v-6.81Z" transform="translate(-25.801 -234.931)" fill="#f2f4f6"/>
        <path id="Path_1285150" data-name="Path 1285150" d="M11.557,352.611H6.607A1.5,1.5,0,0,1,5.1,351.1v-.6l4.95-2.568V351.1a1.5,1.5,0,0,0,1.507,1.507" transform="translate(-4.151 -283.196)" fill="#718dd0"/>
        <path id="Path_1285151" data-name="Path 1285151" d="M39.887,325.14v7.406a1.5,1.5,0,0,1-1.507,1.507H33.207a1.5,1.5,0,0,1-1.507-1.507v-3.163Z" transform="translate(-25.801 -264.639)" fill="#7f9edb"/>
        <rect id="Rectangle_413486" data-name="Rectangle 413486" width="3.852" height="5.303" transform="translate(2.568 19.099)" fill="#f8d275"/>
        <rect id="Rectangle_413487" data-name="Rectangle 413487" width="6.048" height="5.303" transform="translate(6.42 19.099)" fill="#f3e379"/>
        <rect id="Rectangle_413488" data-name="Rectangle 413488" width="3.908" height="24.525" transform="translate(3.61 69.414)" fill="#f8d275"/>
        <rect id="Rectangle_413489" data-name="Rectangle 413489" width="3.908" height="24.525" transform="translate(7.518 69.414)" fill="#f3e379"/>
        <rect id="Rectangle_413490" data-name="Rectangle 413490" width="3.908" height="5.303" transform="translate(24.655 19.099)" fill="#f8d275"/>
        <rect id="Rectangle_413491" data-name="Rectangle 413491" width="5.992" height="5.303" transform="translate(28.563 19.099)" fill="#f3e379"/>
        <path id="Path_1285152" data-name="Path 1285152" d="M151.252,350.759v28.656H146.6V350.74a4.96,4.96,0,0,0,4.652.019" transform="translate(-119.321 -285.475)" fill="#746e77"/>
        <rect id="Rectangle_413492" data-name="Rectangle 413492" width="5.005" height="19.11" transform="translate(22.515 24.402)" fill="#718dd0"/>
        <rect id="Rectangle_413493" data-name="Rectangle 413493" width="9.174" height="19.11" transform="translate(27.521 24.402)" fill="#7f9edb"/>
        <path id="Path_1285153" data-name="Path 1285153" d="M139.236,255.779A5.01,5.01,0,0,1,132.3,251.2V233.84H136.2V251.2a4.936,4.936,0,0,0,3.033,4.578" transform="translate(-107.677 -190.328)" fill="#f8d275"/>
        <path id="Path_1285154" data-name="Path 1285154" d="M159.3,233.84V251.2a4.922,4.922,0,0,1-3.07,4.578A4.964,4.964,0,0,1,153.2,251.2V233.84Z" transform="translate(-124.693 -190.328)" fill="#f3e379"/>
        <rect id="Rectangle_413494" data-name="Rectangle 413494" width="4.652" height="27.26" transform="translate(49.906 66.66)" fill="#746e77"/>
        <rect id="Rectangle_413495" data-name="Rectangle 413495" width="4.652" height="50.111" transform="translate(71.863 43.829)" fill="#746e77"/>
        <path id="Path_1285155" data-name="Path 1285155" d="M252.5,171.7h-4.057a2.053,2.053,0,0,1-2.047-2.047v-18.85a2.069,2.069,0,0,1,2.047-2.065H252.5a2.069,2.069,0,0,0-2.047,2.065v18.85A2.029,2.029,0,0,0,252.5,171.7" transform="translate(-200.551 -121.063)" fill="#f8d275"/>
        <path id="Path_1285156" data-name="Path 1285156" d="M276.908,150.805v18.85a2.041,2.041,0,0,1-2.047,2.047h-4.615a2.053,2.053,0,0,1-2.047-2.047v-18.85a2.069,2.069,0,0,1,2.047-2.065h4.615a2.057,2.057,0,0,1,2.047,2.065" transform="translate(-218.294 -121.063)" fill="#f3e379"/>
        <rect id="Rectangle_413496" data-name="Rectangle 413496" width="9.155" height="16.021" transform="translate(47.636 50.639)" fill="#ca5458"/>
        <rect id="Rectangle_413497" data-name="Rectangle 413497" width="5.433" height="8.597" transform="translate(49.515 19.099)" fill="#ca5458"/>
        <path id="Path_1285157" data-name="Path 1285157" d="M276.042,199.656A1.04,1.04,0,0,1,275,198.613v-7.331a1.042,1.042,0,1,1,2.084,0v7.331a1.04,1.04,0,0,1-1.042,1.042" transform="translate(-223.829 -154.841)" fill="#f2f4f6"/>
        <path id="Path_1285158" data-name="Path 1285158" d="M367.692,155.369h-5.415c-.856-3.145-2.14-7.945-2.977-11.053V137.04h4.5v3.2h.912v4.075l.223.819Z" transform="translate(-292.442 -111.54)" fill="#f8d275"/>
        <path id="Path_1285159" data-name="Path 1285159" d="M397.629,137.04v7.276c-.837,3.089-2.14,7.927-2.977,11.053h-3.275l-2.754-10.234-.223-.819v-4.075h4.708v-3.2Z" transform="translate(-316.128 -111.54)" fill="#f3e379"/>
        <path id="Path_1285160" data-name="Path 1285160" d="M372.689,72.34V87.58h-.484v-3.2H369.6V72.34Z" transform="translate(-300.826 -58.879)" fill="#e8ecf0"/>
        <path id="Path_1285161" data-name="Path 1285161" d="M393.941,72.34V84.379h-2.605v3.2H386.2V72.34Z" transform="translate(-314.337 -58.879)" fill="#f2f4f6"/>
        <path id="Path_1285162" data-name="Path 1285162" d="M3.684,95.014H11.5a1.04,1.04,0,0,0,1.042-1.042V70.489A2.556,2.556,0,0,0,15.2,67.94v-42a2.534,2.534,0,0,0-1.619-2.363V19.132a1.04,1.04,0,0,0-1.042-1.042H10.755V1.082a1.042,1.042,0,0,0-2.084,0V18.09H6.531V1.082a1.042,1.042,0,0,0-2.084,0V18.09H2.661a1.04,1.04,0,0,0-1.042,1.042v4.447A2.534,2.534,0,0,0,0,25.942v42a2.556,2.556,0,0,0,2.661,2.549V93.972A1.013,1.013,0,0,0,3.684,95.014Zm6.773-2.084H4.726V70.489h5.731ZM3.7,20.174h7.815v3.219H3.7ZM2.065,25.942a.461.461,0,0,1,.465-.465H12.653a.483.483,0,0,1,.465.447L2.084,31.636V25.942Zm0,8.039,11.053-5.713v4.447L2.065,38.428Zm0,6.792L13.118,35.06v4.447L2.065,45.22Zm0,6.81L13.118,41.87v4.447L2.065,52.03Zm0,6.792,11.053-5.713v4.447L2.065,58.822Zm0,6.792,11.053-5.713V59.9L2.065,65.614ZM2.549,68.4a.483.483,0,0,1-.465-.447l11.034-5.713V67.94a.461.461,0,0,1-.465.465Z" transform="translate(0 -0.033)"/>
        <path id="Path_1285163" data-name="Path 1285163" d="M121.687,94.981h4.652a1.04,1.04,0,0,0,1.042-1.042V65.86a5.993,5.993,0,0,0,2.68-5.005v-16.3H131.1a1.04,1.04,0,0,0,1.042-1.042V24.4A1.04,1.04,0,0,0,131.1,23.36H130V19.1c-.037-.93-.837-1.116-1.619-1.042L131.94,1.273a1.036,1.036,0,1,0-2.028-.428l-3.647,17.231H125V1.049a1.042,1.042,0,0,0-2.084,0V18.057H121.65L118,.826a1.036,1.036,0,1,0-2.028.428l3.554,16.784c-.744-.093-1.489.2-1.489,1.042v4.261h-1.1a1.04,1.04,0,0,0-1.042,1.042v19.11a1.04,1.04,0,0,0,1.042,1.042h1.042v16.3a5.981,5.981,0,0,0,2.68,4.987V93.9A1.023,1.023,0,0,0,121.687,94.981ZM125.3,92.9h-2.568V66.753a6.283,6.283,0,0,0,2.568,0Zm-5.173-72.756h7.8V23.36h-7.8Zm-2.158,5.3h12.1V42.47h-12.1Zm2.1,35.411v-16.3H128v16.3c-.149,5.21-7.815,5.21-7.927,0" transform="translate(-94.334 0)"/>
        <path id="Path_1285164" data-name="Path 1285164" d="M246.3,95.014h4.652a1.04,1.04,0,0,0,1.042-1.042V67.735H253.2a1.04,1.04,0,0,0,1.042-1.042V51.435a3.093,3.093,0,0,0,1.8-2.81V29.775a3.183,3.183,0,0,0-3.666-3.089V19.132a1.04,1.04,0,0,0-1.042-1.042h-1.675V1.082a1.042,1.042,0,0,0-2.084,0V18.09h-1.675a1.04,1.04,0,0,0-1.042,1.042v7.555a3.185,3.185,0,0,0-3.666,3.089v18.85a3.093,3.093,0,0,0,1.8,2.81V66.693a1.04,1.04,0,0,0,1.042,1.042h1.21V93.972a1.04,1.04,0,0,0,1.042,1.042m3.61-2.084H247.34V67.735h2.568Zm-2.959-72.756H250.3v6.513h-3.349Zm-3.666,28.451V29.775a1,1,0,0,1,1-1h8.671a1,1,0,0,1,1,1v18.85a1,1,0,0,1-1,1h-8.671a1,1,0,0,1-1-1m1.8,3.089h7.071V65.651h-7.071Z" transform="translate(-196.317 -0.033)"/>
        <path id="Path_1285165" data-name="Path 1285165" d="M276.542,190.34a1.04,1.04,0,0,0-1.042,1.042v7.313a1.042,1.042,0,1,0,2.084,0v-7.331a1.036,1.036,0,0,0-1.042-1.023" transform="translate(-224.236 -154.922)"/>
        <path id="Path_1285166" data-name="Path 1285166" d="M367.97,66.84H357.14a1.04,1.04,0,0,0-1.042,1.042v11h-.856a1.04,1.04,0,0,0-1.042,1.042V87.2a1.431,1.431,0,0,0,.037.279l2.977,11.053c.223.912,1.247.782,1.972.763v49.069a1.04,1.04,0,0,0,1.042,1.042h4.652a1.04,1.04,0,0,0,1.042-1.042V99.273c.726,0,1.749.149,1.972-.763l2.977-11.053a1.436,1.436,0,0,0,.037-.279V79.9a1.04,1.04,0,0,0-1.042-1.042h-.856V67.882a1.04,1.04,0,0,0-1.042-1.042m-9.788,2.084h1.507v4.6a1.042,1.042,0,0,0,2.084,0v-4.6h1.563v4.6a1.042,1.042,0,1,0,2.084,0v-4.6h1.507v9.955h-1.563a1.04,1.04,0,0,0-1.042,1.042V82.08h-3.535V79.921a1.04,1.04,0,0,0-1.042-1.042h-1.563Zm5.657,78.376h-2.568V99.273h2.568Zm5.005-61.164H364.9a1.042,1.042,0,1,0,0,2.084h3.628l-.6,2.214H364.9a1.042,1.042,0,0,0,0,2.084h2.475l-1.265,4.671h-7.09l-1.265-4.671h2.475a1.042,1.042,0,0,0,0-2.084H357.2l-.6-2.214h3.629a1.042,1.042,0,1,0,0-2.084h-3.945V80.945H358.7V83.1a1.04,1.04,0,0,0,1.042,1.042h5.62a1.04,1.04,0,0,0,1.042-1.042V80.945h2.419v5.192Z" transform="translate(-288.291 -54.403)"/>
      </g>
    </g>
  </g>
</svg>
