<svg xmlns="http://www.w3.org/2000/svg" xmlns:xlink="http://www.w3.org/1999/xlink" width="95" height="95" viewBox="0 0 95 95">
  <defs>
    <clipPath id="clip-path">
      <rect id="Rectangle_413467" data-name="Rectangle 413467" width="95" height="80" transform="translate(0 0)" fill="none"/>
    </clipPath>
  </defs>
  <g id="Group_1222586" data-name="Group 1222586" transform="translate(2900 8723)">
    <rect id="Rectangle_413458" data-name="Rectangle 413458" width="95" height="95" transform="translate(-2900 -8723)" fill="none"/>
    <g id="Group_1222579" data-name="Group 1222579" transform="translate(-2900.373 -8714.931)">
      <g id="Group_1222578" data-name="Group 1222578" transform="translate(0.373 -0.069)" clip-path="url(#clip-path)">
        <rect id="Rectangle_413463" data-name="Rectangle 413463" width="92" height="61" rx="30.5" transform="translate(1 2)" fill="#6d6d6d"/>
        <path id="Path_1285098" data-name="Path 1285098" d="M107.448,8H27.626a6.071,6.071,0,0,0-2.938.78,61.4,61.4,0,0,0,61.27,57.552h26.779a6.071,6.071,0,0,0,.852-3.07V14.14A6.14,6.14,0,0,0,107.448,8" transform="translate(-20.123 -6.366)" fill="#848484"/>
        <rect id="Rectangle_413464" data-name="Rectangle 413464" width="92" height="46" transform="translate(1 8)" fill="#43fff1"/>
        <path id="Path_1285099" data-name="Path 1285099" d="M27.712,40A61.448,61.448,0,0,0,61.647,86.051h54.385V40Z" transform="translate(-22.567 -32.226)" fill="#99fff7"/>
        <path id="Path_1285100" data-name="Path 1285100" d="M163.07,376H190.7a3.07,3.07,0,1,1,0,6.14H163.07a3.07,3.07,0,1,1,0-6.14" transform="translate(-129.472 -303.754)" fill="#4d4d4d"/>
        <rect id="Rectangle_413465" data-name="Rectangle 413465" width="15" height="9" transform="translate(40 63)" fill="#4d4d4d"/>
        <rect id="Rectangle_413466" data-name="Rectangle 413466" width="15" height="6" transform="translate(40 66)" fill="#606060"/>
        <path id="Path_1285101" data-name="Path 1285101" d="M125.576,94.14A13.917,13.917,0,0,0,114.1,88h-12.28a13.815,13.815,0,1,0,0,27.631H114.1a13.879,13.879,0,0,0,4.605-.783l.02-.015a13.816,13.816,0,0,1-6.9-5.342h-10.01a7.675,7.675,0,1,1,0-15.35H114.1a7.654,7.654,0,0,1,4.588,1.549,7.8,7.8,0,0,1,.846.692,7.69,7.69,0,0,1-.812,11.56,7.654,7.654,0,0,0,4.588,1.549h2.267a13.776,13.776,0,0,0,0-15.35Z" transform="translate(-71.287 -71.016)" fill="#a0a0a0"/>
        <path id="Path_1285102" data-name="Path 1285102" d="M235.966,92.052A13.745,13.745,0,0,0,226.2,88h-12.28a13.878,13.878,0,0,0-4.605.783l-.02.015a13.816,13.816,0,0,1,6.9,5.342H226.2a7.675,7.675,0,1,1,0,15.35h-12.28a7.654,7.654,0,0,1-4.588-1.549,7.8,7.8,0,0,1-.846-.692,7.69,7.69,0,0,1,.812-11.56,7.654,7.654,0,0,0-4.588-1.549h-2.267a13.835,13.835,0,0,0,11.477,21.491H226.2a13.806,13.806,0,0,0,9.763-23.578" transform="translate(-161.904 -71.016)" fill="#f9e958"/>
        <path id="Path_1285103" data-name="Path 1285103" d="M101.815,94.14H114.1a7.654,7.654,0,0,1,4.588,1.549,7.8,7.8,0,0,1,.846.692,7.709,7.709,0,0,1,2.241,5.434h6.14A13.867,13.867,0,0,0,114.1,88h-12.28A13.815,13.815,0,0,0,88,101.815h6.14a7.675,7.675,0,0,1,7.675-7.675" transform="translate(-71.287 -71.016)" fill="#cecece"/>
        <path id="Path_1285104" data-name="Path 1285104" d="M264.8,88h-12.28a13.878,13.878,0,0,0-4.605.783l-.02.015a13.815,13.815,0,0,1,6.9,5.342H264.8a7.652,7.652,0,0,1,7.675,7.629v.046h6.14A13.837,13.837,0,0,0,264.8,88" transform="translate(-200.502 -71.016)" fill="#eddf2e"/>
        <path id="Path_1285105" data-name="Path 1285105" d="M209.193,121.549A7.654,7.654,0,0,0,204.605,120h-2.267A13.727,13.727,0,0,0,200,127.675h6.14a7.675,7.675,0,0,1,3.053-6.126" transform="translate(-161.796 -96.876)" fill="#eddf2e"/>
        <path id="Path_1285106" data-name="Path 1285106" d="M337.21,160a9.21,9.21,0,1,1-9.21,9.21,9.21,9.21,0,0,1,9.21-9.21" transform="translate(-265.236 -129.2)" fill="#00b250"/>
        <path id="Path_1285107" data-name="Path 1285107" d="M337.306,175a1.535,1.535,0,0,1-1.105.536h-.06a1.535,1.535,0,0,1-1.085-.45l-4.605-4.605,2.171-2.171,3.432,3.432,7.829-9.135a9.153,9.153,0,1,0,1.925,2.471Z" transform="translate(-265.701 -129.389)" fill="#00b250"/>
        <path id="Path_1285108" data-name="Path 1285108" d="M340.515,178.333l-2.171,2.171,4.605,4.605a1.535,1.535,0,0,0,1.085.45h.06a1.534,1.534,0,0,0,1.105-.536l8.5-9.919a9.21,9.21,0,0,0-1.925-2.471l-7.829,9.135Z" transform="translate(-273.595 -139.408)" fill="#fff"/>
        <path id="Path_1285109" data-name="Path 1285109" d="M87.5,0H7.675A7.684,7.684,0,0,0,0,7.675V56.8a7.684,7.684,0,0,0,7.675,7.675h30.7v6.14H33.771a4.605,4.605,0,1,0,0,9.21H61.4a4.605,4.605,0,1,0,0-9.21H56.8v-6.14H87.5A7.684,7.684,0,0,0,95.172,56.8V7.675A7.684,7.684,0,0,0,87.5,0M92.1,52.191H3.07V9.21H92.1ZM7.675,3.07H87.5A4.605,4.605,0,0,1,91.82,6.14H3.353A4.605,4.605,0,0,1,7.675,3.07ZM62.937,75.217A1.535,1.535,0,0,1,61.4,76.752H33.771a1.535,1.535,0,1,1,0-3.07H61.4a1.535,1.535,0,0,1,1.535,1.535m-9.21-4.605H41.446v-6.14h12.28ZM87.5,61.4H7.675A4.605,4.605,0,0,1,3.07,56.8V55.261H92.1V56.8A4.605,4.605,0,0,1,87.5,61.4" transform="translate(-0.172 0.099)"/>
        <path id="Path_1285110" data-name="Path 1285110" d="M95.35,110.7h12.28a15.373,15.373,0,0,0,4.593-.712,15.311,15.311,0,0,0,4.617.712h11.151a10.745,10.745,0,1,0,16.387-13.746,15.556,15.556,0,0,0,.094-1.6A15.367,15.367,0,0,0,129.121,80h-12.28a15.308,15.308,0,0,0-4.591.714A15.268,15.268,0,0,0,107.631,80H95.35a15.35,15.35,0,0,0,0,30.7Zm21.491-3.07a12.233,12.233,0,0,1-10.592-18.42h1.382a6.049,6.049,0,0,1,2.032.373,9.118,9.118,0,0,0-2.032,5.767,9.219,9.219,0,0,0,9.21,9.21h9.21a10.676,10.676,0,0,0,.461,3.07Zm-14.059-6.14H95.35a6.14,6.14,0,0,1,0-12.28H102.8A15.157,15.157,0,0,0,102.781,101.491Zm9.464-2.111a6.056,6.056,0,0,1-.018-8.059,6.056,6.056,0,0,1,.018,8.059m14.267,2.111h-4.838a15.157,15.157,0,0,0,.017-12.28h7.431a6.14,6.14,0,0,1,5.968,4.759,10.762,10.762,0,0,0-8.578,7.522M136.8,112.236A7.675,7.675,0,1,1,142,98.95l-6.822,7.958-3.432-3.432-2.171,2.171,4.605,4.605a1.535,1.535,0,0,0,1.085.45h.06a1.535,1.535,0,0,0,1.105-.536l7.411-8.644a7.664,7.664,0,0,1-7.041,10.715M116.841,83.07h12.28a12.28,12.28,0,0,1,12.256,11.784,10.623,10.623,0,0,0-3.168-.935,9.21,9.21,0,0,0-9.087-7.78h-9.239a15.466,15.466,0,0,0-3.078-3.07Zm-21.491,0h12.28a12.233,12.233,0,0,1,10.6,18.42h-1.389a6.049,6.049,0,0,1-2.032-.373,9.118,9.118,0,0,0,2.032-5.767,9.219,9.219,0,0,0-9.21-9.21H95.35a9.21,9.21,0,0,0,0,18.42h9.239a15.466,15.466,0,0,0,3.078,3.07H95.35a12.28,12.28,0,0,1,0-24.561Z" transform="translate(-64.822 -64.551)"/>
      </g>
    </g>
  </g>
</svg>
