<svg xmlns="http://www.w3.org/2000/svg" width="95" height="95" viewBox="0 0 95 95">
  <g id="Group_1223151" data-name="Group 1223151" transform="translate(2466 11284)">
    <rect id="Rectangle_414280" data-name="Rectangle 414280" width="95" height="95" transform="translate(-2466 -11284)" fill="none"/>
    <g id="Group_1223137" data-name="Group 1223137" transform="translate(1341.617 -237.197)">
      <ellipse id="Ellipse_12937" data-name="Ellipse 12937" cx="28.658" cy="28.658" rx="28.658" ry="28.658" transform="translate(-3770.09 -11011.514)" fill="#ffc94a"/>
      <ellipse id="Ellipse_12938" data-name="Ellipse 12938" cx="20.842" cy="20.842" rx="20.842" ry="20.842" transform="translate(-3806.617 -11044.803)" fill="#ffc94a"/>
    </g>
    <path id="Path_1287144" data-name="Path 1287144" d="M39.784,124.9l-38.2-.012A1.487,1.487,0,0,1,0,123.341l.015-36.1a1.24,1.24,0,0,1,1.21-1.133l38.766.025A1.359,1.359,0,0,1,41.537,87.6L41.5,122.931a1.977,1.977,0,0,1-1.714,1.971" transform="translate(-2459.65 -11325.951)" fill="#4a5d6f" stroke="#000" stroke-width="1" stroke-dasharray="90 3"/>
    <path id="Path_1287145" data-name="Path 1287145" d="M40.5,14.248H1.572A1.441,1.441,0,0,1,0,12.712L.005,1.93A1.83,1.83,0,0,1,1.945,0L40,.017c.964,0,1.391.714,1.55,1.535l0,11.151A1.484,1.484,0,0,1,40.5,14.248" transform="translate(-2459.65 -11273)" fill="#4a5d6f" stroke="#000" stroke-width="1" stroke-dasharray="90 3"/>
    <rect id="Rectangle_414249" data-name="Rectangle 414249" width="41.563" height="14.002" transform="translate(-2459.644 -11256.205)" fill="#4a5d6f" stroke="#000" stroke-width="1" stroke-dasharray="90 3"/>
    <rect id="Rectangle_414250" data-name="Rectangle 414250" width="5.273" height="2.305" transform="translate(-2438.264 -11229.712)" fill="#fff01e" stroke="#000" stroke-width="1" stroke-dasharray="90 3"/>
    <rect id="Rectangle_414251" data-name="Rectangle 414251" width="5.204" height="2.311" transform="translate(-2445.51 -11229.719)" fill="#fefefe" stroke="#000" stroke-width="1" stroke-dasharray="90 3"/>
    <path id="Path_1287146" data-name="Path 1287146" d="M22.747,114.74l-5.178.007a17.245,17.245,0,0,1-.022-2.264l5.207.021Z" transform="translate(-2470.424 -11342.17)" fill="#fff01e" stroke="#000" stroke-width="1" stroke-dasharray="90 3"/>
    <rect id="Rectangle_414252" data-name="Rectangle 414252" width="3.232" height="2.318" transform="translate(-2430.949 -11229.726)" fill="#fefefe" stroke="#000" stroke-width="1" stroke-dasharray="90 3"/>
    <rect id="Rectangle_414253" data-name="Rectangle 414253" width="3.232" height="2.327" transform="translate(-2425.846 -11229.735)" fill="#fff01e" stroke="#000" stroke-width="1" stroke-dasharray="90 3"/>
    <path id="Path_1287147" data-name="Path 1287147" d="M36.656,99.185l-3.149.013a8.789,8.789,0,0,1,.01-1.972l3.112-.059a9.026,9.026,0,0,1,.027,2.019" transform="translate(-2480.223 -11332.751)" fill="#fefefe" stroke="#000" stroke-width="1" stroke-dasharray="90 3"/>
    <rect id="Rectangle_414254" data-name="Rectangle 414254" width="3.211" height="2.061" transform="translate(-2451.533 -11235.591)" fill="#fff01e" stroke="#000" stroke-width="1" stroke-dasharray="90 3"/>
    <path id="Path_1287149" data-name="Path 1287149" d="M49.322,99.248l-2.91,0a6.244,6.244,0,0,1-.049-1.982l2.936,0a8.878,8.878,0,0,1,.023,1.982" transform="translate(-2488.127 -11332.813)" fill="#fefefe" stroke="#000" stroke-width="1" stroke-dasharray="90 3"/>
    <path id="Path_1287150" data-name="Path 1287150" d="M73.49,99.2l-2.963,0a8.6,8.6,0,0,1,.042-2,26.066,26.066,0,0,1,2.922.069,5.447,5.447,0,0,1,0,1.935" transform="translate(-2502.997 -11332.768)" fill="#fefefe" stroke="#000" stroke-width="1" stroke-dasharray="90 3"/>
    <path id="Path_1287152" data-name="Path 1287152" d="M11.582,99.181a19.649,19.649,0,0,1-2.851.026,7.351,7.351,0,0,1,.018-1.97,24.2,24.2,0,0,1,2.782-.01,14.421,14.421,0,0,1,.051,1.953" transform="translate(-2464.984 -11332.766)" fill="#fefefe" stroke="#000" stroke-width="1" stroke-dasharray="90 3"/>
    <rect id="Rectangle_414255" data-name="Rectangle 414255" width="2.857" height="2.062" transform="translate(-2437.014 -11235.592)" fill="#fefefe" stroke="#000" stroke-width="1" stroke-dasharray="90 3"/>
    <rect id="Rectangle_414256" data-name="Rectangle 414256" width="5.273" height="2.305" transform="translate(-2438.629 -11214.722)" fill="#fff01e" stroke="#000" stroke-width="1" stroke-dasharray="90 3"/>
    <rect id="Rectangle_414257" data-name="Rectangle 414257" width="5.204" height="2.311" transform="translate(-2445.874 -11214.728)" fill="#fff01e" stroke="#000" stroke-width="1" stroke-dasharray="90 3"/>
    <path id="Path_1287153" data-name="Path 1287153" d="M21.8,153.671l-5.178.007a17.245,17.245,0,0,1-.022-2.264l5.207.021Z" transform="translate(-2469.842 -11366.109)" fill="#fefefe" stroke="#000" stroke-width="1" stroke-dasharray="90 3"/>
    <rect id="Rectangle_414258" data-name="Rectangle 414258" width="3.232" height="2.318" transform="translate(-2431.314 -11214.734)" fill="#fefefe" stroke="#000" stroke-width="1" stroke-dasharray="90 3"/>
    <rect id="Rectangle_414259" data-name="Rectangle 414259" width="3.232" height="2.327" transform="translate(-2426.21 -11214.744)" fill="#fff01e" stroke="#000" stroke-width="1" stroke-dasharray="90 3"/>
    <path id="Path_1287154" data-name="Path 1287154" d="M35.709,138.117l-3.149.013a8.789,8.789,0,0,1,.01-1.972l3.112-.059a9.027,9.027,0,0,1,.027,2.019" transform="translate(-2479.641 -11356.691)" fill="#fefefe" stroke="#000" stroke-width="1" stroke-dasharray="90 3"/>
    <path id="Path_1287155" data-name="Path 1287155" d="M84.757,138.177l-3.13.018a11.02,11.02,0,0,1,.008-1.985l3.086.03a10.2,10.2,0,0,1,.035,1.936" transform="translate(-2509.821 -11356.761)" fill="#fefefe" stroke="#000" stroke-width="1" stroke-dasharray="90 3"/>
    <rect id="Rectangle_414260" data-name="Rectangle 414260" width="3.211" height="2.061" transform="translate(-2451.898 -11220.6)" fill="#fff01e" stroke="#000" stroke-width="1" stroke-dasharray="90 3"/>
    <path id="Path_1287156" data-name="Path 1287156" d="M48.376,138.179l-2.91,0a6.244,6.244,0,0,1-.049-1.982l2.936,0a8.878,8.878,0,0,1,.023,1.982" transform="translate(-2487.546 -11356.752)" fill="#fefefe" stroke="#000" stroke-width="1" stroke-dasharray="90 3"/>
    <path id="Path_1287157" data-name="Path 1287157" d="M72.543,138.137l-2.963,0a8.6,8.6,0,0,1,.042-2,26.061,26.061,0,0,1,2.922.069,5.447,5.447,0,0,1,0,1.935" transform="translate(-2502.415 -11356.709)" fill="#fefefe" stroke="#000" stroke-width="1" stroke-dasharray="90 3"/>
    <path id="Path_1287158" data-name="Path 1287158" d="M96.65,138.211l-2.9.013a5.236,5.236,0,0,1,.087-1.936l2.788-.021a9.727,9.727,0,0,1,.023,1.945" transform="translate(-2517.271 -11356.795)" fill="#fff01e" stroke="#000" stroke-width="1" stroke-dasharray="90 3"/>
    <path id="Path_1287159" data-name="Path 1287159" d="M10.636,138.112a19.647,19.647,0,0,1-2.851.026,7.351,7.351,0,0,1,.018-1.97,24.2,24.2,0,0,1,2.782-.01,14.421,14.421,0,0,1,.051,1.953" transform="translate(-2464.402 -11356.706)" fill="#fefefe" stroke="#000" stroke-width="1" stroke-dasharray="90 3"/>
    <rect id="Rectangle_414261" data-name="Rectangle 414261" width="2.857" height="2.062" transform="translate(-2437.379 -11220.601)" fill="#fefefe" stroke="#000" stroke-width="1" stroke-dasharray="90 3"/>
    <path id="Path_1287160" data-name="Path 1287160" d="M27.757,55.4H22.99V52.589h4.767Zm-1.808-1.1a.392.392,0,1,0-.392.392.392.392,0,0,0,.392-.392" transform="translate(-2473.788 -11305.339)" fill="#fefefe" stroke="#000" stroke-width="1" stroke-dasharray="90 3"/>
    <path id="Path_1287161" data-name="Path 1287161" d="M43.581,55.4h-4.4V52.589h4.4Zm-1.7-1.1a.391.391,0,1,0-.391.391.391.391,0,0,0,.391-.391" transform="translate(-2483.743 -11305.339)" fill="#fefefe" stroke="#000" stroke-width="1" stroke-dasharray="90 3"/>
    <path id="Path_1287162" data-name="Path 1287162" d="M68.724,52.59h4.27V55.4h-4.27ZM71.2,54.3a.4.4,0,1,0-.4.4.4.4,0,0,0,.4-.4" transform="translate(-2501.911 -11305.34)" fill="#fefefe" stroke="#000" stroke-width="1" stroke-dasharray="90 3"/>
    <path id="Path_1287163" data-name="Path 1287163" d="M54.327,52.589h4.191V55.4H54.327Zm2.6,1.719a.393.393,0,1,0-.393.392.392.392,0,0,0,.393-.392" transform="translate(-2493.058 -11305.339)" fill="#fefefe" stroke="#000" stroke-width="1" stroke-dasharray="90 3"/>
    <path id="Path_1287164" data-name="Path 1287164" d="M29.422,56.414a.392.392,0,1,1-.392-.392.392.392,0,0,1,.392.392" transform="translate(-2477.26 -11307.45)" fill="#4a5d6f" stroke="#000" stroke-width="1" stroke-dasharray="90 3"/>
    <path id="Path_1287165" data-name="Path 1287165" d="M44.951,56.414a.391.391,0,1,1-.391-.391.391.391,0,0,1,.391.391" transform="translate(-2486.811 -11307.45)" fill="#4a5d6f" stroke="#000" stroke-width="1" stroke-dasharray="90 3"/>
    <path id="Path_1287166" data-name="Path 1287166" d="M73.878,56.4a.4.4,0,1,1-.4-.4.4.4,0,0,1,.4.4" transform="translate(-2504.593 -11307.438)" fill="#4a5d6f" stroke="#000" stroke-width="1" stroke-dasharray="90 3"/>
    <path id="Path_1287167" data-name="Path 1287167" d="M59.824,56.425a.393.393,0,1,1-.393-.392.392.392,0,0,1,.393.392" transform="translate(-2495.955 -11307.457)" fill="#4a5d6f" stroke="#000" stroke-width="1" stroke-dasharray="90 3"/>
    <path id="Path_1287168" data-name="Path 1287168" d="M43.921,67.8a6.03,6.03,0,0,0,.47,2.782,7.1,7.1,0,0,0,4.733,3.944c.523.136.737.387.658.883-.075.48-.441.67-.975.541a8.358,8.358,0,0,1-6.029-5.393,14.14,14.14,0,0,1-.441-2.74c.224-.448,1.311-.42,1.583-.016" transform="translate(-2485.685 -11314.5)" fill="#d73242" stroke="#000" stroke-width="1" stroke-dasharray="90 3"/>
    <path id="Path_1287169" data-name="Path 1287169" d="M28.41,67.8c.047.405.178,2.762.479,2.9a7.56,7.56,0,0,0,3.224,4.239c.459.3,1.029.377,1.369.818a.829.829,0,0,1-.085.834c-.73.933-5.119-1.7-6.07-6.024a15.653,15.653,0,0,1-.25-2.766c.092-.448,1.221-.445,1.334,0" transform="translate(-2476.3 -11314.486)" fill="#3f9145" stroke="#000" stroke-width="1" stroke-dasharray="90 3"/>
    <path id="Path_1287170" data-name="Path 1287170" d="M27.018,65.632a3.633,3.633,0,0,0-1.334,0,2.344,2.344,0,0,1-.855-.044,11.471,11.471,0,0,1,.024-1.6,30.156,30.156,0,0,1,3.156-.008,6.49,6.49,0,0,1,.015,1.627Z" transform="translate(-2474.908 -11312.318)" fill="#74b731" stroke="#000" stroke-width="1" stroke-dasharray="90 3"/>
    <path id="Path_1287171" data-name="Path 1287171" d="M42.7,65.637a7.418,7.418,0,0,0-1.583.016,1.671,1.671,0,0,1-.764-.064,10.947,10.947,0,0,1,.065-1.617l3.1.021a8.351,8.351,0,0,1,0,1.6,6.17,6.17,0,0,1-.814.04" transform="translate(-2484.465 -11312.339)" fill="#f65d3f" stroke="#000" stroke-width="1" stroke-dasharray="90 3"/>
    <path id="Path_1287172" data-name="Path 1287172" d="M74.175,67.631a6.03,6.03,0,0,0,.47,2.782,7.1,7.1,0,0,0,4.733,3.944c.523.136.737.387.658.883-.075.48-.441.67-.975.541a8.358,8.358,0,0,1-6.029-5.393,14.14,14.14,0,0,1-.441-2.74c.224-.448,1.311-.42,1.583-.016" transform="translate(-2504.29 -11314.397)" fill="#1d71c1" stroke="#000" stroke-width="1" stroke-dasharray="90 3"/>
    <path id="Path_1287173" data-name="Path 1287173" d="M58.664,67.634c.047.405.178,2.762.479,2.9a7.56,7.56,0,0,0,3.224,4.239c.459.3,1.029.377,1.369.818a.829.829,0,0,1-.085.834c-.73.933-5.119-1.7-6.07-6.024a15.653,15.653,0,0,1-.25-2.766c.092-.448,1.221-.445,1.334,0" transform="translate(-2494.904 -11314.385)" fill="#1d71c1" stroke="#000" stroke-width="1" stroke-dasharray="90 3"/>
    <path id="Path_1287174" data-name="Path 1287174" d="M57.272,65.466a3.633,3.633,0,0,0-1.334,0,2.344,2.344,0,0,1-.855-.044,11.47,11.47,0,0,1,.024-1.6,30.154,30.154,0,0,1,3.156-.008,6.49,6.49,0,0,1,.015,1.627Z" transform="translate(-2493.513 -11312.217)" fill="#2698ea" stroke="#000" stroke-width="1" stroke-dasharray="90 3"/>
    <path id="Path_1287175" data-name="Path 1287175" d="M72.955,65.47a7.418,7.418,0,0,0-1.583.016,1.671,1.671,0,0,1-.764-.064,10.947,10.947,0,0,1,.065-1.617l3.1.021a8.351,8.351,0,0,1,0,1.6,6.169,6.169,0,0,1-.814.04" transform="translate(-2503.07 -11312.236)" fill="#2698ea" stroke="#000" stroke-width="1" stroke-dasharray="90 3"/>
    <path id="Path_1287176" data-name="Path 1287176" d="M14.055,14.436a2.546,2.546,0,1,1-2.546-2.545,2.545,2.545,0,0,1,2.546,2.545" transform="translate(-2465.162 -11280.313)" fill="#8bc7ee" stroke="#000" stroke-width="1" stroke-dasharray="90 3"/>
    <path id="Path_1287144-2" data-name="Path 1287144" d="M39.784,124.9l-38.2-.012A1.487,1.487,0,0,1,0,123.341l.015-36.1a1.24,1.24,0,0,1,1.21-1.133l38.766.025A1.359,1.359,0,0,1,41.537,87.6L41.5,122.931a1.977,1.977,0,0,1-1.714,1.971" transform="translate(-2418.079 -11325.951)" fill="#4a5d6f" stroke="#000" stroke-width="1" stroke-dasharray="90 3"/>
    <path id="Path_1287145-2" data-name="Path 1287145" d="M40.5,14.248H1.572A1.441,1.441,0,0,1,0,12.712L.005,1.93A1.83,1.83,0,0,1,1.945,0L40,.017c.964,0,1.391.714,1.55,1.535l0,11.151A1.484,1.484,0,0,1,40.5,14.248" transform="translate(-2418.079 -11273)" fill="#4a5d6f" stroke="#000" stroke-width="1" stroke-dasharray="90 3"/>
    <rect id="Rectangle_414249-2" data-name="Rectangle 414249" width="41.563" height="14.002" transform="translate(-2418.073 -11256.205)" fill="#4a5d6f" stroke="#000" stroke-width="1" stroke-dasharray="90 3"/>
    <rect id="Rectangle_414250-2" data-name="Rectangle 414250" width="5.273" height="2.305" transform="translate(-2396.693 -11229.712)" fill="#fefefe" stroke="#000" stroke-width="1" stroke-dasharray="90 3"/>
    <rect id="Rectangle_414252-2" data-name="Rectangle 414252" width="3.232" height="2.318" transform="translate(-2389.378 -11229.726)" fill="#fefefe" stroke="#000" stroke-width="1" stroke-dasharray="90 3"/>
    <rect id="Rectangle_414253-2" data-name="Rectangle 414253" width="3.232" height="2.327" transform="translate(-2384.275 -11229.735)" fill="#fff01e" stroke="#000" stroke-width="1" stroke-dasharray="90 3"/>
    <path id="Path_1287148" data-name="Path 1287148" d="M85.7,99.246l-3.13.018a11.021,11.021,0,0,1,.008-1.985l3.086.03a10.2,10.2,0,0,1,.035,1.936" transform="translate(-2468.832 -11332.82)" fill="#fefefe" stroke="#000" stroke-width="1" stroke-dasharray="90 3"/>
    <rect id="Rectangle_414254-2" data-name="Rectangle 414254" width="3.211" height="2.061" transform="translate(-2409.962 -11235.591)" fill="#fefefe" stroke="#000" stroke-width="1" stroke-dasharray="90 3"/>
    <path id="Path_1287149-2" data-name="Path 1287149" d="M49.322,99.248l-2.91,0a6.244,6.244,0,0,1-.049-1.982l2.936,0a8.878,8.878,0,0,1,.023,1.982" transform="translate(-2446.556 -11332.813)" fill="#fefefe" stroke="#000" stroke-width="1" stroke-dasharray="90 3"/>
    <path id="Path_1287150-2" data-name="Path 1287150" d="M73.49,99.2l-2.963,0a8.6,8.6,0,0,1,.042-2,26.066,26.066,0,0,1,2.922.069,5.447,5.447,0,0,1,0,1.935" transform="translate(-2461.426 -11332.768)" fill="#fff01e" stroke="#000" stroke-width="1" stroke-dasharray="90 3"/>
    <path id="Path_1287151" data-name="Path 1287151" d="M97.6,99.279l-2.9.013a5.244,5.244,0,0,1,.087-1.936l2.788-.021a9.728,9.728,0,0,1,.023,1.945" transform="translate(-2476.282 -11332.854)" fill="#fefefe" stroke="#000" stroke-width="1" stroke-dasharray="90 3"/>
    <path id="Path_1287152-2" data-name="Path 1287152" d="M11.582,99.181a19.649,19.649,0,0,1-2.851.026,7.351,7.351,0,0,1,.018-1.97,24.2,24.2,0,0,1,2.782-.01,14.421,14.421,0,0,1,.051,1.953" transform="translate(-2423.413 -11332.766)" fill="#fefefe" stroke="#000" stroke-width="1" stroke-dasharray="90 3"/>
    <rect id="Rectangle_414255-2" data-name="Rectangle 414255" width="2.857" height="2.062" transform="translate(-2395.443 -11235.592)" fill="#fefefe" stroke="#000" stroke-width="1" stroke-dasharray="90 3"/>
    <rect id="Rectangle_414256-2" data-name="Rectangle 414256" width="5.273" height="2.305" transform="translate(-2397.057 -11214.722)" fill="#fff01e" stroke="#000" stroke-width="1" stroke-dasharray="90 3"/>
    <rect id="Rectangle_414257-2" data-name="Rectangle 414257" width="5.204" height="2.311" transform="translate(-2404.303 -11214.728)" fill="#fff01e" stroke="#000" stroke-width="1" stroke-dasharray="90 3"/>
    <path id="Path_1287153-2" data-name="Path 1287153" d="M21.8,153.671l-5.178.007a17.245,17.245,0,0,1-.022-2.264l5.207.021Z" transform="translate(-2428.271 -11366.109)" fill="#fefefe" stroke="#000" stroke-width="1" stroke-dasharray="90 3"/>
    <rect id="Rectangle_414258-2" data-name="Rectangle 414258" width="3.232" height="2.318" transform="translate(-2389.743 -11214.734)" fill="#fff01e" stroke="#000" stroke-width="1" stroke-dasharray="90 3"/>
    <rect id="Rectangle_414259-2" data-name="Rectangle 414259" width="3.232" height="2.327" transform="translate(-2384.639 -11214.744)" fill="#fff01e" stroke="#000" stroke-width="1" stroke-dasharray="90 3"/>
    <path id="Path_1287154-2" data-name="Path 1287154" d="M35.709,138.117l-3.149.013a8.789,8.789,0,0,1,.01-1.972l3.112-.059a9.027,9.027,0,0,1,.027,2.019" transform="translate(-2438.07 -11356.691)" fill="#fefefe" stroke="#000" stroke-width="1" stroke-dasharray="90 3"/>
    <path id="Path_1287155-2" data-name="Path 1287155" d="M84.757,138.177l-3.13.018a11.02,11.02,0,0,1,.008-1.985l3.086.03a10.2,10.2,0,0,1,.035,1.936" transform="translate(-2468.249 -11356.761)" fill="#fefefe" stroke="#000" stroke-width="1" stroke-dasharray="90 3"/>
    <path id="Path_1287156-2" data-name="Path 1287156" d="M48.376,138.179l-2.91,0a6.244,6.244,0,0,1-.049-1.982l2.936,0a8.878,8.878,0,0,1,.023,1.982" transform="translate(-2445.975 -11356.752)" fill="#fff01e" stroke="#000" stroke-width="1" stroke-dasharray="90 3"/>
    <path id="Path_1287158-2" data-name="Path 1287158" d="M96.65,138.211l-2.9.013a5.236,5.236,0,0,1,.087-1.936l2.788-.021a9.727,9.727,0,0,1,.023,1.945" transform="translate(-2475.7 -11356.795)" fill="#fefefe" stroke="#000" stroke-width="1" stroke-dasharray="90 3"/>
    <path id="Path_1287159-2" data-name="Path 1287159" d="M10.636,138.112a19.647,19.647,0,0,1-2.851.026,7.351,7.351,0,0,1,.018-1.97,24.2,24.2,0,0,1,2.782-.01,14.421,14.421,0,0,1,.051,1.953" transform="translate(-2422.831 -11356.706)" fill="#fefefe" stroke="#000" stroke-width="1" stroke-dasharray="90 3"/>
    <path id="Path_1287160-2" data-name="Path 1287160" d="M27.757,55.4H22.99V52.589h4.767Zm-1.808-1.1a.392.392,0,1,0-.392.392.392.392,0,0,0,.392-.392" transform="translate(-2432.216 -11305.339)" fill="#fff01e" stroke="#000" stroke-width="1" stroke-dasharray="90 3"/>
    <path id="Path_1287161-2" data-name="Path 1287161" d="M43.581,55.4h-4.4V52.589h4.4Zm-1.7-1.1a.391.391,0,1,0-.391.391.391.391,0,0,0,.391-.391" transform="translate(-2442.172 -11305.339)" fill="#fff01e" stroke="#000" stroke-width="1" stroke-dasharray="90 3"/>
    <path id="Path_1287162-2" data-name="Path 1287162" d="M68.724,52.59h4.27V55.4h-4.27ZM71.2,54.3a.4.4,0,1,0-.4.4.4.4,0,0,0,.4-.4" transform="translate(-2460.34 -11305.34)" fill="#fefefe" stroke="#000" stroke-width="1" stroke-dasharray="90 3"/>
    <path id="Path_1287163-2" data-name="Path 1287163" d="M54.327,52.589h4.191V55.4H54.327Zm2.6,1.719a.393.393,0,1,0-.393.392.392.392,0,0,0,.393-.392" transform="translate(-2451.486 -11305.339)" fill="#fefefe" stroke="#000" stroke-width="1" stroke-dasharray="90 3"/>
    <path id="Path_1287164-2" data-name="Path 1287164" d="M29.422,56.414a.392.392,0,1,1-.392-.392.392.392,0,0,1,.392.392" transform="translate(-2435.689 -11307.45)" fill="#4a5d6f" stroke="#000" stroke-width="1" stroke-dasharray="90 3"/>
    <path id="Path_1287165-2" data-name="Path 1287165" d="M44.951,56.414a.391.391,0,1,1-.391-.391.391.391,0,0,1,.391.391" transform="translate(-2445.24 -11307.45)" fill="#4a5d6f" stroke="#000" stroke-width="1" stroke-dasharray="90 3"/>
    <path id="Path_1287166-2" data-name="Path 1287166" d="M73.878,56.4a.4.4,0,1,1-.4-.4.4.4,0,0,1,.4.4" transform="translate(-2463.022 -11307.438)" fill="#4a5d6f" stroke="#000" stroke-width="1" stroke-dasharray="90 3"/>
    <path id="Path_1287167-2" data-name="Path 1287167" d="M59.824,56.425a.393.393,0,1,1-.393-.392.392.392,0,0,1,.393.392" transform="translate(-2454.384 -11307.457)" fill="#4a5d6f" stroke="#000" stroke-width="1" stroke-dasharray="90 3"/>
    <path id="Path_1287168-2" data-name="Path 1287168" d="M43.921,67.8a6.03,6.03,0,0,0,.47,2.782,7.1,7.1,0,0,0,4.733,3.944c.523.136.737.387.658.883-.075.48-.441.67-.975.541a8.358,8.358,0,0,1-6.029-5.393,14.14,14.14,0,0,1-.441-2.74c.224-.448,1.311-.42,1.583-.016" transform="translate(-2444.114 -11314.5)" fill="#d73242" stroke="#000" stroke-width="1" stroke-dasharray="90 3"/>
    <path id="Path_1287169-2" data-name="Path 1287169" d="M28.41,67.8c.047.405.178,2.762.479,2.9a7.56,7.56,0,0,0,3.224,4.239c.459.3,1.029.377,1.369.818a.829.829,0,0,1-.085.834c-.73.933-5.119-1.7-6.07-6.024a15.653,15.653,0,0,1-.25-2.766c.092-.448,1.221-.445,1.334,0" transform="translate(-2434.729 -11314.486)" fill="#3f9145" stroke="#000" stroke-width="1" stroke-dasharray="90 3"/>
    <path id="Path_1287170-2" data-name="Path 1287170" d="M27.018,65.632a3.633,3.633,0,0,0-1.334,0,2.344,2.344,0,0,1-.855-.044,11.471,11.471,0,0,1,.024-1.6,30.156,30.156,0,0,1,3.156-.008,6.49,6.49,0,0,1,.015,1.627Z" transform="translate(-2433.337 -11312.318)" fill="#74b731" stroke="#000" stroke-width="1" stroke-dasharray="90 3"/>
    <path id="Path_1287171-2" data-name="Path 1287171" d="M42.7,65.637a7.418,7.418,0,0,0-1.583.016,1.671,1.671,0,0,1-.764-.064,10.947,10.947,0,0,1,.065-1.617l3.1.021a8.351,8.351,0,0,1,0,1.6,6.17,6.17,0,0,1-.814.04" transform="translate(-2442.894 -11312.339)" fill="#f65d3f" stroke="#000" stroke-width="1" stroke-dasharray="90 3"/>
    <path id="Path_1287172-2" data-name="Path 1287172" d="M74.175,67.631a6.03,6.03,0,0,0,.47,2.782,7.1,7.1,0,0,0,4.733,3.944c.523.136.737.387.658.883-.075.48-.441.67-.975.541a8.358,8.358,0,0,1-6.029-5.393,14.14,14.14,0,0,1-.441-2.74c.224-.448,1.311-.42,1.583-.016" transform="translate(-2462.718 -11314.397)" fill="#1d71c1" stroke="#000" stroke-width="1" stroke-dasharray="90 3"/>
    <path id="Path_1287173-2" data-name="Path 1287173" d="M58.664,67.634c.047.405.178,2.762.479,2.9a7.56,7.56,0,0,0,3.224,4.239c.459.3,1.029.377,1.369.818a.829.829,0,0,1-.085.834c-.73.933-5.119-1.7-6.07-6.024a15.653,15.653,0,0,1-.25-2.766c.092-.448,1.221-.445,1.334,0" transform="translate(-2453.333 -11314.385)" fill="#1d71c1" stroke="#000" stroke-width="1" stroke-dasharray="90 3"/>
    <path id="Path_1287174-2" data-name="Path 1287174" d="M57.272,65.466a3.633,3.633,0,0,0-1.334,0,2.344,2.344,0,0,1-.855-.044,11.47,11.47,0,0,1,.024-1.6,30.154,30.154,0,0,1,3.156-.008,6.49,6.49,0,0,1,.015,1.627Z" transform="translate(-2451.941 -11312.217)" fill="#2698ea" stroke="#000" stroke-width="1" stroke-dasharray="90 3"/>
    <path id="Path_1287175-2" data-name="Path 1287175" d="M72.955,65.47a7.418,7.418,0,0,0-1.583.016,1.671,1.671,0,0,1-.764-.064,10.947,10.947,0,0,1,.065-1.617l3.1.021a8.351,8.351,0,0,1,0,1.6,6.169,6.169,0,0,1-.814.04" transform="translate(-2461.498 -11312.236)" fill="#2698ea" stroke="#000" stroke-width="1" stroke-dasharray="90 3"/>
    <path id="Path_1287176-2" data-name="Path 1287176" d="M14.055,14.436a2.546,2.546,0,1,1-2.546-2.545,2.545,2.545,0,0,1,2.546,2.545" transform="translate(-2423.591 -11280.313)" fill="#8bc7ee" stroke="#000" stroke-width="1" stroke-dasharray="90 3"/>
    <path id="Path_1287197" data-name="Path 1287197" d="M14.055,14.436a2.546,2.546,0,1,1-2.546-2.545,2.545,2.545,0,0,1,2.546,2.545" transform="translate(-2416.778 -11280.313)" fill="#8bc7ee" stroke="#000" stroke-width="1" stroke-dasharray="90 3"/>
    <path id="Path_1287198" data-name="Path 1287198" d="M14.055,14.436a2.546,2.546,0,1,1-2.546-2.545,2.545,2.545,0,0,1,2.546,2.545" transform="translate(-2409.966 -11280.313)" fill="#d73242" stroke="#000" stroke-width="1" stroke-dasharray="90 3"/>
    <path id="Path_1287199" data-name="Path 1287199" d="M14.055,14.436a2.546,2.546,0,1,1-2.546-2.545,2.545,2.545,0,0,1,2.546,2.545" transform="translate(-2403.154 -11280.313)" fill="#8bc7ee" stroke="#000" stroke-width="1" stroke-dasharray="90 3"/>
    <path id="Path_1287200" data-name="Path 1287200" d="M14.055,14.436a2.546,2.546,0,1,1-2.546-2.545,2.545,2.545,0,0,1,2.546,2.545" transform="translate(-2435.591 -11280.313)" fill="#8bc7ee" stroke="#000" stroke-width="1" stroke-dasharray="90 3"/>
  </g>
</svg>
