<svg xmlns="http://www.w3.org/2000/svg" width="95" height="95" viewBox="0 0 95 95">
  <g id="Group_1223142" data-name="Group 1223142" transform="translate(3431 11284)">
    <rect id="Rectangle_414273" data-name="Rectangle 414273" width="95" height="95" transform="translate(-3431 -11284)" fill="none"/>
    <g id="Group_1223130" data-name="Group 1223130" transform="translate(376.774 -237.197)">
      <ellipse id="Ellipse_12937" data-name="Ellipse 12937" cx="28.658" cy="28.658" rx="28.658" ry="28.658" transform="translate(-3770.09 -11011.514)" fill="#ffc94a"/>
      <ellipse id="Ellipse_12938" data-name="Ellipse 12938" cx="20.842" cy="20.842" rx="20.842" ry="20.842" transform="translate(-3806.617 -11044.803)" fill="#ffc94a"/>
    </g>
    <g id="Group_1223162" data-name="Group 1223162" transform="translate(-3429.344 -11263.672)">
      <g id="Group_1223164" data-name="Group 1223164" transform="translate(1.595 1.595)">
        <rect id="Rectangle_414292" data-name="Rectangle 414292" width="27.589" height="46.026" rx="3.525" transform="translate(61.947 2.49)" fill="#4a5d6f" stroke="#000" stroke-width="1"/>
        <rect id="Rectangle_414294" data-name="Rectangle 414294" width="5.517" height="2.637" transform="translate(65.066 48.517)" fill="#4a5d6f" stroke="#000" stroke-width="1"/>
        <rect id="Rectangle_414296" data-name="Rectangle 414296" width="5.518" height="2.637" transform="translate(80.899 48.517)" fill="#4a5d6f" stroke="#000" stroke-width="1"/>
        <rect id="Rectangle_414298" data-name="Rectangle 414298" width="22.071" height="6.472" transform="translate(64.586 5.607)" fill="#212f3c" stroke="#000" stroke-width="1"/>
        <rect id="Rectangle_414300" data-name="Rectangle 414300" width="27.109" height="2.637" transform="translate(62.187 28.14)" fill="#212f3c" stroke="#000" stroke-width="1"/>
        <rect id="Rectangle_414302" data-name="Rectangle 414302" width="2.639" height="1.199" transform="translate(66.385 7.165)" fill="#3e9bf7" stroke="#000" stroke-width="1"/>
        <rect id="Rectangle_414303" data-name="Rectangle 414303" width="2.639" height="1.199" transform="translate(66.385 7.165)" fill="none" stroke="#000" stroke-miterlimit="10" stroke-width="1"/>
        <path id="Path_1287302" data-name="Path 1287302" d="M204.015,113.411a2.735,2.735,0,1,1-2.735-2.733,2.734,2.734,0,0,1,2.735,2.733" transform="translate(-125.756 -70.363)" fill="#399529" stroke="#000" stroke-width="1"/>
        <line id="Line_996" data-name="Line 996" y2="2.397" transform="translate(75.381 45.76)" fill="#777" stroke="#000" stroke-width="1"/>
        <rect id="Rectangle_414304" data-name="Rectangle 414304" width="1.2" height="2.157" transform="translate(63.986 33.295)" fill="#3e9bf7" stroke="#000" stroke-width="1"/>
        <rect id="Rectangle_414305" data-name="Rectangle 414305" width="1.2" height="2.157" transform="translate(63.986 33.295)" fill="none" stroke="#000" stroke-miterlimit="10" stroke-width="1"/>
        <rect id="Rectangle_414306" data-name="Rectangle 414306" width="1.2" height="2.397" transform="translate(63.986 37.13)" fill="#3e9bf7" stroke="#000" stroke-width="1"/>
        <rect id="Rectangle_414307" data-name="Rectangle 414307" width="1.2" height="2.397" transform="translate(63.986 37.13)" fill="none" stroke="#000" stroke-miterlimit="10" stroke-width="1"/>
        <rect id="Rectangle_414308" data-name="Rectangle 414308" width="1.2" height="2.158" transform="translate(63.986 41.685)" fill="#3e9bf7" stroke="#000" stroke-width="1"/>
        <rect id="Rectangle_414309" data-name="Rectangle 414309" width="1.2" height="2.158" transform="translate(63.986 41.685)" fill="none" stroke="#000" stroke-miterlimit="10" stroke-width="1"/>
        <line id="Line_998" data-name="Line 998" x2="27.828" transform="translate(61.827 19.75)" fill="#777" stroke="#000" stroke-width="1"/>
        <line id="Line_999" data-name="Line 999" x2="27.828" transform="translate(61.827 19.75)" fill="none" stroke="#000" stroke-linejoin="round" stroke-width="3.244"/>
        <rect id="Rectangle_414310" data-name="Rectangle 414310" width="8.883" height="8.856" transform="translate(24.134 37.344)" fill="#4a5d6f" stroke="#000" stroke-width="1"/>
        <path id="Path_1287304" data-name="Path 1287304" d="M72.413,128.221H53.991v-1.162a1.768,1.768,0,0,1,1.768-1.768H70.644a1.768,1.768,0,0,1,1.768,1.768Z" transform="translate(-34.626 -79.575)" fill="#4a5d6f" stroke="#000" stroke-width="1"/>
        <path id="Rectangle_414312" data-name="Rectangle 414312" d="M3.467,0H53.684a3.467,3.467,0,0,1,3.467,3.467V34.858a3.467,3.467,0,0,1-3.467,3.467H3.466A3.466,3.466,0,0,1,0,34.859V3.467A3.467,3.467,0,0,1,3.467,0Z" fill="#4a5d6f" stroke="#000" stroke-width="1"/>
        <rect id="Rectangle_414314" data-name="Rectangle 414314" width="52.173" height="30.69" transform="translate(2.489 2.489)" fill="#8bc7ee" stroke="#000" stroke-width="1"/>
        <rect id="Rectangle_414316" data-name="Rectangle 414316" width="0.808" height="2.423" transform="translate(52.454 34.45)" fill="#3e9bf7" stroke="#000" stroke-width="1"/>
        <rect id="Rectangle_414317" data-name="Rectangle 414317" width="0.808" height="2.423" transform="translate(52.454 34.45)" fill="none" stroke="#000" stroke-miterlimit="10" stroke-width="1"/>
        <rect id="Rectangle_414320" data-name="Rectangle 414320" width="20.08" height="8.063" transform="translate(9.542 8.844)" fill="#fff"/>
        <rect id="Rectangle_414322" data-name="Rectangle 414322" width="20.08" height="2.293" transform="translate(9.542 18.885)" fill="#b8b8b8"/>
        <rect id="Rectangle_414324" data-name="Rectangle 414324" width="20.08" height="2.293" transform="translate(9.542 23.304)" fill="#b8b8b8"/>
        <rect id="Rectangle_414326" data-name="Rectangle 414326" width="16.427" height="2.293" transform="translate(31.781 18.885)" fill="#b8b8b8"/>
        <rect id="Rectangle_414328" data-name="Rectangle 414328" width="16.427" height="2.293" transform="translate(31.781 23.304)" fill="#b8b8b8"/>
        <rect id="Rectangle_414330" data-name="Rectangle 414330" width="16.427" height="2.293" transform="translate(31.781 9.803)" fill="#777"/>
        <rect id="Rectangle_414332" data-name="Rectangle 414332" width="16.427" height="2.293" transform="translate(31.781 14.222)" fill="#b8b8b8"/>
      </g>
    </g>
  </g>
</svg>
