<svg xmlns="http://www.w3.org/2000/svg" xmlns:xlink="http://www.w3.org/1999/xlink" width="95" height="95" viewBox="0 0 95 95">
  <defs>
    <clipPath id="clip-path">
      <rect id="Rectangle_413706" data-name="Rectangle 413706" width="94.943" height="95" fill="none"/>
    </clipPath>
  </defs>
  <g id="Group_1222748" data-name="Group 1222748" transform="translate(-18484 7538)">
    <rect id="Rectangle_413719" data-name="Rectangle 413719" width="95" height="95" transform="translate(18484 -7538)" fill="none"/>
    <g id="Group_1222732" data-name="Group 1222732" transform="translate(18484 -7538)">
      <g id="Group_1222731" data-name="Group 1222731" clip-path="url(#clip-path)">
        <path id="Path_1285609" data-name="Path 1285609" d="M33.819,73.441a.38.38,0,0,1,.257.206A29.119,29.119,0,0,0,44.41,83.972l.128.075.041.142a15.393,15.393,0,0,1,.592,4.249,15.554,15.554,0,1,1-11.352-15m-9.682,20.14c2.8-.779,3.377-.892,3.482-.91a1.487,1.487,0,0,0,1.269-1.085l.1-.367a4.17,4.17,0,0,0,.569.044A3.971,3.971,0,0,0,30.2,91.2l.1.385a1.466,1.466,0,0,0,1.26,1.085c.114.018.682.131,3.491.91a3.989,3.989,0,0,1,1.3.525,2.494,2.494,0,0,1,.28,1.312V95.5c-.026,1.216-.044,1.767-.044,3.036a1.483,1.483,0,0,0,2.966.088c0-.029,0-.058,0-.088,0-1.233.017-1.776.044-2.966v-.14a.563.563,0,0,0,0-.122c-.175-3.053-1.347-3.91-3.753-4.584-1.435-.394-2.336-.639-2.913-.779l-.052-.192a9.256,9.256,0,0,0,2.327-8.914,5.806,5.806,0,0,0-5.686-3.972,5.8,5.8,0,0,0-5.678,3.972,9.559,9.559,0,0,0,2.2,8.8l.219.219-.018.088c-.586.14-1.478.385-2.913.779-2.406.674-3.579,1.531-3.753,4.584a.629.629,0,0,0-.009.122l.009.14c.026,1.19.044,1.732.035,2.966a1.487,1.487,0,0,0,2.974,0c0-1.269-.018-1.82-.044-3.036l-.009-.079c.061-.884.184-1.2.289-1.312a3.988,3.988,0,0,1,1.3-.525m4.042-6.01c1.251,1.277,2.082.56,2.432.245a6.325,6.325,0,0,0,1.75-6.168,2.865,2.865,0,0,0-2.834-1.82,2.855,2.855,0,0,0-2.826,1.82,6.633,6.633,0,0,0,1.478,5.923m61.106-3.989a3.671,3.671,0,0,1,3.91-1.269,3.138,3.138,0,0,1,2.065,2.852c.245,2.983-3.735,7.1-7.069,9.308-3.333-2.2-7.313-6.325-7.069-9.308a3.138,3.138,0,0,1,2.065-2.852,2.98,2.98,0,0,1,.989-.175A4.037,4.037,0,0,1,87.1,83.583a1.5,1.5,0,0,0,2.123.064q.033-.031.064-.064M88.943,97.5c2.729-1.618,9.728-7.016,9.273-12.58a6.11,6.11,0,0,0-4.05-5.414,6.4,6.4,0,0,0-5.975,1.075,6.4,6.4,0,0,0-5.975-1.075,6.112,6.112,0,0,0-4.05,5.414c-.455,5.563,6.535,10.961,9.273,12.58A1.507,1.507,0,0,0,88.943,97.5ZM85.085,35.844V31.523h.079l.927-.026a1.486,1.486,0,0,0,1.1-.533,33.9,33.9,0,0,0,3.666-5.721,1.426,1.426,0,0,0,.157-.709l-.026-.953a12.02,12.02,0,0,1,.4,4.47,1.511,1.511,0,0,0,.376,1.146,1.472,1.472,0,0,0,1.1.49h3.385l-1.575,6.622H86.624c-.228-.079-.481-.148-.77-.236-.2-.061-.507-.148-.77-.228Zm-2.966.866h-2.1V29.992h2.1ZM23.069,23.316H36.122V36.369H23.069V23.317Zm9.361,4.9a1.483,1.483,0,1,0-1.487-1.487,1.483,1.483,0,0,0,1.487,1.487ZM22.92,39.344H36.27a2.823,2.823,0,0,0,2.817-2.826V23.168a2.821,2.821,0,0,0-2.817-2.817H22.92A2.821,2.821,0,0,0,20.1,23.168v13.35a2.823,2.823,0,0,0,2.816,2.826m21.5-5.034.134-.079.038-.151.026-.105A15.573,15.573,0,1,0,33.852,44.826L34,44.786l.075-.128A29.049,29.049,0,0,1,44.418,34.31ZM84.025,44.855A15.573,15.573,0,1,0,73.206,34.1l.041.143.128.075a28.717,28.717,0,0,1,3.446,2.375l.6.482v-.547q-.184-.148-.371-.294V28.986a1.971,1.971,0,0,1,1.968-1.968h4.1a1.97,1.97,0,0,1,1.916,1.539h.035l.237-.007a31.043,31.043,0,0,0,2.73-4.3l-.07-2.327a1.489,1.489,0,0,1,.76-1.339c.21-.114.4-.21.586-.289a3.084,3.084,0,0,1,3.1.315c1.662,1.26,1.968,4.243,1.986,6.115h2.31a2.574,2.574,0,0,1,2.047,1,2.54,2.54,0,0,1,.49,2.222L97.5,37.27a2.594,2.594,0,0,1-2.537,2H86.336a1.433,1.433,0,0,1-.665-.158c-.105-.035-.411-.131-.639-.192-.1-.026-.2-.061-.306-.088a1.94,1.94,0,0,1-1.6.84H80.532q-.164-.187-.33-.371h-.519l.561.62a28.452,28.452,0,0,1,3.471,4.741l.056.1.1.049a.443.443,0,0,0,.156.045ZM84,73.432h-.183l-.107.184A28.933,28.933,0,0,1,73.367,83.971l-.183.108v.179A15.556,15.556,0,1,0,84.005,73.432Z" transform="translate(-11.417 -11.615)" fill="#5eb2fc" fill-rule="evenodd"/>
        <path id="Path_1285610" data-name="Path 1285610" d="M62.147,22.383A15.182,15.182,0,1,1,72.671,32.872a.109.109,0,0,1-.053-.009,26.015,26.015,0,0,0-10.471-10.48m10.524,39.8a15.418,15.418,0,0,1,4.1-.56A15.192,15.192,0,1,1,62.138,72.693v-.017a29.3,29.3,0,0,0,10.48-10.489.109.109,0,0,0,.053-.009ZM33.384,76.822A15.183,15.183,0,1,1,22.317,62.187a.009.009,0,0,1,.009.009h0a29.484,29.484,0,0,0,10.48,10.48,15.019,15.019,0,0,1,.577,4.147M18.178,33.432A15.185,15.185,0,1,1,32.84,22.269l-.026.1a29.416,29.416,0,0,0-10.48,10.48A15.126,15.126,0,0,1,18.178,33.432Zm40.889-4.015a26.812,26.812,0,0,0,4.278-2.659,25.989,25.989,0,0,0-8.477-4.313,22.068,22.068,0,0,1,3.377,5.127c.289.595.56,1.216.822,1.846m-11.591,2.7a26.19,26.19,0,0,1-8.862-1.539q.367-.879.76-1.706c2.232-4.568,5.188-7.183,8.1-7.183s5.87,2.616,8.1,7.182c.271.551.516,1.12.752,1.706A26.1,26.1,0,0,1,47.476,32.12ZM35.631,46.046A47.16,47.16,0,0,1,37.617,33.37a29.062,29.062,0,0,0,19.718,0,47.153,47.153,0,0,1,1.986,12.676ZM56.688,63.577c-.341.91-.709,1.776-1.111,2.6-2.231,4.567-5.188,7.191-8.1,7.191s-5.87-2.624-8.1-7.191c-.4-.822-.77-1.688-1.111-2.6a26.227,26.227,0,0,1,18.423,0m-9.212-4.636a29.247,29.247,0,0,0-10.139,1.82,48.327,48.327,0,0,1-1.706-11.749h23.69a48.327,48.327,0,0,1-1.706,11.749A29.247,29.247,0,0,0,47.476,58.941Zm-7.392-36.5a25.9,25.9,0,0,0-8.477,4.313,26.431,26.431,0,0,0,4.278,2.659c.263-.63.534-1.251.822-1.846A22.078,22.078,0,0,1,40.084,22.444Zm-10.769,6.29a26.04,26.04,0,0,0-7.943,17.312H32.657A50.252,50.252,0,0,1,34.87,32.215a29.136,29.136,0,0,1-5.555-3.482ZM21.372,49.013a26.044,26.044,0,0,0,7.375,16.753,29.353,29.353,0,0,1,5.844-3.823,51.281,51.281,0,0,1-1.933-12.93ZM30.96,67.786a26.152,26.152,0,0,0,9.124,4.829,22.142,22.142,0,0,1-3.377-5.135c-.42-.857-.8-1.758-1.155-2.694a25.9,25.9,0,0,0-4.593,3m23.909,4.829a26.228,26.228,0,0,0,9.124-4.829,25.9,25.9,0,0,0-4.593-3c-.359.936-.735,1.837-1.155,2.694a22.136,22.136,0,0,1-3.377,5.135Zm11.338-6.85A26.088,26.088,0,0,0,73.58,49.013H62.3a51.281,51.281,0,0,1-1.933,12.93,29.6,29.6,0,0,1,5.844,3.823m7.375-19.72a26.04,26.04,0,0,0-7.943-17.313,29.137,29.137,0,0,1-5.555,3.482A50.252,50.252,0,0,1,62.3,46.046ZM94.943,18.228a18.17,18.17,0,1,0-36.34-.116c0,.039,0,.078,0,.116a17.552,17.552,0,0,0,.167,2.458,29.175,29.175,0,0,0-22.588,0,17.552,17.552,0,0,0,.167-2.458A18.17,18.17,0,1,0,18.178,36.4a17.783,17.783,0,0,0,2.458-.167,29.075,29.075,0,0,0,0,22.588,17.782,17.782,0,0,0-2.458-.167A18.174,18.174,0,1,0,36.348,76.83v-.009a17.726,17.726,0,0,0-.167-2.458,29.072,29.072,0,0,0,22.588,0,17.757,17.757,0,0,0-.167,2.458A18.17,18.17,0,1,0,76.774,58.653h0a17.784,17.784,0,0,0-2.458.167,29.155,29.155,0,0,0,0-22.579,19.216,19.216,0,0,0,2.458.157A18.187,18.187,0,0,0,94.943,18.228Z" transform="translate(0 0)" fill-rule="evenodd"/>
      </g>
    </g>
  </g>
</svg>
