<svg xmlns="http://www.w3.org/2000/svg" xmlns:xlink="http://www.w3.org/1999/xlink" width="95" height="95" viewBox="0 0 95 95">
  <defs>
    <clipPath id="clip-path">
      <rect id="Rectangle_413705" data-name="Rectangle 413705" width="95" height="79.778" fill="none"/>
    </clipPath>
  </defs>
  <g id="Group_1222747" data-name="Group 1222747" transform="translate(-18642 7538)">
    <rect id="Rectangle_413716" data-name="Rectangle 413716" width="95" height="95" transform="translate(18642 -7538)" fill="none"/>
    <g id="Group_1222730" data-name="Group 1222730" transform="translate(18642 -7530.389)">
      <rect id="Rectangle_413702" data-name="Rectangle 413702" width="26.511" height="15.099" transform="translate(30.447 56.714)" fill="#a79ba7"/>
      <rect id="Rectangle_413703" data-name="Rectangle 413703" width="2.057" height="15.099" transform="translate(54.901 56.714)" fill="#837683"/>
      <g id="Group_1222729" data-name="Group 1222729">
        <g id="Group_1222728" data-name="Group 1222728" clip-path="url(#clip-path)">
          <path id="Path_1285593" data-name="Path 1285593" d="M78.572,371.238h57.312v-4.419c0-2.426-2.491-4.418-5.529-4.418H84.1c-3.044,0-5.53,1.993-5.53,4.418Z" transform="translate(-63.523 -292.99)" fill="#eceff1" fill-rule="evenodd"/>
          <path id="Path_1285594" data-name="Path 1285594" d="M78.572,374.959h57.312v-4.419A4.215,4.215,0,0,0,133.652,367a3.641,3.641,0,0,1,.473,1.783v4.419H78.572Z" transform="translate(-63.523 -296.711)" fill="#d1d1d6" fill-rule="evenodd"/>
          <path id="Path_1285595" data-name="Path 1285595" d="M14.467,7.984H85.851a6.506,6.506,0,0,1,6.486,6.486V59.079a6.506,6.506,0,0,1-6.486,6.486H14.467a6.5,6.5,0,0,1-6.481-6.486V14.47a6.5,6.5,0,0,1,6.481-6.486" transform="translate(-6.456 -6.455)" fill="#eceff1" fill-rule="evenodd"/>
          <path id="Path_1285596" data-name="Path 1285596" d="M94.135,13.784A6.491,6.491,0,0,1,97,19.159V63.768a6.506,6.506,0,0,1-6.486,6.486H19.134a6.506,6.506,0,0,1-5.375-2.864A6.461,6.461,0,0,0,17.376,68.5H88.76a6.5,6.5,0,0,0,6.486-6.481V17.4a6.426,6.426,0,0,0-1.111-3.617" transform="translate(-11.124 -11.144)" fill="#d1d1d6" fill-rule="evenodd"/>
          <path id="Path_1285597" data-name="Path 1285597" d="M37.185,36.308h71.708a.9.9,0,0,1,.9.9V77.589H36.283V37.2A.9.9,0,0,1,37.185,36.308Z" transform="translate(-29.334 -29.354)" fill="#d8ecfe" fill-rule="evenodd"/>
          <path id="Path_1285598" data-name="Path 1285598" d="M397.019,36.308h3.517a.9.9,0,0,1,.9.9V77.589h-3.512V37.2a.9.9,0,0,0-.9-.9" transform="translate(-320.977 -29.354)" fill="#c4e2ff" fill-rule="evenodd"/>
          <path id="Path_1285599" data-name="Path 1285599" d="M181.866,70.171a10.974,10.974,0,1,1-10.974,10.974,10.974,10.974,0,0,1,10.974-10.974" transform="translate(-138.161 -56.731)" fill="#fe646f" fill-rule="evenodd"/>
          <path id="Path_1285600" data-name="Path 1285600" d="M223.186,70.213q.473-.041.958-.041a10.974,10.974,0,0,1,0,21.947q-.484,0-.958-.041a10.974,10.974,0,0,0,0-21.865Z" transform="translate(-180.439 -56.732)" fill="#fd4755" fill-rule="evenodd"/>
          <path id="Path_1285601" data-name="Path 1285601" d="M218.547,106.46a1.087,1.087,0,0,1,0,1.883l-6.35,3.666a1.087,1.087,0,0,1-1.63-.941v-7.333a1.087,1.087,0,0,1,1.63-.941l6.35,3.666" transform="translate(-170.236 -82.988)" fill="#eceff1" fill-rule="evenodd"/>
          <path id="Path_1285602" data-name="Path 1285602" d="M212.292,111.954l-.1.055a1.087,1.087,0,0,1-1.63-.941v-7.333a1.087,1.087,0,0,1,1.63-.941l.1.055a1.086,1.086,0,0,0-.457.886v7.333a1.087,1.087,0,0,0,.457.886" transform="translate(-170.236 -82.988)" fill="#d1d1d6" fill-rule="evenodd"/>
          <path id="Rectangle_413704" data-name="Rectangle 413704" d="M2,0H2a2,2,0,0,1,2,2V4.213a2,2,0,0,1-2,2H2a2,2,0,0,1-2-2V2A2,2,0,0,1,2,0Z" transform="translate(25.448 38.27)" fill="#6cf5c2"/>
          <path id="Path_1285603" data-name="Path 1285603" d="M141.088,206.02a1.557,1.557,0,0,0,1.557-1.556v-3.1a1.557,1.557,0,0,0-1.557-1.557h.859a1.557,1.557,0,0,1,1.557,1.557v3.1a1.557,1.557,0,0,1-1.557,1.556Z" transform="translate(-114.065 -161.542)" fill="#00e499" fill-rule="evenodd"/>
          <path id="Path_1285604" data-name="Path 1285604" d="M367.72,218.165a11.094,11.094,0,0,1,3.253,1.348l2.114-.938,2.49,2.49-.938,2.114a11.093,11.093,0,0,1,1.348,3.253l2.157.83v3.523l-2.157.83a11.1,11.1,0,0,1-1.348,3.251l.938,2.114-2.49,2.492-2.114-.939a11.1,11.1,0,0,1-3.253,1.35l-.83,2.155h-3.523l-.83-2.157a11.1,11.1,0,0,1-3.251-1.348l-2.114.939-2.492-2.492.939-2.112a11.139,11.139,0,0,1-1.35-3.253l-2.155-.83v-3.523l2.155-.83a11.1,11.1,0,0,1,1.35-3.253l-.939-2.114,2.492-2.49,2.112.938a11.13,11.13,0,0,1,3.253-1.348l.83-2.157h3.523Z" transform="translate(-284.673 -174.635)" fill="#ffe177" fill-rule="evenodd"/>
          <path id="Path_1285605" data-name="Path 1285605" d="M392.393,218.89l.71-.315,2.49,2.49-.938,2.114A11.091,11.091,0,0,1,396,226.432l2.157.83v3.523l-2.157.83a11.1,11.1,0,0,1-1.348,3.251l.938,2.114-2.49,2.492-.71-.315,2.177-2.177-.939-2.114a11.1,11.1,0,0,0,1.348-3.251l2.157-.83v-3.523l-2.157-.83a11.093,11.093,0,0,0-1.348-3.253l.939-2.114Zm-15.519,0,.315-.315,2.112.938c-.149.083-.3.169-.441.26Zm10.863-.726a11.094,11.094,0,0,1,3.253,1.348l-.582.26a14.522,14.522,0,0,0-3.7-1.608l-.83-2.157h1.025ZM379.3,238.532l-2.114.939-.315-.315,1.986-.882q.217.134.443.258m11.687,0a11.1,11.1,0,0,1-3.253,1.35l-.83,2.155h-1.025l.83-2.155a14.556,14.556,0,0,0,3.7-1.608Z" transform="translate(-304.69 -174.635)" fill="#ffd064" fill-rule="evenodd"/>
          <path id="Path_1285606" data-name="Path 1285606" d="M394.139,251.892A6.142,6.142,0,1,1,388,258.034a6.142,6.142,0,0,1,6.141-6.142" transform="translate(-313.684 -203.647)" fill="#eceff1" fill-rule="evenodd"/>
          <path id="Path_1285607" data-name="Path 1285607" d="M394.139,251.892c.14,0,.278,0,.417.015a6.141,6.141,0,0,0,0,12.255c-.138.009-.277.014-.417.014a6.142,6.142,0,0,1,0-12.283Z" transform="translate(-313.684 -203.647)" fill="#d1d1d6" fill-rule="evenodd"/>
          <path id="Path_1285608" data-name="Path 1285608" d="M28.92,60.641H8.018A8.043,8.043,0,0,1,0,52.623V8.018A8.043,8.043,0,0,1,8.018,0H79.391a8.043,8.043,0,0,1,8.018,8.018V42.711l.381-.169a1.532,1.532,0,0,1,1.706.317l2.489,2.489a1.532,1.532,0,0,1,.318,1.7l-.623,1.405a12.566,12.566,0,0,1,.907,2.191l1.432.551A1.532,1.532,0,0,1,95,52.628v3.521a1.532,1.532,0,0,1-.982,1.43l-1.433.551a12.693,12.693,0,0,1-.907,2.185l.623,1.407a1.532,1.532,0,0,1-.318,1.7L89.5,65.916a1.532,1.532,0,0,1-1.7.318l-1.4-.622a12.568,12.568,0,0,1-2.188.906l-.551,1.432a1.532,1.532,0,0,1-1.43.982H78.7a1.532,1.532,0,0,1-1.43-.982l-.551-1.432a12.668,12.668,0,0,1-2.189-.907l-1.407.623a1.532,1.532,0,0,1-1.7-.318l-2.489-2.489a1.532,1.532,0,0,1-.317-1.706l.48-1.08h-10.6v7.24h8.337c3.966,0,7.062,2.779,7.062,5.946v4.419a1.532,1.532,0,0,1-1.532,1.532H15.053a1.532,1.532,0,0,1-1.532-1.532V73.826c0-3.167,3.1-5.946,7.062-5.946H28.92ZM84.344,42.306V8.018a4.969,4.969,0,0,0-4.954-4.953H8.018A4.969,4.969,0,0,0,3.065,8.018v44.6a4.969,4.969,0,0,0,4.954,4.954H66.885a1.533,1.533,0,0,1-.975-1.427V52.628a1.532,1.532,0,0,1,.982-1.43l1.434-.552q.145-.471.327-.928H6.953a1.532,1.532,0,0,1-1.532-1.532V7.858A2.434,2.434,0,0,1,7.858,5.427h71.7a2.435,2.435,0,0,1,2.431,2.431V39.842h.23a1.532,1.532,0,0,1,1.43.983l.552,1.436ZM55.43,60.641H31.984v7.24H55.43ZM68.494,46.654a1.533,1.533,0,0,1,.432-1.307l2.489-2.489a1.532,1.532,0,0,1,1.706-.317l1.4.625a12.605,12.605,0,0,1,2.187-.906l.555-1.437a1.532,1.532,0,0,1,1.429-.981h.226V8.491H8.486V46.654ZM23.915,42.907H20.431a1.532,1.532,0,0,1,0-3.065h3.484v-.015A3.09,3.09,0,0,1,27,36.738h.878a3.09,3.09,0,0,1,3.089,3.089v.015H66.978a1.532,1.532,0,0,1,0,3.065H30.97v.016a3.09,3.09,0,0,1-3.089,3.089H27a3.09,3.09,0,0,1-3.089-3.089Zm3.991.016v-3.1a.024.024,0,0,0-.024-.024H27a.024.024,0,0,0-.024.024v3.1a.024.024,0,0,0,.024.024h.878a.024.024,0,0,0,.024-.024M43.7,11.908A12.506,12.506,0,1,1,31.2,24.414,12.512,12.512,0,0,1,43.7,11.908Zm0,3.065a9.441,9.441,0,1,0,9.441,9.441A9.446,9.446,0,0,0,43.7,14.972Zm5.372,7.173a2.619,2.619,0,0,1,0,4.536l-6.35,3.666A2.619,2.619,0,0,1,38.8,28.08V20.747a2.619,2.619,0,0,1,3.929-2.268Zm-7.215-.627v5.79l5.014-2.9ZM16.586,76.713H70.829V73.826c0-1.69-1.88-2.881-4-2.881H20.583c-2.117,0-4,1.191-4,2.881Zm65.031-32.63-.452-1.177H79.748l-.455,1.179a1.532,1.532,0,0,1-1.075.939,9.549,9.549,0,0,0-2.8,1.161,1.532,1.532,0,0,1-1.426.1l-1.151-.512-1,1,.512,1.151a1.533,1.533,0,0,1-.1,1.426,9.626,9.626,0,0,0-1.165,2.809,1.532,1.532,0,0,1-.94,1.072l-1.174.452V55.1l1.174.452a1.532,1.532,0,0,1,.939,1.071,9.608,9.608,0,0,0,1.165,2.8,1.533,1.533,0,0,1,.1,1.428L71.838,62l1,1,1.152-.51a1.533,1.533,0,0,1,1.421.094,9.618,9.618,0,0,0,2.808,1.163,1.533,1.533,0,0,1,1.077.941l.452,1.174h1.417l.452-1.174a1.532,1.532,0,0,1,1.076-.94,9.5,9.5,0,0,0,2.8-1.16,1.533,1.533,0,0,1,1.427-.1l1.152.51,1-1-.51-1.152a1.532,1.532,0,0,1,.094-1.421,9.637,9.637,0,0,0,1.163-2.805,1.532,1.532,0,0,1,.94-1.076l1.174-.452V53.681l-1.174-.452a1.532,1.532,0,0,1-.941-1.077,9.518,9.518,0,0,0-1.161-2.8,1.532,1.532,0,0,1-.1-1.424l.51-1.152-1-1-1.151.512a1.532,1.532,0,0,1-1.426-.1,9.548,9.548,0,0,0-2.8-1.161A1.532,1.532,0,0,1,81.617,44.083Zm-1.162,2.556a7.75,7.75,0,1,1-7.748,7.748,7.749,7.749,0,0,1,7.748-7.748m0,3.065a4.685,4.685,0,1,0,4.687,4.683A4.682,4.682,0,0,0,80.455,49.7" fill-rule="evenodd"/>
        </g>
      </g>
    </g>
  </g>
</svg>
