<svg xmlns="http://www.w3.org/2000/svg" xmlns:xlink="http://www.w3.org/1999/xlink" width="84.016" height="84.016" viewBox="0 0 84.016 84.016">
  <defs>
    <filter id="Path_874925" x="0" y="0" width="84.016" height="84.016" filterUnits="userSpaceOnUse">
      <feOffset dy="3" input="SourceAlpha"/>
      <feGaussianBlur stdDeviation="3" result="blur"/>
      <feFlood flood-opacity="0.161"/>
      <feComposite operator="in" in2="blur"/>
      <feComposite in="SourceGraphic"/>
    </filter>
  </defs>
  <g id="Group_1222337" data-name="Group 1222337" transform="translate(-275.691 -6091)">
    <g id="Group_1200231" data-name="Group 1200231" transform="translate(284.691 6097)">
      <g id="Group_1187153" data-name="Group 1187153">
        <g id="Group_1182177" data-name="Group 1182177">
          <g id="Group_1181903" data-name="Group 1181903">
            <g id="Group_1181438" data-name="Group 1181438">
              <g id="Group_1111314" data-name="Group 1111314">
                <g transform="matrix(1, 0, 0, 1, -9, -6)" filter="url(#Path_874925)">
                  <g id="Path_874925-2" data-name="Path 874925" transform="translate(9 6)" fill="#ffc94a">
                    <path d="M 33.00778961181641 65.51596069335938 C 28.61904907226562 65.51596069335938 24.36183929443359 64.65653228759766 20.35443878173828 62.96154022216797 C 16.48349952697754 61.32427215576172 13.00692939758301 58.98027038574219 10.0213098526001 55.99465179443359 C 7.035689830780029 53.00902938842773 4.691689491271973 49.532470703125 3.05441951751709 45.66152191162109 C 1.359429597854614 41.65412139892578 0.499999612569809 37.39691925048828 0.499999612569809 33.00817108154297 C 0.499999612569809 28.61905097961426 1.359429597854614 24.36185073852539 3.05441951751709 20.35444068908691 C 4.691689491271973 16.48349952697754 7.035689830780029 13.00693035125732 10.0213098526001 10.02131080627441 C 13.00692939758301 7.035690307617188 16.48349952697754 4.691690444946289 20.35443878173828 3.054420232772827 C 24.36184883117676 1.359430313110352 28.61904907226562 0.5000003576278687 33.00778961181641 0.5000003576278687 C 37.39653015136719 0.5000003576278687 41.65372848510742 1.359430313110352 45.66114044189453 3.054420232772827 C 49.53207778930664 4.691690444946289 53.00864791870117 7.035690307617188 55.99427032470703 10.02131080627441 C 58.97988891601562 13.00693035125732 61.32389068603516 16.48349952697754 62.96115875244141 20.35444068908691 C 64.65615081787109 24.36185073852539 65.51557922363281 28.61905097961426 65.51557922363281 33.00778961181641 C 65.51557922363281 37.39691925048828 64.65615081787109 41.65412139892578 62.96115875244141 45.66152191162109 C 61.32389068603516 49.532470703125 58.97988891601562 53.00902938842773 55.99427032470703 55.99465179443359 C 53.00864791870117 58.98027038574219 49.53207778930664 61.32427215576172 45.66114044189453 62.96154022216797 C 41.65373992919922 64.65653228759766 37.39653015136719 65.51596069335938 33.00778961181641 65.51596069335938 Z" stroke="none"/>
                    <path d="M 33.00778961181641 1 C 28.68632125854492 1 24.49465942382812 1.846138000488281 20.54922103881836 3.514919281005859 C 16.73786926269531 5.126979827880859 13.31472778320312 7.435001373291016 10.37485885620117 10.37485885620117 C 7.435001373291016 13.31473159790039 5.126979827880859 16.73786926269531 3.514919281005859 20.54922103881836 C 1.846138000488281 24.49465942382812 1 28.68632125854492 1 33.00817108154297 C 1 37.32963943481445 1.846138000488281 41.52130889892578 3.514919281005859 45.46673965454102 C 5.126979827880859 49.27809143066406 7.435001373291016 52.70124053955078 10.37485885620117 55.64109802246094 C 13.31472778320312 58.58095932006836 16.73786926269531 60.88898086547852 20.54922103881836 62.50104141235352 C 24.49465942382812 64.16982269287109 28.68632125854492 65.01596069335938 33.00778961181641 65.01596069335938 C 37.32926177978516 65.01596069335938 41.52091979980469 64.16982269287109 45.46636199951172 62.50104141235352 C 49.2777099609375 60.88898086547852 52.70085144042969 58.58095932006836 55.64072036743164 55.64109802246094 C 58.58058166503906 52.70124053955078 60.88859939575195 49.27809143066406 62.50065994262695 45.46673965454102 C 64.16944122314453 41.52130889892578 65.01557922363281 37.32963943481445 65.01557922363281 33.00778961181641 C 65.01557922363281 28.68632125854492 64.16944122314453 24.49465942382812 62.50065994262695 20.54922103881836 C 60.88859939575195 16.73786926269531 58.58058166503906 13.31473159790039 55.64072036743164 10.37485885620117 C 52.70085144042969 7.435001373291016 49.2777099609375 5.126979827880859 45.46636199951172 3.514919281005859 C 41.52091979980469 1.846138000488281 37.32926177978516 1 33.00778961181641 1 M 33.00778961181641 0 C 51.23748779296875 0 66.01557922363281 14.77809143066406 66.01557922363281 33.00778961181641 L 66.01557922363281 33.00817108154297 C 66.01557922363281 51.23788070678711 51.23748779296875 66.01596069335938 33.00778961181641 66.01596069335938 C 14.77809143066406 66.01596069335938 0 51.23788070678711 0 33.00817108154297 L 0 33.00778961181641 C 0 14.77809143066406 14.77809143066406 0 33.00778961181641 0 Z" stroke="none" fill="#b18c32"/>
                  </g>
                </g>
              </g>
            </g>
          </g>
        </g>
      </g>
    </g>
    <g id="data-management_6151748" transform="translate(297.895 6108.553)">
      <g id="Group_1200480" data-name="Group 1200480" transform="translate(0.68 0.68)">
        <g id="Group_1200469" data-name="Group 1200469" transform="translate(0 35.34)">
          <path id="Path_1241579" data-name="Path 1241579" d="M41.981,424H44.7a5.435,5.435,0,0,1-5.437,5.437H13.437A5.437,5.437,0,0,1,8,424H21.592v2.718h9.515V424Z" transform="translate(-8 -424)" fill="#969faa"/>
        </g>
        <g id="Group_1200470" data-name="Group 1200470" transform="translate(2.718 12.233)">
          <path id="Path_1241580" data-name="Path 1241580" d="M71.263,155.836v19.272H40V154.718A2.719,2.719,0,0,1,42.718,152h2.718v2.718H43.4a.679.679,0,0,0-.68.68v16.311a.679.679,0,0,0,.68.68H67.864a.679.679,0,0,0,.68-.68V157.437h2.039l.534-1.6.135-.037Z" transform="translate(-40 -152)" fill="#ccd1d9"/>
        </g>
        <g id="Group_1200471" data-name="Group 1200471" transform="translate(13.592 35.34)">
          <path id="Path_1241581" data-name="Path 1241581" d="M168,424h9.515v2.718H168Z" transform="translate(-168 -424)" fill="#fcd770"/>
        </g>
        <g id="Group_1200472" data-name="Group 1200472" transform="translate(5.437 14.952)">
          <path id="Path_1241582" data-name="Path 1241582" d="M97.826,186.718v14.272a.679.679,0,0,1-.68.68H72.68a.679.679,0,0,1-.68-.68V184.68a.679.679,0,0,1,.68-.68h2.039v4.078a1.359,1.359,0,0,0,1.359,1.359h17.67a1.359,1.359,0,0,0,1.359-1.359v-3.449l.034-.068a7.387,7.387,0,0,0,1.471.556l.534,1.6Z" transform="translate(-72 -184)" fill="#69d6f4"/>
        </g>
        <g id="Group_1200473" data-name="Group 1200473" transform="translate(23.107 25.826)">
          <path id="Path_1241583" data-name="Path 1241583" d="M280,312h4.078v4.078H280Z" transform="translate(-280 -312)" fill="#ffeaa7"/>
        </g>
        <g id="Group_1200474" data-name="Group 1200474" transform="translate(16.311 25.826)">
          <path id="Path_1241584" data-name="Path 1241584" d="M200,312h4.078v4.078H200Z" transform="translate(-200 -312)" fill="#ffeaa7"/>
        </g>
        <g id="Group_1200475" data-name="Group 1200475" transform="translate(9.515 25.826)">
          <path id="Path_1241585" data-name="Path 1241585" d="M120,312h4.078v4.078H120Z" transform="translate(-120 -312)" fill="#ffeaa7"/>
        </g>
        <g id="Group_1200476" data-name="Group 1200476" transform="translate(8.155 10.874)">
          <path id="Path_1241586" data-name="Path 1241586" d="M124.423,140.638l-.034.068v3.449a1.359,1.359,0,0,1-1.359,1.359h-17.67A1.359,1.359,0,0,1,104,144.155V136h16.593a7.376,7.376,0,0,0,.741,1.736l-.755,1.511,1.922,1.922,1.511-.755C124.146,140.493,124.283,140.568,124.423,140.638Z" transform="translate(-104 -136)" fill="#e6e9ed"/>
        </g>
        <g id="Group_1200477" data-name="Group 1200477" transform="translate(8.155 5.437)">
          <path id="Path_1241587" data-name="Path 1241587" d="M120.593,77.437H104V73.359A1.359,1.359,0,0,1,105.359,72h4.6a1.359,1.359,0,0,1,1.216.751l.984,1.968h6.8v2.039l1.6.534C120.566,77.34,120.579,77.389,120.593,77.437Z" transform="translate(-104 -72)" fill="#ed5565"/>
        </g>
        <g id="Group_1200478" data-name="Group 1200478" transform="translate(23.107)">
          <path id="Path_1241588" data-name="Path 1241588" d="M281.641,18.874c-.014-.048-.027-.1-.04-.146l-1.6-.534V15.476l1.6-.534a7.408,7.408,0,0,1,.781-1.883l-.755-1.511,1.922-1.922,1.511.755a7.408,7.408,0,0,1,1.883-.781l.534-1.6h2.719l.534,1.6a7.407,7.407,0,0,1,1.883.781l1.511-.755,1.922,1.922-.755,1.511a7.408,7.408,0,0,1,.781,1.883l1.6.534v2.718l-1.6.534a7.408,7.408,0,0,1-.781,1.883l.755,1.511-1.922,1.922-1.511-.755a7.393,7.393,0,0,1-1.747.743h0l-.135.037-.534,1.6h-2.719l-.534-1.6a7.387,7.387,0,0,1-1.471-.556c-.139-.071-.277-.145-.411-.224l-1.511.755-1.922-1.922.755-1.511A7.375,7.375,0,0,1,281.641,18.874Zm11.951-2.039a4.757,4.757,0,1,0-4.757,4.757A4.757,4.757,0,0,0,293.592,16.835Z" transform="translate(-280 -8)" fill="#ffc729"/>
        </g>
        <g id="Group_1200479" data-name="Group 1200479" transform="translate(27.185 4.078)">
          <path id="Path_1241589" data-name="Path 1241589" d="M332.757,56A4.757,4.757,0,1,1,328,60.757,4.757,4.757,0,0,1,332.757,56Zm2.039,4.757a2.039,2.039,0,1,0-2.039,2.039A2.039,2.039,0,0,0,334.8,60.757Z" transform="translate(-328 -56)" fill="#fcd770"/>
        </g>
      </g>
      <g id="Group_1200481" data-name="Group 1200481">
        <path id="Path_1241590" data-name="Path 1241590" d="M291.029,11.364v-3.7L289.3,7.09a8.109,8.109,0,0,0-.567-1.368l.814-1.628-2.615-2.615-1.628.814a8.11,8.11,0,0,0-1.368-.567L283.364,0h-3.7l-.575,1.726a8.113,8.113,0,0,0-1.368.567l-1.628-.814-2.615,2.615.814,1.628a8.111,8.111,0,0,0-.567,1.368L272,7.666v3.7l1.726.575a8.112,8.112,0,0,0,.567,1.368l-.814,1.628,2.615,2.615,1.628-.814a8.11,8.11,0,0,0,1.368.567l.575,1.726h3.7l.575-1.726a8.113,8.113,0,0,0,1.368-.567l1.628.814,2.615-2.615-.814-1.628a8.106,8.106,0,0,0,.567-1.368Zm-2.845-.484-.093.357a6.745,6.745,0,0,1-.709,1.71l-.186.318.7,1.4-1.229,1.23-1.4-.7-.318.186a6.75,6.75,0,0,1-1.71.709l-.357.093-.5,1.486h-1.739l-.5-1.486-.357-.093a6.746,6.746,0,0,1-1.71-.709l-.318-.186-1.4.7-1.23-1.23.7-1.4-.186-.318a6.751,6.751,0,0,1-.709-1.71l-.093-.357-1.486-.5V8.645l1.486-.5.093-.357a6.746,6.746,0,0,1,.709-1.71l.186-.318-.7-1.4,1.229-1.23,1.4.7.318-.186a6.749,6.749,0,0,1,1.71-.709l.357-.093.5-1.486h1.739l.5,1.486.357.093a6.745,6.745,0,0,1,1.71.709l.318.186,1.4-.7,1.23,1.23-.7,1.4.186.318a6.749,6.749,0,0,1,.709,1.71l.093.357,1.486.5v1.739Z" transform="translate(-248.893 0)"/>
        <path id="Path_1241591" data-name="Path 1241591" d="M325.437,48a5.437,5.437,0,1,0,5.437,5.437A5.443,5.443,0,0,0,325.437,48Zm0,9.515a4.078,4.078,0,1,1,4.078-4.078A4.082,4.082,0,0,1,325.437,57.515Z" transform="translate(-292.815 -43.922)"/>
        <path id="Path_1241592" data-name="Path 1241592" d="M354.719,80a2.718,2.718,0,1,0,2.718,2.718A2.722,2.722,0,0,0,354.719,80Zm0,4.078a1.359,1.359,0,1,1,1.359-1.359A1.361,1.361,0,0,1,354.719,84.078Z" transform="translate(-322.097 -73.204)"/>
        <path id="Path_1241593" data-name="Path 1241593" d="M35.34,78.952H33.981V93.9H4.078V74.194a2.041,2.041,0,0,1,2.039-2.039H8.155v1.359H6.8a1.361,1.361,0,0,0-1.359,1.359V91.185A1.361,1.361,0,0,0,6.8,92.544H31.263a1.361,1.361,0,0,0,1.359-1.359V78.952H31.263V91.185H6.8V74.874H8.155v3.4a2.041,2.041,0,0,0,2.039,2.039H18.35V81.67h-6.8v2.718H9.515v5.437h5.437V84.389H12.913V83.029H18.35v1.359H16.311v5.437h5.437V84.389H19.709V83.029h5.437v1.359H23.107v5.437h5.437V84.389H26.505V81.67h-6.8V80.311h8.155A2.041,2.041,0,0,0,29.9,78.272v-.68H28.544v.68a.68.68,0,0,1-.68.68H10.194a.68.68,0,0,1-.68-.68V70.8H21.748V69.437H9.515v-3.4a.68.68,0,0,1,.68-.68h4.6a.676.676,0,0,1,.608.376l1.171,2.343h5.177V66.718H17.411l-.8-1.591A2.028,2.028,0,0,0,14.791,64h-4.6a2.041,2.041,0,0,0-2.039,2.039V70.8H6.117a3.4,3.4,0,0,0-3.4,3.4V93.9H0v.68A6.124,6.124,0,0,0,6.117,100.7H31.942a6.124,6.124,0,0,0,6.117-6.117V93.9H35.34ZM13.592,88.466H10.874V85.748h2.718Zm6.8,0H17.67V85.748h2.718Zm6.8,0H24.466V85.748h2.718Zm-12.233,6.8h8.155v1.359H14.952ZM31.942,99.34H6.117a4.765,4.765,0,0,1-4.709-4.078H13.592v2.718H24.466V95.263H36.651A4.765,4.765,0,0,1,31.942,99.34Z" transform="translate(0 -58.563)"/>
        <path id="Path_1241594" data-name="Path 1241594" d="M352,448h4.078v1.359H352Z" transform="translate(-322.097 -409.941)"/>
        <path id="Path_1241595" data-name="Path 1241595" d="M128,96h3.4v1.359H128Z" transform="translate(-117.126 -87.845)"/>
      </g>
    </g>
  </g>
</svg>
