<svg xmlns="http://www.w3.org/2000/svg" xmlns:xlink="http://www.w3.org/1999/xlink" width="95" height="95" viewBox="0 0 95 95">
  <defs>
    <clipPath id="clip-path">
      <rect id="Rectangle_413669" data-name="Rectangle 413669" width="95" height="82.642" fill="none"/>
    </clipPath>
  </defs>
  <g id="Group_1222740" data-name="Group 1222740" transform="translate(-18888 9915)">
    <rect id="Rectangle_413722" data-name="Rectangle 413722" width="95" height="95" transform="translate(18888 -9915)" fill="none"/>
    <g id="Group_1222716" data-name="Group 1222716" transform="translate(18888 -9908.82)">
      <g id="Group_1222715" data-name="Group 1222715" clip-path="url(#clip-path)">
        <path id="Path_1285507" data-name="Path 1285507" d="M69.756,74.353A1.06,1.06,0,0,0,69,75.647a39.507,39.507,0,0,1,1.136,9A1.059,1.059,0,0,0,71.2,85.683h.023A1.06,1.06,0,0,0,72.256,84.6a41.693,41.693,0,0,0-1.206-9.492,1.058,1.058,0,0,0-1.294-.755Z" transform="translate(-54.707 -58.953)" fill="#a2d5f2"/>
        <path id="Path_1285508" data-name="Path 1285508" d="M74.489,133.828a1.073,1.073,0,0,0-1.1,1.02c-.047,1.289-.143,2.552-.287,3.754a1.059,1.059,0,0,0,.926,1.176,1.251,1.251,0,0,0,.127.007,1.06,1.06,0,0,0,1.05-.934c.15-1.259.251-2.58.3-3.927a1.06,1.06,0,0,0-1.02-1.1Z" transform="translate(-57.984 -106.157)" fill="#a2d5f2"/>
        <path id="Path_1285509" data-name="Path 1285509" d="M210.247,144.292a1.059,1.059,0,0,0,0,2.117H233.04a1.059,1.059,0,1,0,0-2.117Z" transform="translate(-165.937 -114.458)" fill="#a2d5f2"/>
        <path id="Path_1285510" data-name="Path 1285510" d="M266.857,166.784H253.8a1.059,1.059,0,0,0,0,2.117h13.055a1.059,1.059,0,0,0,0-2.117" transform="translate(-200.486 -132.3)" fill="#a2d5f2"/>
        <path id="Path_1285511" data-name="Path 1285511" d="M251.08,299.983a4.324,4.324,0,1,0-4.323,4.324,4.329,4.329,0,0,0,4.323-4.324m-6.53,0a2.207,2.207,0,1,1,2.207,2.207,2.21,2.21,0,0,1-2.207-2.207" transform="translate(-192.307 -234.53)" fill="#a2d5f2"/>
        <path id="Path_1285512" data-name="Path 1285512" d="M91.665,48.264A3.267,3.267,0,0,0,88.4,51.527V56.26H64.423V42.486h4.087c3.712,0,5.653-7.887,5.653-15.678S72.222,11.13,68.511,11.13H65.987a7.307,7.307,0,0,0-7.215-6.238H58.7A5.562,5.562,0,0,0,53.2,0H19.308a5.563,5.563,0,0,0-5.5,4.892H7.3a7.31,7.31,0,0,0-7.3,7.3,1.059,1.059,0,0,0,1.059,1.059H4.694c-1.76,2.865-2.669,8.232-2.669,13.559,0,7.785,1.938,15.663,5.644,15.675H19.506l2.867,5.4a1.058,1.058,0,0,0,.935.562h9.729a1.057,1.057,0,0,0,.847-.423l4.149-5.536h6.442V64.671a9.986,9.986,0,0,0,9.974,9.974H88.4v4.733a3.264,3.264,0,1,0,6.527,0V51.527a3.267,3.267,0,0,0-3.264-3.264ZM72.045,26.809c0,8.775-2.335,13.561-3.536,13.561H63.392c-.01,0-.018-.005-.029-.005H45.533c-.01,0-.018.005-.029.005H38.571V22.733a1.059,1.059,0,0,0-1.059-1.059H27.636a1.059,1.059,0,0,0-1.059,1.065l.063,11.083a6.51,6.51,0,0,1-6.51,6.537.88.88,0,0,0-.089.014c-.011,0-.021,0-.031,0H10.659c1.76-2.865,2.669-8.232,2.669-13.559s-.909-10.694-2.669-13.559H44.783l3.446,9.832a1.059,1.059,0,0,0,1,.708H61.321a1.06,1.06,0,0,0,1-.708l3.448-9.837h2.743c1.2,0,3.536,4.786,3.536,13.561ZM19.308,2.119H53.2a3.461,3.461,0,0,1,3.388,2.774H15.92a3.462,3.462,0,0,1,3.389-2.774ZM4.142,26.812c0-8.773,2.335-13.559,3.535-13.559s3.535,4.786,3.535,13.559S8.88,40.364,7.679,40.371h0c-1.2-.005-3.532-4.79-3.532-13.559m17.668,15.5a8.634,8.634,0,0,0,6.949-8.5L28.7,23.793h3.276V37.661a8.684,8.684,0,0,1-8.047,8.646l-2.119-3.991ZM46.591,64.673V48.455H54.7l3.436,9.234a1.059,1.059,0,0,0,.993.691H62.3v6.293a7.857,7.857,0,0,1-15.714,0ZM92.812,79.38a1.146,1.146,0,1,1-2.293,0V51.53a1.146,1.146,0,1,1,2.293,0Z" fill="#a2d5f2"/>
        <path id="Path_1285513" data-name="Path 1285513" d="M29.821,107.085c0-2.716-.674-5.888-2.577-5.888s-2.577,3.173-2.577,5.888.675,5.889,2.577,5.889,2.577-3.173,2.577-5.889" transform="translate(-19.568 -80.274)" fill="#a2d5f2"/>
        <path id="Path_1285514" data-name="Path 1285514" d="M70.1,74.353a1.06,1.06,0,0,0-.755,1.294,39.507,39.507,0,0,1,1.136,9,1.059,1.059,0,0,0,1.059,1.036h.023A1.06,1.06,0,0,0,72.6,84.6,41.693,41.693,0,0,0,71.4,75.109a1.058,1.058,0,0,0-1.294-.755Z" transform="translate(-54.983 -58.953)"/>
        <path id="Path_1285515" data-name="Path 1285515" d="M74.837,133.828a1.073,1.073,0,0,0-1.1,1.02c-.047,1.289-.143,2.552-.287,3.754a1.059,1.059,0,0,0,.926,1.176,1.251,1.251,0,0,0,.127.007,1.06,1.06,0,0,0,1.05-.934c.15-1.259.251-2.58.3-3.927a1.06,1.06,0,0,0-1.02-1.1Z" transform="translate(-58.26 -106.157)"/>
        <path id="Path_1285516" data-name="Path 1285516" d="M210.6,144.292a1.059,1.059,0,1,0,0,2.117h22.794a1.059,1.059,0,1,0,0-2.117Z" transform="translate(-166.217 -114.458)"/>
        <path id="Path_1285517" data-name="Path 1285517" d="M267.205,166.789H254.151a1.059,1.059,0,1,0,0,2.117h13.055a1.059,1.059,0,0,0,0-2.117" transform="translate(-200.763 -132.304)"/>
        <path id="Path_1285518" data-name="Path 1285518" d="M251.433,299.983a4.324,4.324,0,1,0-4.323,4.324,4.329,4.329,0,0,0,4.323-4.324m-6.53,0a2.207,2.207,0,1,1,2.207,2.207,2.21,2.21,0,0,1-2.207-2.207" transform="translate(-192.587 -234.53)"/>
        <path id="Path_1285519" data-name="Path 1285519" d="M92.017,48.264a3.267,3.267,0,0,0-3.264,3.264V56.26H64.775V42.486h4.087c3.712,0,5.653-7.887,5.653-15.678S72.574,11.13,68.863,11.13H66.339a7.307,7.307,0,0,0-7.215-6.238h-.068A5.562,5.562,0,0,0,53.552,0H19.661a5.563,5.563,0,0,0-5.5,4.892h-6.5a7.31,7.31,0,0,0-7.3,7.3,1.059,1.059,0,0,0,1.059,1.059H5.047c-1.76,2.865-2.669,8.232-2.669,13.559,0,7.785,1.938,15.663,5.644,15.675H19.859l2.867,5.4a1.058,1.058,0,0,0,.935.562h9.729a1.057,1.057,0,0,0,.847-.423l4.149-5.536h6.442V64.671A9.986,9.986,0,0,0,54.8,74.645H88.753v4.733a3.264,3.264,0,1,0,6.527,0V51.527a3.267,3.267,0,0,0-3.264-3.264ZM72.4,26.809c0,8.775-2.335,13.561-3.536,13.561H63.744c-.01,0-.018-.005-.029-.005H45.884c-.01,0-.018.005-.029.005H38.923V22.733a1.059,1.059,0,0,0-1.059-1.059H27.988a1.059,1.059,0,0,0-1.059,1.065l.063,11.083a6.51,6.51,0,0,1-6.51,6.537.871.871,0,0,0-.089.014c-.011,0-.021,0-.031,0H11.013c1.759-2.865,2.669-8.232,2.669-13.559s-.909-10.694-2.669-13.559H45.135l3.446,9.832a1.059,1.059,0,0,0,1,.708H61.673a1.06,1.06,0,0,0,1-.708l3.448-9.837h2.743c1.2,0,3.536,4.786,3.536,13.561ZM19.661,2.119H53.552A3.461,3.461,0,0,1,56.94,4.894H16.272a3.462,3.462,0,0,1,3.389-2.774M7.655,7.011H59.123a5.191,5.191,0,0,1,5.182,5.013l-3.383,9.654H50.331l-3.446-9.832a1.059,1.059,0,0,0-1-.708H2.579A5.194,5.194,0,0,1,7.655,7.012ZM4.5,26.812c0-8.773,2.335-13.559,3.535-13.559s3.535,4.786,3.535,13.559S9.233,40.364,8.032,40.371h0c-1.2-.005-3.532-4.79-3.532-13.559m17.668,15.5a8.634,8.634,0,0,0,6.949-8.5l-.057-10.018h3.276V37.661a8.684,8.684,0,0,1-8.047,8.646l-2.119-3.991Zm10.7,4.015H30.068a10.8,10.8,0,0,0,4.38-8.67V23.793h2.36V41.062Zm29.8-3.843V56.262h-2.44l-3.439-9.236a1.058,1.058,0,0,0-.992-.689H46.944V42.488ZM46.944,64.673V48.455h8.107l3.436,9.234a1.059,1.059,0,0,0,.993.691h3.177v6.293a7.857,7.857,0,1,1-15.714,0Zm13.98,7.857a9.952,9.952,0,0,0,3.851-7.857V58.38H88.754V72.53Zm32.241,6.85a1.146,1.146,0,0,1-2.293,0V51.53a1.146,1.146,0,0,1,2.293,0Z" transform="translate(-0.28)"/>
        <path id="Path_1285520" data-name="Path 1285520" d="M30.175,107.085c0-2.716-.674-5.888-2.577-5.888s-2.577,3.173-2.577,5.888.675,5.889,2.577,5.889,2.577-3.173,2.577-5.889m-2.577-3.3a12.079,12.079,0,0,1,0,6.6,12.079,12.079,0,0,1,0-6.6" transform="translate(-19.848 -80.274)"/>
      </g>
    </g>
  </g>
</svg>
