<svg xmlns="http://www.w3.org/2000/svg" xmlns:xlink="http://www.w3.org/1999/xlink" width="95" height="95" viewBox="0 0 95 95">
  <defs>
    <clipPath id="clip-path">
      <rect id="Rectangle_413660" data-name="Rectangle 413660" width="95" height="87.707" fill="none"/>
    </clipPath>
  </defs>
  <g id="Group_1222742" data-name="Group 1222742" transform="translate(-19204 9915)">
    <rect id="Rectangle_413723" data-name="Rectangle 413723" width="95" height="95" transform="translate(19204 -9915)" fill="none"/>
    <g id="Group_1222710" data-name="Group 1222710" transform="translate(19204 -9911.354)">
      <g id="Group_1222709" data-name="Group 1222709" clip-path="url(#clip-path)">
        <path id="Path_1285476" data-name="Path 1285476" d="M158.793,138.921A22.088,22.088,0,0,0,180.816,116.9V106.1H136.769v10.8A22.088,22.088,0,0,0,158.793,138.921Z" transform="translate(-111.292 -86.332)" fill="#9ae7fd" fill-rule="evenodd"/>
        <path id="Path_1285477" data-name="Path 1285477" d="M227.584,130.131a21.884,21.884,0,0,0,4.451-13.234V106.1H199.712a42.259,42.259,0,0,0,27.872,24.036" transform="translate(-162.511 -86.332)" fill="#c9f0ff" fill-rule="evenodd"/>
        <path id="Path_1285478" data-name="Path 1285478" d="M71.283,103.2h57.659a6.646,6.646,0,0,0,6.627-6.627V86.34a.886.886,0,0,0-.884-.883H65.539a.886.886,0,0,0-.883.883V96.574a6.646,6.646,0,0,0,6.627,6.627" transform="translate(-52.612 -69.539)" fill="#2891fa" fill-rule="evenodd"/>
        <path id="Path_1285479" data-name="Path 1285479" d="M203.138,103.2h29.4a6.646,6.646,0,0,0,6.627-6.627V86.34a.886.886,0,0,0-.884-.883H191.968A42.177,42.177,0,0,0,203.138,103.2Z" transform="translate(-156.209 -69.539)" fill="#43a2ff" fill-rule="evenodd"/>
        <rect id="Rectangle_413659" data-name="Rectangle 413659" width="21.72" height="18.461" transform="translate(36.64 15.201)" fill="#006edb"/>
        <path id="Path_1285480" data-name="Path 1285480" d="M206.988,100.066h11.431V81.605H196.7v3.2A42.228,42.228,0,0,0,206.988,100.066Z" transform="translate(-160.059 -66.404)" fill="#0e82f5" fill-rule="evenodd"/>
        <path id="Path_1285481" data-name="Path 1285481" d="M14.871,27.234H92.337a7.392,7.392,0,0,0,7.37-7.37V8.484a.986.986,0,0,0-.983-.983H8.484a.986.986,0,0,0-.983.983V19.864a7.392,7.392,0,0,0,7.37,7.37" transform="translate(-6.104 -6.104)" fill="#6f6571" fill-rule="evenodd"/>
        <path id="Path_1285482" data-name="Path 1285482" d="M185.28,27.234h48.412a7.392,7.392,0,0,0,7.37-7.37V8.484a.986.986,0,0,0-.983-.983H181.25c-.021.549-.035,1.1-.035,1.653A41.99,41.99,0,0,0,185.28,27.234Z" transform="translate(-147.459 -6.104)" fill="#7e7381" fill-rule="evenodd"/>
        <path id="Path_1285483" data-name="Path 1285483" d="M61.805,44.6H77.129a1.347,1.347,0,0,1,1.343,1.343v3.224a1.347,1.347,0,0,1-1.343,1.343H61.805a1.347,1.347,0,0,1-1.343-1.343V45.947A1.347,1.347,0,0,1,61.805,44.6m54.465,0h15.323a1.347,1.347,0,0,1,1.343,1.343v3.224a1.347,1.347,0,0,1-1.343,1.343H116.271a1.347,1.347,0,0,1-1.343-1.343V45.947a1.347,1.347,0,0,1,1.343-1.343" transform="translate(-49.199 -36.295)" fill="#ffc328" fill-rule="evenodd"/>
        <path id="Path_1285484" data-name="Path 1285484" d="M237.8,39.333a3.937,3.937,0,1,1-3.937,3.937,3.937,3.937,0,0,1,3.937-3.937" transform="translate(-190.302 -32.006)" fill="#ff6372" fill-rule="evenodd"/>
        <path id="Path_1285485" data-name="Path 1285485" d="M354.2,44.6h15.323a1.347,1.347,0,0,1,1.343,1.343v3.224a1.347,1.347,0,0,1-1.343,1.343H354.2a1.347,1.347,0,0,1-1.343-1.343V45.947A1.347,1.347,0,0,1,354.2,44.6" transform="translate(-287.128 -36.295)" fill="#ffd54f" fill-rule="evenodd"/>
        <path id="Path_1285486" data-name="Path 1285486" d="M47.5,8.724a2.54,2.54,0,1,1-2.541,2.54A2.544,2.544,0,0,1,47.5,8.724m0,7.873a5.334,5.334,0,1,0-5.335-5.334A5.34,5.34,0,0,0,47.5,16.6M67.125,9.705H82.341v3.116H67.125Zm-.053,5.911H82.395a2.744,2.744,0,0,0,2.74-2.74V9.652a2.743,2.743,0,0,0-2.74-2.74H67.072a2.744,2.744,0,0,0-2.742,2.74v3.224a2.745,2.745,0,0,0,2.742,2.74M12.659,9.705H27.876v3.116H12.659Zm-.053,5.911H27.928a2.744,2.744,0,0,0,2.742-2.74V9.652a2.744,2.744,0,0,0-2.742-2.74H12.606a2.744,2.744,0,0,0-2.74,2.74v3.224a2.744,2.744,0,0,0,2.74,2.74m58.818,58.4a27.74,27.74,0,0,1-47.847,0A1.4,1.4,0,1,1,25.986,72.6a24.95,24.95,0,0,0,43.03,0,1.4,1.4,0,1,1,2.408,1.416ZM39.772,59.679a1.4,1.4,0,1,1,2.408-1.416,6.169,6.169,0,0,0,10.363.43,1.4,1.4,0,1,1,2.283,1.612,8.964,8.964,0,0,1-15.053-.626ZM47.5,73.111A15.627,15.627,0,0,1,34.083,65.43a1.4,1.4,0,1,0-2.409,1.416,18.354,18.354,0,0,0,31.652,0,1.4,1.4,0,0,0-2.409-1.416A15.635,15.635,0,0,1,47.5,73.111m44.706-59.35V2.794H2.795V13.761a5.979,5.979,0,0,0,5.971,5.972H86.234a5.979,5.979,0,0,0,5.973-5.972M81.561,27.035a5.237,5.237,0,0,1-5.231,5.23H59.757V22.528h21.8v4.507ZM47.5,51.191A20.739,20.739,0,0,1,27.372,35.059H67.629A20.739,20.739,0,0,1,47.5,51.191M38.038,22.528H56.963v9.737H38.038Zm-24.6,4.507V22.528h21.8v9.737H18.671a5.237,5.237,0,0,1-5.231-5.23M92.619,0H2.381A2.383,2.383,0,0,0,0,2.38V13.761a8.777,8.777,0,0,0,8.766,8.767h1.88v4.507a8.034,8.034,0,0,0,8.025,8.025h5.845a23.42,23.42,0,0,0,45.969,0H76.33a8.035,8.035,0,0,0,8.025-8.025V22.528h1.879A8.777,8.777,0,0,0,95,13.761V2.38A2.382,2.382,0,0,0,92.619,0" fill-rule="evenodd"/>
      </g>
    </g>
  </g>
</svg>
