<svg xmlns="http://www.w3.org/2000/svg" xmlns:xlink="http://www.w3.org/1999/xlink" width="95" height="95" viewBox="0 0 95 95">
  <defs>
    <clipPath id="clip-path">
      <rect id="Rectangle_413644" data-name="Rectangle 413644" width="95" height="94.992" fill="none"/>
    </clipPath>
  </defs>
  <g id="Group_1222744" data-name="Group 1222744" transform="translate(-19520 9915)">
    <rect id="Rectangle_413724" data-name="Rectangle 413724" width="95" height="95" transform="translate(19520 -9915)" fill="none"/>
    <g id="Group_1222674" data-name="Group 1222674" transform="translate(19520 -9914.992)">
      <g id="Group_1222673" data-name="Group 1222673" clip-path="url(#clip-path)">
        <path id="Path_1285431" data-name="Path 1285431" d="M43.167,47.962h28.5a3.167,3.167,0,0,1,3.167,3.167v49.083a3.167,3.167,0,0,1-3.167,3.167h-28.5A3.167,3.167,0,0,1,40,100.212V51.129a3.167,3.167,0,0,1,3.167-3.167" transform="translate(-32.083 -38.47)" fill="#e9e9ea"/>
        <rect id="Rectangle_413636" data-name="Rectangle 413636" width="22.167" height="39.583" transform="translate(14.25 15.826)" fill="#2488ff"/>
        <path id="Path_1285432" data-name="Path 1285432" d="M108.75,127.962a4.75,4.75,0,1,1-4.75,4.75,4.75,4.75,0,0,1,4.75-4.75" transform="translate(-83.417 -102.636)" fill="#ff9811"/>
        <path id="Path_1285433" data-name="Path 1285433" d="M27,196.045l-2.937-24.067a3.167,3.167,0,0,1,.475-2.323l1.127-1.691a7.916,7.916,0,0,0,1.335-4.4v-.657a7.916,7.916,0,0,0-2.318-5.6l-.849-.849,3.6-6a2.868,2.868,0,0,0-3.935-3.935L18.561,149.5a1.583,1.583,0,0,1-1.935-.238L14.8,147.426a1.583,1.583,0,0,1-.464-1.119V127.962L8.226,143.229A3.193,3.193,0,0,0,8,144.4v16.28a6.334,6.334,0,0,0,1.267,3.8l1.045,1.392a9.508,9.508,0,0,1,1.77,7.261l-2.5,22.908Z" transform="translate(-6.417 -102.636)" fill="#ffcbbe"/>
        <path id="Path_1285434" data-name="Path 1285434" d="M251.167,143.962H276.5a3.167,3.167,0,0,1,3.167,3.167v57A3.167,3.167,0,0,1,276.5,207.3H251.167A3.167,3.167,0,0,1,248,204.129v-57a3.167,3.167,0,0,1,3.167-3.167" transform="translate(-198.917 -115.47)" fill="#4a80aa"/>
        <rect id="Rectangle_413637" data-name="Rectangle 413637" width="19" height="11.083" transform="translate(55.417 34.826)" fill="#00e7f0"/>
        <path id="Path_1285435" data-name="Path 1285435" d="M316.377,268.706h-18.7a9.5,9.5,0,1,0,0,9.5h18.7a1.583,1.583,0,0,0,1.583-1.583v-6.333a1.583,1.583,0,0,0-1.583-1.583" transform="translate(-224.544 -211.713)" fill="#e9e9ea"/>
        <path id="Path_1285436" data-name="Path 1285436" d="M39.583,39.962h-28.5a4.764,4.764,0,0,0-4.75,4.75V57.078L.317,72.088A5.124,5.124,0,0,0,0,73.829V90.106a7.859,7.859,0,0,0,1.583,4.75l1.045,1.393A7.986,7.986,0,0,1,4.1,102.377L1.6,125.288a1.6,1.6,0,0,0,.4,1.235,1.583,1.583,0,0,0,1.172.522H20.583a1.553,1.553,0,0,0,1.188-.538,1.533,1.533,0,0,0,.38-1.235L19.19,101.11a1.615,1.615,0,0,1,.253-1.172l.934-1.393H39.583a4.764,4.764,0,0,0,4.75-4.75V44.712a4.764,4.764,0,0,0-4.75-4.75M16.292,87l.855.855a3.98,3.98,0,0,1,.491.554c0,.016.016.016.032.016l-.016.016A6.306,6.306,0,0,1,19,92.323v.665A6.321,6.321,0,0,1,17.939,96.5l-1.124,1.678a4.69,4.69,0,0,0-.744,3.388l2.723,22.309H4.94l2.3-21.058A11.194,11.194,0,0,0,5.162,94.35L4.117,92.956a4.779,4.779,0,0,1-.95-2.85V73.829a1.561,1.561,0,0,1,.111-.6L6.333,65.6V75.729a3.192,3.192,0,0,0,.918,2.232L9.088,79.8a3.2,3.2,0,0,0,3.879.475l2.09-1.267,2.866-1.71a1.281,1.281,0,0,1,1.536.206,1.248,1.248,0,0,1,.19,1.567l-3.594,6A1.606,1.606,0,0,0,16.292,87m3.357-1.124c-.079-.079-.158-.158-.237-.253L22.372,80.7a4.455,4.455,0,0,0-.665-5.447,4.565,4.565,0,0,0-5.431-.665l-.443.269v-25.4h19V85.879ZM41.167,93.8a1.583,1.583,0,0,1-1.583,1.583H21.834a9.269,9.269,0,0,0,.333-2.391v-.665a9.609,9.609,0,0,0-.6-3.278H36.417A1.583,1.583,0,0,0,38,87.462V47.879A1.583,1.583,0,0,0,36.417,46.3H14.25a1.583,1.583,0,0,0-1.583,1.583V76.743l-1.33.808L9.5,75.729V44.712a1.583,1.583,0,0,1,1.583-1.583h28.5a1.583,1.583,0,0,1,1.583,1.583Z" transform="translate(0 -32.053)"/>
        <path id="Path_1285437" data-name="Path 1285437" d="M102.333,119.962a6.333,6.333,0,1,0,6.333,6.333,6.333,6.333,0,0,0-6.333-6.333m0,9.5A3.167,3.167,0,1,1,105.5,126.3a3.167,3.167,0,0,1-3.167,3.167" transform="translate(-77 -96.22)"/>
        <path id="Path_1285438" data-name="Path 1285438" d="M312.928,96.893a3.167,3.167,0,1,0,4.478,0h0a3.167,3.167,0,0,0-4.478,0" transform="translate(-250.25 -76.972)"/>
        <path id="Path_1285439" data-name="Path 1285439" d="M307.492,66.758a9.511,9.511,0,0,0-13.436,0L296.295,69a6.344,6.344,0,0,1,8.959,0Z" transform="translate(-235.857 -51.317)"/>
        <path id="Path_1285440" data-name="Path 1285440" d="M293.823,36.6a15.833,15.833,0,0,0-22.391,0l2.239,2.239a12.667,12.667,0,0,1,17.913,0h0Z" transform="translate(-217.711 -25.637)"/>
        <path id="Path_1285441" data-name="Path 1285441" d="M277.91,8.725l2.24-2.24a22.189,22.189,0,0,0-31.35,0l2.239,2.239A19.021,19.021,0,0,1,277.91,8.725Z" transform="translate(-199.558 0)"/>
        <path id="Path_1285442" data-name="Path 1285442" d="M273.583,190.212h19a1.583,1.583,0,0,0,1.583-1.583V177.545a1.583,1.583,0,0,0-1.583-1.583h-19A1.583,1.583,0,0,0,272,177.545v11.083a1.583,1.583,0,0,0,1.583,1.583m1.583-11.083H291v7.917H275.167Z" transform="translate(-218.167 -141.136)"/>
        <path id="Path_1285443" data-name="Path 1285443" d="M284.333,172.462h-9.5v-23.75a4.764,4.764,0,0,0-4.75-4.75H244.75a4.764,4.764,0,0,0-4.75,4.75v57a4.764,4.764,0,0,0,4.75,4.75h25.333a4.764,4.764,0,0,0,4.75-4.75V185.129h9.5a3.176,3.176,0,0,0,3.167-3.167v-6.333a3.176,3.176,0,0,0-3.167-3.167m-12.667,33.25a1.583,1.583,0,0,1-1.583,1.583H244.75a1.583,1.583,0,0,1-1.583-1.583v-57a1.583,1.583,0,0,1,1.583-1.583h25.333a1.583,1.583,0,0,1,1.583,1.583v23.75H266.5a11.067,11.067,0,0,0-10.862-4.607A11.078,11.078,0,1,0,266.5,185.129h5.162Zm12.667-23.75h-18.7a1.545,1.545,0,0,0-1.362.792,7.917,7.917,0,1,1-8.138-11.78,8.7,8.7,0,0,1,1.267-.095,7.916,7.916,0,0,1,6.872,3.958,1.545,1.545,0,0,0,1.362.792h18.7Z" transform="translate(-192.5 -115.47)"/>
        <rect id="Rectangle_413638" data-name="Rectangle 413638" width="3.167" height="3.167" transform="translate(57 77.576)"/>
        <rect id="Rectangle_413639" data-name="Rectangle 413639" width="3.167" height="3.167" transform="translate(63.333 77.576)"/>
        <rect id="Rectangle_413640" data-name="Rectangle 413640" width="3.167" height="3.167" transform="translate(69.667 77.576)"/>
        <rect id="Rectangle_413641" data-name="Rectangle 413641" width="3.167" height="3.167" transform="translate(57 83.909)"/>
        <rect id="Rectangle_413642" data-name="Rectangle 413642" width="3.167" height="3.167" transform="translate(63.333 83.909)"/>
        <rect id="Rectangle_413643" data-name="Rectangle 413643" width="3.167" height="3.167" transform="translate(69.667 83.909)"/>
      </g>
    </g>
  </g>
</svg>
