<svg xmlns="http://www.w3.org/2000/svg" xmlns:xlink="http://www.w3.org/1999/xlink" width="95" height="95" viewBox="0 0 95 95">
  <defs>
    <clipPath id="clip-path">
      <rect id="Rectangle_413668" data-name="Rectangle 413668" width="95" height="95" fill="none"/>
    </clipPath>
  </defs>
  <g id="Group_1222745" data-name="Group 1222745" transform="translate(-19677 9915)">
    <rect id="Rectangle_413712" data-name="Rectangle 413712" width="95" height="95" transform="translate(19677 -9915)" fill="none"/>
    <g id="Group_1222714" data-name="Group 1222714" transform="translate(19677 -9915)">
      <g id="Group_1222713" data-name="Group 1222713" clip-path="url(#clip-path)">
        <path id="Path_1285496" data-name="Path 1285496" d="M84.871,437.677H91a12.255,12.255,0,0,1-12.258,12.258H20.516A12.257,12.257,0,0,1,8.258,437.677H38.9v6.129H60.355v-6.129Z" transform="translate(-6.726 -356.467)" fill="#969faa"/>
        <path id="Path_1285497" data-name="Path 1285497" d="M111.774,165.552V209H41.29V163.033a6.13,6.13,0,0,1,6.129-6.129h6.129v6.129h-4.6a1.532,1.532,0,0,0-1.532,1.532v36.774a1.532,1.532,0,0,0,1.532,1.532h55.161a1.532,1.532,0,0,0,1.532-1.532V169.162h4.6l1.2-3.61c.1-.027.2-.054.3-.082Z" transform="translate(-33.629 -127.791)" fill="#ccd1d9"/>
        <rect id="Rectangle_413662" data-name="Rectangle 413662" width="21.452" height="6.129" transform="translate(32.177 81.21)" fill="#fcd770"/>
        <path id="Path_1285498" data-name="Path 1285498" d="M132.549,196.065v32.177a1.532,1.532,0,0,1-1.532,1.532H75.855a1.532,1.532,0,0,1-1.532-1.532V191.468a1.532,1.532,0,0,1,1.532-1.532h4.6v9.193a3.064,3.064,0,0,0,3.064,3.064h39.839a3.064,3.064,0,0,0,3.064-3.064v-7.776l.077-.153a16.655,16.655,0,0,0,3.317,1.255l1.2,3.61Z" transform="translate(-60.533 -154.694)" fill="#69d6f4"/>
        <rect id="Rectangle_413663" data-name="Rectangle 413663" width="9.193" height="9.193" transform="translate(53.629 59.758)" fill="#ffeaa7"/>
        <rect id="Rectangle_413664" data-name="Rectangle 413664" width="9.193" height="9.193" transform="translate(38.307 59.758)" fill="#ffeaa7"/>
        <rect id="Rectangle_413665" data-name="Rectangle 413665" width="9.193" height="9.193" transform="translate(22.984 59.758)" fill="#ffeaa7"/>
        <path id="Path_1285499" data-name="Path 1285499" d="M153.4,150.845l-.077.153v7.776a3.064,3.064,0,0,1-3.064,3.065H110.419a3.064,3.064,0,0,1-3.064-3.065V140.387h37.41a16.636,16.636,0,0,0,1.67,3.915l-1.7,3.407,4.333,4.333,3.407-1.7c.3.178.613.347.927.506" transform="translate(-87.436 -114.339)" fill="#e6e9ed"/>
        <path id="Path_1285500" data-name="Path 1285500" d="M144.764,86.58h-37.41V77.387a3.064,3.064,0,0,1,3.064-3.065h10.364a3.064,3.064,0,0,1,2.741,1.693l2.218,4.436h15.323v4.6l3.61,1.2c.029.111.059.22.09.329" transform="translate(-87.435 -60.532)" fill="#ed5565"/>
        <path id="Path_1285501" data-name="Path 1285501" d="M292.733,32.774c-.031-.109-.061-.218-.09-.329l-3.61-1.2V25.113l3.61-1.2a16.7,16.7,0,0,1,1.76-4.244l-1.7-3.407,4.333-4.333,3.407,1.7a16.7,16.7,0,0,1,4.244-1.76l1.2-3.61h6.129l1.2,3.61a16.7,16.7,0,0,1,4.244,1.76l3.407-1.7,4.332,4.333-1.7,3.407a16.7,16.7,0,0,1,1.76,4.244l3.61,1.2v6.129l-3.61,1.2a16.7,16.7,0,0,1-1.76,4.244l1.7,3.407-4.332,4.333-3.407-1.7a16.671,16.671,0,0,1-3.94,1.676v0c-.1.029-.2.055-.3.082l-1.2,3.61h-6.129l-1.2-3.61a16.65,16.65,0,0,1-3.317-1.255c-.314-.159-.624-.327-.927-.506l-3.407,1.7L292.7,40.1l1.7-3.407a16.631,16.631,0,0,1-1.67-3.915m26.945-4.6A10.726,10.726,0,1,0,308.952,38.9a10.725,10.725,0,0,0,10.726-10.726" transform="translate(-235.404 -6.726)" fill="#ffc729"/>
        <path id="Path_1285502" data-name="Path 1285502" d="M349.306,57.807A10.726,10.726,0,1,1,338.58,68.533a10.725,10.725,0,0,1,10.726-10.726m4.6,10.726a4.6,4.6,0,1,0-4.6,4.6,4.6,4.6,0,0,0,4.6-4.6" transform="translate(-275.758 -47.081)" fill="#fcd770"/>
        <path id="Path_1285503" data-name="Path 1285503" d="M323.678,25.62V17.283l-3.892-1.3a18.3,18.3,0,0,0-1.279-3.084l1.835-3.671-5.9-5.9-3.671,1.835a18.287,18.287,0,0,0-3.084-1.279L306.4,0h-8.338l-1.3,3.892a18.293,18.293,0,0,0-3.084,1.279l-3.671-1.835-5.9,5.9,1.836,3.671a18.286,18.286,0,0,0-1.279,3.084l-3.892,1.3V25.62l3.892,1.3A18.312,18.312,0,0,0,285.945,30l-1.835,3.671,5.9,5.9,3.671-1.835a18.286,18.286,0,0,0,3.083,1.279l1.3,3.892H306.4l1.3-3.892a18.29,18.29,0,0,0,3.084-1.279l3.671,1.835,5.9-5.9L318.507,30a18.3,18.3,0,0,0,1.279-3.084Zm-6.415-1.092-.21.8a15.21,15.21,0,0,1-1.6,3.856l-.42.717,1.58,3.161-2.772,2.772-3.162-1.58-.717.42a15.216,15.216,0,0,1-3.856,1.6l-.8.21-1.117,3.351h-3.92l-1.117-3.351-.8-.21a15.212,15.212,0,0,1-3.856-1.6l-.717-.42-3.162,1.58-2.772-2.772,1.581-3.161-.42-.717a15.209,15.209,0,0,1-1.6-3.856l-.21-.8-3.351-1.117v-3.92l3.351-1.117.21-.8a15.193,15.193,0,0,1,1.6-3.856l.42-.717-1.581-3.162,2.772-2.772,3.161,1.58.717-.42a15.216,15.216,0,0,1,3.856-1.6l.8-.21,1.117-3.351h3.921L305.3,6.415l.8.21a15.21,15.21,0,0,1,3.856,1.6l.717.42,3.161-1.58,2.772,2.772L315.034,13l.42.717a15.215,15.215,0,0,1,1.6,3.856l.21.8,3.351,1.117v3.92Z" transform="translate(-228.678)"/>
        <path id="Path_1285504" data-name="Path 1285504" d="M342.58,49.548a12.258,12.258,0,1,0,12.258,12.258A12.272,12.272,0,0,0,342.58,49.548m0,21.452a9.194,9.194,0,1,1,9.193-9.193A9.2,9.2,0,0,1,342.58,71" transform="translate(-269.032 -40.355)"/>
        <path id="Path_1285505" data-name="Path 1285505" d="M369.484,82.581a6.129,6.129,0,1,0,6.129,6.129,6.136,6.136,0,0,0-6.129-6.129m0,9.193a3.064,3.064,0,1,1,3.065-3.064,3.068,3.068,0,0,1-3.065,3.064" transform="translate(-295.936 -67.258)"/>
        <path id="Path_1285506" data-name="Path 1285506" d="M79.677,99.775H76.613v33.71H9.193V89.049a4.6,4.6,0,0,1,4.6-4.6h4.6v3.065H15.323a3.068,3.068,0,0,0-3.065,3.064v36.774a3.068,3.068,0,0,0,3.065,3.064H70.484a3.068,3.068,0,0,0,3.064-3.064V99.775H70.484v27.581H15.323V90.581h3.064v7.661a4.6,4.6,0,0,0,4.6,4.6H41.371V105.9H26.048v6.129h-4.6v12.258H33.71V112.033h-4.6v-3.065H41.371v3.065h-4.6v12.258H49.032V112.033h-4.6v-3.065H56.693v3.065H52.1v12.258H64.355V112.033h-4.6V105.9H44.436v-3.064H62.823a4.6,4.6,0,0,0,4.6-4.6V96.71H64.355v1.532a1.534,1.534,0,0,1-1.532,1.532H22.984a1.534,1.534,0,0,1-1.532-1.532V81.387H49.032V78.323H21.452V70.662a1.534,1.534,0,0,1,1.532-1.532H33.348a1.523,1.523,0,0,1,1.37.847l2.641,5.282H49.032V72.194H39.253l-1.794-3.588a4.571,4.571,0,0,0-4.112-2.541H22.984a4.6,4.6,0,0,0-4.6,4.6V81.387h-4.6a7.67,7.67,0,0,0-7.661,7.661v44.435H0v1.532a13.806,13.806,0,0,0,13.79,13.79H72.016a13.806,13.806,0,0,0,13.79-13.79v-1.532H79.677ZM30.645,121.226H24.516V115.1h6.129Zm15.323,0H39.839V115.1h6.129Zm15.323,0H55.161V115.1H61.29ZM33.71,136.549H52.1v3.064H33.71Zm38.307,9.193H13.79a10.743,10.743,0,0,1-10.617-9.193H30.645v6.129H55.161v-6.129H82.633a10.743,10.743,0,0,1-10.617,9.193" transform="translate(0 -53.807)"/>
        <rect id="Rectangle_413666" data-name="Rectangle 413666" width="9.193" height="3.064" transform="translate(67.419 85.807)"/>
        <rect id="Rectangle_413667" data-name="Rectangle 413667" width="7.661" height="3.064" transform="translate(24.516 18.387)"/>
      </g>
    </g>
  </g>
</svg>
