<svg xmlns="http://www.w3.org/2000/svg" xmlns:xlink="http://www.w3.org/1999/xlink" width="98" height="98" viewBox="0 0 98 98">
  <defs>
    <filter id="Path_874925" x="0" y="0" width="98" height="98" filterUnits="userSpaceOnUse">
      <feOffset dy="3" input="SourceAlpha"/>
      <feGaussianBlur stdDeviation="3" result="blur"/>
      <feFlood flood-opacity="0.161"/>
      <feComposite operator="in" in2="blur"/>
      <feComposite in="SourceGraphic"/>
    </filter>
  </defs>
  <g id="Group_1222189" data-name="Group 1222189" transform="translate(-275.691 -6091)">
    <g id="Group_1200231" data-name="Group 1200231" transform="translate(-0.309 -0.407)">
      <g id="Group_1187153" data-name="Group 1187153">
        <g id="Group_1182177" data-name="Group 1182177">
          <g id="Group_1181903" data-name="Group 1181903">
            <g id="Group_1181438" data-name="Group 1181438">
              <g id="Group_1111314" data-name="Group 1111314" transform="translate(-734.73 3020.407)">
                <g transform="matrix(1, 0, 0, 1, 1010.73, 3071)" filter="url(#Path_874925)">
                  <g id="Path_874925-2" data-name="Path 874925" transform="translate(9 6)" fill="#ffc94a">
                    <path d="M 39.99997329711914 79.50040435791016 C 34.66728591918945 79.50040435791016 29.494384765625 78.45610046386719 24.62495040893555 76.39649963378906 C 19.92138481140137 74.40706634521484 15.69705104827881 71.55889892578125 12.06927299499512 67.93113708496094 C 8.441506385803223 64.30335998535156 5.593339920043945 60.07902526855469 3.603906631469727 55.37545776367188 C 1.544306635856628 50.50602340698242 0.5000066161155701 45.33312606811523 0.5000066161155701 40.00043487548828 C 0.5000066161155701 34.66728973388672 1.544306635856628 29.4943904876709 3.603906631469727 24.62495803833008 C 5.593339920043945 19.92139053344727 8.441506385803223 15.69704627990723 12.06927299499512 12.06927967071533 C 15.69705104827881 8.441502571105957 19.92138481140137 5.59334659576416 24.62495040893555 3.603902101516724 C 29.494384765625 1.544302225112915 34.66728591918945 0.5000022053718567 39.99997329711914 0.5000022053718567 C 45.33266067504883 0.5000022053718567 50.50556182861328 1.544302225112915 55.37499618530273 3.603902101516724 C 60.07856369018555 5.59334659576416 64.30290985107422 8.441502571105957 67.93067169189453 12.06927967071533 C 71.55844879150391 15.69704627990723 74.40660858154297 19.92139053344727 76.39604949951172 24.62495803833008 C 78.45565032958984 29.4943904876709 79.49995422363281 34.66728973388672 79.49995422363281 39.99998092651367 C 79.49995422363281 45.33312606811523 78.45565032958984 50.50602340698242 76.39604949951172 55.37545776367188 C 74.40660858154297 60.07902526855469 71.55844879150391 64.30335998535156 67.93067169189453 67.93113708496094 C 64.30290985107422 71.55889892578125 60.07856369018555 74.40706634521484 55.37499618530273 76.39649963378906 C 50.50556182861328 78.45610046386719 45.33266067504883 79.50040435791016 39.99997329711914 79.50040435791016 Z" stroke="none"/>
                    <path d="M 39.99997329711914 1 C 34.73457336425781 1 29.627197265625 2.031013488769531 24.81972885131836 4.064399719238281 C 20.17576217651367 6.028633117675781 16.00484085083008 8.840812683105469 12.42282867431641 12.42282104492188 C 8.840805053710938 16.00483703613281 6.02862548828125 20.17575836181641 4.06439208984375 24.81973648071289 C 2.031005859375 29.62720108032227 0.9999923706054688 34.73456954956055 0.9999923706054688 40.00043487548828 C 0.9999923706054688 45.26583480834961 2.031005859375 50.37321472167969 4.06439208984375 55.18067932128906 C 6.02862548828125 59.82464599609375 8.840805053710938 63.99556732177734 12.42282867431641 67.57757568359375 C 16.00484085083008 71.15959167480469 20.17576217651367 73.97177124023438 24.81972885131836 75.93600463867188 C 29.627197265625 77.96939086914062 34.73457336425781 79.00040435791016 39.99997329711914 79.00040435791016 C 45.26537322998047 79.00040435791016 50.37274932861328 77.96939086914062 55.18021774291992 75.93600463867188 C 59.82418441772461 73.97177124023438 63.9951057434082 71.15959167480469 67.57711791992188 67.57757568359375 C 71.15912628173828 63.99556732177734 73.97130584716797 59.82464599609375 75.93553924560547 55.18067932128906 C 77.96892547607422 50.37321472167969 78.99993896484375 45.26583480834961 78.99993896484375 39.99998092651367 C 78.99993896484375 34.73456954956055 77.96892547607422 29.62720108032227 75.93553924560547 24.81973648071289 C 73.97130584716797 20.17575836181641 71.15912628173828 16.00483703613281 67.57711791992188 12.42282104492188 C 63.9951057434082 8.840812683105469 59.82418441772461 6.028633117675781 55.18021774291992 4.064399719238281 C 50.37274932861328 2.031013488769531 45.26537322998047 1 39.99997329711914 1 M 39.99997329711914 0 C 62.09135055541992 0 79.99993896484375 17.90859222412109 79.99993896484375 39.99998092651367 L 79.99993896484375 40.00043487548828 C 79.99993896484375 62.09181213378906 62.09135055541992 80.00040435791016 39.99997329711914 80.00040435791016 C 17.90859603881836 80.00040435791016 -7.62939453125e-06 62.09181213378906 -7.62939453125e-06 40.00043487548828 L -7.62939453125e-06 39.99998092651367 C -7.62939453125e-06 17.90859222412109 17.90859603881836 0 39.99997329711914 0 Z" stroke="none" fill="#b18c32"/>
                  </g>
                </g>
              </g>
            </g>
          </g>
        </g>
      </g>
    </g>
    <g id="data-management_6151748" transform="translate(300.691 6111)">
      <g id="Group_1200480" data-name="Group 1200480" transform="translate(0.824 0.824)">
        <g id="Group_1200469" data-name="Group 1200469" transform="translate(0 42.827)">
          <path id="Path_1241579" data-name="Path 1241579" d="M49.179,424h3.294a6.587,6.587,0,0,1-6.589,6.589h-31.3A6.588,6.588,0,0,1,8,424H24.472v3.294H36V424Z" transform="translate(-8 -424)" fill="#969faa"/>
        </g>
        <g id="Group_1200470" data-name="Group 1200470" transform="translate(3.294 14.825)">
          <path id="Path_1241580" data-name="Path 1241580" d="M77.885,156.648V180H40V155.294A3.3,3.3,0,0,1,43.294,152h3.294v3.294H44.118a.823.823,0,0,0-.824.824v19.766a.823.823,0,0,0,.824.824H73.767a.823.823,0,0,0,.824-.824v-17.3h2.471l.647-1.941.164-.044Z" transform="translate(-40 -152)" fill="#ccd1d9"/>
        </g>
        <g id="Group_1200471" data-name="Group 1200471" transform="translate(16.472 42.827)">
          <path id="Path_1241581" data-name="Path 1241581" d="M168,424h11.53v3.294H168Z" transform="translate(-168 -424)" fill="#fcd770"/>
        </g>
        <g id="Group_1200472" data-name="Group 1200472" transform="translate(6.589 18.119)">
          <path id="Path_1241582" data-name="Path 1241582" d="M103.3,187.294v17.3a.823.823,0,0,1-.824.824H72.824A.823.823,0,0,1,72,204.59V184.824a.823.823,0,0,1,.824-.824h2.471v4.942a1.647,1.647,0,0,0,1.647,1.647H98.355A1.647,1.647,0,0,0,100,188.942v-4.18l.041-.082a8.952,8.952,0,0,0,1.783.674l.647,1.941Z" transform="translate(-72 -184)" fill="#69d6f4"/>
        </g>
        <g id="Group_1200473" data-name="Group 1200473" transform="translate(28.002 31.296)">
          <path id="Path_1241583" data-name="Path 1241583" d="M280,312h4.942v4.942H280Z" transform="translate(-280 -312)" fill="#ffeaa7"/>
        </g>
        <g id="Group_1200474" data-name="Group 1200474" transform="translate(19.766 31.296)">
          <path id="Path_1241584" data-name="Path 1241584" d="M200,312h4.942v4.942H200Z" transform="translate(-200 -312)" fill="#ffeaa7"/>
        </g>
        <g id="Group_1200475" data-name="Group 1200475" transform="translate(11.53 31.296)">
          <path id="Path_1241585" data-name="Path 1241585" d="M120,312h4.942v4.942H120Z" transform="translate(-120 -312)" fill="#ffeaa7"/>
        </g>
        <g id="Group_1200476" data-name="Group 1200476" transform="translate(9.883 13.177)">
          <path id="Path_1241586" data-name="Path 1241586" d="M128.749,141.621l-.041.082v4.18a1.647,1.647,0,0,1-1.647,1.647H105.647A1.647,1.647,0,0,1,104,145.883V136h20.108a8.938,8.938,0,0,0,.9,2.1l-.915,1.831,2.329,2.329,1.831-.915C128.413,141.445,128.58,141.536,128.749,141.621Z" transform="translate(-104 -136)" fill="#e6e9ed"/>
        </g>
        <g id="Group_1200477" data-name="Group 1200477" transform="translate(9.883 6.589)">
          <path id="Path_1241587" data-name="Path 1241587" d="M124.108,78.589H104V73.647A1.647,1.647,0,0,1,105.647,72h5.571a1.647,1.647,0,0,1,1.473.91l1.192,2.384h8.236v2.471l1.941.647C124.075,78.471,124.091,78.53,124.108,78.589Z" transform="translate(-104 -72)" fill="#ed5565"/>
        </g>
        <g id="Group_1200478" data-name="Group 1200478" transform="translate(28.002)">
          <path id="Path_1241588" data-name="Path 1241588" d="M281.989,21.177c-.016-.059-.033-.117-.048-.177L280,20.354V17.059l1.941-.647a8.978,8.978,0,0,1,.946-2.281l-.915-1.831L284.3,9.971l1.831.915a8.977,8.977,0,0,1,2.281-.946L289.059,8h3.294L293,9.941a8.977,8.977,0,0,1,2.281.946l1.831-.915,2.329,2.329-.915,1.831a8.977,8.977,0,0,1,.946,2.281l1.941.647v3.294L299.473,21a8.977,8.977,0,0,1-.946,2.281l.915,1.831-2.329,2.329-1.831-.915a8.959,8.959,0,0,1-2.118.9h0l-.164.044-.647,1.941h-3.294l-.647-1.941a8.951,8.951,0,0,1-1.783-.674c-.169-.085-.336-.176-.5-.272l-1.831.915-2.329-2.329.915-1.831A8.94,8.94,0,0,1,281.989,21.177Zm14.483-2.471a5.765,5.765,0,1,0-5.765,5.765A5.765,5.765,0,0,0,296.472,18.707Z" transform="translate(-280 -8)" fill="#ffc729"/>
        </g>
        <g id="Group_1200479" data-name="Group 1200479" transform="translate(32.944 4.942)">
          <path id="Path_1241589" data-name="Path 1241589" d="M333.765,56A5.765,5.765,0,1,1,328,61.765,5.765,5.765,0,0,1,333.765,56Zm2.471,5.765a2.471,2.471,0,1,0-2.471,2.471A2.471,2.471,0,0,0,336.236,61.765Z" transform="translate(-328 -56)" fill="#fcd770"/>
        </g>
      </g>
      <g id="Group_1200481" data-name="Group 1200481" transform="translate(0 0)">
        <path id="Path_1241590" data-name="Path 1241590" d="M295.06,13.771V9.289l-2.092-.7a9.827,9.827,0,0,0-.687-1.657l.987-1.973L290.1,1.793l-1.973.987a9.827,9.827,0,0,0-1.657-.687L285.771,0H281.29l-.7,2.092a9.831,9.831,0,0,0-1.657.687l-1.973-.987-3.169,3.169.987,1.973a9.831,9.831,0,0,0-.687,1.657l-2.092.7v4.481l2.092.7a9.83,9.83,0,0,0,.687,1.657l-.987,1.973,3.169,3.169,1.973-.987a9.829,9.829,0,0,0,1.657.687l.7,2.092h4.481l.7-2.092a9.832,9.832,0,0,0,1.658-.687l1.973.987,3.169-3.169-.987-1.973a9.824,9.824,0,0,0,.687-1.657Zm-3.448-.587-.113.432a8.173,8.173,0,0,1-.859,2.073l-.226.385.85,1.7-1.49,1.49-1.7-.85-.385.226a8.179,8.179,0,0,1-2.073.86l-.432.113-.6,1.8h-2.107l-.6-1.8-.432-.113a8.175,8.175,0,0,1-2.073-.86l-.385-.226-1.7.85-1.49-1.49.85-1.7-.226-.385a8.18,8.18,0,0,1-.859-2.073l-.113-.432-1.8-.6V10.477l1.8-.6.113-.432a8.175,8.175,0,0,1,.86-2.073l.226-.385-.85-1.7,1.49-1.49,1.7.85.385-.226a8.179,8.179,0,0,1,2.073-.86l.432-.113.6-1.8h2.107l.6,1.8.432.113a8.175,8.175,0,0,1,2.073.86l.385.226,1.7-.85,1.49,1.49-.85,1.7.226.385a8.179,8.179,0,0,1,.859,2.073l.113.432,1.8.6v2.107Z" transform="translate(-243.998 0)"/>
        <path id="Path_1241591" data-name="Path 1241591" d="M326.589,48a6.589,6.589,0,1,0,6.589,6.589A6.6,6.6,0,0,0,326.589,48Zm0,11.53a4.942,4.942,0,1,1,4.942-4.942A4.947,4.947,0,0,1,326.589,59.53Z" transform="translate(-287.056 -43.058)"/>
        <path id="Path_1241592" data-name="Path 1241592" d="M355.294,80a3.294,3.294,0,1,0,3.294,3.294A3.3,3.3,0,0,0,355.294,80Zm0,4.942a1.647,1.647,0,1,1,1.647-1.647A1.649,1.649,0,0,1,355.294,84.942Z" transform="translate(-315.762 -71.764)"/>
        <path id="Path_1241593" data-name="Path 1241593" d="M42.827,82.119H41.179v18.119H4.942V76.354a2.474,2.474,0,0,1,2.471-2.471H9.883V75.53H8.236a1.649,1.649,0,0,0-1.647,1.647V96.944a1.649,1.649,0,0,0,1.647,1.647H37.885a1.649,1.649,0,0,0,1.647-1.647V82.119H37.885V96.944H8.236V77.177H9.883V81.3a2.474,2.474,0,0,0,2.471,2.471h9.883v1.647H14v3.294H11.53V95.3h6.589V88.708H15.648V87.06h6.589v1.647H19.766V95.3h6.589V88.708H23.884V87.06h6.589v1.647H28V95.3h6.589V88.708H32.12V85.413H23.884V83.766h9.883A2.474,2.474,0,0,0,36.238,81.3v-.824H34.591V81.3a.825.825,0,0,1-.824.824H12.354a.825.825,0,0,1-.824-.824V72.236H26.355V70.589H11.53V66.471a.825.825,0,0,1,.824-.824h5.571a.819.819,0,0,1,.737.455l1.42,2.839h6.274V67.294H21.1l-.964-1.928A2.457,2.457,0,0,0,17.924,64H12.354a2.474,2.474,0,0,0-2.471,2.471v5.765H7.412a4.123,4.123,0,0,0-4.118,4.118v23.884H0v.824a7.421,7.421,0,0,0,7.412,7.412h31.3a7.421,7.421,0,0,0,7.412-7.412v-.824H42.827ZM16.472,93.649H13.177V90.355h3.294Zm8.236,0H21.413V90.355h3.294Zm8.236,0H29.649V90.355h3.294Zm-14.825,8.236H28v1.647H18.119Zm20.59,4.942H7.412a5.774,5.774,0,0,1-5.707-4.942H16.472v3.294H29.649v-3.294H44.415A5.774,5.774,0,0,1,38.709,106.827Z" transform="translate(0 -57.411)"/>
        <path id="Path_1241594" data-name="Path 1241594" d="M352,448h4.942v1.647H352Z" transform="translate(-315.762 -401.879)"/>
        <path id="Path_1241595" data-name="Path 1241595" d="M128,96h4.118v1.647H128Z" transform="translate(-114.823 -86.117)"/>
      </g>
    </g>
  </g>
</svg>
