<svg xmlns="http://www.w3.org/2000/svg" xmlns:xlink="http://www.w3.org/1999/xlink" width="100.367" height="95" viewBox="0 0 100.367 95">
  <defs>
    <clipPath id="clip-path">
      <rect id="Rectangle_414347" data-name="Rectangle 414347" width="100.367" height="77.901" fill="none"/>
    </clipPath>
  </defs>
  <g id="Group_1223171" data-name="Group 1223171" transform="translate(-13690.316 10357)">
    <rect id="Rectangle_414062" data-name="Rectangle 414062" width="95" height="95" transform="translate(13693 -10357)" fill="none"/>
    <g id="Group_1222973" data-name="Group 1222973" transform="translate(722.563 -20.067)">
      <ellipse id="Ellipse_12935" data-name="Ellipse 12935" cx="27.416" cy="27.416" rx="27.416" ry="27.416" transform="translate(13010.604 -10302.149)" fill="#ffc94a"/>
      <ellipse id="Ellipse_12936" data-name="Ellipse 12936" cx="19.939" cy="19.939" rx="19.939" ry="19.939" transform="translate(12970.436 -10333.479)" fill="#ffc94a"/>
    </g>
    <g id="Group_1223181" data-name="Group 1223181" transform="translate(13690.316 -10349.416)">
      <path id="Path_1287456" data-name="Path 1287456" d="M31.666,84.118l-6.108,18.507L18.952,72.92H9.536L26.358,54.507,43,72.331l-10.089.841Z" transform="translate(-6.998 -44.255)" fill="#97dca3"/>
      <path id="Path_1287457" data-name="Path 1287457" d="M175.636,33.88h10.617l2-11.693,9.08.336L180.944,4.279,164.962,22.018l8.492.42Z" transform="translate(-130.802 -3.14)" fill="#559162"/>
      <path id="Path_1287458" data-name="Path 1287458" d="M327.441,85.671l6.108,18.507,2.807-.946,3.867-28.754h9.585L332.75,56.4,316.6,73.386l9.08,1.345Z" transform="translate(-251.735 -45.759)" fill="#97dca3"/>
      <g id="Group_1223178" data-name="Group 1223178">
        <g id="Group_1223177" data-name="Group 1223177" clip-path="url(#clip-path)">
          <path id="Path_1287459" data-name="Path 1287459" d="M211.652,260.8a3.321,3.321,0,0,1,0-4.638,3.108,3.108,0,0,1,2.252-.955,3.145,3.145,0,0,1,2.252.955,3.364,3.364,0,0,1,0,4.638,3.172,3.172,0,0,1-4.5,0" transform="translate(-163.712 -196.586)" fill="#43aac2"/>
          <path id="Path_1287460" data-name="Path 1287460" d="M161.124,168.991h-4.967a1.592,1.592,0,0,0,0,3.183h4.967a1.592,1.592,0,0,0,0-3.183m-9.913-6.889a1.451,1.451,0,0,0,1.082.477,1.535,1.535,0,0,0,1.1-.477l3.51-3.615a1.64,1.64,0,0,0,0-2.251,1.527,1.527,0,0,0-2.186,0l-3.51,3.615a1.6,1.6,0,0,0,0,2.251m-8.235-11.8a1.559,1.559,0,0,0-1.545,1.592v5.116a1.546,1.546,0,1,0,3.091,0v-5.116a1.573,1.573,0,0,0-1.545-1.592m-4.437,19.735a6.6,6.6,0,0,0,0,9.14,6.11,6.11,0,0,0,8.875,0,6.587,6.587,0,0,0,.905-7.912l2.782-3.047a1.64,1.64,0,0,0-.088-2.251,1.528,1.528,0,0,0-2.185.068l-2.716,3.024a6.267,6.267,0,0,0-7.572.978m-9.494-13.8a1.619,1.619,0,0,0,0,2.251l3.51,3.615a1.49,1.49,0,0,0,2.186,0,1.641,1.641,0,0,0,0-2.251l-3.51-3.615a1.527,1.527,0,0,0-2.186,0m-5.784,14.347a1.574,1.574,0,0,0,1.545,1.592h4.967a1.592,1.592,0,0,0,0-3.183h-4.967a1.588,1.588,0,0,0-1.545,1.592m-3.841,0c0-13.369,10.553-24.26,23.556-24.26,12.982,0,23.556,10.891,23.556,24.26a24.5,24.5,0,0,1-6.623,16.848H126.043a24.4,24.4,0,0,1-6.623-16.848" transform="translate(-92.785 -112.713)" fill="#97d0dc"/>
          <path id="Path_1287461" data-name="Path 1287461" d="M313.66,69.357h-7.551a1.538,1.538,0,0,1-1.413-.978,1.609,1.609,0,0,1,.331-1.728l14.659-15.256a1.6,1.6,0,0,1,2.208,0l14.681,15.256a1.6,1.6,0,0,1,.309,1.728,1.516,1.516,0,0,1-1.413.978h-7.551l-3.4,24.533A1.558,1.558,0,0,1,323,95.254a.731.731,0,0,1-.221-.023,1.6,1.6,0,0,1-1.325-1.8l3.6-25.9a1.583,1.583,0,0,1,1.545-1.364h5.166L320.791,54.783,309.818,66.174h5.188a1.578,1.578,0,0,1,1.523,1.364l1.126,8.117a1.607,1.607,0,0,1-1.3,1.819,1.574,1.574,0,0,1-1.766-1.364Z" transform="translate(-236.644 -39.248)"/>
          <path id="Path_1287462" data-name="Path 1287462" d="M283.714,245.011a1.592,1.592,0,0,1,0,3.183h-4.967a1.592,1.592,0,0,1,0-3.183Z" transform="translate(-215.375 -188.732)"/>
          <path id="Path_1287463" data-name="Path 1287463" d="M266.038,190.188l-3.51,3.615a1.535,1.535,0,0,1-1.1.478,1.451,1.451,0,0,1-1.082-.478,1.6,1.6,0,0,1,0-2.251l3.511-3.615a1.527,1.527,0,0,1,2.186,0,1.641,1.641,0,0,1,0,2.251" transform="translate(-201.915 -144.414)"/>
          <path id="Path_1287464" data-name="Path 1287464" d="M221.2,165.238v5.116a1.546,1.546,0,1,1-3.091,0v-5.116a1.546,1.546,0,1,1,3.091,0" transform="translate(-169.461 -126.057)"/>
          <path id="Path_1287465" data-name="Path 1287465" d="M200.923,241.374a3.172,3.172,0,0,0,4.5,0,3.363,3.363,0,0,0,0-4.638,3.145,3.145,0,0,0-2.252-.955,3.108,3.108,0,0,0-2.252.955,3.321,3.321,0,0,0,0,4.638m-2.186,2.251a6.6,6.6,0,0,1,0-9.14,6.267,6.267,0,0,1,7.573-.978l2.715-3.024a1.527,1.527,0,0,1,2.186-.068,1.64,1.64,0,0,1,.088,2.251l-2.782,3.047a6.587,6.587,0,0,1-.905,7.912,6.11,6.11,0,0,1-8.875,0" transform="translate(-152.984 -177.16)"/>
          <path id="Path_1287466" data-name="Path 1287466" d="M161.378,18.422h-7.551a1.568,1.568,0,0,1-1.435-.978,1.653,1.653,0,0,1,.331-1.728L167.405.46a1.527,1.527,0,0,1,2.186,0l14.681,15.256a1.609,1.609,0,0,1,.331,1.728,1.538,1.538,0,0,1-1.413.978h-7.55l-.927,6.753a1.563,1.563,0,0,1-1.545,1.364h-.221a1.59,1.59,0,0,1-1.3-1.819L172.77,16.6a1.578,1.578,0,0,1,1.523-1.364h5.188L168.509,3.848,157.537,15.239H162.7a1.582,1.582,0,0,1,1.545,1.364l1.126,8.117a1.605,1.605,0,0,1-1.325,1.819,1.565,1.565,0,0,1-1.744-1.364Z" transform="translate(-118.317)"/>
          <path id="Path_1287467" data-name="Path 1287467" d="M163.176,187.937l3.51,3.615a1.64,1.64,0,0,1,0,2.251,1.489,1.489,0,0,1-2.186,0l-3.51-3.615a1.618,1.618,0,0,1,0-2.251,1.527,1.527,0,0,1,2.186,0" transform="translate(-124.73 -144.413)"/>
          <path id="Path_1287468" data-name="Path 1287468" d="M144.7,246.6a1.559,1.559,0,0,1-1.545,1.592h-4.968a1.592,1.592,0,0,1,0-3.183h4.968A1.574,1.574,0,0,1,144.7,246.6" transform="translate(-106.166 -188.732)"/>
          <path id="Path_1287469" data-name="Path 1287469" d="M108.653,159.909a24.4,24.4,0,0,0,6.623,16.848h33.867a24.5,24.5,0,0,0,6.623-16.848c0-13.369-10.575-24.26-23.557-24.26-13,0-23.557,10.891-23.557,24.26m4.9,19.576a27.549,27.549,0,0,1-7.992-19.576c0-15.12,11.944-27.443,26.647-27.443,14.681,0,26.647,12.323,26.647,27.443a27.641,27.641,0,0,1-7.992,19.576,1.515,1.515,0,0,1-1.082.455H114.636a1.478,1.478,0,0,1-1.082-.455" transform="translate(-82.018 -102.039)"/>
          <path id="Path_1287470" data-name="Path 1287470" d="M15.133,50.744a1.527,1.527,0,0,1,2.185,0L32,65.977a1.656,1.656,0,0,1,.331,1.751,1.568,1.568,0,0,1-1.435.978H23.368l-.949,6.753A1.536,1.536,0,0,1,20.674,76.8a1.555,1.555,0,0,1-1.3-1.8L20.5,66.887a1.541,1.541,0,0,1,1.523-1.364h5.166L16.215,54.132,5.265,65.523h5.166a1.541,1.541,0,0,1,1.523,1.364l3.6,25.9a1.567,1.567,0,0,1-1.3,1.8.8.8,0,0,1-.221.023,1.541,1.541,0,0,1-1.524-1.364L9.084,68.706H1.556a1.545,1.545,0,0,1-1.435-.978,1.656,1.656,0,0,1,.331-1.751Z" transform="translate(0 -38.733)"/>
        </g>
      </g>
    </g>
  </g>
</svg>
