<svg xmlns="http://www.w3.org/2000/svg" xmlns:xlink="http://www.w3.org/1999/xlink" width="95.001" height="95" viewBox="0 0 95.001 95">
  <defs>
    <clipPath id="clip-path">
      <rect id="Rectangle_413991" data-name="Rectangle 413991" width="89.251" height="88.231" fill="none"/>
    </clipPath>
  </defs>
  <g id="Group_1222976" data-name="Group 1222976" transform="translate(-13330 10357)">
    <rect id="Rectangle_414059" data-name="Rectangle 414059" width="95" height="95" transform="translate(13330 -10357)" fill="none"/>
    <g id="Group_1222970" data-name="Group 1222970" transform="translate(359.564 -18.565)">
      <ellipse id="Ellipse_12935" data-name="Ellipse 12935" cx="27.416" cy="27.416" rx="27.416" ry="27.416" transform="translate(13010.604 -10302.149)" fill="#7fe5cf"/>
      <ellipse id="Ellipse_12936" data-name="Ellipse 12936" cx="19.939" cy="19.939" rx="19.939" ry="19.939" transform="translate(12970.436 -10333.479)" fill="#7fe5cf"/>
    </g>
    <g id="Group_1222960" data-name="Group 1222960" transform="translate(13332.875 -10353.615)">
      <g id="Group_1222959" data-name="Group 1222959" transform="translate(0 0)" clip-path="url(#clip-path)">
        <path id="Path_1286375" data-name="Path 1286375" d="M88.132,39.945v7.68L76.86,49.28a32.2,32.2,0,0,1-5.788,13.4l6.854,9.034-5.482,5.419-9.139-6.775A32.51,32.51,0,0,1,49.75,75.781L48.075,87.073H40.307L38.631,75.781A33.557,33.557,0,0,1,25.381,70.21l-9.29,6.924-5.482-5.419,7.007-9.335a31.03,31.03,0,0,1-5.333-13.1L.708,47.626v-7.68l11.575-1.655a33.419,33.419,0,0,1,5.483-13.1l-7.007-9.183,5.485-5.422,9.288,6.927a31.885,31.885,0,0,1,13.4-5.422L40.613.8H48.38l1.674,11.291A32.763,32.763,0,0,1,63.61,17.662l9.139-6.775,5.483,5.422-6.854,9.034a35.007,35.007,0,0,1,5.634,13.4ZM66.047,43.41A21.934,21.934,0,1,0,44.115,65.089,21.813,21.813,0,0,0,66.047,43.41" transform="translate(0.358 0.406)" fill="#57606f"/>
        <path id="Path_1286376" data-name="Path 1286376" d="M35.912,8.5v.3l2.284.452A13.642,13.642,0,0,0,35.912,8.5" transform="translate(18.158 4.298)" fill="#414a56"/>
        <path id="Path_1286377" data-name="Path 1286377" d="M20.6,18.316A31.869,31.869,0,0,1,34,12.9L35.674,1.6h4.264L39.786.4H32.019L30.191,11.693a34.12,34.12,0,0,0-12.185,4.666Z" transform="translate(9.104 0.203)" fill="#414a56"/>
        <path id="Path_1286378" data-name="Path 1286378" d="M10.838,56.085l7.006-9.335a31.046,31.046,0,0,1-5.33-13.1L8.858,33.2a32.782,32.782,0,0,0,5.33,12.5L7.182,55.031l5.483,5.419L14.188,59.4Z" transform="translate(3.631 16.787)" fill="#414a56"/>
        <path id="Path_1286379" data-name="Path 1286379" d="M4.263,37.564l11.575-1.656a33.421,33.421,0,0,1,5.483-13.1l-7.006-9.183,4.568-4.517L16.143,7,10.66,12.422,17.666,21.6a30.511,30.511,0,0,0-5.483,13.1L.607,36.359v7.68l3.656.452Z" transform="translate(0.307 3.54)" fill="#414a56"/>
        <path id="Path_1286380" data-name="Path 1286380" d="M36.9,14.7A21.682,21.682,0,1,1,14.972,36.382,21.813,21.813,0,0,1,36.9,14.7M51.22,41.049H47.412v3.764H51.22ZM35.229,52.341,46.652,34.274H39.036v-14L27.613,38.339h7.615ZM26.4,25.993H22.587v3.764H26.4Z" transform="translate(7.57 7.434)" fill="#80af52"/>
        <path id="Path_1286381" data-name="Path 1286381" d="M16.952,38.99a21.963,21.963,0,0,1,38.381-14.3A21.914,21.914,0,0,0,14.972,36.432a21.247,21.247,0,0,0,5.483,14.3,20.912,20.912,0,0,1-3.5-11.745" transform="translate(7.57 7.383)" fill="#70993f"/>
        <path id="Path_1286382" data-name="Path 1286382" d="M42.406,32.352,30.983,50.419v-14H23.368L34.791,18.5V32.352Z" transform="translate(11.815 9.355)" fill="#fcd884"/>
        <path id="Path_1286383" data-name="Path 1286383" d="M34.791,22.716V18.5L23.368,36.418h2.59Z" transform="translate(11.815 9.354)" fill="#eabf6a"/>
        <rect id="Rectangle_413989" data-name="Rectangle 413989" width="3.808" height="3.764" transform="translate(54.984 48.482)"/>
        <rect id="Rectangle_413990" data-name="Rectangle 413990" width="3.808" height="3.764" transform="translate(30.156 33.426)"/>
        <path id="Path_1286384" data-name="Path 1286384" d="M48.281,88.231H40.513a.851.851,0,0,1-.914-.753L38.075,76.786a35.068,35.068,0,0,1-12.489-5.27l-8.681,6.474a.811.811,0,0,1-1.218-.151l-5.482-5.419a1.169,1.169,0,0,1-.154-1.206l6.7-8.733a30.354,30.354,0,0,1-5.026-12.346L.762,48.631a.846.846,0,0,1-.762-.9V40.051a.846.846,0,0,1,.762-.9L11.727,37.64a32.219,32.219,0,0,1,5.178-12.194l-6.548-8.733a.791.791,0,0,1,.152-1.206l5.482-5.42a1.2,1.2,0,0,1,1.22-.149l8.833,6.474a34.776,34.776,0,0,1,12.489-5.121L40.057.753A.85.85,0,0,1,40.971,0h7.767a.851.851,0,0,1,.914.753l1.522,10.539a37.209,37.209,0,0,1,12.643,5.121l8.528-6.325a.812.812,0,0,1,1.22.151l5.482,5.422a1.167,1.167,0,0,1,.152,1.2l-6.4,8.431A31.863,31.863,0,0,1,77.98,37.941l10.509,1.506a.846.846,0,0,1,.762.9v7.68a.845.845,0,0,1-.762.9L77.98,50.438a33.866,33.866,0,0,1-5.33,12.5l6.4,8.433a.79.79,0,0,1-.152,1.2l-5.482,5.42a1.21,1.21,0,0,1-1.22.152l-8.681-6.325A31.717,31.717,0,0,1,50.87,76.786L49.347,87.326a1.3,1.3,0,0,1-1.066.9m-7.006-1.959h6.092L48.89,75.884a.811.811,0,0,1,.762-.753,32.063,32.063,0,0,0,13.1-5.27c.3-.3.76-.152,1.066,0l8.528,6.324,4.417-4.368-6.245-8.281a.723.723,0,0,1,0-1.054,31.786,31.786,0,0,0,5.636-12.947.812.812,0,0,1,.762-.753l10.357-1.506V41.255L76.914,39.75A.717.717,0,0,1,76.152,39a30.177,30.177,0,0,0-5.482-13.1.72.72,0,0,1,0-1.054l6.4-8.43L72.8,12.045l-8.377,6.324a.739.739,0,0,1-1.066,0,31.462,31.462,0,0,0-13.1-5.419A.813.813,0,0,1,49.5,12.2L47.976,1.656H41.885L40.361,12.2a.715.715,0,0,1-.762.753,30.581,30.581,0,0,0-12.947,5.27.744.744,0,0,1-1.066,0l-8.681-6.476L12.337,16.11l6.549,8.584a.723.723,0,0,1,0,1.054,30.053,30.053,0,0,0-5.331,12.646.811.811,0,0,1-.762.753L1.98,40.652v6.022L12.793,48.18a.715.715,0,0,1,.762.753,32.514,32.514,0,0,0,5.178,12.8c.306.3.154.753,0,1.054l-6.548,8.584L16.6,75.732l8.681-6.474a.742.742,0,0,1,1.066,0A30.83,30.83,0,0,0,39.3,74.68a.812.812,0,0,1,.762.753Z" transform="translate(0 0.001)"/>
        <path id="Path_1286385" data-name="Path 1286385" d="M37.211,59.269A22.586,22.586,0,1,1,60.057,36.685,22.686,22.686,0,0,1,37.211,59.269m0-43.363A20.778,20.778,0,1,0,58.076,36.685,20.941,20.941,0,0,0,37.211,15.906" transform="translate(7.263 7.13)"/>
        <path id="Path_1286386" data-name="Path 1286386" d="M31.328,51.676h-.3a.957.957,0,0,1-.762-.9v-13.1h-6.7a.837.837,0,0,1-.762-.452.948.948,0,0,1,0-.9L34.221,18.253a1.192,1.192,0,0,1,1.066-.453.959.959,0,0,1,.762.9V31.8h6.7a.837.837,0,0,1,.762.452.948.948,0,0,1,0,.9L32.089,51.225a.84.84,0,0,1-.762.452m-5.94-15.809h5.94a.979.979,0,0,1,.914.9V47.461l8.681-13.852h-5.94a.977.977,0,0,1-.914-.9V22.017Z" transform="translate(11.469 9.001)"/>
      </g>
    </g>
  </g>
</svg>
