<svg xmlns="http://www.w3.org/2000/svg" xmlns:xlink="http://www.w3.org/1999/xlink" width="95.001" height="95" viewBox="0 0 95.001 95">
  <defs>
    <clipPath id="clip-path">
      <rect id="Rectangle_414073" data-name="Rectangle 414073" width="95.001" height="75.357" fill="none" stroke="#707070" stroke-width="1"/>
    </clipPath>
  </defs>
  <g id="Group_1222994" data-name="Group 1222994" transform="translate(-1537.999 7218)">
    <rect id="Rectangle_414074" data-name="Rectangle 414074" width="95" height="95" transform="translate(1538 -7218)" fill="none"/>
    <g id="Group_1222992" data-name="Group 1222992" transform="translate(-11432.437 3119.898)">
      <ellipse id="Ellipse_12935" data-name="Ellipse 12935" cx="27.416" cy="27.416" rx="27.416" ry="27.416" transform="translate(13010.604 -10302.149)" fill="#ffc94a"/>
      <ellipse id="Ellipse_12936" data-name="Ellipse 12936" cx="19.939" cy="19.939" rx="19.939" ry="19.939" transform="translate(12970.436 -10333.479)" fill="#ffc94a"/>
    </g>
    <g id="Group_1222991" data-name="Group 1222991" transform="translate(1537.999 -7208.178)">
      <g id="Group_1222990" data-name="Group 1222990" clip-path="url(#clip-path)">
        <path id="Path_1286561" data-name="Path 1286561" d="M89.215,42.61H86.979V35.238a1.008,1.008,0,0,0-1.008-1.008h-.626V3.037A3.04,3.04,0,0,0,82.309,0h-.337a3.04,3.04,0,0,0-3.037,3.037V34.23h-.626A1.008,1.008,0,0,0,77.3,35.238V42.61H5.786A5.793,5.793,0,0,0,0,48.4V64.711A5.793,5.793,0,0,0,5.786,70.5H8.35l1.369,4.165a1.008,1.008,0,0,0,.958.693h9.579a1.008,1.008,0,0,0,.958-.693L22.582,70.5H72.418l1.369,4.165a1.008,1.008,0,0,0,.958.693h9.579a1.008,1.008,0,0,0,.958-.693L86.65,70.5h2.565A5.793,5.793,0,0,0,95,64.711V48.4a5.793,5.793,0,0,0-5.786-5.786M80.95,3.037a1.022,1.022,0,0,1,1.021-1.021h.337a1.022,1.022,0,0,1,1.021,1.021V34.23H80.95Zm-1.634,33.21h5.648V42.61H79.316ZM19.994,71.919l-.468,1.422h-8.12L10.472,70.5h9.989Zm63.6,1.422h-8.12L74.54,70.5h9.988Zm9.391-8.629a3.77,3.77,0,0,1-3.77,3.77H5.786c-.061,0-.121,0-.182,0l-.058,0-.121-.009-.067-.007-.111-.014-.069-.011-.109-.019L5,68.4l-.114-.026-.057-.014q-.074-.019-.147-.042l-.021-.006c-.056-.017-.11-.036-.165-.056l-.046-.018-.115-.046-.057-.025-.1-.046-.059-.029-.1-.05-.057-.031-.1-.057-.05-.03c-.039-.024-.078-.049-.116-.074l-.027-.018q-.071-.048-.139-.1L3.5,67.711c-.034-.026-.069-.053-.1-.08l-.045-.038-.084-.073-.047-.043L3.148,67.4,3.1,67.356l-.077-.081-.04-.043c-.029-.032-.057-.065-.085-.1l-.026-.03q-.055-.066-.106-.135l-.016-.023q-.042-.057-.083-.116l-.03-.046c-.022-.033-.043-.065-.063-.1l-.031-.052q-.029-.048-.056-.1l-.029-.053c-.018-.034-.036-.069-.053-.1l-.025-.05c-.019-.041-.038-.082-.056-.123l-.015-.034q-.068-.162-.121-.331L2.177,65.8q-.02-.065-.037-.131l-.012-.049c-.006-.024-.012-.047-.018-.071s-.006-.029-.009-.044c-.007-.032-.013-.064-.019-.1s-.012-.066-.018-.1-.01-.069-.015-.1-.009-.062-.012-.094-.007-.082-.01-.124c0-.026,0-.051-.006-.076,0-.068-.006-.136-.006-.2V48.4a3.775,3.775,0,0,1,3.77-3.77H89.215c.064,0,.128,0,.192,0s.128.008.191.015l.026,0c.053.006.106.012.159.02l.056.01c.042.007.084.014.126.023l.069.016.11.026.075.021.1.029.077.025.1.032.078.03.091.036.078.034.087.039.077.038.084.043.075.042.081.047.073.045.078.05.071.049.076.054.068.052.073.057.066.055.07.061.063.058.067.064.06.06.064.067.057.063.061.071.054.065.058.074.051.068.055.077.048.07.051.08.044.072.048.083.041.073c.015.028.03.057.044.086s.025.05.037.075.027.059.04.088.023.051.034.077.024.061.036.091.02.052.03.078.021.062.032.094.018.053.026.079.019.064.027.1.015.053.022.08.016.067.023.1.012.053.018.079.013.07.019.105.009.051.013.077.01.075.014.112.007.049.009.074c0,.042.007.084.01.126,0,.021,0,.042,0,.063q0,.095,0,.191Z"/>
        <path id="Path_1286562" data-name="Path 1286562" d="M1116.26,1070.3l.467,1.422h8.12l.467-1.422Z" transform="translate(-1041.253 -998.381)" fill="#747477"/>
        <path id="Path_1286563" data-name="Path 1286563" d="M162.8,1070.3l.467,1.422h8.12l.467-1.422Z" transform="translate(-151.861 -998.381)" fill="#747477"/>
        <path id="Path_1286564" data-name="Path 1286564" d="M114.491,685.046a2.9,2.9,0,0,0,2.9-2.9V664.125q-.1,0-.192,0H33.77A3.774,3.774,0,0,0,30,667.89v16.316c0,.068,0,.136.006.2,0,.026,0,.051.006.077,0,.041.006.083.01.123s.008.063.012.094.009.069.015.1.011.066.018.1.012.064.019.1c0,.015.007.029.01.044Zm-7.573-12.751a2.147,2.147,0,0,1,2.144-2.144h4.625a2.147,2.147,0,0,1,2.144,2.144V679.8a2.147,2.147,0,0,1-2.144,2.144h-4.625a2.147,2.147,0,0,1-2.144-2.144Zm-23.041,0a2.147,2.147,0,0,1,2.144-2.144h4.625a2.147,2.147,0,0,1,2.144,2.144V679.8a2.147,2.147,0,0,1-2.144,2.144H86.021a2.147,2.147,0,0,1-2.144-2.144Zm-12.262,0a2.147,2.147,0,0,1,2.144-2.144h4.625a2.147,2.147,0,0,1,2.144,2.144V679.8a2.147,2.147,0,0,1-2.144,2.144H73.759a2.147,2.147,0,0,1-2.144-2.144Zm-12.262,0a2.147,2.147,0,0,1,2.144-2.144h4.625a2.147,2.147,0,0,1,2.144,2.144V679.8a2.147,2.147,0,0,1-2.144,2.144H61.5a2.147,2.147,0,0,1-2.144-2.144Zm-12.262,0a2.147,2.147,0,0,1,2.144-2.144h4.625a2.147,2.147,0,0,1,2.144,2.144V679.8a2.147,2.147,0,0,1-2.144,2.144H49.236a2.147,2.147,0,0,1-2.144-2.144Zm-12.262,0a2.147,2.147,0,0,1,2.144-2.144H41.6a2.147,2.147,0,0,1,2.144,2.144V679.8a2.147,2.147,0,0,1-2.144,2.144H36.974A2.147,2.147,0,0,1,34.83,679.8Z" transform="translate(-27.984 -619.495)" fill="#7f96bf"/>
        <path id="Path_1286565" data-name="Path 1286565" d="M1183.2,541.335V539.42h-2.824v6.363c2.941-.468,2.824-4.448,2.824-4.448" transform="translate(-1101.064 -503.174)" fill="#747477"/>
        <path id="Path_1286566" data-name="Path 1286566" d="M1205.89,30h-.169a1.022,1.022,0,0,0-1.021,1.021V62.215h1.19Z" transform="translate(-1123.75 -27.984)" fill="#c6c6c6"/>
        <path id="Path_1286567" data-name="Path 1286567" d="M1176.844,765.665h4.625a2.147,2.147,0,0,0,2.144-2.144v-7.506a2.147,2.147,0,0,0-2.144-2.144h-4.625a2.147,2.147,0,0,0-2.144,2.144v7.506a2.147,2.147,0,0,0,2.144,2.144m-.128-9.651a.129.129,0,0,1,.128-.128h4.625a.129.129,0,0,1,.128.128v7.506a.129.129,0,0,1-.128.128h-4.625a.129.129,0,0,1-.128-.128Z" transform="translate(-1095.766 -703.214)"/>
        <path id="Path_1286568" data-name="Path 1286568" d="M1204.828,791.633c3.7-.4,3.785-5.845,3.7-7.763h-3.7a.129.129,0,0,0-.128.128V791.5a.129.129,0,0,0,.128.128" transform="translate(-1123.75 -731.198)" fill="#f38faa"/>
        <path id="Path_1286569" data-name="Path 1286569" d="M833.944,765.665h4.625a2.147,2.147,0,0,0,2.144-2.144v-7.506a2.147,2.147,0,0,0-2.144-2.144h-4.625a2.147,2.147,0,0,0-2.144,2.144v7.506a2.147,2.147,0,0,0,2.144,2.144m-.128-9.651a.129.129,0,0,1,.128-.128h4.625l.026,0a.13.13,0,0,1,.1.1.128.128,0,0,1,0,.026v7.506a.128.128,0,0,1-.1.126l-.026,0h-4.625a.129.129,0,0,1-.128-.128Z" transform="translate(-775.907 -703.214)"/>
        <path id="Path_1286570" data-name="Path 1286570" d="M861.928,791.633c3.7-.4,3.785-5.845,3.7-7.763h-3.7a.129.129,0,0,0-.128.128V791.5a.129.129,0,0,0,.128.128" transform="translate(-803.891 -731.198)" fill="#8cea88"/>
        <path id="Path_1286571" data-name="Path 1286571" d="M651.464,765.665h4.625a2.147,2.147,0,0,0,2.144-2.144v-7.506a2.147,2.147,0,0,0-2.144-2.144h-4.625a2.147,2.147,0,0,0-2.144,2.144v7.506a2.147,2.147,0,0,0,2.144,2.144m-.128-9.651a.129.129,0,0,1,.128-.128h4.625a.128.128,0,0,1,.128.128v7.506a.128.128,0,0,1-.128.128h-4.625a.129.129,0,0,1-.128-.128Z" transform="translate(-605.689 -703.214)"/>
        <path id="Path_1286572" data-name="Path 1286572" d="M679.448,791.633c3.7-.4,3.785-5.845,3.7-7.763h-3.7a.129.129,0,0,0-.128.128V791.5a.129.129,0,0,0,.128.128" transform="translate(-633.673 -731.198)" fill="#8cea88"/>
        <path id="Path_1286573" data-name="Path 1286573" d="M468.984,765.665h4.625a2.147,2.147,0,0,0,2.144-2.144v-7.506a2.147,2.147,0,0,0-2.144-2.144h-4.625a2.147,2.147,0,0,0-2.144,2.144v7.506a2.147,2.147,0,0,0,2.144,2.144m-.128-9.651a.129.129,0,0,1,.128-.128h4.625a.129.129,0,0,1,.128.128v7.506a.129.129,0,0,1-.128.128h-4.625a.129.129,0,0,1-.128-.128Z" transform="translate(-435.471 -703.214)"/>
        <path id="Path_1286574" data-name="Path 1286574" d="M496.968,791.633c3.7-.4,3.785-5.845,3.7-7.763h-3.7a.129.129,0,0,0-.128.128V791.5a.129.129,0,0,0,.128.128" transform="translate(-463.455 -731.198)" fill="#8cea88"/>
        <path id="Path_1286575" data-name="Path 1286575" d="M286.5,765.665h4.625a2.147,2.147,0,0,0,2.144-2.144v-7.506a2.147,2.147,0,0,0-2.144-2.144H286.5a2.147,2.147,0,0,0-2.144,2.144v7.506a2.147,2.147,0,0,0,2.144,2.144m-.128-9.651a.129.129,0,0,1,.128-.128h4.625a.129.129,0,0,1,.128.128v7.506a.129.129,0,0,1-.128.128H286.5a.129.129,0,0,1-.128-.128Z" transform="translate(-265.252 -703.214)"/>
        <path id="Path_1286576" data-name="Path 1286576" d="M314.488,791.633c3.7-.4,3.785-5.845,3.7-7.763h-3.7a.129.129,0,0,0-.128.128V791.5a.129.129,0,0,0,.128.128" transform="translate(-293.237 -731.198)" fill="#8cea88"/>
        <path id="Path_1286577" data-name="Path 1286577" d="M104.024,765.665h4.625a2.147,2.147,0,0,0,2.144-2.144v-7.506a2.147,2.147,0,0,0-2.144-2.144h-4.625a2.147,2.147,0,0,0-2.144,2.144v7.506a2.147,2.147,0,0,0,2.144,2.144m-.128-9.651a.129.129,0,0,1,.128-.128h4.625a.129.129,0,0,1,.128.128v7.506a.129.129,0,0,1-.128.128h-4.625a.129.129,0,0,1-.128-.128Z" transform="translate(-95.034 -703.214)"/>
        <path id="Path_1286578" data-name="Path 1286578" d="M132.008,791.633c3.7-.4,3.785-5.845,3.7-7.763h-3.7a.129.129,0,0,0-.128.128V791.5a.129.129,0,0,0,.128.128" transform="translate(-123.018 -731.198)" fill="#8cea88"/>
        <path id="Path_1286579" data-name="Path 1286579" d="M1223.6,62.215V31.021A1.022,1.022,0,0,0,1222.579,30h-.168V62.215Z" transform="translate(-1140.27 -27.984)" fill="#9da09c"/>
        <path id="Path_1286580" data-name="Path 1286580" d="M1186.028,539.42H1183.2v1.915s.116,3.981-2.824,4.448h5.648Z" transform="translate(-1101.064 -503.174)" fill="#636366"/>
        <path id="Path_1286581" data-name="Path 1286581" d="M122.285,667.7c0-.042-.005-.084-.01-.126,0-.025-.006-.049-.009-.074s-.009-.075-.014-.112-.009-.052-.013-.077-.012-.071-.019-.106-.012-.053-.018-.079-.015-.067-.023-.1-.015-.053-.022-.08-.018-.065-.028-.1-.017-.053-.026-.079-.021-.063-.032-.094-.02-.052-.03-.078-.023-.061-.036-.091-.022-.051-.034-.077-.026-.059-.04-.088-.025-.05-.037-.075-.029-.057-.044-.086l-.041-.073-.048-.083-.044-.072-.051-.08-.048-.07-.055-.077-.051-.067-.058-.074-.054-.065-.061-.071-.057-.063-.064-.067-.06-.06-.067-.064-.063-.058-.07-.061-.066-.055-.073-.057-.068-.052-.076-.054-.071-.049-.078-.05-.073-.045-.081-.047-.075-.042-.084-.043-.077-.038-.087-.04-.078-.034-.091-.036-.078-.03-.1-.032-.077-.025-.1-.029-.075-.021-.11-.026-.069-.016c-.042-.009-.084-.016-.126-.023l-.056-.01c-.053-.008-.105-.014-.159-.02l-.026,0q-.1-.01-.191-.014v18.021a2.9,2.9,0,0,1-2.9,2.9h-84.4c.005.023.01.047.016.07l.012.049q.017.066.037.131l.011.039q.053.169.121.331l.015.034c.018.041.036.083.056.123l.025.05c.017.035.035.07.053.1l.029.053q.027.049.056.1l.031.052c.02.033.042.066.063.1l.03.046c.027.039.054.078.083.116l.016.023q.052.069.106.135l.026.03c.028.033.056.066.085.1l.04.043.077.081.045.045.078.075.047.043.084.073.045.038c.033.027.068.054.1.08l.032.025q.069.051.139.1l.027.018c.038.025.077.05.116.074l.05.03.1.057.057.031.1.05.059.029.1.046.057.025.115.046.046.018q.082.03.165.056l.021.006q.073.022.147.042l.057.014.114.026.066.013.109.02.069.01.111.014.067.007.121.009.058,0c.06,0,.121,0,.182,0h83.429a3.774,3.774,0,0,0,3.77-3.77V667.957q0-.1,0-.191c0-.021,0-.042,0-.063" transform="translate(-29.31 -619.562)" fill="#6a84aa"/>
        <path id="Path_1286582" data-name="Path 1286582" d="M1206.61,791.633h4.625a.129.129,0,0,0,.128-.128V784a.129.129,0,0,0-.128-.128h-.925c.085,1.918,0,7.363-3.7,7.763" transform="translate(-1125.532 -731.198)" fill="#e27999"/>
        <path id="Path_1286583" data-name="Path 1286583" d="M863.71,791.633h4.625l.026,0a.128.128,0,0,0,.1-.126V784a.127.127,0,0,0,0-.026.129.129,0,0,0-.1-.1l-.026,0h-.925c.085,1.918,0,7.363-3.7,7.763" transform="translate(-805.673 -731.198)" fill="#70ce6b"/>
        <path id="Path_1286584" data-name="Path 1286584" d="M681.23,791.633h4.625a.128.128,0,0,0,.128-.128V784a.127.127,0,0,0,0-.026.129.129,0,0,0-.126-.1h-.925c.085,1.918,0,7.363-3.7,7.763" transform="translate(-635.455 -731.198)" fill="#70ce6b"/>
        <path id="Path_1286585" data-name="Path 1286585" d="M498.75,791.633h4.625a.129.129,0,0,0,.128-.128V784a.129.129,0,0,0-.128-.128h-.925c.085,1.918,0,7.363-3.7,7.763" transform="translate(-465.236 -731.198)" fill="#70ce6b"/>
        <path id="Path_1286586" data-name="Path 1286586" d="M316.27,791.633H320.9a.129.129,0,0,0,.128-.128V784a.129.129,0,0,0-.128-.128h-.925c.085,1.918,0,7.363-3.7,7.763" transform="translate(-295.018 -731.198)" fill="#70ce6b"/>
        <path id="Path_1286587" data-name="Path 1286587" d="M133.79,791.633h4.625a.129.129,0,0,0,.128-.128V784a.129.129,0,0,0-.128-.128h-.925c.085,1.918,0,7.363-3.7,7.763" transform="translate(-124.8 -731.198)" fill="#70ce6b"/>
        <path id="Path_1286588" data-name="Path 1286588" d="M156.317,1050.571h9.054l.467-1.421H155.85Z" transform="translate(-145.378 -978.652)" fill="#636366"/>
        <path id="Path_1286589" data-name="Path 1286589" d="M1109.777,1050.571h9.054l.467-1.421h-9.988Z" transform="translate(-1034.77 -978.652)" fill="#636366"/>
      </g>
    </g>
    <g id="Group_1222993" data-name="Group 1222993">
      <path id="Path_1286590" data-name="Path 1286590" d="M103.674,59.845a1.417,1.417,0,0,1-.479-.083,1.445,1.445,0,0,1-.888-1.845,24.059,24.059,0,0,1,45.4,0,1.448,1.448,0,0,1-2.733.96,21.162,21.162,0,0,0-39.936,0,1.448,1.448,0,0,1-1.366.969" transform="translate(1453.502 -7237.013)" fill="#7f96bf" stroke="#090909" stroke-linecap="round" stroke-width="1" stroke-dasharray="50 2" fill-rule="evenodd"/>
      <path id="Path_1286591" data-name="Path 1286591" d="M141.6,96.055a1.45,1.45,0,0,1-1.392-1.856,15.156,15.156,0,0,1,29.1,0,1.449,1.449,0,0,1-2.782.809,12.257,12.257,0,0,0-23.539,0A1.451,1.451,0,0,1,141.6,96.055Z" transform="translate(1423.736 -7269.555)" fill="#7f96bf" stroke="#090909" stroke-linecap="round" stroke-miterlimit="10" stroke-width="1" stroke-dasharray="50 2"/>
      <path id="Path_1286592" data-name="Path 1286592" d="M124.722,23.776a1.451,1.451,0,0,1-1.354-.936,30.074,30.074,0,0,0-56.265,0,1.449,1.449,0,0,1-2.709-1.028,32.981,32.981,0,0,1,61.682,0,1.447,1.447,0,0,1-.84,1.867,1.409,1.409,0,0,1-.515.1" transform="translate(1483.265 -7204.592)" fill="#7f96bf" stroke="#090909" stroke-linecap="round" stroke-width="1" stroke-dasharray="50 2" fill-rule="evenodd"/>
    </g>
  </g>
</svg>
