<svg xmlns="http://www.w3.org/2000/svg" xmlns:xlink="http://www.w3.org/1999/xlink" width="95.75" height="95" viewBox="0 0 95.75 95">
  <defs>
    <clipPath id="clip-path">
      <rect id="Rectangle_413800" data-name="Rectangle 413800" width="95" height="95" transform="translate(0 0)" fill="none"/>
    </clipPath>
  </defs>
  <g id="Group_1222929" data-name="Group 1222929" transform="translate(-23256 8215)">
    <g id="Group_1222924" data-name="Group 1222924" transform="translate(21811.449 -15192.048)">
      <ellipse id="Ellipse_12931" data-name="Ellipse 12931" cx="27.416" cy="27.416" rx="27.416" ry="27.416" transform="translate(1485.469 7017.216)" fill="#7fe5cf"/>
      <ellipse id="Ellipse_12932" data-name="Ellipse 12932" cx="19.939" cy="19.939" rx="19.939" ry="19.939" transform="translate(1445.301 6985.886)" fill="#7fe5cf"/>
    </g>
    <g id="Group_1222859" data-name="Group 1222859" transform="translate(-540 -364)">
      <rect id="Rectangle_413759" data-name="Rectangle 413759" width="95" height="95" transform="translate(23796 -7851)" fill="none"/>
      <g id="Group_1222832" data-name="Group 1222832" transform="translate(23796 -7851.004)">
        <g id="Group_1222831" data-name="Group 1222831" transform="translate(0 0.004)" clip-path="url(#clip-path)">
          <path id="Path_1285711" data-name="Path 1285711" d="M44.786,99.954H11.073a3.064,3.064,0,0,1-3.065-3.065V11.073a3.064,3.064,0,0,1,3.065-3.065H44.786a3.064,3.064,0,0,1,3.065,3.065V96.889a3.064,3.064,0,0,1-3.065,3.065" transform="translate(-6.474 -6.478)" fill="#758190"/>
          <path id="Path_1285712" data-name="Path 1285712" d="M69.462,365.462H51.073a3.064,3.064,0,0,1-3.065-3.065V347.073a3.064,3.064,0,0,1,3.065-3.065H69.462a3.064,3.064,0,0,1,3.065,3.065V362.4a3.064,3.064,0,0,1-3.065,3.065" transform="translate(-38.812 -278.116)" fill="#f2c351"/>
          <path id="Path_1285713" data-name="Path 1285713" d="M48.008,347.073V362.4a3.064,3.064,0,0,0,3.065,3.065h8.339a23.7,23.7,0,0,0,9.749-19.155c0-.775-.043-1.542-.116-2.3H51.073a3.064,3.064,0,0,0-3.065,3.065" transform="translate(-38.812 -278.116)" fill="#f7d881"/>
          <path id="Path_1285714" data-name="Path 1285714" d="M287.851,147.435v-3.669a18.255,18.255,0,0,1,3.065-10.123,18.252,18.252,0,0,0,3.065-10.123V104.527a3.064,3.064,0,0,0-3.065-3.065H266.4V84.605a4.6,4.6,0,1,0-9.195,0v22.986h-3.065a6.13,6.13,0,0,0-6.13,6.13v8.822a15.7,15.7,0,0,0,4.6,11.1,15.7,15.7,0,0,1,4.6,11.1v2.692Z" transform="translate(-200.501 -64.686)" fill="#fadfb2"/>
          <rect id="Rectangle_413792" data-name="Rectangle 413792" width="3" height="12" transform="translate(55 43)" fill="#efbe9a"/>
          <rect id="Rectangle_413793" data-name="Rectangle 413793" width="3" height="12" transform="translate(73 37)" fill="#efbe9a"/>
          <rect id="Rectangle_413794" data-name="Rectangle 413794" width="3" height="12" transform="translate(64 37)" fill="#efbe9a"/>
          <rect id="Rectangle_413795" data-name="Rectangle 413795" width="3" height="12" transform="translate(83 37)" fill="#efbe9a"/>
          <path id="Path_1285715" data-name="Path 1285715" d="M266.058,33.72h-1.534V30.655h1.534a1.533,1.533,0,0,0,1.532-1.532V4.605a1.533,1.533,0,0,0-1.532-1.532H244.605a1.533,1.533,0,0,0-1.532,1.532V29.124a1.533,1.533,0,0,0,1.532,1.532h1.529v3.065h-1.529a4.6,4.6,0,0,1-4.6-4.6V4.605a4.6,4.6,0,0,1,4.6-4.6h21.453a4.6,4.6,0,0,1,4.6,4.6V29.124a4.6,4.6,0,0,1-4.6,4.6" transform="translate(-194.034 -0.011)" fill="#a8b0bc"/>
          <path id="Path_1285716" data-name="Path 1285716" d="M285.452,58.727h-3.065a7.661,7.661,0,1,0-15.323,0H264a10.726,10.726,0,1,1,21.452,0" transform="translate(-213.43 -38.81)" fill="#c1c8d1"/>
          <rect id="Rectangle_413796" data-name="Rectangle 413796" width="37" height="10" transform="translate(53 83)" fill="#c66b60"/>
          <path id="Path_1285717" data-name="Path 1285717" d="M79.326,285.8l0-4.6a6.129,6.129,0,1,0-12.258,0l0,4.6H64l0-4.6a9.194,9.194,0,1,1,18.388,0l0,4.6Z" transform="translate(-51.741 -219.908)" fill="#e7e4dd"/>
          <path id="Path_1285718" data-name="Path 1285718" d="M100.6,381.03v-5.022H97.532v5.023a3.063,3.063,0,1,0,3.063,0" transform="translate(-77.611 -303.986)" fill="#f2c351"/>
          <rect id="Rectangle_413797" data-name="Rectangle 413797" width="28" height="18" transform="translate(8 8)" fill="#c7e2fc"/>
          <path id="Path_1285719" data-name="Path 1285719" d="M64.527,174.138H43.073a3.065,3.065,0,1,1,0-6.13H64.527a3.065,3.065,0,0,1,0,6.13" transform="translate(-32.344 -135.83)" fill="#a8b0bc"/>
          <rect id="Rectangle_413798" data-name="Rectangle 413798" width="28" height="3" transform="translate(8 46)" fill="#c1c8d1"/>
          <path id="Path_1285720" data-name="Path 1285720" d="M40.008,40.008V58.4H52.422A30.169,30.169,0,0,0,65.744,40.008Z" transform="translate(-32.344 -32.349)" fill="#ebf7fe"/>
          <path id="Path_1285721" data-name="Path 1285721" d="M62.956,168.008H43.073a3.065,3.065,0,1,0,0,6.13H59.534a20.6,20.6,0,0,0,3.422-6.13" transform="translate(-32.344 -135.83)" fill="#c1c8d1"/>
          <path id="Path_1285722" data-name="Path 1285722" d="M314.448,432.008h-34.44v10.727h28.5a24.441,24.441,0,0,0,5.943-10.727" transform="translate(-226.371 -349.259)" fill="#e47c6e"/>
          <path id="Path_1285723" data-name="Path 1285723" d="M285.717,128.024a19.725,19.725,0,0,0,3.321-10.972V98.059a4.6,4.6,0,0,0-4.6-4.6H261.454V78.138a6.129,6.129,0,1,0-12.258,0V99.592h-1.535A7.67,7.67,0,0,0,240,107.254v8.822a17.118,17.118,0,0,0,5.046,12.183,14.071,14.071,0,0,1,4.15,10.014v1.162h-1.532a1.531,1.531,0,0,0-1.532,1.532v10.727a1.531,1.531,0,0,0,1.532,1.532H284.44a1.531,1.531,0,0,0,1.532-1.532V140.967a1.531,1.531,0,0,0-1.532-1.532h-1.532V137.3a16.661,16.661,0,0,1,2.809-9.274m-2.809,22.136H249.2V142.5h33.712Zm-30.647-10.725v-1.16a17.119,17.119,0,0,0-5.048-12.183,14.073,14.073,0,0,1-4.148-10.016v-8.822a4.6,4.6,0,0,1,4.6-4.6H249.2v10.727h3.065V78.138a3.064,3.064,0,1,1,6.128,0v29.116h3.065V96.527h6.131v10.727h3.063V96.527h6.131v10.727h3.063V96.527h4.6a1.533,1.533,0,0,1,1.532,1.532v18.993a16.668,16.668,0,0,1-2.809,9.274,19.729,19.729,0,0,0-3.321,10.972v2.136Z" transform="translate(-194.027 -58.219)"/>
          <path id="Path_1285724" data-name="Path 1285724" d="M244.605,33.72h1.532V30.655h-1.532a1.533,1.533,0,0,1-1.532-1.532V4.605a1.533,1.533,0,0,1,1.532-1.532h21.453a1.533,1.533,0,0,1,1.532,1.532V29.124a1.533,1.533,0,0,1-1.532,1.532h-1.532v3.065h1.532a4.6,4.6,0,0,0,4.6-4.6V4.605a4.6,4.6,0,0,0-4.6-4.6H244.605a4.6,4.6,0,0,0-4.6,4.6V29.124a4.6,4.6,0,0,0,4.6,4.6" transform="translate(-194.034 -0.011)"/>
          <path id="Path_1285725" data-name="Path 1285725" d="M274.735,48.008a10.739,10.739,0,0,0-10.727,10.727h3.065a7.661,7.661,0,1,1,15.323,0h3.065a10.738,10.738,0,0,0-10.725-10.727" transform="translate(-213.436 -38.816)"/>
          <path id="Path_1285726" data-name="Path 1285726" d="M38.312,0H4.6A4.6,4.6,0,0,0,0,4.6V90.413a4.6,4.6,0,0,0,4.6,4.6H38.312a4.6,4.6,0,0,0,4.6-4.6V4.6a4.6,4.6,0,0,0-4.6-4.6m1.532,90.415a1.535,1.535,0,0,1-1.532,1.532H4.6a1.535,1.535,0,0,1-1.532-1.532V4.6A1.535,1.535,0,0,1,4.6,3.066H38.312A1.535,1.535,0,0,1,39.845,4.6Z" transform="translate(0 -0.004)"/>
          <path id="Path_1285727" data-name="Path 1285727" d="M62.993,284.267V281.2a9.194,9.194,0,1,0-18.388,0v3.065a4.6,4.6,0,0,0-4.6,4.6v15.324a4.6,4.6,0,0,0,4.6,4.6H62.993a4.6,4.6,0,0,0,4.6-4.6V288.865a4.6,4.6,0,0,0-4.6-4.6M47.67,281.2a6.129,6.129,0,1,1,12.258,0v3.065H47.67Zm16.855,22.986a1.533,1.533,0,0,1-1.532,1.532H44.605a1.533,1.533,0,0,1-1.532-1.532V288.865a1.533,1.533,0,0,1,1.532-1.532H62.993a1.533,1.533,0,0,1,1.532,1.532Z" transform="translate(-32.344 -219.908)"/>
          <path id="Path_1285728" data-name="Path 1285728" d="M100.6,381.03v-5.022H97.54v5.023a3.063,3.063,0,1,0,3.063,0" transform="translate(-77.617 -303.986)"/>
          <path id="Path_1285729" data-name="Path 1285729" d="M61.123,32.008H33.54a1.531,1.531,0,0,0-1.532,1.532V51.93a1.531,1.531,0,0,0,1.532,1.532H61.123a1.531,1.531,0,0,0,1.532-1.532V33.54a1.531,1.531,0,0,0-1.532-1.532M59.59,50.4H35.073V35.073H59.59Z" transform="translate(-25.877 -25.881)"/>
          <path id="Path_1285730" data-name="Path 1285730" d="M58.058,160.008H36.6a4.6,4.6,0,0,0,0,9.193H58.058a4.6,4.6,0,1,0,0-9.193m0,6.128H36.6a1.532,1.532,0,0,1,0-3.063H58.058a1.532,1.532,0,1,1,0,3.063" transform="translate(-25.877 -129.362)"/>
          <rect id="Rectangle_413799" data-name="Rectangle 413799" width="28" height="3" transform="translate(8 46)"/>
        </g>
      </g>
    </g>
  </g>
</svg>
