<svg xmlns="http://www.w3.org/2000/svg" xmlns:xlink="http://www.w3.org/1999/xlink" width="95" height="95" viewBox="0 0 95 95">
  <defs>
    <clipPath id="clip-path">
      <rect id="Rectangle_413729" data-name="Rectangle 413729" width="90.423" height="95" fill="none"/>
    </clipPath>
  </defs>
  <g id="Group_1222864" data-name="Group 1222864" transform="translate(-23218 10988)">
    <rect id="Rectangle_413725" data-name="Rectangle 413725" width="95" height="95" transform="translate(23218 -10988)" fill="none"/>
    <g id="Group_1222753" data-name="Group 1222753" transform="translate(23220.289 -10988)">
      <g id="Group_1222752" data-name="Group 1222752" clip-path="url(#clip-path)">
        <path id="Path_1285611" data-name="Path 1285611" d="M755.726,6667.681a6.118,6.118,0,0,1-1.6-2.779,6.2,6.2,0,0,1-3.587.105c-1.5,5.919-8.936,3.577-8.936,7.785v1.555h21.481v-1.555c0-3.588-5.128-2.436-7.359-5.111" transform="translate(-732.334 -6581.59)" fill="#d6d9f2"/>
        <path id="Path_1285612" data-name="Path 1285612" d="M2274.738,204.335a1.123,1.123,0,0,1-.062,1.3l-1.848,2.348,1.978,2.016c2.415-1.825,2.848-2.4,3.685-1.838,5.584,3.753,5.019-.465,5.771,5.864l2.824.026.412-2.967a1.123,1.123,0,0,1,.9-.947c6.662-1.3,3.218-3.865,8.226.076l2.016-1.978c-3.8-5.025-1.312-1.756.086-8.226a1.126,1.126,0,0,1,.964-.877l2.976-.354.026-2.824c-6.276-.871-2.155-.308-5.749-5.884-.527-.822-.062-1.142,1.911-3.65l-1.979-2.016c-5.024,3.8-1.756,1.313-8.226-.088a1.124,1.124,0,0,1-.876-.964l-.354-2.975-2.824-.028c-.444,3.2-.35,3.724-1.308,3.914-4.114.806-4.718,2.694-5.877,1.774l-2.349-1.848-2.016,1.978c3.82,5.054,1.335,1.652-.086,8.226-.22,1.006-1,.88-3.94,1.23l-.026,2.824c6.313.876,2.1.232,5.749,5.883m1.529-9.833a9.946,9.946,0,1,1,9.568,12.649,9.954,9.954,0,0,1-9.568-12.649" transform="translate(-2240.627 -178.1)" fill="#cc526c"/>
        <path id="Path_1285613" data-name="Path 1285613" d="M1000.6,5261.141a1.623,1.623,0,0,0,.036.425,3.059,3.059,0,0,0,1.053,2.028,1.1,1.1,0,0,1,1.806.474c.256.848.186.6.207.677,1.3,4.413,6.429,5.552,8.895-.357a1.124,1.124,0,0,1,1.53-.576c.547-.085,1.041-1.53,1.084-2.194a1.123,1.123,0,0,1-1.655-1.06c.231-3.519-.308-5.581-.907-6.006-.061-.045-.251-.178-.805.059a1.124,1.124,0,0,1-1.557-.979c-.025-.511-.254-.652-.5-.726-1.207-.369-5.841-.631-7.046,2.716-.955,2.675.116,4.387-.7,5.169-.615.586-1.062.123-1.439.351" transform="translate(-988.095 -5187.038)" fill="#f29a67"/>
        <path id="Path_1285614" data-name="Path 1285614" d="M3007.5,926a7.7,7.7,0,1,0-1.67-14.132A7.713,7.713,0,0,0,3007.5,926" transform="translate(-2964.385 -899.482)" fill="#fff"/>
        <path id="Path_1285615" data-name="Path 1285615" d="M4245.157,4682.331h-31.488a2.025,2.025,0,0,0-2.023,2.022v30.183a2.024,2.024,0,0,0,2.023,2.022h2.758V4715c0-6.563,8.8-3.91,9.076-8.857a8.6,8.6,0,0,1-2.487-3.549,2.687,2.687,0,0,1-.727-.111c-1.409-.47-2.236-2.224-2.54-3.707a2.567,2.567,0,0,1,.541-2.427,2.361,2.361,0,0,1,1.088-.634,11.234,11.234,0,0,1,.563-4.089c1.763-4.9,7.817-4.727,9.82-4.1a2.848,2.848,0,0,1,1.756,1.474,2.628,2.628,0,0,1,1.743.488c1.559,1.108,1.934,3.9,1.9,6.49,1.1.333,1.848,1.372,1.53,3.066a4.8,4.8,0,0,1-2.056,3.45,2.521,2.521,0,0,1-1.02.32,9.45,9.45,0,0,1-2.307,3.077c.017,5.319,9.084,2.438,9.084,9.112v1.555h2.76a2.024,2.024,0,0,0,2.021-2.022v-30.183a2.024,2.024,0,0,0-2.021-2.022" transform="translate(-4159 -4623.802)" fill="#bbdfff"/>
        <path id="Path_1285616" data-name="Path 1285616" d="M5032.77,5261.141a1.7,1.7,0,0,0,.036.423,3.056,3.056,0,0,0,1.053,2.029,1.1,1.1,0,0,1,1.806.474c1.837,6.066,6.922,5.549,9.1.321a1.127,1.127,0,0,1,1.53-.577c.588-.092,1.049-1.668,1.084-2.194a1.122,1.122,0,0,1-1.654-1.06c.228-3.521-.311-5.582-.907-6.007-.063-.042-.252-.177-.805.06a1.122,1.122,0,0,1-1.557-.978c-.026-.513-.254-.653-.5-.728-1.205-.369-5.841-.631-7.046,2.716-1.063,2.974.184,4.322-.7,5.169-.614.585-1.066.125-1.439.351" transform="translate(-4969.859 -5187.038)" fill="#f29a67"/>
        <path id="Path_1285617" data-name="Path 1285617" d="M4786.245,6665a6.218,6.218,0,0,1-3.586.1c-.487,1.918-2.428,3.854-3.754,4.1-.388.133-1.983.682-3.421,1.192a2.651,2.651,0,0,0-1.762,2.5v1.555H4795.2v-1.555c0-4.187-7.616-1.884-8.958-7.889" transform="translate(-4714.051 -6581.685)" fill="#d6d9f2"/>
        <path id="Path_1285618" data-name="Path 1285618" d="M179.528,4685.147v28.593a2.82,2.82,0,0,0,2.817,2.817h1.965V4715a4.895,4.895,0,0,1,3.256-4.61c1.66-.587,3.525-1.229,3.525-1.229a3.827,3.827,0,0,0,2.294-3.019,8.579,8.579,0,0,1-2.487-3.549,2.263,2.263,0,0,1-.726-.111c-1.41-.47-2.238-2.222-2.542-3.706a2.57,2.57,0,0,1,.542-2.428,2.352,2.352,0,0,1,1.089-.634,11.189,11.189,0,0,1,.562-4.089c1.762-4.9,7.816-4.727,9.821-4.1A2.846,2.846,0,0,1,201.4,4689a2.653,2.653,0,0,1,1.743.488c1.562,1.112,1.934,3.9,1.9,6.49a2.232,2.232,0,0,1,1,.608,2.684,2.684,0,0,1,.532,2.458c-.335,1.779-1.325,3.617-3.077,3.771a9.428,9.428,0,0,1-2.305,3.075c0,1.273.4,1.58,1.214,2.578.514.615.449.451,4.612,1.926a4.9,4.9,0,0,1,3.258,4.61v1.555h1.965a2.82,2.82,0,0,0,2.817-2.817v-28.593a2.82,2.82,0,0,0-2.817-2.816h-29.9a2.82,2.82,0,0,0-2.817,2.816" transform="translate(-177.284 -4623.802)" fill="#bbdfff"/>
        <path id="Path_1285619" data-name="Path 1285619" d="M86.157,3315.37H75.107v-7.72a1.122,1.122,0,0,0-1.122-1.122H46.334v-5.067a1.122,1.122,0,1,0-2.244,0v5.067H16.438a1.122,1.122,0,0,0-1.122,1.122v7.72H5.061A5.067,5.067,0,0,0,0,3320.431v28.593a5.067,5.067,0,0,0,5.061,5.061h29.9a5.067,5.067,0,0,0,5.061-5.061v-28.593a5.067,5.067,0,0,0-5.061-5.061H17.56v-6.6h55.3v6.6H54.669a4.271,4.271,0,0,0-4.268,4.266v30.183a4.272,4.272,0,0,0,4.268,4.266H86.157a4.271,4.271,0,0,0,4.266-4.266v-30.183a4.271,4.271,0,0,0-4.266-4.266m-55.405,36.47H9.27c0-2.923-.4-3.624,5.206-5.248a6.216,6.216,0,0,0,3.73-4.091,6.2,6.2,0,0,0,3.587-.106,6.159,6.159,0,0,0,1.6,2.78c2.227,2.669,7.359,1.532,7.359,5.111Zm-16.1-24.172c1.205-3.347,5.84-3.086,7.046-2.716.243.075.472.215.5.726a1.123,1.123,0,0,0,1.557.979c.554-.237.744-.1.805-.058.6.425,1.138,2.487.907,6.006a1.123,1.123,0,0,0,1.655,1.059c-.043.665-.542,2.11-1.084,2.194a1.124,1.124,0,0,0-1.53.576c-2.153,5.158-6.972,5.579-8.924.269-.227-.75-.284-1.137-.939-1.322a1.122,1.122,0,0,0-1.045.26,3.061,3.061,0,0,1-1.053-2.028,1.624,1.624,0,0,1-.037-.425c.4-.241.806.253,1.439-.35.872-.832-.33-2.273.7-5.169m20.308-10.055a2.82,2.82,0,0,1,2.817,2.817v28.593a2.82,2.82,0,0,1-2.817,2.817H33v-1.554c0-5.523-6.342-4.708-7.87-6.537-.876-1.079-1.21-1.322-1.214-2.578a9.441,9.441,0,0,0,2.305-3.075c1.759-.155,2.744-2.005,3.077-3.771a2.682,2.682,0,0,0-.532-2.457,2.231,2.231,0,0,0-1-.609c.031-2.585-.342-5.378-1.9-6.49a2.654,2.654,0,0,0-1.743-.488,2.849,2.849,0,0,0-1.756-1.474c-2-.622-8.059-.8-9.821,4.1a11.188,11.188,0,0,0-.562,4.089,2.354,2.354,0,0,0-1.089.635,2.569,2.569,0,0,0-.542,2.428c.3,1.483,1.132,3.235,2.542,3.705a2.256,2.256,0,0,0,.726.111,8.581,8.581,0,0,0,2.487,3.549,3.829,3.829,0,0,1-2.294,3.018s-1.866.641-3.525,1.228a4.9,4.9,0,0,0-3.256,4.611v1.554H5.061a2.82,2.82,0,0,1-2.817-2.817v-28.593a2.82,2.82,0,0,1,2.817-2.817Zm46.192,34.227H59.672v-1.554a2.65,2.65,0,0,1,1.762-2.5c.1-.035,3.344-1.181,3.443-1.2a6.22,6.22,0,0,0,3.731-4.091,6.212,6.212,0,0,0,3.587-.1c1.351,6.048,8.958,3.64,8.958,7.889Zm-16.1-24.172c1.205-3.347,5.841-3.086,7.046-2.716.244.075.472.215.5.728a1.122,1.122,0,0,0,1.557.977c.554-.237.742-.1.805-.06.6.426,1.135,2.487.907,6.008a1.122,1.122,0,0,0,1.654,1.059c-.036.546-.5,2.1-1.084,2.194a1.126,1.126,0,0,0-1.53.577c-2.183,5.234-7.268,5.735-9.1-.321a1.1,1.1,0,0,0-1.806-.474,3.056,3.056,0,0,1-1.053-2.029,1.7,1.7,0,0,1-.037-.424,1.033,1.033,0,0,1,.491-.054,1.119,1.119,0,0,0,.948-.3c.855-.816-.307-2.341.7-5.169m23.125,22.15a2.024,2.024,0,0,1-2.022,2.022H83.4v-1.554c0-6.693-9.067-3.791-9.084-9.113a9.442,9.442,0,0,0,2.307-3.076,2.532,2.532,0,0,0,1.02-.32,4.8,4.8,0,0,0,2.056-3.451c.319-1.693-.426-2.733-1.53-3.066.029-2.586-.345-5.381-1.9-6.49a2.633,2.633,0,0,0-1.743-.488,2.853,2.853,0,0,0-1.756-1.474c-2-.622-8.057-.8-9.821,4.1a11.232,11.232,0,0,0-.563,4.089,2.361,2.361,0,0,0-1.088.635,2.564,2.564,0,0,0-.541,2.426c.3,1.483,1.131,3.236,2.539,3.707a2.68,2.68,0,0,0,.728.111,8.6,8.6,0,0,0,2.487,3.549c-.271,4.92-9.076,2.319-9.076,8.857v1.554H54.669a2.025,2.025,0,0,1-2.024-2.022v-30.183a2.025,2.025,0,0,1,2.024-2.022H86.157a2.025,2.025,0,0,1,2.022,2.022Z" transform="translate(0 -3259.085)"/>
        <path id="Path_1285620" data-name="Path 1285620" d="M2088.9,22.879a15.246,15.246,0,0,0,1.556,3.88l-1.977,2.513a1.121,1.121,0,0,0,.08,1.48l3.359,3.425a1.124,1.124,0,0,0,1.477.11l2.551-1.929a15.291,15.291,0,0,0,3.848,1.632l.378,3.182a1.123,1.123,0,0,0,1.1.989l4.8.047h.01c1.317,0,1.173-1.412,1.552-4.141a15.257,15.257,0,0,0,3.88-1.556c4,3.143,2.661,3.2,7.417-1.463a1.123,1.123,0,0,0,.11-1.477l-1.928-2.551a15.293,15.293,0,0,0,1.632-3.848l3.182-.378c1.326-.16.991-1.35,1.036-5.9a1.122,1.122,0,0,0-.968-1.122l-3.173-.44a15.261,15.261,0,0,0-1.556-3.88l1.977-2.513a1.121,1.121,0,0,0-.08-1.48L2115.8,4.032a1.124,1.124,0,0,0-1.477-.11l-2.551,1.929a15.28,15.28,0,0,0-3.848-1.633l-.378-3.181a1.123,1.123,0,0,0-1.1-.989l-4.8-.048h-.012a1.122,1.122,0,0,0-1.112.967l-.44,3.175A15.236,15.236,0,0,0,2096.2,5.7l-2.513-1.977a1.116,1.116,0,0,0-1.48.08l-3.424,3.359a1.123,1.123,0,0,0-.11,1.477l1.928,2.551a15.292,15.292,0,0,0-1.632,3.848l-3.182.378a1.123,1.123,0,0,0-.989,1.1c-.065,6.675-.93,5.664,4.094,6.36m-1.86-5.352c3.156-.375,3.728-.259,3.94-1.23,1.422-6.578,3.908-3.17.086-8.226l2.016-1.978c5.021,3.952,1.49,1.394,8.225.075a1.125,1.125,0,0,0,.9-.947l.412-2.967,2.824.028.354,2.975a1.125,1.125,0,0,0,.877.964c6.646,1.439,3.144,3.929,8.225.088l1.978,2.016c-1.872,2.379-2.454,2.8-1.911,3.649,3.671,5.695-.579,5,5.749,5.884l-.026,2.824c-3.156.375-3.728.259-3.94,1.23-1.437,6.646-3.926,3.143-.086,8.226l-2.016,1.978c-5.031-3.96-1.484-1.392-8.226-.076a1.124,1.124,0,0,0-.9.947l-.412,2.967-2.824-.026c-.747-6.288-.267-2.166-5.771-5.864a1.124,1.124,0,0,0-1.3.037l-2.383,1.8-1.979-2.016c1.873-2.378,2.455-2.8,1.911-3.649-3.664-5.684.593-5-5.749-5.883Z" transform="translate(-2058.647)"/>
        <path id="Path_1285621" data-name="Path 1285621" d="M2830.881,752.442a9.946,9.946,0,1,0-9.568-12.649,9.965,9.965,0,0,0,9.568,12.649m-3.758-16.667a7.7,7.7,0,1,1,1.67,14.132,7.711,7.711,0,0,1-1.67-14.132" transform="translate(-2785.673 -723.39)"/>
        <path id="Path_1285622" data-name="Path 1285622" d="M2316.128,3041.5a1.122,1.122,0,0,0-1.359,1.785q.861.655,1.78,1.237a1.122,1.122,0,1,0,1.2-1.894q-.837-.532-1.625-1.129" transform="translate(-2285.398 -3003.258)"/>
        <path id="Path_1285623" data-name="Path 1285623" d="M5044.509,120.638c1.093-.833-.017-1.933-.919-2.964a1.122,1.122,0,0,0-1.689,1.479c.881,1.006,1.522,2.307,2.608,1.486" transform="translate(-4978.604 -115.825)"/>
        <path id="Path_1285624" data-name="Path 1285624" d="M5152.06,531.389a1.122,1.122,0,0,0-2.163.6c2.048,7.426.816,6.75,7.773,3.077a1.122,1.122,0,0,0,.468-1.517c-.7-1.315-2.128-.145-3.719.7a26.268,26.268,0,0,0-.441-23.343,1.122,1.122,0,1,0-1.989,1.037,24.056,24.056,0,0,1,.524,21.1Z" transform="translate(-5085.483 -503.915)"/>
        <path id="Path_1285625" data-name="Path 1285625" d="M1303.484,694.785l1.892-1.122a26.141,26.141,0,0,0,6.4,24.893,1.122,1.122,0,0,0,1.622-1.552,23.911,23.911,0,0,1-5.888-22.629l.617,1.87a1.121,1.121,0,0,0,1.065.771,1.079,1.079,0,0,0,.351-.057,1.12,1.12,0,0,0,.714-1.416c-2.406-7.3-1.154-6.7-7.914-2.69a1.123,1.123,0,1,0,1.146,1.931" transform="translate(-1285.516 -681.298)"/>
      </g>
    </g>
  </g>
</svg>
