<svg xmlns="http://www.w3.org/2000/svg" xmlns:xlink="http://www.w3.org/1999/xlink" width="95.001" height="95" viewBox="0 0 95.001 95">
  <defs>
    <clipPath id="clip-path">
      <rect id="Rectangle_413818" data-name="Rectangle 413818" width="80.38" height="94.157" fill="none"/>
    </clipPath>
  </defs>
  <g id="Group_1222914" data-name="Group 1222914" transform="translate(-1095.301 -7058)">
    <g id="Group_1222913" data-name="Group 1222913" transform="translate(-350 80.906)">
      <ellipse id="Ellipse_12931" data-name="Ellipse 12931" cx="27.416" cy="27.416" rx="27.416" ry="27.416" transform="translate(1485.469 7017.216)" fill="#7fe5cf"/>
      <ellipse id="Ellipse_12932" data-name="Ellipse 12932" cx="19.939" cy="19.939" rx="19.939" ry="19.939" transform="translate(1445.301 6985.886)" fill="#7fe5cf"/>
    </g>
    <g id="Group_1222854" data-name="Group 1222854" transform="translate(-22470.699 11945)">
      <rect id="Rectangle_413762" data-name="Rectangle 413762" width="95" height="95" transform="translate(23566 -4887)" fill="none"/>
      <g id="Group_1222848" data-name="Group 1222848" transform="translate(23573.309 -4886.578)">
        <g id="Group_1222847" data-name="Group 1222847" clip-path="url(#clip-path)">
          <path id="Path_1285833" data-name="Path 1285833" d="M86.7,23.555v9.416h8.209a3.137,3.137,0,0,0,2.965-4.127L93.7,16.289a3.154,3.154,0,0,0-2.982-2.15H41.879a3.155,3.155,0,0,0-2.982,2.15L34.723,28.844a3.14,3.14,0,0,0,2.967,4.127H45.9V23.555Z" transform="translate(-19.219 -7.862)" fill="#acabb1"/>
          <path id="Path_1285834" data-name="Path 1285834" d="M16.089,177.9V162.208a3.139,3.139,0,0,0-3.139-3.139H3.536v21.969H12.95a3.139,3.139,0,0,0,3.139-3.137" transform="translate(-1.966 -88.451)" fill="#00d7df"/>
          <path id="Path_1285835" data-name="Path 1285835" d="M62.821,182.228a6.277,6.277,0,1,0-5.156-2.682,6.266,6.266,0,0,0,5.156,2.682" transform="translate(-31.435 -94.348)" fill="#00d7df"/>
          <path id="Path_1285836" data-name="Path 1285836" d="M97.754,76.151a3.138,3.138,0,0,0,3.137-3.14V35.349H60.09V73.011a3.14,3.14,0,0,0,3.139,3.14Zm-28.248-20.4A10.985,10.985,0,1,1,80.492,66.735,10.985,10.985,0,0,1,69.506,55.749" transform="translate(-33.413 -19.656)" fill="#acabb1"/>
          <path id="Path_1285837" data-name="Path 1285837" d="M104.857,6.673a3.136,3.136,0,0,0-3.137-3.137H98.58a3.136,3.136,0,0,0-3.137,3.137v1.57h9.414Z" transform="translate(-53.072 -1.966)" fill="#00d7df"/>
          <path id="Path_1285838" data-name="Path 1285838" d="M103.272,67.543A10.986,10.986,0,1,0,92.286,78.528a10.986,10.986,0,0,0,10.986-10.985M92.286,72.252a4.708,4.708,0,1,1,4.707-4.707,4.707,4.707,0,0,1-4.707,4.707" transform="translate(-45.207 -31.45)" fill="#00d7df"/>
          <path id="Path_1285839" data-name="Path 1285839" d="M104.857,75.405A4.707,4.707,0,1,1,100.15,70.7a4.709,4.709,0,0,1,4.707,4.707" transform="translate(-53.072 -39.312)" fill="#ff5023"/>
          <path id="Path_1285840" data-name="Path 1285840" d="M104.461,127.256H91.908l1.569,6.277h9.414Z" transform="translate(-51.106 -70.762)" fill="#00d7df"/>
          <path id="Path_1285841" data-name="Path 1285841" d="M80.141,20.487,75.962,7.921A4.727,4.727,0,0,0,71.5,4.708H53.355A4.708,4.708,0,0,0,48.648,0H45.509A4.707,4.707,0,0,0,40.8,4.708H22.66A4.733,4.733,0,0,0,18.19,7.933L14.016,20.487a4.719,4.719,0,0,0,.649,4.237,4.65,4.65,0,0,0,3.806,1.955h6.637V53.356a4.706,4.706,0,0,0,4.708,4.707h9.759l1.273,5.091a1.571,1.571,0,0,0,1.523,1.188h3.137V69.8l-8.744,6.121A7.819,7.819,0,0,0,23.7,80.034h-8V73.756a4.708,4.708,0,0,0-4.707-4.707H1.57A1.57,1.57,0,0,0,0,70.618v21.97a1.57,1.57,0,0,0,1.57,1.569h9.414a4.709,4.709,0,0,0,4.709-4.709V83.172h8a7.846,7.846,0,1,0,14.879-4.688l9.4-6.581a1.565,1.565,0,0,0,.672-1.285V64.342h3.139a1.571,1.571,0,0,0,1.523-1.188l1.273-5.091h9.76a4.707,4.707,0,0,0,4.707-4.707V26.679h6.638a4.647,4.647,0,0,0,3.805-1.951,4.715,4.715,0,0,0,.649-4.241M12.553,89.45a1.568,1.568,0,0,1-1.568,1.568H3.139V72.188h7.845a1.569,1.569,0,0,1,1.569,1.568Zm18.832-3.139A4.707,4.707,0,1,1,36.093,81.6a4.707,4.707,0,0,1-4.707,4.707M45.509,3.14h3.139a1.568,1.568,0,0,1,1.568,1.568H43.939a1.57,1.57,0,0,1,1.57-1.568M50.559,61.2H43.6l-.784-3.137h8.533Zm15.349-7.846a1.569,1.569,0,0,1-1.568,1.57H29.816a1.57,1.57,0,0,1-1.57-1.57V17.263H65.91V53.356ZM76.946,22.892a1.541,1.541,0,0,1-1.255.648H69.048V15.694a1.57,1.57,0,0,0-1.57-1.569h-40.8a1.568,1.568,0,0,0-1.568,1.569V23.54H18.469a1.569,1.569,0,0,1-1.477-2.062l4.17-12.543a1.589,1.589,0,0,1,1.5-1.088H71.495a1.587,1.587,0,0,1,1.493,1.077l4.174,12.553a1.545,1.545,0,0,1-.216,1.414" transform="translate(0 -0.001)"/>
          <path id="Path_1285842" data-name="Path 1285842" d="M98.184,79.717a6.278,6.278,0,1,0-6.277-6.279,6.279,6.279,0,0,0,6.277,6.279m0-9.416a3.138,3.138,0,1,1-3.139,3.137A3.136,3.136,0,0,1,98.184,70.3" transform="translate(-51.106 -37.346)" fill="#231f20"/>
          <path id="Path_1285843" data-name="Path 1285843" d="M90.32,78.133A12.554,12.554,0,1,0,77.765,65.577,12.554,12.554,0,0,0,90.32,78.133m0-21.969A9.415,9.415,0,1,1,80.9,65.577a9.416,9.416,0,0,1,9.416-9.414" transform="translate(-43.242 -29.484)" fill="#231f20"/>
          <rect id="Rectangle_413817" data-name="Rectangle 413817" width="3.139" height="3.137" transform="translate(59.632 50.218)" fill="#231f20"/>
        </g>
      </g>
    </g>
  </g>
</svg>
