<svg xmlns="http://www.w3.org/2000/svg" xmlns:xlink="http://www.w3.org/1999/xlink" width="95.75" height="95" viewBox="0 0 95.75 95">
  <defs>
    <clipPath id="clip-path">
      <rect id="Rectangle_413816" data-name="Rectangle 413816" width="95" height="95" fill="none"/>
    </clipPath>
  </defs>
  <g id="Group_1222920" data-name="Group 1222920" transform="translate(-23295 4542)">
    <g id="Group_1222915" data-name="Group 1222915" transform="translate(21850.449 -11519.048)">
      <ellipse id="Ellipse_12931" data-name="Ellipse 12931" cx="27.416" cy="27.416" rx="27.416" ry="27.416" transform="translate(1485.469 7017.216)" fill="#7fe5cf"/>
      <ellipse id="Ellipse_12932" data-name="Ellipse 12932" cx="19.939" cy="19.939" rx="19.939" ry="19.939" transform="translate(1445.301 6985.886)" fill="#7fe5cf"/>
    </g>
    <g id="Group_1222853" data-name="Group 1222853" transform="translate(-567 345)">
      <rect id="Rectangle_413766" data-name="Rectangle 413766" width="95" height="95" transform="translate(23862 -4887)" fill="none"/>
      <g id="Group_1222846" data-name="Group 1222846" transform="translate(23862 -4887.305)">
        <g id="Group_1222845" data-name="Group 1222845" transform="translate(0 0.305)" clip-path="url(#clip-path)">
          <path id="Path_1285815" data-name="Path 1285815" d="M214.387,470.71v3.077a3.086,3.086,0,0,1-3.077,3.077H168.238a3.086,3.086,0,0,1-3.077-3.077V470.71Z" transform="translate(-134.395 -383.402)" fill="#838f9b"/>
          <path id="Path_1285816" data-name="Path 1285816" d="M214.387,424.238v6.153H165.161v-6.153a3.086,3.086,0,0,1,3.077-3.077h43.073a3.086,3.086,0,0,1,3.077,3.077" transform="translate(-134.395 -343.083)" fill="#969faa"/>
          <rect id="Rectangle_413813" data-name="Rectangle 413813" width="24.613" height="9.23" transform="translate(43.073 68.849)" fill="#aab2bd"/>
          <path id="Path_1285817" data-name="Path 1285817" d="M160.534,143.142H145.889a13.535,13.535,0,0,0,.8-4.615,13.753,13.753,0,0,0-2.338-7.692h59.256a1.543,1.543,0,0,0,1.538-1.538V90.839a6.152,6.152,0,0,1,6.153,6.153v40a6.152,6.152,0,0,1-6.153,6.153H160.534Z" transform="translate(-117.461 -74.293)" fill="#ccd1d9"/>
          <path id="Path_1285818" data-name="Path 1285818" d="M121.605,90.839v6.153H98.531a1.543,1.543,0,0,0-1.538,1.538v28.49a13.761,13.761,0,0,0-6.153-2.246V96.992a6.152,6.152,0,0,1,6.153-6.153Z" transform="translate(-73.917 -74.293)" fill="#ccd1d9"/>
          <path id="Path_1285819" data-name="Path 1285819" d="M123.871,153.9v-28.49a1.543,1.543,0,0,1,1.538-1.538h23.075v3.077a3.086,3.086,0,0,0,3.077,3.077h18.46a3.086,3.086,0,0,0,3.077-3.077v-1.538l9.23,4.615v1.538a1.543,1.543,0,0,0,1.539,1.538h3.077a1.543,1.543,0,0,0,1.538-1.538v24.613a1.543,1.543,0,0,1-1.538,1.538H127.686a13.651,13.651,0,0,0-3.815-3.815" transform="translate(-100.796 -101.172)" fill="#75b1f2"/>
          <path id="Path_1285820" data-name="Path 1285820" d="M319.96,8.258a6.153,6.153,0,1,1-6.123,6.753c-.015-.2-.031-.4-.031-.6a6.152,6.152,0,0,1,6.153-6.153" transform="translate(-255.351 -7.096)" fill="#fcd770"/>
          <path id="Path_1285821" data-name="Path 1285821" d="M273.4,28.451a4.74,4.74,0,0,1,.092.938,4.594,4.594,0,1,1-.092-.938" transform="translate(-215.032 -20.535)" fill="#fcd770"/>
          <path id="Path_1285822" data-name="Path 1285822" d="M397.359,74.323V89.706l-9.23-4.615V78.938Z" transform="translate(-315.828 -60.854)" fill="#ccd1d9"/>
          <path id="Path_1285823" data-name="Path 1285823" d="M443.831,63.96V77.805a1.543,1.543,0,0,1-1.538,1.538h-3.077a1.543,1.543,0,0,1-1.538-1.538V59.345a1.543,1.543,0,0,1,1.538-1.538h3.077a1.543,1.543,0,0,1,1.538,1.538Z" transform="translate(-356.147 -47.415)" fill="#aab2bd"/>
          <path id="Path_1285824" data-name="Path 1285824" d="M277.536,74.323a3.086,3.086,0,0,1,3.077,3.077v9.23a3.086,3.086,0,0,1-3.077,3.077h-18.46A3.086,3.086,0,0,1,256,86.63V77.4a3.086,3.086,0,0,1,3.077-3.077h18.46Z" transform="translate(-208.312 -60.854)" fill="#aab2bd"/>
          <path id="Path_1285825" data-name="Path 1285825" d="M35.948,286.361a13.534,13.534,0,0,1-.8,4.615A13.842,13.842,0,1,1,22.1,272.516a12.716,12.716,0,0,1,1.538.092,13.847,13.847,0,0,1,12.307,13.753" transform="translate(-6.72 -222.127)" fill="#ffeaa7"/>
          <path id="Path_1285826" data-name="Path 1285826" d="M194.551,206.452a4.615,4.615,0,1,1-4.615,4.615,4.615,4.615,0,0,1,4.615-4.615" transform="translate(-154.555 -168.37)" fill="#ff826e"/>
          <rect id="Rectangle_413814" data-name="Rectangle 413814" width="9.23" height="9.23" transform="translate(10.768 59.619)" fill="#ff826e"/>
          <path id="Path_1285827" data-name="Path 1285827" d="M89.223,15.539V12.307A3.08,3.08,0,0,0,86.146,9.23H83.069a3.08,3.08,0,0,0-3.077,3.077v.588l-6.244,3.123a4.611,4.611,0,0,0-3.2-3.494A7.665,7.665,0,1,0,57.662,4.444a6.129,6.129,0,0,0-8.85,8.311,4.62,4.62,0,0,0-2.38,2.627H23.075a7.7,7.7,0,0,0-7.692,7.692V49.226A15.383,15.383,0,1,0,29.473,70.763H41.535v6.153H33.843a4.621,4.621,0,0,0-4.615,4.615v9.23a4.621,4.621,0,0,0,4.615,4.615H76.916a4.621,4.621,0,0,0,4.615-4.615v-9.23a4.621,4.621,0,0,0-4.615-4.615H69.224V70.763h18.46a7.7,7.7,0,0,0,7.692-7.692v-40a7.706,7.706,0,0,0-6.153-7.536m-6.153-3.232h3.077v18.46H83.069Zm3.077,21.537V55.38H27.661a15.451,15.451,0,0,0-3.047-3.048V24.613H46.15v1.538a4.621,4.621,0,0,0,4.615,4.615h18.46a4.622,4.622,0,0,0,4.524-3.711l6.244,3.123v.588a3.08,3.08,0,0,0,3.077,3.077Zm-6.153-7.1-6.153-3.077V19.411l6.153-3.077Zm-9.23-.588a1.54,1.54,0,0,1-1.538,1.538H50.765a1.54,1.54,0,0,1-1.538-1.538v-9.23a1.54,1.54,0,0,1,1.538-1.538h18.46a1.54,1.54,0,0,1,1.538,1.538ZM64.61,3.077a4.615,4.615,0,1,1-4.615,4.615A4.621,4.621,0,0,1,64.61,3.077M53.841,6.153A3.077,3.077,0,1,1,50.765,9.23a3.08,3.08,0,0,1,3.077-3.077M18.46,23.075a4.62,4.62,0,0,1,4.615-4.615H46.15v3.077H24.613a3.08,3.08,0,0,0-3.077,3.077V50.52a15.227,15.227,0,0,0-3.077-.983ZM15.383,76.916A12.307,12.307,0,1,1,27.69,64.61,12.321,12.321,0,0,1,15.383,76.916M76.916,92.3H33.843A1.54,1.54,0,0,1,32.3,90.761V89.223h46.15v1.538A1.54,1.54,0,0,1,76.916,92.3m1.538-10.768v4.615H32.3V81.531a1.54,1.54,0,0,1,1.538-1.538H76.916a1.54,1.54,0,0,1,1.538,1.538M66.148,76.916H44.611V70.763H66.148ZM92.3,63.071a4.621,4.621,0,0,1-4.615,4.615H30.456a15.315,15.315,0,0,0-.983-9.23H86.146a3.08,3.08,0,0,0,3.077-3.077V18.743A4.609,4.609,0,0,1,92.3,23.075Z" transform="translate(0 -0.376)"/>
          <path id="Path_1285828" data-name="Path 1285828" d="M49.548,326.113H61.855V313.806H49.548Zm3.077-9.23h6.153v6.153H52.625Z" transform="translate(-40.318 -255.726)"/>
          <path id="Path_1285829" data-name="Path 1285829" d="M463.99,330.323a1.538,1.538,0,1,1-1.538,1.538,1.538,1.538,0,0,1,1.538-1.538" transform="translate(-376.306 -269.166)"/>
          <path id="Path_1285830" data-name="Path 1285830" d="M430.957,330.323a1.538,1.538,0,1,1-1.538,1.538,1.538,1.538,0,0,1,1.538-1.538" transform="translate(-349.426 -269.166)"/>
          <path id="Path_1285831" data-name="Path 1285831" d="M397.925,330.323a1.538,1.538,0,1,1-1.538,1.538,1.538,1.538,0,0,1,1.538-1.538" transform="translate(-322.548 -269.166)"/>
          <rect id="Rectangle_413815" data-name="Rectangle 413815" width="12.307" height="3.077" transform="translate(52.303 21.161)"/>
          <path id="Path_1285832" data-name="Path 1285832" d="M160.952,198.194a6.147,6.147,0,0,0-5.935,4.615h-6.372v3.077h6.372a6.124,6.124,0,0,0,11.87,0h26.37v-3.077h-26.37a6.147,6.147,0,0,0-5.935-4.615m0,9.23a3.077,3.077,0,1,1,3.077-3.077,3.08,3.08,0,0,1-3.077,3.077" transform="translate(-120.955 -161.65)"/>
        </g>
      </g>
    </g>
  </g>
</svg>
