<svg xmlns="http://www.w3.org/2000/svg" xmlns:xlink="http://www.w3.org/1999/xlink" width="95" height="95" viewBox="0 0 95 95">
  <defs>
    <clipPath id="clip-path">
      <rect id="Rectangle_413756" data-name="Rectangle 413756" width="95" height="94" transform="translate(0 -0.338)" fill="none"/>
    </clipPath>
    <clipPath id="clip-path-3">
      <rect id="Rectangle_413733" data-name="Rectangle 413733" width="40" height="3" transform="translate(0.238 -0.098)" fill="none"/>
    </clipPath>
    <clipPath id="clip-path-4">
      <rect id="Rectangle_413734" data-name="Rectangle 413734" width="40" height="3" transform="translate(0.238 -0.197)" fill="none"/>
    </clipPath>
    <clipPath id="clip-path-5">
      <rect id="Rectangle_413735" data-name="Rectangle 413735" width="3.303" height="3.788" fill="none"/>
    </clipPath>
    <clipPath id="clip-path-6">
      <rect id="Rectangle_413736" data-name="Rectangle 413736" width="3.311" height="3.788" fill="none"/>
    </clipPath>
    <clipPath id="clip-path-7">
      <rect id="Rectangle_413737" data-name="Rectangle 413737" width="14.978" height="4.785" fill="none"/>
    </clipPath>
    <clipPath id="clip-path-8">
      <rect id="Rectangle_413738" data-name="Rectangle 413738" width="14.978" height="4.784" fill="none"/>
    </clipPath>
  </defs>
  <g id="Group_1222863" data-name="Group 1222863" transform="translate(-23376 10988)">
    <rect id="Rectangle_413726" data-name="Rectangle 413726" width="95" height="95" transform="translate(23376 -10988)" fill="none"/>
    <g id="Group_1222827" data-name="Group 1222827" transform="translate(23376 -10987.162)">
      <g id="Group_1222826" data-name="Group 1222826" transform="translate(0 0.5)" clip-path="url(#clip-path)">
        <path id="Path_1285646" data-name="Path 1285646" d="M43,6.562H61.332L59.72,2.438h4.514l6.909,6.817L64.1,16.578H61.1V12.94H43Z" transform="translate(-11.311 -1.31)" fill="#e1ebf4"/>
        <path id="Path_1285647" data-name="Path 1285647" d="M73.143,110.562H54.811l1.612-4.125H51.909L45,113.254l7.047,7.324h2.994v-3.639h18.1Z" transform="translate(-11.837 -28.666)" fill="#e1ebf4"/>
        <path id="Path_1285648" data-name="Path 1285648" d="M115.516,43.937V62.269l4.124-1.612v4.514l-6.817,6.909L105.5,65.032V62.039h3.638v-18.1Z" transform="translate(-27.751 -12.226)" fill="#e1ebf4"/>
        <path id="Path_1285649" data-name="Path 1285649" d="M11.516,74.08V55.748l4.125,1.612V52.847l-6.817-6.91L1.5,52.984v2.994H5.139v18.1Z" transform="translate(-0.395 -12.752)" fill="#e1ebf4"/>
        <g id="Group_1222825" data-name="Group 1222825">
          <g id="Group_1222824" data-name="Group 1222824" clip-path="url(#clip-path)">
            <path id="Path_1285650" data-name="Path 1285650" d="M116.706,102.313a4.029,4.029,0,0,0-.943-4.267l-.752-.752a4.067,4.067,0,0,0-2.874-1.2,3.832,3.832,0,0,0-1.393.258A4.017,4.017,0,0,0,107.059,94H106a4.017,4.017,0,0,0-3.685,2.351,3.832,3.832,0,0,0-1.393-.258,4.093,4.093,0,0,0-2.874,1.2l-.752.752a4.038,4.038,0,0,0-1.194,2.638,3.792,3.792,0,0,0,.251,1.629A4.017,4.017,0,0,0,94,106v1.061a4.017,4.017,0,0,0,2.351,3.685,3.792,3.792,0,0,0-.251,1.629,4.072,4.072,0,0,0,1.194,2.646l.752.744a4.093,4.093,0,0,0,2.874,1.2,4,4,0,0,0,1.393-.251A4.024,4.024,0,0,0,106,119.057h1.061a4.017,4.017,0,0,0,3.685-2.351,3.832,3.832,0,0,0,1.393.258,4.093,4.093,0,0,0,2.874-1.2l.752-.752a4.029,4.029,0,0,0,.943-4.267,4.03,4.03,0,0,0,2.351-3.685V106a4.017,4.017,0,0,0-2.351-3.685m-.6,4.746a1.016,1.016,0,0,1-.943,1.069h-1.356a7.532,7.532,0,0,1-1,2.417l.958.958a1.009,1.009,0,0,1-.088,1.422l-.752.752a1.1,1.1,0,0,1-.789.339.884.884,0,0,1-.634-.251l-.958-.965a7.37,7.37,0,0,1-2.417,1.01v1.356a1.015,1.015,0,0,1-1.069.943H106a1.015,1.015,0,0,1-1.069-.943v-1.356a7.37,7.37,0,0,1-2.417-1.01l-.958.965a.884.884,0,0,1-.634.251,1.1,1.1,0,0,1-.789-.339l-.752-.752a1.009,1.009,0,0,1-.088-1.422l.965-.958a7.37,7.37,0,0,1-1.01-2.417H97.891a1.011,1.011,0,0,1-.943-1.069V106a1.011,1.011,0,0,1,.943-1.069h1.356a7.37,7.37,0,0,1,1.01-2.417l-.965-.958a1.009,1.009,0,0,1,.088-1.422l.752-.752a1.1,1.1,0,0,1,.789-.339.883.883,0,0,1,.634.251l.958.965a7.212,7.212,0,0,1,2.417-1V97.891A1.011,1.011,0,0,1,106,96.948h1.061a1.011,1.011,0,0,1,1.069.943v1.363a7.211,7.211,0,0,1,2.417,1l.958-.965a.883.883,0,0,1,.634-.251,1.1,1.1,0,0,1,.789.339l.752.752a1.009,1.009,0,0,1,.088,1.422l-.958.958a7.533,7.533,0,0,1,1,2.417h1.356a1.016,1.016,0,0,1,.943,1.069Z" transform="translate(-24.726 -25.395)"/>
            <path id="Path_1285651" data-name="Path 1285651" d="M117.16,107.049v1.061a1.016,1.016,0,0,1-.943,1.069h-1.356a7.532,7.532,0,0,1-1,2.417l.958.958a1.009,1.009,0,0,1-.088,1.422l-.752.752a1.1,1.1,0,0,1-.789.339.884.884,0,0,1-.634-.251l-.958-.965a7.37,7.37,0,0,1-2.417,1.01v1.356a1.015,1.015,0,0,1-1.069.943h-1.061a1.015,1.015,0,0,1-1.069-.943v-1.356a7.37,7.37,0,0,1-2.417-1.01l-.958.965a.884.884,0,0,1-.634.251,1.1,1.1,0,0,1-.789-.339l-.752-.752a1.009,1.009,0,0,1-.088-1.422l.965-.958a7.37,7.37,0,0,1-1.01-2.417H98.943A1.011,1.011,0,0,1,98,108.11v-1.061a1.011,1.011,0,0,1,.943-1.069H100.3a7.37,7.37,0,0,1,1.01-2.417l-.965-.958a1.009,1.009,0,0,1,.088-1.422l.752-.752a1.1,1.1,0,0,1,.789-.339.884.884,0,0,1,.634.251l.958.965a7.212,7.212,0,0,1,2.417-1V98.943A1.011,1.011,0,0,1,107.049,98h1.061a1.011,1.011,0,0,1,1.069.943v1.363a7.212,7.212,0,0,1,2.417,1l.958-.965a.884.884,0,0,1,.634-.251,1.1,1.1,0,0,1,.789.339l.752.752a1.009,1.009,0,0,1,.088,1.422l-.958.958a7.532,7.532,0,0,1,1,2.417h1.356a1.016,1.016,0,0,1,.943,1.069" transform="translate(-25.777 -26.446)" fill="#94e1e4"/>
            <path id="Path_1285652" data-name="Path 1285652" d="M109.159,104a5.155,5.155,0,1,0,.007,0Zm0,7.37a2.211,2.211,0,1,1,2.211-2.211,2.211,2.211,0,0,1-2.211,2.211" transform="translate(-27.356 -28.025)"/>
            <path id="Path_1285653" data-name="Path 1285653" d="M110.211,108A2.211,2.211,0,1,1,108,110.211,2.211,2.211,0,0,1,110.211,108" transform="translate(-28.408 -29.077)" fill="#fff"/>
            <path id="Path_1285654" data-name="Path 1285654" d="M118.054,9.315a3.84,3.84,0,0,0-1.349-1,4.008,4.008,0,0,0,.007-2.778,3.948,3.948,0,0,0-.951-1.489l-.752-.752a4.3,4.3,0,0,0-2.874-1.2,3.832,3.832,0,0,0-1.393.258A4.017,4.017,0,0,0,107.059,0H106a4.017,4.017,0,0,0-3.685,2.351,3.094,3.094,0,0,0-.678-.192,3.88,3.88,0,0,0-.715-.066,4.093,4.093,0,0,0-2.874,1.2l-.752.752a3.657,3.657,0,0,0-.383.457,4.009,4.009,0,0,0-.457.759A3.913,3.913,0,0,0,96.1,6.684a3.792,3.792,0,0,0,.251,1.629A4.017,4.017,0,0,0,94,12v1.061a4.017,4.017,0,0,0,2.351,3.685,3.792,3.792,0,0,0-.251,1.629,3.941,3.941,0,0,0,.111.73,4.166,4.166,0,0,0,1.083,1.916l.752.744a4.093,4.093,0,0,0,2.874,1.2,4,4,0,0,0,1.393-.251c.081.17.17.332.265.494a4.3,4.3,0,0,0,.737.855,4.079,4.079,0,0,0,2.683.995h1.061a4.07,4.07,0,0,0,2.226-.656,3.781,3.781,0,0,0,.855-.744,3.866,3.866,0,0,0,.6-.951,3.832,3.832,0,0,0,1.393.258,4.1,4.1,0,0,0,2.653-1.017,2.4,2.4,0,0,0,.221-.184l.752-.752a4,4,0,0,0,.332-.383,4.082,4.082,0,0,0,.781-1.658,4.319,4.319,0,0,0,.074-1.128,4.037,4.037,0,0,0-.243-1.1,4.03,4.03,0,0,0,2.351-3.685V12a4.035,4.035,0,0,0-1-2.683m-1.946,3.744a1.016,1.016,0,0,1-.943,1.069h-1.356a7.532,7.532,0,0,1-1,2.417l.958.958a.9.9,0,0,1,.251.693,1.1,1.1,0,0,1-.339.73l-.752.752a1.092,1.092,0,0,1-.575.317,1.041,1.041,0,0,1-.214.022.884.884,0,0,1-.634-.251l-.958-.965a7.37,7.37,0,0,1-2.417,1.01v1.356a.82.82,0,0,1-.088.368,1.071,1.071,0,0,1-.98.575H106a1.071,1.071,0,0,1-.98-.575.82.82,0,0,1-.088-.368V19.809a7.37,7.37,0,0,1-2.417-1.01l-.958.965a.884.884,0,0,1-.634.251,1.068,1.068,0,0,1-.612-.192.808.808,0,0,1-.177-.147l-.752-.752a1.1,1.1,0,0,1-.339-.73.9.9,0,0,1,.251-.693l.965-.958a7.37,7.37,0,0,1-1.01-2.417H97.891a1.011,1.011,0,0,1-.943-1.069V12a1.011,1.011,0,0,1,.943-1.069h1.356a7.37,7.37,0,0,1,1.01-2.417l-.965-.958a.988.988,0,0,1-.2-.324.9.9,0,0,1-.052-.368,1.1,1.1,0,0,1,.339-.73l.752-.752a1.1,1.1,0,0,1,.789-.339.884.884,0,0,1,.634.251l.958.965a7.212,7.212,0,0,1,2.417-1V3.891A1.011,1.011,0,0,1,106,2.948h1.061a1.011,1.011,0,0,1,1.069.943V5.254a7.211,7.211,0,0,1,2.417,1l.958-.965a.884.884,0,0,1,.634-.251,1.146,1.146,0,0,1,.413.081,1.176,1.176,0,0,1,.376.258l.752.752a1.1,1.1,0,0,1,.339.73.9.9,0,0,1-.052.368.988.988,0,0,1-.2.324l-.958.958a7.532,7.532,0,0,1,1,2.417h1.356A1.016,1.016,0,0,1,116.109,12Z" transform="translate(-24.726 -0.669)"/>
            <path id="Path_1285655" data-name="Path 1285655" d="M117.16,13.049V14.11a1.016,1.016,0,0,1-.943,1.069h-1.356a7.532,7.532,0,0,1-1,2.417l.958.958a.9.9,0,0,1,.251.693,1.1,1.1,0,0,1-.339.73l-.752.752a1.092,1.092,0,0,1-.575.317,1.042,1.042,0,0,1-.214.022.883.883,0,0,1-.634-.251l-.958-.965a7.37,7.37,0,0,1-2.417,1.01v1.356a.82.82,0,0,1-.088.368,1.071,1.071,0,0,1-.98.575h-1.061a1.071,1.071,0,0,1-.98-.575.82.82,0,0,1-.088-.368V20.861a7.37,7.37,0,0,1-2.417-1.01l-.958.965a.884.884,0,0,1-.634.251,1.068,1.068,0,0,1-.612-.192.808.808,0,0,1-.177-.147l-.752-.752a1.1,1.1,0,0,1-.339-.73.9.9,0,0,1,.251-.693l.965-.958a7.37,7.37,0,0,1-1.01-2.417H98.943A1.011,1.011,0,0,1,98,14.11V13.049a1.011,1.011,0,0,1,.943-1.069H100.3a7.37,7.37,0,0,1,1.01-2.417l-.965-.958a.988.988,0,0,1-.2-.324.9.9,0,0,1-.052-.368,1.1,1.1,0,0,1,.339-.73l.752-.752a1.1,1.1,0,0,1,.789-.339.884.884,0,0,1,.634.251l.958.965a7.212,7.212,0,0,1,2.417-1V4.943A1.011,1.011,0,0,1,107.049,4h1.061a1.011,1.011,0,0,1,1.069.943V6.306a7.212,7.212,0,0,1,2.417,1l.958-.965a.884.884,0,0,1,.634-.251,1.146,1.146,0,0,1,.413.081,1.176,1.176,0,0,1,.376.258l.752.752a1.1,1.1,0,0,1,.339.73.9.9,0,0,1-.052.368.988.988,0,0,1-.2.324l-.958.958a7.532,7.532,0,0,1,1,2.417h1.356a1.016,1.016,0,0,1,.943,1.069" transform="translate(-25.777 -1.721)" fill="#94e1e4"/>
            <path id="Path_1285656" data-name="Path 1285656" d="M22.706,102.313a4.029,4.029,0,0,0-.943-4.267l-.752-.752a4.067,4.067,0,0,0-2.874-1.2,3.832,3.832,0,0,0-1.393.258A4.017,4.017,0,0,0,13.059,94H12a4.017,4.017,0,0,0-3.685,2.351,3.832,3.832,0,0,0-1.393-.258,4.093,4.093,0,0,0-2.874,1.2l-.752.752A4.038,4.038,0,0,0,2.1,100.684a3.792,3.792,0,0,0,.251,1.629A4.017,4.017,0,0,0,0,106v1.061a4.017,4.017,0,0,0,2.351,3.685,3.792,3.792,0,0,0-.251,1.629,4.072,4.072,0,0,0,1.194,2.646l.752.744a4.093,4.093,0,0,0,2.874,1.2,4,4,0,0,0,1.393-.251A4.023,4.023,0,0,0,12,119.057h1.061a4.017,4.017,0,0,0,3.685-2.351,3.832,3.832,0,0,0,1.393.258,4.093,4.093,0,0,0,2.874-1.2l.752-.752a4.029,4.029,0,0,0,.943-4.267,4.03,4.03,0,0,0,2.351-3.685V106a4.017,4.017,0,0,0-2.351-3.685m-.6,4.746a1.016,1.016,0,0,1-.943,1.069H19.809a7.533,7.533,0,0,1-1,2.417l.958.958a1.009,1.009,0,0,1-.088,1.422l-.752.752a1.1,1.1,0,0,1-.789.339.884.884,0,0,1-.634-.251l-.958-.965a7.37,7.37,0,0,1-2.417,1.01v1.356a1.016,1.016,0,0,1-1.069.943H12a1.015,1.015,0,0,1-1.069-.943v-1.356a7.37,7.37,0,0,1-2.417-1.01l-.958.965a.884.884,0,0,1-.634.251,1.1,1.1,0,0,1-.789-.339l-.752-.752a1.009,1.009,0,0,1-.088-1.422l.965-.958a7.37,7.37,0,0,1-1.01-2.417H3.891a1.011,1.011,0,0,1-.943-1.069V106a1.011,1.011,0,0,1,.943-1.069H5.247a7.37,7.37,0,0,1,1.01-2.417l-.965-.958a1.009,1.009,0,0,1,.088-1.422l.752-.752a1.1,1.1,0,0,1,.789-.339.883.883,0,0,1,.634.251l.958.965a7.211,7.211,0,0,1,2.417-1V97.891A1.011,1.011,0,0,1,12,96.948h1.061a1.011,1.011,0,0,1,1.069.943v1.363a7.211,7.211,0,0,1,2.417,1l.958-.965a.883.883,0,0,1,.634-.251,1.1,1.1,0,0,1,.789.339l.752.752a1.009,1.009,0,0,1,.088,1.422l-.958.958a7.533,7.533,0,0,1,1,2.417h1.356A1.016,1.016,0,0,1,22.109,106Z" transform="translate(0 -25.395)"/>
            <path id="Path_1285657" data-name="Path 1285657" d="M23.16,107.049v1.061a1.016,1.016,0,0,1-.943,1.069H20.861a7.533,7.533,0,0,1-1,2.417l.958.958a1.009,1.009,0,0,1-.088,1.422l-.752.752a1.1,1.1,0,0,1-.789.339.884.884,0,0,1-.634-.251l-.958-.965a7.37,7.37,0,0,1-2.417,1.01v1.356a1.016,1.016,0,0,1-1.069.943H13.049a1.015,1.015,0,0,1-1.069-.943v-1.356a7.37,7.37,0,0,1-2.417-1.01l-.958.965a.884.884,0,0,1-.634.251,1.1,1.1,0,0,1-.789-.339l-.752-.752a1.009,1.009,0,0,1-.088-1.422l.965-.958a7.37,7.37,0,0,1-1.01-2.417H4.943A1.011,1.011,0,0,1,4,108.11v-1.061a1.011,1.011,0,0,1,.943-1.069H6.3a7.37,7.37,0,0,1,1.01-2.417l-.965-.958a1.009,1.009,0,0,1,.088-1.422l.752-.752a1.1,1.1,0,0,1,.789-.339.884.884,0,0,1,.634.251l.958.965a7.211,7.211,0,0,1,2.417-1V98.943A1.011,1.011,0,0,1,13.049,98H14.11a1.011,1.011,0,0,1,1.069.943v1.363a7.211,7.211,0,0,1,2.417,1l.958-.965a.884.884,0,0,1,.634-.251,1.1,1.1,0,0,1,.789.339l.752.752a1.009,1.009,0,0,1,.088,1.422l-.958.958a7.533,7.533,0,0,1,1,2.417h1.356a1.016,1.016,0,0,1,.943,1.069" transform="translate(-1.052 -26.446)" fill="#94e1e4"/>
            <path id="Path_1285658" data-name="Path 1285658" d="M15.159,104a5.155,5.155,0,1,0,.007,0Zm0,7.37a2.211,2.211,0,1,1,2.211-2.211,2.211,2.211,0,0,1-2.211,2.211" transform="translate(-2.63 -28.025)"/>
            <path id="Path_1285659" data-name="Path 1285659" d="M16.211,108A2.211,2.211,0,1,1,14,110.211,2.211,2.211,0,0,1,16.211,108" transform="translate(-3.683 -29.077)" fill="#fff"/>
            <path id="Path_1285660" data-name="Path 1285660" d="M22.706,8.313a4.029,4.029,0,0,0-.943-4.267l-.752-.752a4.067,4.067,0,0,0-2.874-1.2,3.832,3.832,0,0,0-1.393.258A4.017,4.017,0,0,0,13.059,0H12A4.017,4.017,0,0,0,8.313,2.351,3.832,3.832,0,0,0,6.92,2.093a4.093,4.093,0,0,0-2.874,1.2l-.752.752A4.038,4.038,0,0,0,2.1,6.684a3.792,3.792,0,0,0,.251,1.629A4.017,4.017,0,0,0,0,12v1.061a4.017,4.017,0,0,0,2.351,3.685A3.792,3.792,0,0,0,2.1,18.372a4.072,4.072,0,0,0,1.194,2.646l.752.744a4.093,4.093,0,0,0,2.874,1.2,4,4,0,0,0,1.393-.251A4.023,4.023,0,0,0,12,25.057h1.061a4.017,4.017,0,0,0,3.685-2.351,3.832,3.832,0,0,0,1.393.258,4.093,4.093,0,0,0,2.874-1.2l.752-.752a4.029,4.029,0,0,0,.943-4.267,4.03,4.03,0,0,0,2.351-3.685V12a4.017,4.017,0,0,0-2.351-3.685m-.6,4.746a1.016,1.016,0,0,1-.943,1.069H19.809a7.533,7.533,0,0,1-1,2.417l.958.958a1.009,1.009,0,0,1-.088,1.422l-.752.752a1.1,1.1,0,0,1-.789.339.884.884,0,0,1-.634-.251l-.958-.965a7.37,7.37,0,0,1-2.417,1.01v1.356a1.016,1.016,0,0,1-1.069.943H12a1.015,1.015,0,0,1-1.069-.943V19.809A7.37,7.37,0,0,1,8.512,18.8l-.958.965a.884.884,0,0,1-.634.251,1.1,1.1,0,0,1-.789-.339l-.752-.752A1.009,1.009,0,0,1,5.291,17.5l.965-.958a7.37,7.37,0,0,1-1.01-2.417H3.891a1.011,1.011,0,0,1-.943-1.069V12a1.011,1.011,0,0,1,.943-1.069H5.247a7.37,7.37,0,0,1,1.01-2.417l-.965-.958A1.009,1.009,0,0,1,5.38,6.131l.752-.752a1.1,1.1,0,0,1,.789-.339.884.884,0,0,1,.634.251l.958.965a7.211,7.211,0,0,1,2.417-1V3.891A1.011,1.011,0,0,1,12,2.948h1.061a1.011,1.011,0,0,1,1.069.943V5.254a7.211,7.211,0,0,1,2.417,1l.958-.965a.884.884,0,0,1,.634-.251,1.1,1.1,0,0,1,.789.339l.752.752a1.009,1.009,0,0,1,.088,1.422l-.958.958a7.533,7.533,0,0,1,1,2.417h1.356A1.016,1.016,0,0,1,22.109,12Z" transform="translate(0 -0.669)"/>
            <path id="Path_1285661" data-name="Path 1285661" d="M23.16,13.049V14.11a1.016,1.016,0,0,1-.943,1.069H20.861a7.533,7.533,0,0,1-1,2.417l.958.958a1.009,1.009,0,0,1-.088,1.422l-.752.752a1.1,1.1,0,0,1-.789.339.884.884,0,0,1-.634-.251l-.958-.965a7.37,7.37,0,0,1-2.417,1.01v1.356a1.016,1.016,0,0,1-1.069.943H13.049a1.015,1.015,0,0,1-1.069-.943V20.861a7.37,7.37,0,0,1-2.417-1.01l-.958.965a.884.884,0,0,1-.634.251,1.1,1.1,0,0,1-.789-.339l-.752-.752a1.009,1.009,0,0,1-.088-1.422l.965-.958A7.37,7.37,0,0,1,6.3,15.179H4.943A1.011,1.011,0,0,1,4,14.11V13.049a1.011,1.011,0,0,1,.943-1.069H6.3a7.37,7.37,0,0,1,1.01-2.417l-.965-.958a1.009,1.009,0,0,1,.088-1.422l.752-.752a1.1,1.1,0,0,1,.789-.339.884.884,0,0,1,.634.251l.958.965a7.211,7.211,0,0,1,2.417-1V4.943A1.011,1.011,0,0,1,13.049,4H14.11a1.011,1.011,0,0,1,1.069.943V6.306a7.211,7.211,0,0,1,2.417,1l.958-.965a.884.884,0,0,1,.634-.251,1.1,1.1,0,0,1,.789.339l.752.752a1.009,1.009,0,0,1,.088,1.422l-.958.958a7.533,7.533,0,0,1,1,2.417h1.356a1.016,1.016,0,0,1,.943,1.069" transform="translate(-1.052 -1.721)" fill="#94e1e4"/>
            <path id="Path_1285662" data-name="Path 1285662" d="M15.159,10a5.155,5.155,0,1,0,.007,0Zm0,7.37a2.211,2.211,0,1,1,2.211-2.211,2.211,2.211,0,0,1-2.211,2.211" transform="translate(-2.63 -3.299)"/>
            <path id="Path_1285663" data-name="Path 1285663" d="M16.211,14A2.211,2.211,0,1,1,14,16.211,2.211,2.211,0,0,1,16.211,14" transform="translate(-3.683 -4.352)" fill="#fff"/>
            <path id="Path_1285664" data-name="Path 1285664" d="M109.159,10a5.155,5.155,0,1,0,.007,0Zm0,7.37a2.211,2.211,0,1,1,2.211-2.211,2.211,2.211,0,0,1-2.211,2.211" transform="translate(-27.356 -3.299)"/>
            <path id="Path_1285665" data-name="Path 1285665" d="M110.211,14A2.211,2.211,0,1,1,108,16.211,2.211,2.211,0,0,1,110.211,14" transform="translate(-28.408 -4.352)" fill="#fff"/>
            <path id="Path_1285666" data-name="Path 1285666" d="M119.918,59.836a3.072,3.072,0,0,0-2.677.105V45.474a1.474,1.474,0,0,0-2.948,0V63.2a1.473,1.473,0,0,0,2.481,1.076l1.845-1.726a.112.112,0,0,1,.122-.01l.019,2.192-5.288,5.546a.948.948,0,0,1-1.254,0L106.948,64.8V62.54a.112.112,0,0,1,.122.01l1.845,1.726A1.474,1.474,0,0,0,111.4,63.2V45.474a1.474,1.474,0,1,0-2.948,0V59.941a3.077,3.077,0,0,0-2.677-.105A2.864,2.864,0,0,0,104,62.483V64.8a2.84,2.84,0,0,0,.8,1.968l5.289,5.548a3.848,3.848,0,0,0,5.442.077l.077-.077,5.288-5.546a2.84,2.84,0,0,0,.8-1.969V62.483a2.862,2.862,0,0,0-1.769-2.647" transform="translate(-27.356 -12.243)"/>
            <path id="Path_1285667" data-name="Path 1285667" d="M1.769,57.643a3.077,3.077,0,0,0,2.677-.105V72a1.474,1.474,0,1,0,2.948,0V54.278A1.473,1.473,0,0,0,4.914,53.2L3.069,54.928a.113.113,0,0,1-.121.01l-.019-2.192L8.216,47.2a.949.949,0,0,1,1.254,0l5.269,5.481v2.257a.114.114,0,0,1-.122-.01L12.773,53.2a1.474,1.474,0,0,0-2.481,1.076V72a1.474,1.474,0,1,0,2.948,0V57.537a3.082,3.082,0,0,0,2.677.105A2.864,2.864,0,0,0,17.687,55V52.681a2.84,2.84,0,0,0-.8-1.968L11.6,45.166a3.849,3.849,0,0,0-5.442-.077l-.077.077L.8,50.712A2.837,2.837,0,0,0,0,52.681V55a2.864,2.864,0,0,0,1.769,2.647" transform="translate(0 -12.243)"/>
            <path id="Path_1285668" data-name="Path 1285668" d="M56.642,105.769A2.862,2.862,0,0,0,53.995,104H51.681a2.844,2.844,0,0,0-1.968.794l-5.546,5.288a3.849,3.849,0,0,0-.079,5.442l.079.079,5.547,5.289a2.847,2.847,0,0,0,1.967.794h2.314a2.864,2.864,0,0,0,2.647-1.77,3.079,3.079,0,0,0-.1-2.677H71a1.474,1.474,0,1,0,0-2.948H53.278a1.475,1.475,0,0,0-1.076,2.482l1.727,1.843a.113.113,0,0,1,.01.123l-2.191.019-5.546-5.29a.9.9,0,0,1,0-1.253l5.48-5.269h2.258a.114.114,0,0,1-.01.122L52.2,108.913a1.474,1.474,0,0,0,1.076,2.481H71a1.474,1.474,0,0,0,0-2.948H56.538a3.079,3.079,0,0,0,.1-2.677" transform="translate(-11.311 -28.025)"/>
            <path id="Path_1285669" data-name="Path 1285669" d="M63.277,12.774A1.474,1.474,0,0,0,62.2,10.292H44.474a1.474,1.474,0,1,0,0,2.948H58.94a3.079,3.079,0,0,0-.1,2.677,2.865,2.865,0,0,0,2.647,1.769H63.8a2.846,2.846,0,0,0,1.968-.794L71.312,11.6a3.848,3.848,0,0,0,.079-5.442c-.026-.027-.052-.053-.079-.079L65.765.794A2.846,2.846,0,0,0,63.8,0H61.484a2.865,2.865,0,0,0-2.647,1.769,3.079,3.079,0,0,0,.1,2.677H44.474a1.474,1.474,0,0,0,0,2.948H62.2a1.474,1.474,0,0,0,1.076-2.481L61.55,3.07a.113.113,0,0,1-.01-.123l2.191-.019,5.546,5.289a.9.9,0,0,1,0,1.254L63.8,14.739H61.54a.112.112,0,0,1,.01-.122Z" transform="translate(-11.311 -0.669)"/>
            <path id="Path_1285670" data-name="Path 1285670" d="M74.27,33H37.422A4.425,4.425,0,0,0,33,37.422v28a4.425,4.425,0,0,0,4.422,4.422H49.456v5.159h-5.4a1.474,1.474,0,0,0,0,2.948H67.637a1.474,1.474,0,0,0,0-2.948h-5.4V69.848H74.27a4.425,4.425,0,0,0,4.422-4.422v-28A4.425,4.425,0,0,0,74.27,33M59.287,75.007H52.4V70.091h6.883Zm16.456-9.58A1.478,1.478,0,0,1,74.27,66.9H37.422a1.478,1.478,0,0,1-1.474-1.474v-28a1.478,1.478,0,0,1,1.474-1.474H74.27a1.478,1.478,0,0,1,1.474,1.474Z" transform="translate(-8.68 -9.349)"/>
            <path id="Path_1285671" data-name="Path 1285671" d="M38.474,37H75.322A1.474,1.474,0,0,1,76.8,38.474v28a1.474,1.474,0,0,1-1.474,1.474H38.474A1.474,1.474,0,0,1,37,66.478v-28A1.474,1.474,0,0,1,38.474,37" transform="translate(-9.732 -10.401)" fill="#e1ebf4"/>
            <path id="Path_1285672" data-name="Path 1285672" d="M69.706,49.313a4.029,4.029,0,0,0-.943-4.267l-.752-.752a4.067,4.067,0,0,0-2.874-1.2,3.832,3.832,0,0,0-1.393.258A4.017,4.017,0,0,0,60.059,41H59a4.017,4.017,0,0,0-3.685,2.351,3.832,3.832,0,0,0-1.393-.258,4.093,4.093,0,0,0-2.874,1.2l-.752.752A4.038,4.038,0,0,0,49.1,47.684a3.792,3.792,0,0,0,.251,1.629A4.017,4.017,0,0,0,47,53v1.061a4.017,4.017,0,0,0,2.351,3.685,3.792,3.792,0,0,0-.251,1.629,4.072,4.072,0,0,0,1.194,2.646l.752.744a4.093,4.093,0,0,0,2.874,1.2,4,4,0,0,0,1.393-.251A4.023,4.023,0,0,0,59,66.057h1.061a4.017,4.017,0,0,0,3.685-2.351,3.832,3.832,0,0,0,1.393.258,4.093,4.093,0,0,0,2.874-1.2l.752-.752a4.029,4.029,0,0,0,.943-4.267,4.03,4.03,0,0,0,2.351-3.685V53a4.017,4.017,0,0,0-2.351-3.685m-.6,4.746a1.016,1.016,0,0,1-.943,1.069H66.809a7.533,7.533,0,0,1-1,2.417l.958.958a1.009,1.009,0,0,1-.088,1.422l-.752.752a1.1,1.1,0,0,1-.789.339.884.884,0,0,1-.634-.251l-.958-.965a7.37,7.37,0,0,1-2.417,1.01v1.356a1.016,1.016,0,0,1-1.069.943H59a1.015,1.015,0,0,1-1.069-.943V60.809a7.37,7.37,0,0,1-2.417-1.01l-.958.965a.883.883,0,0,1-.634.251,1.1,1.1,0,0,1-.789-.339l-.752-.752a1.009,1.009,0,0,1-.088-1.422l.965-.958a7.37,7.37,0,0,1-1.01-2.417H50.891a1.011,1.011,0,0,1-.943-1.069V53a1.011,1.011,0,0,1,.943-1.069h1.356a7.37,7.37,0,0,1,1.01-2.417l-.965-.958a1.009,1.009,0,0,1,.088-1.422l.752-.752a1.1,1.1,0,0,1,.789-.339.884.884,0,0,1,.634.251l.958.965a7.211,7.211,0,0,1,2.417-1V44.891A1.011,1.011,0,0,1,59,43.948h1.061a1.011,1.011,0,0,1,1.069.943v1.363a7.211,7.211,0,0,1,2.417,1l.958-.965a.884.884,0,0,1,.634-.251,1.1,1.1,0,0,1,.789.339l.752.752a1.009,1.009,0,0,1,.088,1.422l-.958.958a7.533,7.533,0,0,1,1,2.417h1.356A1.016,1.016,0,0,1,69.109,53Z" transform="translate(-12.363 -11.454)"/>
            <path id="Path_1285673" data-name="Path 1285673" d="M70.16,54.049V55.11a1.016,1.016,0,0,1-.943,1.069H67.861a7.532,7.532,0,0,1-1,2.417l.958.958a1.009,1.009,0,0,1-.088,1.422l-.752.752a1.1,1.1,0,0,1-.789.339.884.884,0,0,1-.634-.251l-.958-.965a7.37,7.37,0,0,1-2.417,1.01v1.356a1.016,1.016,0,0,1-1.069.943H60.049a1.015,1.015,0,0,1-1.069-.943V61.861a7.37,7.37,0,0,1-2.417-1.01l-.958.965a.884.884,0,0,1-.634.251,1.1,1.1,0,0,1-.789-.339l-.752-.752a1.009,1.009,0,0,1-.088-1.422l.965-.958a7.37,7.37,0,0,1-1.01-2.417H51.943A1.011,1.011,0,0,1,51,55.11V54.049a1.011,1.011,0,0,1,.943-1.069H53.3a7.37,7.37,0,0,1,1.01-2.417l-.965-.958a1.009,1.009,0,0,1,.088-1.422l.752-.752a1.1,1.1,0,0,1,.789-.339.884.884,0,0,1,.634.251l.958.965a7.211,7.211,0,0,1,2.417-1V45.943A1.011,1.011,0,0,1,60.049,45H61.11a1.011,1.011,0,0,1,1.069.943v1.363a7.211,7.211,0,0,1,2.417,1l.958-.965a.884.884,0,0,1,.634-.251,1.1,1.1,0,0,1,.789.339l.752.752a1.009,1.009,0,0,1,.088,1.422l-.958.958a7.533,7.533,0,0,1,1,2.417h1.356a1.016,1.016,0,0,1,.943,1.069" transform="translate(-13.414 -12.505)" fill="#94e1e4"/>
            <path id="Path_1285674" data-name="Path 1285674" d="M62.159,51a5.155,5.155,0,1,0,.007,0Zm0,7.37a2.211,2.211,0,1,1,2.211-2.211,2.211,2.211,0,0,1-2.211,2.211" transform="translate(-14.993 -14.084)"/>
            <path id="Path_1285675" data-name="Path 1285675" d="M63.211,55A2.211,2.211,0,1,1,61,57.211,2.211,2.211,0,0,1,63.211,55" transform="translate(-16.045 -15.136)" fill="#fff"/>
            <g id="Group_1222760" data-name="Group 1222760" transform="translate(26.761 26.76)" opacity="0.5" style="isolation: isolate">
              <g id="Group_1222759" data-name="Group 1222759" transform="translate(0 0)">
                <g id="Group_1222758" data-name="Group 1222758" clip-path="url(#clip-path-3)">
                  <path id="Path_1285676" data-name="Path 1285676" d="M76.8,38.474v1.474a1.478,1.478,0,0,0-1.474-1.474H38.474A1.478,1.478,0,0,0,37,39.948V38.474A1.478,1.478,0,0,1,38.474,37H75.322A1.478,1.478,0,0,1,76.8,38.474" transform="translate(-36.493 -37.162)" fill="#fff"/>
                </g>
              </g>
            </g>
            <g id="Group_1222763" data-name="Group 1222763" transform="translate(26.761 54.859)" opacity="0.5" style="isolation: isolate">
              <g id="Group_1222762" data-name="Group 1222762" transform="translate(0 0)">
                <g id="Group_1222761" data-name="Group 1222761" clip-path="url(#clip-path-4)">
                  <path id="Path_1285677" data-name="Path 1285677" d="M76.8,75v1.474a1.478,1.478,0,0,1-1.474,1.474H38.474A1.478,1.478,0,0,1,37,76.474V75a1.478,1.478,0,0,0,1.474,1.474H75.322A1.478,1.478,0,0,0,76.8,75" transform="translate(-36.493 -75.256)" fill="#9fa5aa"/>
                </g>
              </g>
            </g>
            <g id="Group_1222766" data-name="Group 1222766" transform="translate(53.444 41.345)" opacity="0.3" style="isolation: isolate">
              <g id="Group_1222765" data-name="Group 1222765">
                <g id="Group_1222764" data-name="Group 1222764" clip-path="url(#clip-path-5)">
                  <path id="Path_1285678" data-name="Path 1285678" d="M75.822,57.209V58.27a1.015,1.015,0,0,1-.943,1.069H73.522a7.07,7.07,0,0,1-.486,1.459l-.516-.516a7.533,7.533,0,0,0,1-2.417h1.356a.986.986,0,0,0,.921-.855.9.9,0,0,1,.022.2" transform="translate(-72.52 -57.01)"/>
                </g>
              </g>
            </g>
            <g id="Group_1222769" data-name="Group 1222769" transform="translate(37.583 41.345)" opacity="0.3" style="isolation: isolate">
              <g id="Group_1222768" data-name="Group 1222768">
                <g id="Group_1222767" data-name="Group 1222767" clip-path="url(#clip-path-6)">
                  <path id="Path_1285679" data-name="Path 1285679" d="M54.308,60.282l-.516.516a6.665,6.665,0,0,1-.494-1.459H51.943A1.011,1.011,0,0,1,51,58.27V57.209a.9.9,0,0,1,.022-.2.973.973,0,0,0,.921.855H53.3a7.37,7.37,0,0,0,1.01,2.417" transform="translate(-50.998 -57.01)"/>
                </g>
              </g>
            </g>
            <g id="Group_1222772" data-name="Group 1222772" transform="translate(39.677 32.492)" opacity="0.3" style="isolation: isolate">
              <g id="Group_1222771" data-name="Group 1222771">
                <g id="Group_1222770" data-name="Group 1222770" clip-path="url(#clip-path-7)">
                  <path id="Path_1285680" data-name="Path 1285680" d="M68.564,49.605l-.074.074c0-.007-.007-.015-.015-.022l-.752-.752a1.1,1.1,0,0,0-.789-.339.884.884,0,0,0-.634.251l-.958.965a7.211,7.211,0,0,0-2.417-1V47.417a1.011,1.011,0,0,0-1.069-.943H60.8a1.011,1.011,0,0,0-1.069.943V48.78a7.211,7.211,0,0,0-2.417,1l-.958-.965a.884.884,0,0,0-.634-.251,1.1,1.1,0,0,0-.789.339l-.752.752c-.007.007-.015.015-.015.022l-.074-.074a1.009,1.009,0,0,1,.088-1.422l.752-.752a1.1,1.1,0,0,1,.789-.339.884.884,0,0,1,.634.251l.958.965a7.211,7.211,0,0,1,2.417-1V45.943A1.011,1.011,0,0,1,60.8,45h1.061a1.011,1.011,0,0,1,1.069.943v1.363a7.211,7.211,0,0,1,2.417,1l.958-.965a.884.884,0,0,1,.634-.251,1.1,1.1,0,0,1,.789.339l.752.752a1.009,1.009,0,0,1,.088,1.422" transform="translate(-53.838 -44.997)" fill="#f5ffff"/>
                </g>
              </g>
            </g>
            <g id="Group_1222775" data-name="Group 1222775" transform="translate(39.677 46.872)" opacity="0.3" style="isolation: isolate">
              <g id="Group_1222774" data-name="Group 1222774">
                <g id="Group_1222773" data-name="Group 1222773" clip-path="url(#clip-path-8)">
                  <path id="Path_1285681" data-name="Path 1285681" d="M68.476,66.109l-.752.752a1.1,1.1,0,0,1-.789.339.884.884,0,0,1-.634-.251l-.958-.965a7.37,7.37,0,0,1-2.417,1.01V68.35a1.016,1.016,0,0,1-1.069.943H60.8a1.016,1.016,0,0,1-1.069-.943V66.994a7.37,7.37,0,0,1-2.417-1.01l-.958.965a.884.884,0,0,1-.634.251,1.1,1.1,0,0,1-.789-.339l-.752-.752a1.009,1.009,0,0,1-.088-1.422l.074-.074c0,.007.007.015.015.022l.752.752a1.1,1.1,0,0,0,.789.339.884.884,0,0,0,.634-.251l.958-.965a7.37,7.37,0,0,0,2.417,1.01v1.356a1.016,1.016,0,0,0,1.069.943h1.061a1.016,1.016,0,0,0,1.069-.943V65.52a7.37,7.37,0,0,0,2.417-1.01l.958.965a.884.884,0,0,0,.634.251,1.1,1.1,0,0,0,.789-.339l.752-.752c.007-.007.015-.015.015-.022l.074.074a1.009,1.009,0,0,1-.088,1.422" transform="translate(-53.838 -64.51)"/>
                </g>
              </g>
            </g>
            <g id="Group_1222778" data-name="Group 1222778" transform="translate(88.082 11.13)" opacity="0.3" style="isolation: isolate">
              <g id="Group_1222777" data-name="Group 1222777">
                <g id="Group_1222776" data-name="Group 1222776" clip-path="url(#clip-path-5)">
                  <path id="Path_1285682" data-name="Path 1285682" d="M122.822,16.209V17.27a1.015,1.015,0,0,1-.943,1.069h-1.356a7.07,7.07,0,0,1-.486,1.459l-.516-.516a7.533,7.533,0,0,0,1-2.417h1.356a.986.986,0,0,0,.921-.855.9.9,0,0,1,.022.2" transform="translate(-119.52 -16.01)"/>
                </g>
              </g>
            </g>
            <g id="Group_1222781" data-name="Group 1222781" transform="translate(72.22 11.13)" opacity="0.3" style="isolation: isolate">
              <g id="Group_1222780" data-name="Group 1222780">
                <g id="Group_1222779" data-name="Group 1222779" clip-path="url(#clip-path-6)">
                  <path id="Path_1285683" data-name="Path 1285683" d="M101.308,19.282l-.516.516a6.664,6.664,0,0,1-.494-1.459H98.943A1.011,1.011,0,0,1,98,17.27V16.209a.9.9,0,0,1,.022-.2.973.973,0,0,0,.921.855H100.3a7.37,7.37,0,0,0,1.01,2.417" transform="translate(-97.998 -16.01)"/>
                </g>
              </g>
            </g>
            <g id="Group_1222784" data-name="Group 1222784" transform="translate(74.314 2.277)" opacity="0.3" style="isolation: isolate">
              <g id="Group_1222783" data-name="Group 1222783">
                <g id="Group_1222782" data-name="Group 1222782" clip-path="url(#clip-path-7)">
                  <path id="Path_1285684" data-name="Path 1285684" d="M115.564,8.605l-.074.074c0-.007-.007-.015-.015-.022l-.752-.752a1.1,1.1,0,0,0-.789-.339.884.884,0,0,0-.634.251l-.958.965a7.211,7.211,0,0,0-2.417-1V6.417a1.011,1.011,0,0,0-1.069-.943H107.8a1.011,1.011,0,0,0-1.069.943V7.78a7.211,7.211,0,0,0-2.417,1l-.958-.965a.884.884,0,0,0-.634-.251,1.1,1.1,0,0,0-.789.339l-.752.752c-.007.007-.015.015-.015.022l-.074-.074a1.009,1.009,0,0,1,.088-1.422l.752-.752a1.1,1.1,0,0,1,.789-.339.884.884,0,0,1,.634.251l.958.965a7.211,7.211,0,0,1,2.417-1V4.943A1.011,1.011,0,0,1,107.8,4h1.061a1.011,1.011,0,0,1,1.069.943V6.306a7.211,7.211,0,0,1,2.417,1l.958-.965a.884.884,0,0,1,.634-.251,1.1,1.1,0,0,1,.789.339l.752.752a1.009,1.009,0,0,1,.088,1.422" transform="translate(-100.838 -3.997)" fill="#f5ffff"/>
                </g>
              </g>
            </g>
            <g id="Group_1222787" data-name="Group 1222787" transform="translate(74.314 16.657)" opacity="0.3" style="isolation: isolate">
              <g id="Group_1222786" data-name="Group 1222786">
                <g id="Group_1222785" data-name="Group 1222785" clip-path="url(#clip-path-8)">
                  <path id="Path_1285685" data-name="Path 1285685" d="M115.476,25.109l-.752.752a1.1,1.1,0,0,1-.789.339.883.883,0,0,1-.634-.251l-.958-.965a7.37,7.37,0,0,1-2.417,1.01V27.35a1.016,1.016,0,0,1-1.069.943H107.8a1.016,1.016,0,0,1-1.069-.943V25.994a7.37,7.37,0,0,1-2.417-1.01l-.958.965a.884.884,0,0,1-.634.251,1.1,1.1,0,0,1-.789-.339l-.752-.752a1.009,1.009,0,0,1-.088-1.422l.074-.074c0,.007.007.015.015.022l.752.752a1.1,1.1,0,0,0,.789.339.884.884,0,0,0,.634-.251l.958-.965a7.37,7.37,0,0,0,2.417,1.01v1.356a1.016,1.016,0,0,0,1.069.943h1.061a1.016,1.016,0,0,0,1.069-.943V24.52a7.37,7.37,0,0,0,2.417-1.01l.958.965a.883.883,0,0,0,.634.251,1.1,1.1,0,0,0,.789-.339l.752-.752c.007-.007.015-.015.015-.022l.074.074a1.009,1.009,0,0,1-.088,1.422" transform="translate(-100.838 -23.51)"/>
                </g>
              </g>
            </g>
            <g id="Group_1222790" data-name="Group 1222790" transform="translate(88.082 80.404)" opacity="0.3" style="isolation: isolate">
              <g id="Group_1222789" data-name="Group 1222789">
                <g id="Group_1222788" data-name="Group 1222788" clip-path="url(#clip-path-5)">
                  <path id="Path_1285686" data-name="Path 1285686" d="M122.822,110.209v1.061a1.015,1.015,0,0,1-.943,1.069h-1.356a7.07,7.07,0,0,1-.486,1.459l-.516-.516a7.533,7.533,0,0,0,1-2.417h1.356a.986.986,0,0,0,.921-.855.9.9,0,0,1,.022.2" transform="translate(-119.52 -110.01)"/>
                </g>
              </g>
            </g>
            <g id="Group_1222793" data-name="Group 1222793" transform="translate(72.22 80.404)" opacity="0.3" style="isolation: isolate">
              <g id="Group_1222792" data-name="Group 1222792">
                <g id="Group_1222791" data-name="Group 1222791" clip-path="url(#clip-path-6)">
                  <path id="Path_1285687" data-name="Path 1285687" d="M101.308,113.282l-.516.516a6.664,6.664,0,0,1-.494-1.459H98.943A1.011,1.011,0,0,1,98,111.27v-1.061a.9.9,0,0,1,.022-.2.973.973,0,0,0,.921.855H100.3a7.37,7.37,0,0,0,1.01,2.417" transform="translate(-97.998 -110.01)"/>
                </g>
              </g>
            </g>
            <g id="Group_1222796" data-name="Group 1222796" transform="translate(74.314 71.551)" opacity="0.3" style="isolation: isolate">
              <g id="Group_1222795" data-name="Group 1222795">
                <g id="Group_1222794" data-name="Group 1222794" clip-path="url(#clip-path-7)">
                  <path id="Path_1285688" data-name="Path 1285688" d="M115.564,102.605l-.074.074c0-.007-.007-.015-.015-.022l-.752-.752a1.1,1.1,0,0,0-.789-.339.884.884,0,0,0-.634.251l-.958.965a7.211,7.211,0,0,0-2.417-1v-1.363a1.011,1.011,0,0,0-1.069-.943H107.8a1.011,1.011,0,0,0-1.069.943v1.363a7.211,7.211,0,0,0-2.417,1l-.958-.965a.884.884,0,0,0-.634-.251,1.1,1.1,0,0,0-.789.339l-.752.752c-.007.007-.015.015-.015.022l-.074-.074a1.009,1.009,0,0,1,.088-1.422l.752-.752a1.1,1.1,0,0,1,.789-.339.884.884,0,0,1,.634.251l.958.965a7.211,7.211,0,0,1,2.417-1V98.943A1.011,1.011,0,0,1,107.8,98h1.061a1.011,1.011,0,0,1,1.069.943v1.363a7.211,7.211,0,0,1,2.417,1l.958-.965a.884.884,0,0,1,.634-.251,1.1,1.1,0,0,1,.789.339l.752.752a1.009,1.009,0,0,1,.088,1.422" transform="translate(-100.838 -97.997)" fill="#f5ffff"/>
                </g>
              </g>
            </g>
            <g id="Group_1222799" data-name="Group 1222799" transform="translate(74.314 85.931)" opacity="0.3" style="isolation: isolate">
              <g id="Group_1222798" data-name="Group 1222798">
                <g id="Group_1222797" data-name="Group 1222797" clip-path="url(#clip-path-8)">
                  <path id="Path_1285689" data-name="Path 1285689" d="M115.476,119.109l-.752.752a1.1,1.1,0,0,1-.789.339.884.884,0,0,1-.634-.251l-.958-.965a7.37,7.37,0,0,1-2.417,1.01v1.356a1.016,1.016,0,0,1-1.069.943H107.8a1.016,1.016,0,0,1-1.069-.943v-1.356a7.37,7.37,0,0,1-2.417-1.01l-.958.965a.884.884,0,0,1-.634.251,1.1,1.1,0,0,1-.789-.339l-.752-.752a1.009,1.009,0,0,1-.088-1.422l.074-.074c0,.007.007.015.015.022l.752.752a1.1,1.1,0,0,0,.789.339.884.884,0,0,0,.634-.251l.958-.965a7.37,7.37,0,0,0,2.417,1.01v1.356a1.016,1.016,0,0,0,1.069.943h1.061a1.016,1.016,0,0,0,1.069-.943V118.52a7.37,7.37,0,0,0,2.417-1.01l.958.965a.884.884,0,0,0,.634.251,1.1,1.1,0,0,0,.789-.339l.752-.752c.007-.007.015-.015.015-.022l.074.074a1.009,1.009,0,0,1-.088,1.422" transform="translate(-100.838 -117.51)"/>
                </g>
              </g>
            </g>
            <g id="Group_1222802" data-name="Group 1222802" transform="translate(18.807 11.13)" opacity="0.3" style="isolation: isolate">
              <g id="Group_1222801" data-name="Group 1222801">
                <g id="Group_1222800" data-name="Group 1222800" clip-path="url(#clip-path-5)">
                  <path id="Path_1285690" data-name="Path 1285690" d="M28.822,16.209V17.27a1.015,1.015,0,0,1-.943,1.069H26.522a7.071,7.071,0,0,1-.486,1.459l-.516-.516a7.533,7.533,0,0,0,1-2.417h1.356a.986.986,0,0,0,.921-.855.9.9,0,0,1,.022.2" transform="translate(-25.52 -16.01)"/>
                </g>
              </g>
            </g>
            <g id="Group_1222805" data-name="Group 1222805" transform="translate(2.946 11.13)" opacity="0.3" style="isolation: isolate">
              <g id="Group_1222804" data-name="Group 1222804">
                <g id="Group_1222803" data-name="Group 1222803" clip-path="url(#clip-path-6)">
                  <path id="Path_1285691" data-name="Path 1285691" d="M7.308,19.282l-.516.516A6.664,6.664,0,0,1,6.3,18.339H4.943A1.011,1.011,0,0,1,4,17.27V16.209a.9.9,0,0,1,.022-.2.973.973,0,0,0,.921.855H6.3a7.37,7.37,0,0,0,1.01,2.417" transform="translate(-3.998 -16.01)"/>
                </g>
              </g>
            </g>
            <g id="Group_1222808" data-name="Group 1222808" transform="translate(5.04 2.277)" opacity="0.3" style="isolation: isolate">
              <g id="Group_1222807" data-name="Group 1222807">
                <g id="Group_1222806" data-name="Group 1222806" clip-path="url(#clip-path-7)">
                  <path id="Path_1285692" data-name="Path 1285692" d="M21.564,8.605l-.074.074c0-.007-.007-.015-.015-.022l-.752-.752a1.1,1.1,0,0,0-.789-.339.884.884,0,0,0-.634.251l-.958.965a7.212,7.212,0,0,0-2.417-1V6.417a1.011,1.011,0,0,0-1.069-.943H13.8a1.011,1.011,0,0,0-1.069.943V7.78a7.211,7.211,0,0,0-2.417,1l-.958-.965a.884.884,0,0,0-.634-.251,1.1,1.1,0,0,0-.789.339l-.752.752c-.007.007-.015.015-.015.022L7.09,8.605a1.009,1.009,0,0,1,.088-1.422l.752-.752a1.1,1.1,0,0,1,.789-.339.884.884,0,0,1,.634.251l.958.965a7.211,7.211,0,0,1,2.417-1V4.943A1.011,1.011,0,0,1,13.8,4h1.061a1.011,1.011,0,0,1,1.069.943V6.306a7.212,7.212,0,0,1,2.417,1l.958-.965a.884.884,0,0,1,.634-.251,1.1,1.1,0,0,1,.789.339l.752.752a1.009,1.009,0,0,1,.088,1.422" transform="translate(-6.838 -3.997)" fill="#f5ffff"/>
                </g>
              </g>
            </g>
            <g id="Group_1222811" data-name="Group 1222811" transform="translate(5.04 16.657)" opacity="0.3" style="isolation: isolate">
              <g id="Group_1222810" data-name="Group 1222810">
                <g id="Group_1222809" data-name="Group 1222809" clip-path="url(#clip-path-8)">
                  <path id="Path_1285693" data-name="Path 1285693" d="M21.476,25.109l-.752.752a1.1,1.1,0,0,1-.789.339.884.884,0,0,1-.634-.251l-.958-.965a7.37,7.37,0,0,1-2.417,1.01V27.35a1.016,1.016,0,0,1-1.069.943H13.8a1.016,1.016,0,0,1-1.069-.943V25.994a7.37,7.37,0,0,1-2.417-1.01l-.958.965a.884.884,0,0,1-.634.251,1.1,1.1,0,0,1-.789-.339l-.752-.752a1.009,1.009,0,0,1-.088-1.422l.074-.074c0,.007.007.015.015.022l.752.752a1.1,1.1,0,0,0,.789.339.883.883,0,0,0,.634-.251l.958-.965a7.37,7.37,0,0,0,2.417,1.01v1.356a1.016,1.016,0,0,0,1.069.943h1.061a1.016,1.016,0,0,0,1.069-.943V24.52a7.37,7.37,0,0,0,2.417-1.01l.958.965a.883.883,0,0,0,.634.251,1.1,1.1,0,0,0,.789-.339l.752-.752c.007-.007.015-.015.015-.022l.074.074a1.009,1.009,0,0,1-.088,1.422" transform="translate(-6.838 -23.51)"/>
                </g>
              </g>
            </g>
            <g id="Group_1222814" data-name="Group 1222814" transform="translate(18.807 80.404)" opacity="0.3" style="isolation: isolate">
              <g id="Group_1222813" data-name="Group 1222813">
                <g id="Group_1222812" data-name="Group 1222812" clip-path="url(#clip-path-5)">
                  <path id="Path_1285694" data-name="Path 1285694" d="M28.822,110.209v1.061a1.015,1.015,0,0,1-.943,1.069H26.522a7.071,7.071,0,0,1-.486,1.459l-.516-.516a7.533,7.533,0,0,0,1-2.417h1.356a.986.986,0,0,0,.921-.855.9.9,0,0,1,.022.2" transform="translate(-25.52 -110.01)"/>
                </g>
              </g>
            </g>
            <g id="Group_1222817" data-name="Group 1222817" transform="translate(2.946 80.404)" opacity="0.3" style="isolation: isolate">
              <g id="Group_1222816" data-name="Group 1222816">
                <g id="Group_1222815" data-name="Group 1222815" clip-path="url(#clip-path-6)">
                  <path id="Path_1285695" data-name="Path 1285695" d="M7.308,113.282l-.516.516a6.665,6.665,0,0,1-.494-1.459H4.943A1.011,1.011,0,0,1,4,111.27v-1.061a.9.9,0,0,1,.022-.2.973.973,0,0,0,.921.855H6.3a7.37,7.37,0,0,0,1.01,2.417" transform="translate(-3.998 -110.01)"/>
                </g>
              </g>
            </g>
            <g id="Group_1222820" data-name="Group 1222820" transform="translate(5.04 71.551)" opacity="0.3" style="isolation: isolate">
              <g id="Group_1222819" data-name="Group 1222819">
                <g id="Group_1222818" data-name="Group 1222818" clip-path="url(#clip-path-7)">
                  <path id="Path_1285696" data-name="Path 1285696" d="M21.564,102.605l-.074.074c0-.007-.007-.015-.015-.022l-.752-.752a1.1,1.1,0,0,0-.789-.339.884.884,0,0,0-.634.251l-.958.965a7.211,7.211,0,0,0-2.417-1v-1.363a1.011,1.011,0,0,0-1.069-.943H13.8a1.011,1.011,0,0,0-1.069.943v1.363a7.211,7.211,0,0,0-2.417,1l-.958-.965a.884.884,0,0,0-.634-.251,1.1,1.1,0,0,0-.789.339l-.752.752c-.007.007-.015.015-.015.022l-.074-.074a1.009,1.009,0,0,1,.088-1.422l.752-.752a1.1,1.1,0,0,1,.789-.339.884.884,0,0,1,.634.251l.958.965a7.211,7.211,0,0,1,2.417-1V98.943A1.011,1.011,0,0,1,13.8,98h1.061a1.011,1.011,0,0,1,1.069.943v1.363a7.211,7.211,0,0,1,2.417,1l.958-.965a.884.884,0,0,1,.634-.251,1.1,1.1,0,0,1,.789.339l.752.752a1.009,1.009,0,0,1,.088,1.422" transform="translate(-6.838 -97.997)" fill="#f5ffff"/>
                </g>
              </g>
            </g>
            <g id="Group_1222823" data-name="Group 1222823" transform="translate(5.04 85.931)" opacity="0.3" style="isolation: isolate">
              <g id="Group_1222822" data-name="Group 1222822">
                <g id="Group_1222821" data-name="Group 1222821" clip-path="url(#clip-path-8)">
                  <path id="Path_1285697" data-name="Path 1285697" d="M21.476,119.109l-.752.752a1.1,1.1,0,0,1-.789.339.884.884,0,0,1-.634-.251l-.958-.965a7.37,7.37,0,0,1-2.417,1.01v1.356a1.016,1.016,0,0,1-1.069.943H13.8a1.016,1.016,0,0,1-1.069-.943v-1.356a7.37,7.37,0,0,1-2.417-1.01l-.958.965a.884.884,0,0,1-.634.251,1.1,1.1,0,0,1-.789-.339l-.752-.752a1.009,1.009,0,0,1-.088-1.422l.074-.074c0,.007.007.015.015.022l.752.752a1.1,1.1,0,0,0,.789.339.884.884,0,0,0,.634-.251l.958-.965a7.37,7.37,0,0,0,2.417,1.01v1.356a1.016,1.016,0,0,0,1.069.943h1.061a1.016,1.016,0,0,0,1.069-.943V118.52a7.37,7.37,0,0,0,2.417-1.01l.958.965a.884.884,0,0,0,.634.251,1.1,1.1,0,0,0,.789-.339l.752-.752c.007-.007.015-.015.015-.022l.074.074a1.009,1.009,0,0,1-.088,1.422" transform="translate(-6.838 -117.51)"/>
                </g>
              </g>
            </g>
          </g>
        </g>
      </g>
    </g>
  </g>
</svg>
