<svg xmlns="http://www.w3.org/2000/svg" xmlns:xlink="http://www.w3.org/1999/xlink" width="95" height="95" viewBox="0 0 95 95">
  <defs>
    <clipPath id="clip-path">
      <rect id="Rectangle_413812" data-name="Rectangle 413812" width="95" height="95" fill="none" stroke="#707070" stroke-width="2"/>
    </clipPath>
  </defs>
  <g id="Group_1222919" data-name="Group 1222919" transform="translate(-23612 4542)">
    <g id="Group_1222916" data-name="Group 1222916" transform="translate(22166.699 -11519.048)">
      <ellipse id="Ellipse_12931" data-name="Ellipse 12931" cx="27.416" cy="27.416" rx="27.416" ry="27.416" transform="translate(1485.469 7017.216)" fill="#7fe5cf"/>
      <ellipse id="Ellipse_12932" data-name="Ellipse 12932" cx="19.939" cy="19.939" rx="19.939" ry="19.939" transform="translate(1445.301 6985.886)" fill="#7fe5cf"/>
    </g>
    <g id="Group_1222852" data-name="Group 1222852" transform="translate(-408 345)">
      <rect id="Rectangle_413765" data-name="Rectangle 413765" width="95" height="95" transform="translate(24020 -4887)" fill="none"/>
      <g id="Group_1222844" data-name="Group 1222844" transform="translate(24020 -4886.188)">
        <g id="Group_1222843" data-name="Group 1222843" transform="translate(0 -0.812)" clip-path="url(#clip-path)">
          <path id="Path_1285794" data-name="Path 1285794" d="M86.7,158.747H75.181l1.106-1.99a5.979,5.979,0,0,0,.752-2.9v-2.91h7.8v2.91a5.979,5.979,0,0,0,.752,2.9Z" transform="translate(-61.352 -122.355)" fill="#cbc4cc" stroke="#707070" stroke-width="2"/>
          <path id="Path_1285795" data-name="Path 1285795" d="M190.051,175.187a14.864,14.864,0,1,1-14.865,14.865,14.864,14.864,0,0,1,14.865-14.865" transform="translate(-142.964 -142.139)" fill="#97d729" stroke="#707070" stroke-width="2"/>
          <path id="Path_1285796" data-name="Path 1285796" d="M208.887,188.319a14.862,14.862,0,0,1-20.568,20.568,14.863,14.863,0,1,0,20.568-20.568" transform="translate(-153.68 -152.856)" fill="#8bc727"/>
          <path id="Path_1285797" data-name="Path 1285797" d="M353.143,366.657H322.671v-20.81a2.973,2.973,0,0,1,2.973-2.973H350.17a2.973,2.973,0,0,1,2.973,2.973v20.81Z" transform="translate(-263.32 -278.983)" fill="#8ac9fe" stroke="#707070" stroke-width="2"/>
          <path id="Path_1285798" data-name="Path 1285798" d="M449.093,342.874h-5.2a2.973,2.973,0,0,1,2.973,2.973v20.81h5.2v-20.81a2.973,2.973,0,0,0-2.973-2.973" transform="translate(-362.242 -278.983)" fill="#60b7ff"/>
          <path id="Path_1285799" data-name="Path 1285799" d="M341.44,472.175H307.994a1.486,1.486,0,0,0-1.486,1.486v2.973a1.486,1.486,0,0,0,1.486,1.486h33.445a1.486,1.486,0,0,0,1.486-1.486v-2.973a1.486,1.486,0,0,0-1.486-1.486" transform="translate(-250.13 -384.5)" fill="#e2dee2" stroke="#707070" stroke-width="2"/>
          <path id="Path_1285800" data-name="Path 1285800" d="M473.337,472.175h-5.2a1.486,1.486,0,0,1,1.486,1.486v2.973a1.486,1.486,0,0,1-1.486,1.486h5.2a1.486,1.486,0,0,0,1.486-1.486v-2.973a1.486,1.486,0,0,0-1.486-1.486" transform="translate(-382.027 -384.5)" fill="#cbc4cc"/>
          <path id="Path_1285801" data-name="Path 1285801" d="M40.945,33.884H10.473A2.973,2.973,0,0,1,7.5,30.911V10.473A2.973,2.973,0,0,1,10.473,7.5H40.945a2.973,2.973,0,0,1,2.973,2.973V30.911a2.973,2.973,0,0,1-2.973,2.973" transform="translate(-6.12 -5.296)" fill="#8ac9fe" stroke="#707070" stroke-width="2"/>
          <path id="Path_1285802" data-name="Path 1285802" d="M166.247,7.5h-5.2a2.973,2.973,0,0,1,2.973,2.973V30.911a2.973,2.973,0,0,1-2.973,2.973h5.2a2.973,2.973,0,0,0,2.973-2.973V10.473A2.973,2.973,0,0,0,166.247,7.5" transform="translate(-131.422 -5.296)" fill="#60b7ff"/>
          <path id="Path_1285803" data-name="Path 1285803" d="M75.181,158.747l1.106-1.99a5.979,5.979,0,0,0,.752-2.9v-2.91" transform="translate(-61.352 -122.355)" fill="none" stroke="#000" stroke-linecap="round" stroke-linejoin="round" stroke-width="2"/>
          <path id="Path_1285804" data-name="Path 1285804" d="M127.709,150.943v2.91a5.979,5.979,0,0,0,.752,2.9l1.106,1.99" transform="translate(-104.219 -122.355)" fill="none" stroke="#000" stroke-linecap="round" stroke-linejoin="round" stroke-width="2"/>
          <path id="Path_1285805" data-name="Path 1285805" d="M203.969,184.821a14.883,14.883,0,1,1-3.521-5.389" transform="translate(-142.966 -142.142)" fill="none" stroke="#000" stroke-linecap="round" stroke-linejoin="round" stroke-width="2"/>
          <line id="Line_979" data-name="Line 979" transform="translate(47.088 53.858)" fill="none" stroke="#000" stroke-linecap="round" stroke-linejoin="round" stroke-width="2"/>
          <path id="Path_1285806" data-name="Path 1285806" d="M227.118,227.163a11.869,11.869,0,0,0-16.808,0" transform="translate(-171.626 -181.709)" fill="none" stroke="#000" stroke-linecap="round" stroke-linejoin="round" stroke-width="2"/>
          <path id="Path_1285807" data-name="Path 1285807" d="M233.14,257.741a5.948,5.948,0,0,1,8.41,0" transform="translate(-190.257 -208.088)" fill="none" stroke="#000" stroke-linecap="round" stroke-linejoin="round" stroke-width="2"/>
          <path id="Path_1285808" data-name="Path 1285808" d="M322.67,354.018v-8.174a2.974,2.974,0,0,1,2.972-2.974h24.526a2.974,2.974,0,0,1,2.974,2.974v20.809" transform="translate(-263.319 -278.979)" fill="none" stroke="#000" stroke-linecap="round" stroke-linejoin="round" stroke-width="2"/>
          <line id="Line_980" data-name="Line 980" y1="6.178" transform="translate(59.351 81.495)" fill="none" stroke="#000" stroke-linecap="round" stroke-linejoin="round" stroke-width="2"/>
          <path id="Path_1285809" data-name="Path 1285809" d="M341.44,472.175H307.994a1.486,1.486,0,0,0-1.486,1.486v2.973a1.486,1.486,0,0,0,1.486,1.486h33.445a1.486,1.486,0,0,0,1.486-1.486v-2.973A1.486,1.486,0,0,0,341.44,472.175Z" transform="translate(-250.13 -384.5)" fill="none" stroke="#000" stroke-linecap="round" stroke-linejoin="round" stroke-width="2"/>
          <line id="Line_981" data-name="Line 981" x2="16.722" transform="translate(11.227 36.392)" fill="none" stroke="#000" stroke-linecap="round" stroke-linejoin="round" stroke-width="2"/>
          <path id="Path_1285810" data-name="Path 1285810" d="M20.721,7.5H40.945a2.972,2.972,0,0,1,2.972,2.972V30.911a2.971,2.971,0,0,1-2.972,2.972H10.472A2.972,2.972,0,0,1,7.5,30.911V10.472A2.974,2.974,0,0,1,10.472,7.5h3.793" transform="translate(-6.12 -5.296)" fill="none" stroke="#000" stroke-linecap="round" stroke-linejoin="round" stroke-width="2"/>
          <path id="Path_1285811" data-name="Path 1285811" d="M256,77.2h23.783a3.716,3.716,0,0,1,3.716,3.716v35.675" transform="translate(-208.912 -62.177)" fill="none" stroke="#000" stroke-linecap="round" stroke-linejoin="round" stroke-width="2"/>
          <path id="Path_1285812" data-name="Path 1285812" d="M386.347,262.061l-5.574,5.574-5.574-5.574" transform="translate(-306.186 -213.034)" fill="none" stroke="#000" stroke-linecap="round" stroke-linejoin="round" stroke-width="2"/>
          <path id="Path_1285813" data-name="Path 1285813" d="M134,276.523H110.212a3.716,3.716,0,0,1-3.716-3.716V240.848" transform="translate(-86.907 -195.723)" fill="none" stroke="#000" stroke-linecap="round" stroke-linejoin="round" stroke-width="2"/>
          <path id="Path_1285814" data-name="Path 1285814" d="M76.191,245.411l5.574-5.574,5.574,5.574" transform="translate(-62.177 -194.898)" fill="none" stroke="#000" stroke-linecap="round" stroke-linejoin="round" stroke-width="2"/>
        </g>
      </g>
    </g>
  </g>
</svg>
