<svg xmlns="http://www.w3.org/2000/svg" xmlns:xlink="http://www.w3.org/1999/xlink" width="95" height="95" viewBox="0 0 95 95">
  <defs>
    <clipPath id="clip-path">
      <rect id="Rectangle_413811" data-name="Rectangle 413811" width="90.751" height="95" fill="none"/>
    </clipPath>
  </defs>
  <g id="Group_1222918" data-name="Group 1222918" transform="translate(-23931 4542)">
    <g id="Group_1222917" data-name="Group 1222917" transform="translate(22485.699 -11519.048)">
      <ellipse id="Ellipse_12931" data-name="Ellipse 12931" cx="27.416" cy="27.416" rx="27.416" ry="27.416" transform="translate(1485.469 7017.216)" fill="#7fe5cf"/>
      <ellipse id="Ellipse_12932" data-name="Ellipse 12932" cx="19.939" cy="19.939" rx="19.939" ry="19.939" transform="translate(1445.301 6985.886)" fill="#7fe5cf"/>
    </g>
    <g id="Group_1222851" data-name="Group 1222851" transform="translate(-247 345)">
      <rect id="Rectangle_413764" data-name="Rectangle 413764" width="95" height="95" transform="translate(24178 -4887)" fill="none"/>
      <g id="Group_1222842" data-name="Group 1222842" transform="translate(24178 -4887)">
        <g id="Group_1222841" data-name="Group 1222841" clip-path="url(#clip-path)">
          <path id="Path_1285781" data-name="Path 1285781" d="M48.639,187.906H45.471A17.767,17.767,0,0,1,42.7,194.6l2.237,2.237a20.938,20.938,0,0,1-4.733,4.739l-2.24-2.24a17.743,17.743,0,0,1-6.69,2.772v3.164a20.841,20.841,0,0,1-6.7,0V202.1a17.768,17.768,0,0,1-6.69-2.772l-2.237,2.237a20.938,20.938,0,0,1-4.739-4.733l2.24-2.24a17.756,17.756,0,0,1-2.772-6.69H7.213a20.9,20.9,0,0,1,0-6.7h3.168a17.77,17.77,0,0,1,2.772-6.69l-2.236-2.237a20.933,20.933,0,0,1,4.733-4.739l2.24,2.24a17.758,17.758,0,0,1,6.69-2.772v-3.164a20.9,20.9,0,0,1,6.7,0v3.168a17.768,17.768,0,0,1,6.69,2.772l2.235-2.235a20.938,20.938,0,0,1,4.739,4.733l-2.24,2.24a17.757,17.757,0,0,1,2.772,6.69h3.164A20.83,20.83,0,0,1,48.639,187.906Zm-9.552-3.35a11.163,11.163,0,1,0-11.163,11.163,11.163,11.163,0,0,0,11.163-11.163" transform="translate(-5.653 -133.219)" fill="#cd4443" fill-rule="evenodd"/>
          <path id="Path_1285782" data-name="Path 1285782" d="M42.985,183.522h-2.13a19.065,19.065,0,0,1-2.16,5.214l1.5,1.5a1.294,1.294,0,0,1,.065,1.76,22.172,22.172,0,0,1-4.959,4.94,1.289,1.289,0,0,1-1.665-.135l0,0L32.128,195.3a19.078,19.078,0,0,1-2.529,1.273v0a19.083,19.083,0,0,1-2.687.886v2.126a1.293,1.293,0,0,1-1.182,1.288,22.256,22.256,0,0,1-7.017-.013,1.29,1.29,0,0,1-1.083-1.273h0v-2.13a18.861,18.861,0,0,1-2.681-.885,19.26,19.26,0,0,1-2.533-1.275l-1.5,1.5a1.294,1.294,0,0,1-1.76.065,22.178,22.178,0,0,1-4.94-4.96,1.289,1.289,0,0,1,.135-1.664l0,0,1.507-1.507A19.247,19.247,0,0,1,4.572,186.2a18.908,18.908,0,0,1-.883-2.681H1.56a1.293,1.293,0,0,1-1.288-1.182,22.256,22.256,0,0,1,.013-7.017,1.29,1.29,0,0,1,1.273-1.083v0h2.13a18.957,18.957,0,0,1,.885-2.683,19.257,19.257,0,0,1,1.275-2.533l-1.5-1.5a1.294,1.294,0,0,1-.065-1.759,22.168,22.168,0,0,1,4.96-4.94,1.288,1.288,0,0,1,1.664.135l0,0,1.507,1.507a19.513,19.513,0,0,1,2.533-1.277,19.007,19.007,0,0,1,2.687-.885v-2.126a1.291,1.291,0,0,1,1.081-1.273v0a22.255,22.255,0,0,1,7.112,0,1.288,1.288,0,0,1,1.083,1.273h0v2.13a18.959,18.959,0,0,1,2.683.885,19.282,19.282,0,0,1,2.533,1.275l1.5-1.5a1.294,1.294,0,0,1,1.759-.065,22.163,22.163,0,0,1,4.94,4.959,1.288,1.288,0,0,1-.135,1.665l0,0L38.7,169.017a19.257,19.257,0,0,1,1.275,2.533,18.989,18.989,0,0,1,.885,2.687h2.126a1.292,1.292,0,0,1,1.273,1.081h0a22.267,22.267,0,0,1,0,7.114,1.288,1.288,0,0,1-1.273,1.083v.008Zm-3.168-2.588h2.039a19.419,19.419,0,0,0,.108-2.054,18.9,18.9,0,0,0-.112-2.062H39.886a1.291,1.291,0,0,1-1.34-1.051,16.329,16.329,0,0,0-.965-3.232,16.52,16.52,0,0,0-1.56-2.9,1.3,1.3,0,0,1,.107-1.708l1.442-1.442a19.407,19.407,0,0,0-1.376-1.524,20.187,20.187,0,0,0-1.533-1.381l-1.44,1.44,0,0a1.293,1.293,0,0,1-1.642.154,16.682,16.682,0,0,0-2.966-1.606,16.382,16.382,0,0,0-3.148-.948,1.293,1.293,0,0,1-1.14-1.285v-2.039a19.471,19.471,0,0,0-2.054-.108,18.937,18.937,0,0,0-2.062.112v1.967a1.291,1.291,0,0,1-1.051,1.34,16.325,16.325,0,0,0-3.232.965,16.523,16.523,0,0,0-2.9,1.56,1.3,1.3,0,0,1-1.708-.107L9.871,163.58a19.4,19.4,0,0,0-1.524,1.376,20.225,20.225,0,0,0-1.382,1.533l1.44,1.44,0,0a1.293,1.293,0,0,1,.154,1.642,16.682,16.682,0,0,0-1.606,2.966A16.389,16.389,0,0,0,6,175.688a1.293,1.293,0,0,1-1.284,1.14H2.685a19.374,19.374,0,0,0,0,4.11H4.724v0a1.294,1.294,0,0,1,1.269,1.053,16.312,16.312,0,0,0,.965,3.232,16.515,16.515,0,0,0,1.56,2.9,1.293,1.293,0,0,1-.108,1.708l-1.442,1.442A19.355,19.355,0,0,0,8.343,192.8a20.219,20.219,0,0,0,1.533,1.382l1.44-1.44,0,0a1.293,1.293,0,0,1,1.642-.154,16.385,16.385,0,0,0,6.115,2.554,1.293,1.293,0,0,1,1.14,1.284v2.039a19.376,19.376,0,0,0,4.11,0V196.43h0a1.294,1.294,0,0,1,1.053-1.269,16.356,16.356,0,0,0,3.228-.965v0l0,0a16.519,16.519,0,0,0,2.9-1.56,1.3,1.3,0,0,1,1.708.107l1.442,1.442a19.4,19.4,0,0,0,1.524-1.376,20.18,20.18,0,0,0,1.381-1.533l-1.44-1.44,0,0a1.293,1.293,0,0,1-.154-1.642,16.409,16.409,0,0,0,2.554-6.117A1.293,1.293,0,0,1,39.818,180.934Zm-5.091-2.056a12.456,12.456,0,1,0-3.648,8.809,12.425,12.425,0,0,0,3.648-8.809m-5.478,6.979a9.872,9.872,0,1,0-6.979,2.89,9.836,9.836,0,0,0,6.979-2.89" transform="translate(0 -127.542)" fill="#010101" fill-rule="evenodd"/>
          <rect id="Rectangle_413809" data-name="Rectangle 413809" width="53.121" height="45.127" rx="20.849" transform="translate(25.627 48.583)" fill="#00b2ca"/>
          <path id="Path_1285783" data-name="Path 1285783" d="M136.3,254.843h45.383A5.17,5.17,0,0,1,186.849,260v37.389a5.17,5.17,0,0,1-5.161,5.161H136.3a5.17,5.17,0,0,1-5.161-5.161V260.006a5.174,5.174,0,0,1,5.161-5.163Zm45.383,2.588H136.3A2.582,2.582,0,0,0,133.732,260v37.389a2.582,2.582,0,0,0,2.573,2.573h45.383a2.582,2.582,0,0,0,2.573-2.573V260.006a2.586,2.586,0,0,0-2.573-2.575" transform="translate(-106.809 -207.554)" fill="#010101" fill-rule="evenodd"/>
          <rect id="Rectangle_413810" data-name="Rectangle 413810" width="43.618" height="35.624" transform="translate(30.378 53.333)" fill="#eaeaea"/>
          <path id="Path_1285784" data-name="Path 1285784" d="M158.028,280.443h43.618a1.294,1.294,0,0,1,1.294,1.294v35.624a1.294,1.294,0,0,1-1.294,1.294H158.028a1.294,1.294,0,0,1-1.294-1.294V281.737A1.294,1.294,0,0,1,158.028,280.443Zm42.326,2.588H159.322v33.036h41.03V283.031Z" transform="translate(-127.65 -228.403)" fill="#010101" fill-rule="evenodd"/>
          <path id="Path_1285785" data-name="Path 1285785" d="M239.9,332.769c8.762,0,2.487,6.531,9.419,13.879H230.482c6.932-7.348.657-13.879,9.419-13.879" transform="translate(-187.713 -271.02)" fill="#f6851f" fill-rule="evenodd"/>
          <path id="Path_1285786" data-name="Path 1285786" d="M234.23,325.8c5.934,0,6.272,2.413,6.787,6.08a13.354,13.354,0,0,0,3.572,8.207,1.291,1.291,0,0,1-.939,2.175v0H224.813a1.293,1.293,0,0,1-.883-2.238,13.362,13.362,0,0,0,3.517-8.146c.511-3.667.849-6.082,6.784-6.082m4.23,6.436c-.325-2.32-.54-3.846-4.23-3.846s-3.9,1.526-4.23,3.846a16.392,16.392,0,0,1-2.506,7.443h13.47A16.4,16.4,0,0,1,238.46,332.232Z" transform="translate(-182.042 -265.341)" fill="#010101" fill-rule="evenodd"/>
          <path id="Path_1285787" data-name="Path 1285787" d="M271.182,407.562a2.881,2.881,0,1,1-5.187,0h5.187Z" transform="translate(-216.403 -331.934)" fill="#f6851f" fill-rule="evenodd"/>
          <path id="Path_1285788" data-name="Path 1285788" d="M266.727,401.42a4.174,4.174,0,1,1-7.865.785,4.128,4.128,0,0,1,.312-.884,1.288,1.288,0,0,1,1.163-.73v0h5.186A1.292,1.292,0,0,1,266.727,401.42Zm-2.679,2.839a1.579,1.579,0,0,0,.464-1.083H261.34a1.587,1.587,0,0,0,2.708,1.083" transform="translate(-210.739 -326.254)" fill="#010101" fill-rule="evenodd"/>
          <path id="Path_1285789" data-name="Path 1285789" d="M273.01,316.1c1.037,0,1.879,1.378,1.879,3.076,0,.049,0,.1,0,.15a13.474,13.474,0,0,0-3.751,0c0-.05,0-.1,0-.15,0-1.7.838-3.076,1.875-3.076" transform="translate(-220.823 -257.443)" fill="#f6851f" fill-rule="evenodd"/>
          <path id="Path_1285790" data-name="Path 1285790" d="M267.322,309.125a2.868,2.868,0,0,1,2.43,1.522,5.549,5.549,0,0,1,.743,2.848c0,.163,0-.131-.006.1l0,.1a1.289,1.289,0,0,1-1.33,1.248,1.529,1.529,0,0,1-.161-.015c-.213-.034-.464-.063-.756-.082q-.4-.028-.918-.028t-.918.028c-.291.021-.542.047-.756.082a1.291,1.291,0,0,1-1.476-1.072,1.1,1.1,0,0,1-.015-.209v-.053c0-.241-.006.118-.006-.089a5.531,5.531,0,0,1,.743-2.848A2.862,2.862,0,0,1,267.322,309.125Zm.226,2.867c-.1-.173-.19-.279-.226-.279s-.122.106-.226.279a1.757,1.757,0,0,0-.12.232c.114,0,.23,0,.346,0s.232,0,.346,0a1.742,1.742,0,0,0-.12-.232" transform="translate(-215.135 -251.763)" fill="#010101" fill-rule="evenodd"/>
          <path id="Path_1285791" data-name="Path 1285791" d="M185.312,351.694a1.29,1.29,0,1,1,1.788,1.86c-.076.072-.148.145-.218.219a5.943,5.943,0,0,0-1.727,4.121h-.006a5.951,5.951,0,0,0,1.731,4.122c.07.074.145.146.219.219a1.29,1.29,0,0,1-1.788,1.86q-.148-.143-.291-.291a8.516,8.516,0,0,1-2.449-5.911h-.006a8.513,8.513,0,0,1,2.455-5.911c.1-.1.192-.192.293-.287m24.943-1.592a1.29,1.29,0,1,1,1.689-1.951,13.9,13.9,0,0,1,3.479,4.5,12.258,12.258,0,0,1,0,10.747,13.959,13.959,0,0,1-3.479,4.5,1.291,1.291,0,1,1-1.689-1.952,11.337,11.337,0,0,0,2.843-3.663,9.764,9.764,0,0,0,0-8.52A11.333,11.333,0,0,0,210.255,350.1Zm-2.138,3.453c.076.072.148.145.218.219a5.783,5.783,0,0,1,0,8.245c-.07.074-.144.146-.218.219a1.29,1.29,0,1,0,1.788,1.86q.148-.143.291-.291a8.344,8.344,0,0,0,0-11.823c-.093-.1-.19-.194-.291-.291a1.291,1.291,0,0,0-1.788,1.862m-24.843-5.4a13.9,13.9,0,0,0-3.479,4.5,12.256,12.256,0,0,0,0,10.747,13.955,13.955,0,0,0,3.479,4.5,1.29,1.29,0,1,0,1.689-1.951,11.34,11.34,0,0,1-2.843-3.664,9.763,9.763,0,0,1,0-8.52,11.345,11.345,0,0,1,2.843-3.664,1.292,1.292,0,0,0-1.689-1.955Z" transform="translate(-145.422 -283.291)" fill="#010101" fill-rule="evenodd"/>
          <path id="Path_1285792" data-name="Path 1285792" d="M254.945,36.907h-3.9a21.872,21.872,0,0,1-3.415,8.239l2.755,2.755a25.825,25.825,0,0,1-5.83,5.837L241.8,50.98a21.9,21.9,0,0,1-8.239,3.415v3.9a25.683,25.683,0,0,1-8.25,0v-3.9a21.841,21.841,0,0,1-8.239-3.415l-2.755,2.755a25.824,25.824,0,0,1-5.837-5.83l2.759-2.759a21.9,21.9,0,0,1-3.415-8.239h-3.9a25.682,25.682,0,0,1,0-8.25h3.9a21.839,21.839,0,0,1,3.415-8.239l-2.755-2.755a25.82,25.82,0,0,1,5.83-5.837l2.759,2.759a21.9,21.9,0,0,1,8.239-3.415v-3.9a25.677,25.677,0,0,1,8.25,0v3.9a21.84,21.84,0,0,1,8.239,3.415l2.755-2.755a25.825,25.825,0,0,1,5.837,5.83l-2.757,2.761a21.9,21.9,0,0,1,3.415,8.239h3.9A25.717,25.717,0,0,1,254.945,36.907Zm-11.762-4.123a13.749,13.749,0,1,0-13.75,13.75,13.75,13.75,0,0,0,13.75-13.75" transform="translate(-165.809 -5.65)" fill="#cd4443" fill-rule="evenodd"/>
          <path id="Path_1285793" data-name="Path 1285793" d="M249.287,32.552h-2.86A23.389,23.389,0,0,1,245.3,36.04a23.653,23.653,0,0,1-1.672,3.28l2.018,2.018a1.294,1.294,0,0,1,.065,1.759,27.017,27.017,0,0,1-6.058,6.037A1.288,1.288,0,0,1,237.984,49l0,0-2.022-2.022a23.254,23.254,0,0,1-6.768,2.8v2.854a1.293,1.293,0,0,1-1.182,1.288,27.087,27.087,0,0,1-8.57-.01,1.29,1.29,0,0,1-1.083-1.273h0v-2.86a23.213,23.213,0,0,1-6.766-2.8L209.568,49a1.294,1.294,0,0,1-1.759.065,27.061,27.061,0,0,1-6.037-6.056,1.289,1.289,0,0,1,.135-1.665l0,0,2.022-2.022a23.286,23.286,0,0,1-2.8-6.774h-2.854a1.291,1.291,0,0,1-1.273-1.081h0a27.089,27.089,0,0,1-.006-8.665,1.289,1.289,0,0,1,1.338-1.081h2.793a23.254,23.254,0,0,1,2.8-6.772L201.9,12.927a1.294,1.294,0,0,1-.065-1.759A27.012,27.012,0,0,1,207.9,5.13a1.289,1.289,0,0,1,1.665.135l0,0,2.022,2.022a23.265,23.265,0,0,1,6.768-2.8V1.625A1.293,1.293,0,0,1,219.536.336,27.033,27.033,0,0,1,228.1.346a1.289,1.289,0,0,1,1.087,1.273h0v2.86a23.226,23.226,0,0,1,6.767,2.8l2.018-2.018a1.294,1.294,0,0,1,1.759-.065,27.014,27.014,0,0,1,6.037,6.058,1.289,1.289,0,0,1-.135,1.664l0,0-2.022,2.022a23.285,23.285,0,0,1,2.8,6.774h2.854a1.291,1.291,0,0,1,1.273,1.081h0a27.083,27.083,0,0,1,.006,8.665,1.288,1.288,0,0,1-1.273,1.083v0Zm-3.9-2.588h2.78a24.206,24.206,0,0,0,.165-2.829,23.941,23.941,0,0,0-.169-2.839h-2.7a1.291,1.291,0,0,1-1.34-1.051,20.5,20.5,0,0,0-3.166-7.682,1.3,1.3,0,0,1,.107-1.708l1.965-1.965a24.226,24.226,0,0,0-1.883-2.111,24.881,24.881,0,0,0-2.122-1.889l-1.963,1.963,0,0a1.293,1.293,0,0,1-1.642.154A20.719,20.719,0,0,0,231.7,8a20.483,20.483,0,0,0-3.956-1.19,1.293,1.293,0,0,1-1.14-1.284V2.742a24.324,24.324,0,0,0-5.662,0V5.522h0a1.294,1.294,0,0,1-1.053,1.269,20.5,20.5,0,0,0-7.682,3.166,1.3,1.3,0,0,1-1.708-.106L208.53,7.886a24.259,24.259,0,0,0-2.111,1.883,24.887,24.887,0,0,0-1.889,2.122l1.963,1.963,0,0a1.293,1.293,0,0,1,.154,1.642,20.534,20.534,0,0,0-3.213,7.749h0a1.289,1.289,0,0,1-1.267,1.051h-2.778a24.311,24.311,0,0,0-.165,2.835,23.964,23.964,0,0,0,.169,2.839h2.706a1.291,1.291,0,0,1,1.34,1.051A20.5,20.5,0,0,0,206.6,38.7a1.3,1.3,0,0,1-.106,1.708l-1.965,1.965a24.258,24.258,0,0,0,1.883,2.111,24.919,24.919,0,0,0,2.123,1.889l1.963-1.963,0,0a1.293,1.293,0,0,1,1.642-.154,20.722,20.722,0,0,0,3.709,2.006,20.485,20.485,0,0,0,3.956,1.19,1.3,1.3,0,0,1,1.142,1.284v2.78a24.19,24.19,0,0,0,5.663,0V48.745h0a1.294,1.294,0,0,1,1.053-1.269,20.5,20.5,0,0,0,7.682-3.166,1.3,1.3,0,0,1,1.708.106l1.965,1.965a24.261,24.261,0,0,0,2.111-1.883,24.882,24.882,0,0,0,1.889-2.122l-1.963-1.963,0,0a1.293,1.293,0,0,1-.154-1.642,20.791,20.791,0,0,0,2.007-3.709,20.5,20.5,0,0,0,1.189-3.954A1.292,1.292,0,0,1,245.386,29.964Zm-6.567-2.829a15.045,15.045,0,0,0-15.044-15.044V12.1a15.039,15.039,0,1,0,15.044,15.038m-6.236,8.807a12.456,12.456,0,0,0-8.807-21.263v-.006a12.458,12.458,0,1,0,8.807,21.268" transform="translate(-160.15)" fill="#010101" fill-rule="evenodd"/>
        </g>
      </g>
    </g>
  </g>
</svg>
