<svg xmlns="http://www.w3.org/2000/svg" xmlns:xlink="http://www.w3.org/1999/xlink" width="95" height="95" viewBox="0 0 95 95">
  <defs>
    <clipPath id="clip-path">
      <rect id="Rectangle_413732" data-name="Rectangle 413732" width="92.332" height="95" fill="none"/>
    </clipPath>
  </defs>
  <g id="Group_1222861" data-name="Group 1222861" transform="translate(-23692 10988)">
    <rect id="Rectangle_413728" data-name="Rectangle 413728" width="95" height="95" transform="translate(23692 -10988)" fill="none"/>
    <g id="Group_1222757" data-name="Group 1222757" transform="translate(23693.334 -10988)">
      <g id="Group_1222756" data-name="Group 1222756" clip-path="url(#clip-path)">
        <path id="Path_1285641" data-name="Path 1285641" d="M35.241,364.088a8.879,8.879,0,0,0-.98-3.353q-1.232-3.216-9.372-5.975c-.685-.319-1.027-1.072-1.05-2.281,2.167-2.074,3.056-5.176,2.6-10.717a5.482,5.482,0,0,0-5.747-5.108,5.468,5.468,0,0,0-5.746,5.108c-.479,5.541.433,8.642,2.577,10.717-.023,1.209-.365,1.962-1.049,2.281q-8.106,2.771-9.372,5.975a9.31,9.31,0,0,0-.98,3.353,2.482,2.482,0,0,0,2.463,2.463H32.8a2.463,2.463,0,0,0,2.44-2.463" transform="translate(-4.957 -272.691)" fill="#3c9685" fill-rule="evenodd"/>
        <path id="Path_1285642" data-name="Path 1285642" d="M343.722,34.793a14.275,14.275,0,1,0-14.275-14.275,14.315,14.315,0,0,0,14.275,14.275" transform="translate(-266.852 -5.058)" fill="#f4725c" fill-rule="evenodd"/>
        <path id="Path_1285643" data-name="Path 1285643" d="M217.551,188.743h10.262a3.35,3.35,0,0,0,2.918-2.258l3.558-13.887c.547-2.121.433-4.241-2.531-4.241h-6.887l1.824-8.3a2.722,2.722,0,0,0-5.291-1.185l-2.941,4.765-7.3,5.5a3.028,3.028,0,0,0-1.254,2.508V182.4a3.036,3.036,0,0,0,1.527,2.668Z" transform="translate(-170.029 -127.15)" fill="#ffd15d" fill-rule="evenodd"/>
        <path id="Path_1285644" data-name="Path 1285644" d="M149.978,215.795l5.86,1.072V233.9a1.552,1.552,0,0,1-1.55,1.551H146.42Z" transform="translate(-118.6 -174.794)" fill="#3c9685" fill-rule="evenodd"/>
        <path id="Path_1285645" data-name="Path 1285645" d="M6.614,64.694A44.3,44.3,0,0,1,57.989,4.425l-1.071-2.1a1.171,1.171,0,0,1,.5-1.574,1.144,1.144,0,0,1,1.55.5l2.3,4.4c0,.023,0,.046.023.046l.046.137a1.145,1.145,0,0,1-.434,1.527L56.621,9.92a1.1,1.1,0,0,1-.594.16,1.163,1.163,0,0,1-.592-2.166l2.076-1.232A42.633,42.633,0,0,0,47.5,5.474,42.023,42.023,0,0,0,8.756,63.781a1.164,1.164,0,0,1-.616,1.528,1.086,1.086,0,0,1-.456.091A1.167,1.167,0,0,1,6.614,64.694ZM86.722,29.326a1.164,1.164,0,0,0-.616,1.528A42.059,42.059,0,0,1,47.5,89.527a42.28,42.28,0,0,1-10.056-1.209l2.121-1.276a1.166,1.166,0,0,0-1.186-2.008l-4.287,2.554a1.174,1.174,0,0,0-.433,1.551l2.371,4.583a1.172,1.172,0,0,0,1.026.616A1.214,1.214,0,0,0,37.6,94.2a1.135,1.135,0,0,0,.478-1.55L37.033,90.6A43.552,43.552,0,0,0,47.5,91.852,44.393,44.393,0,0,0,88.25,29.942,1.164,1.164,0,0,0,86.722,29.326ZM31.446,91.283V91.4a3.61,3.61,0,0,1-3.6,3.6H3.626A3.615,3.615,0,0,1,0,91.4v-.114a10.993,10.993,0,0,1,1.094-3.741c.981-2.463,4.264-4.606,9.988-6.567a1.232,1.232,0,0,0,.3-.751c-2.212-2.418-3.01-5.929-2.553-11.243a6.638,6.638,0,0,1,6.908-6.2,6.639,6.639,0,0,1,6.91,6.2c.456,5.428-.32,8.848-2.555,11.243a1.114,1.114,0,0,0,.274.751c5.723,1.962,9.007,4.1,9.987,6.545A9.964,9.964,0,0,1,31.446,91.283Zm-2.326.159a7.081,7.081,0,0,0-.844-2.85.33.33,0,0,1-.045-.137c-.479-1.254-2.372-3.169-8.665-5.313-.046,0-.068-.023-.091-.023-.775-.342-1.71-1.186-1.756-3.306a1.248,1.248,0,0,1,.365-.867c1.984-1.892,2.646-4.812,2.235-9.782A4.319,4.319,0,0,0,15.734,65.1a4.319,4.319,0,0,0-4.583,4.059c-.434,4.949.228,7.867,2.234,9.782a1.222,1.222,0,0,1,.343.867c-.046,2.121-.981,2.965-1.756,3.306-.023,0-.046.023-.068.023-6.636,2.28-8.278,4.287-8.665,5.313a.489.489,0,0,0-.069.114,8.155,8.155,0,0,0-.844,2.873,1.3,1.3,0,0,0,1.3,1.231H27.844a1.28,1.28,0,0,0,1.276-1.231M61.433,15.461A15.45,15.45,0,1,1,76.87,30.9,15.47,15.47,0,0,1,61.433,15.461m2.326,0A13.123,13.123,0,1,0,76.87,2.326,13.128,13.128,0,0,0,63.759,15.461M76.87,6.294a1.168,1.168,0,0,0,1.164-1.163v-1.3a1.163,1.163,0,0,0-2.326,0v1.3A1.167,1.167,0,0,0,76.87,6.294M87.2,16.624h1.3a1.163,1.163,0,0,0,0-2.326H87.2a1.163,1.163,0,0,0,0,2.326m-10.33,8a1.168,1.168,0,0,0-1.163,1.164v1.277a1.163,1.163,0,1,0,2.326,0V25.791a1.169,1.169,0,0,0-1.164-1.164m-11.607-8h1.277a1.163,1.163,0,0,0,0-2.326H65.263a1.163,1.163,0,0,0,0,2.326M73.792,19.7a1.16,1.16,0,0,0,.822-.343l3.078-3.078a1.087,1.087,0,0,0,.343-.821V8.415a1.163,1.163,0,0,0-2.326,0v6.567l-2.736,2.737a1.163,1.163,0,0,0,.82,1.984M57.807,33.156,56.3,40.044h5.428a3.874,3.874,0,0,1,3.237,1.323c.776,1,.912,2.44.433,4.378L61.842,59.632c-.022.022-.022.046-.046.068a4.459,4.459,0,0,1-4.013,3.032H47.522a1.1,1.1,0,0,1-.593-.159l-6.111-3.649a4.2,4.2,0,0,1-2.1-3.672V44.468a4.243,4.243,0,0,1,1.709-3.421l7.138-5.36L50.327,31.2a3.82,3.82,0,0,1,3.626-2.532,3.948,3.948,0,0,1,.889.092,3.892,3.892,0,0,1,2.987,4.309A.138.138,0,0,0,57.807,33.156Zm-2.964,9.213a1.2,1.2,0,0,1-.913-.433,1.251,1.251,0,0,1-.228-.981l1.824-8.231a1.557,1.557,0,0,0-1.208-1.688,2.3,2.3,0,0,0-.365-.045,1.539,1.539,0,0,0-1.46,1.071c-.046.091-.069.159-.115.25L49.438,37.1a1.9,1.9,0,0,1-.3.319l-7.3,5.5a1.852,1.852,0,0,0-.8,1.551V55.253A1.877,1.877,0,0,0,42,56.918l5.838,3.489h9.943a2.191,2.191,0,0,0,1.8-1.413l3.557-13.841c.387-1.528.159-2.144,0-2.372a1.9,1.9,0,0,0-1.413-.411H54.843Zm-17.4-1.46A1.133,1.133,0,0,1,38.4,42.05V59.107a2.705,2.705,0,0,1-2.714,2.713H27.82a1.213,1.213,0,0,1-.889-.41,1.133,1.133,0,0,1-.251-.959l3.558-19.679a1.144,1.144,0,0,1,1.345-.935Zm-1.369,2.121-3.762-.707-3.1,17.171h6.477a.4.4,0,0,0,.387-.387Z"/>
      </g>
    </g>
  </g>
</svg>
