<svg xmlns="http://www.w3.org/2000/svg" xmlns:xlink="http://www.w3.org/1999/xlink" width="95" height="95" viewBox="0 0 95 95">
  <defs>
    <clipPath id="clip-path">
      <rect id="Rectangle_413675" data-name="Rectangle 413675" width="92.664" height="92.742" fill="none"/>
    </clipPath>
  </defs>
  <g id="Group_1222751" data-name="Group 1222751" transform="translate(-18010 7538)">
    <rect id="Rectangle_413714" data-name="Rectangle 413714" width="95" height="95" transform="translate(18010 -7538)" fill="none"/>
    <g id="Group_1222722" data-name="Group 1222722" transform="translate(18012.336 -7536.871)">
      <g id="Group_1222721" data-name="Group 1222721" clip-path="url(#clip-path)">
        <path id="Path_1285538" data-name="Path 1285538" d="M63.343,221.95a31.44,31.44,0,0,1-7.37,20q-.755.9-1.578,1.752a31.8,31.8,0,0,1-5.639,4.608q-1.022.655-2.1,1.234a31.362,31.362,0,0,1-10.841,3.487,31.692,31.692,0,0,1-4.043.263v-7.021a24.447,24.447,0,0,0,9.629-1.982,24.1,24.1,0,0,0,2.235-1.1,24.737,24.737,0,0,0,5.793-4.456q.818-.85,1.554-1.775a24.483,24.483,0,0,0,5.336-15.009Z" transform="translate(-26.019 -181.747)" fill="#def0ff"/>
        <path id="Path_1285539" data-name="Path 1285539" d="M35.818,354.33v7.1a31.678,31.678,0,0,1-4.043.263v-7.021a24.584,24.584,0,0,0,4.043-.339" transform="translate(-26.019 -290.148)" fill="#b8cce0"/>
        <path id="Path_1285540" data-name="Path 1285540" d="M172.948,221.95a31.532,31.532,0,0,1-1.512,9.4l-5.811-5.811a24.728,24.728,0,0,0,.3-3.594Z" transform="translate(-135.624 -181.747)" fill="#7d96ab"/>
        <path id="Path_1285541" data-name="Path 1285541" d="M172.948,221.95a31.532,31.532,0,0,1-1.512,9.4l-5.811-5.811a24.728,24.728,0,0,0,.3-3.594Z" transform="translate(-135.624 -181.747)" fill="#b8cce0"/>
        <path id="Path_1285542" data-name="Path 1285542" d="M99.5,309.8q-.755.9-1.578,1.752a31.8,31.8,0,0,1-5.639,4.608q-1.022.655-2.1,1.234l-5.255-5.253a24.083,24.083,0,0,0,2.235-1.1,24.736,24.736,0,0,0,5.793-4.456q.818-.85,1.554-1.775Z" transform="translate(-69.55 -249.598)" fill="#b8cce0"/>
        <path id="Path_1285543" data-name="Path 1285543" d="M108.031,319.573a31.8,31.8,0,0,1-5.639,4.608l-5.117-5.115a24.734,24.734,0,0,0,5.793-4.456Z" transform="translate(-79.655 -257.623)" fill="#7d96ab"/>
        <rect id="Rectangle_413671" data-name="Rectangle 413671" width="6.085" height="70.131" transform="translate(1.359 21.253)" fill="#006df3"/>
        <path id="Path_1285544" data-name="Path 1285544" d="M374.985,339.521l-13.21,13.21-2.192-4.047-4.336-8-1.561-2.884,6.367-6.369,2.884,1.563,8,4.336Z" transform="translate(-289.62 -271.396)" fill="#7d96ab"/>
        <path id="Path_1285545" data-name="Path 1285545" d="M401.647,366.192l-13.21,13.21-2.192-4.047L397.6,364Z" transform="translate(-316.282 -298.066)" fill="#65768e"/>
        <path id="Path_1285546" data-name="Path 1285546" d="M362.936,332.993l-7.689,7.689-1.561-2.884,6.367-6.369Z" transform="translate(-289.62 -271.396)" fill="#65768e"/>
        <path id="Path_1285547" data-name="Path 1285547" d="M327.945,295.639l-10.051,10.053-2.909-2.909-3.44-3.442L321.6,289.29Z" transform="translate(-255.113 -236.889)" fill="#def0ff"/>
        <rect id="Rectangle_413672" data-name="Rectangle 413672" width="14.215" height="4.867" transform="translate(56.431 62.452) rotate(-44.995)" fill="#b8cce0"/>
        <path id="Path_1285548" data-name="Path 1285548" d="M140.3,53.479,118.124,75.656,75.885,33.417l4.561-4.559,7.006-7.008,3.324-3.324,7.285-7.285Z" transform="translate(-62.139 -9.204)" fill="#7d96ab"/>
        <path id="Path_1285549" data-name="Path 1285549" d="M207.62,53.479l-3.347,3.347L188.059,40.613l-8.191-.315L158.1,18.525l7.285-7.285Z" transform="translate(-129.458 -9.204)" fill="#65768e"/>
        <path id="Path_1285550" data-name="Path 1285550" d="M126.091,90.889l-3.949,3.949a2.162,2.162,0,0,1-3.058,0L101.065,76.818l7.006-7.008,18.019,18.021a2.159,2.159,0,0,1,0,3.058" transform="translate(-82.758 -57.165)" fill="#65768e"/>
        <rect id="Rectangle_413673" data-name="Rectangle 413673" width="5.2" height="25.292" transform="translate(19.971 17.987) rotate(-45)" fill="#006df3"/>
        <rect id="Rectangle_413674" data-name="Rectangle 413674" width="24.132" height="7.744" transform="translate(68.766 81.817) rotate(-45)" fill="#def0ff"/>
        <path id="Path_1285551" data-name="Path 1285551" d="M319.056,215.971a3.3,3.3,0,1,1-3.3,3.3,3.3,3.3,0,0,1,3.3-3.3" transform="translate(-258.56 -176.851)" fill="#ff633e"/>
        <path id="Path_1285552" data-name="Path 1285552" d="M218.826,53.2,177.472,11.843a14.83,14.83,0,0,0-20.973,0l23.074,23.074,8.192.315,24.513,24.513Z" transform="translate(-128.151 -6.141)" fill="#def0ff"/>
        <path id="Path_1285553" data-name="Path 1285553" d="M92.266,69.27,86.79,63.794a1.358,1.358,0,0,0-1.921,0l-1.633,1.633L73.4,60.1l.389-.389a1.358,1.358,0,0,0,0-1.921l-3.612-3.612,6.3-6.3,6.686,6.686a1.358,1.358,0,0,0,1.921,0l6.549-6.549a1.358,1.358,0,0,0,0-1.921L81.422,35.882A1.358,1.358,0,1,0,79.5,37.8l9.253,9.253-4.627,4.627L60.574,28.131a1.358,1.358,0,0,0-.908-.4l-7.66-.295L30.316,5.75a13.475,13.475,0,0,1,18.044.913L75.187,33.489a1.358,1.358,0,0,0,1.921-1.921L50.282,4.742a16.189,16.189,0,0,0-22.895,0,1.358,1.358,0,0,0,0,1.921l.994.994-15.6,15.6a1.358,1.358,0,0,0,0,1.921l11.2,11.2v1.531a5.243,5.243,0,0,1-5.237,5.237H8.8V21.253a1.359,1.359,0,0,0-1.359-1.359H1.359A1.359,1.359,0,0,0,0,21.253V91.383a1.359,1.359,0,0,0,1.359,1.359H7.443A1.359,1.359,0,0,0,8.8,91.383V72.757a32.645,32.645,0,0,0,18.243-7.7A33.309,33.309,0,0,0,37.229,49.617l8.2,8.2a1.358,1.358,0,0,0,1.921-1.921L15.667,24.212l4.3-4.3L36.894,36.833a1.358,1.358,0,0,0,1.921,0l3.677-3.677a1.358,1.358,0,0,0,0-1.921L25.569,14.311,30.3,9.578,50.461,29.737a1.358,1.358,0,0,0,.908.4l7.66.295L74.558,45.957,55.985,64.531l-4.323-4.323a1.358,1.358,0,1,0-1.921,1.921l5.283,5.284a1.358,1.358,0,0,0,1.921,0l1.262-1.262,3.612,3.612a1.358,1.358,0,0,0,1.921,0l.389-.389,5.327,9.832L67.8,80.858a1.358,1.358,0,0,0,0,1.921l5.476,5.476a1.358,1.358,0,0,0,1.921,0L92.266,71.191a1.358,1.358,0,0,0,0-1.921M6.085,90.025H2.717V22.611H6.085V50.928a1.359,1.359,0,0,0,2.717,0V45.86h9.949a7.965,7.965,0,0,0,7.875-6.846l2.279,2.279A23.325,23.325,0,0,1,8.8,62.959v-5.93a1.359,1.359,0,0,0-2.717,0v33Zm16.8-25.241-3.075-3.074a26.042,26.042,0,0,0,3.6-2.81l3.018,3.018a30.818,30.818,0,0,1-3.539,2.865M8.8,65.7a25.818,25.818,0,0,0,8.565-2.584l3.156,3.154A29.986,29.986,0,0,1,8.8,70.027Zm19.516-5.724-3.027-3.027a25.926,25.926,0,0,0,6.087-13.179l3.651,3.651a30.065,30.065,0,0,1-6.711,12.555M39.611,32.2l-1.756,1.756L21.892,17.988l1.756-1.756ZM81.232,67.431l-3.853,3.853L69.8,63.7l1.6-1.6Zm-21.1-3.2,8.13-8.131,2.652,2.652-8.131,8.13Zm6.005,3.141,1.745-1.745L75.458,73.2l-4,4Zm8.107,18-3.555-3.555L85.829,66.676l3.555,3.555Z"/>
        <path id="Path_1285554" data-name="Path 1285554" d="M316.219,216.434a4.664,4.664,0,1,0-3.294,1.362,4.664,4.664,0,0,0,3.294-1.362m-4.668-4.668a1.942,1.942,0,1,1,0,2.746,1.936,1.936,0,0,1,0-2.746" transform="translate(-252.429 -170.718)"/>
        <path id="Path_1285555" data-name="Path 1285555" d="M271.847,243.819l.061-.061a1.358,1.358,0,0,0-1.921-1.921l-.061.061a1.358,1.358,0,1,0,1.921,1.921" transform="translate(-220.707 -197.706)"/>
        <path id="Path_1285556" data-name="Path 1285556" d="M292.779,264.751l.061-.061a1.358,1.358,0,0,0-1.921-1.921l-.061.061a1.358,1.358,0,1,0,1.921,1.921" transform="translate(-237.847 -214.846)"/>
        <path id="Path_1285557" data-name="Path 1285557" d="M311.85,283.7l-.061.061a1.358,1.358,0,1,0,1.923,1.92l.061-.061a1.358,1.358,0,1,0-1.923-1.92" transform="translate(-254.988 -231.987)"/>
        <path id="Path_1285558" data-name="Path 1285558" d="M262.324,66.1a1.359,1.359,0,0,0,.961-2.319L259.6,60.1a1.358,1.358,0,0,0-1.921,1.921l3.68,3.68a1.354,1.354,0,0,0,.961.4" transform="translate(-210.681 -48.891)"/>
        <path id="Path_1285559" data-name="Path 1285559" d="M244.094,73.693a1.358,1.358,0,0,0,0,1.921l3.68,3.68a1.358,1.358,0,0,0,1.921-1.921l-3.68-3.68a1.358,1.358,0,0,0-1.921,0" transform="translate(-199.554 -60.019)"/>
      </g>
    </g>
  </g>
</svg>
