<svg xmlns="http://www.w3.org/2000/svg" width="95.001" height="95" viewBox="0 0 95.001 95">
  <g id="Group_1223170" data-name="Group 1223170" transform="translate(-13572 10357)">
    <rect id="Rectangle_414061" data-name="Rectangle 414061" width="95" height="95" transform="translate(13572 -10357)" fill="none"/>
    <g id="Group_1222972" data-name="Group 1222972" transform="translate(601.564 -19.152)">
      <ellipse id="Ellipse_12935" data-name="Ellipse 12935" cx="27.416" cy="27.416" rx="27.416" ry="27.416" transform="translate(13010.604 -10302.149)" fill="#ffc94a"/>
      <ellipse id="Ellipse_12936" data-name="Ellipse 12936" cx="19.939" cy="19.939" rx="19.939" ry="19.939" transform="translate(12970.436 -10333.479)" fill="#ffc94a"/>
    </g>
    <path id="Path_1287445" data-name="Path 1287445" d="M38.75,0A38.706,38.706,0,1,1,0,38.726,38.756,38.756,0,0,1,38.75,0" transform="translate(13580.73 -10348.206)" fill="#5d5f73" stroke="#000" stroke-width="1" stroke-dasharray="80 5" fill-rule="evenodd"/>
    <path id="Path_1287446" data-name="Path 1287446" d="M1880.484,356.244a31.886,31.886,0,0,1,4.644,3.234,34.06,34.06,0,0,1,11.746,19.83,6.788,6.788,0,0,1-13.346,2.493,20.562,20.562,0,0,0-7.063-11.883,19.4,19.4,0,0,0-2.771-1.909Z" transform="translate(11756.011 -10695.139)" fill="#e0373d"/>
    <path id="Path_1287447" data-name="Path 1287447" d="M1889.929,629.746a6.809,6.809,0,0,1-6.4-5.532,20.562,20.562,0,0,0-7.063-11.883,19.42,19.42,0,0,0-2.771-1.909l3.044-5.26a26.482,26.482,0,0,1,13.229,22.908c0,.545-.039,1.13-.039,1.675" transform="translate(11756.01 -10937.551)" fill="#cf2628"/>
    <path id="Path_1287448" data-name="Path 1287448" d="M213.81,381.8a6.788,6.788,0,0,1-13.346-2.493,34.059,34.059,0,0,1,11.746-19.83,32.268,32.268,0,0,1,4.683-3.234l6.79,11.766a22.3,22.3,0,0,0-2.81,1.909A20.561,20.561,0,0,0,213.81,381.8" transform="translate(13385.613 -10695.139)" fill="#a6c948"/>
    <path id="Path_1287449" data-name="Path 1287449" d="M476.694,624.212a6.8,6.8,0,0,1-6.361,5.532c-.039-.545-.039-1.13-.039-1.675a26.4,26.4,0,0,1,13.229-22.908l3.044,5.26a22.3,22.3,0,0,0-2.81,1.909,20.561,20.561,0,0,0-7.063,11.883" transform="translate(13122.729 -10937.55)" fill="#8fb62d"/>
    <path id="Path_1287450" data-name="Path 1287450" d="M833.084,186.409a33.96,33.96,0,0,1,33.989,0l-6.79,11.766a20.454,20.454,0,0,0-20.409,0Z" transform="translate(12769.422 -10525.304)" fill="#fec700"/>
    <path id="Path_1287451" data-name="Path 1287451" d="M1002.914,473.07l-3.044,5.26a20.454,20.454,0,0,0-20.409,0l-3.044-5.26a26.527,26.527,0,0,1,26.5,0" transform="translate(12629.835 -10805.459)" fill="#f5a400"/>
    <path id="Path_1287452" data-name="Path 1287452" d="M1274.261,88.515l4.566,32.8a1.105,1.105,0,0,1-.937,1.247h-9.249a1.066,1.066,0,0,1-1.093-1.091v-.234l4.566-32.726a1.063,1.063,0,0,1,1.21-.935,1.116,1.116,0,0,1,.937.935" transform="translate(12346.313 -10433.487)" fill="#fff" stroke="#000" stroke-width="1"/>
    <path id="Path_1287453" data-name="Path 1287453" d="M1049.255,1035.938a11.629,11.629,0,1,1-11.629,11.649,11.665,11.665,0,0,1,11.629-11.649" transform="translate(12570.226 -11357.067)" fill="#ded5c4" stroke="#000" stroke-width="1" fill-rule="evenodd"/>
    <path id="Path_1287454" data-name="Path 1287454" d="M1261.533,1255.042a5.922,5.922,0,1,1-5.931,5.922,5.958,5.958,0,0,1,5.931-5.922" transform="translate(12357.947 -11570.444)" fill="#cbc0ae" stroke="#000" stroke-width="1" fill-rule="evenodd"/>
    <path id="Path_1287455" data-name="Path 1287455" d="M528.992,1849.617l2.3,4.364,4.839.818a.594.594,0,0,1,.507.7.535.535,0,0,1-.2.312l-3.4,3.506.7,4.87a.606.606,0,0,1-.507.662.643.643,0,0,1-.39-.039l-4.371-2.182-4.41,2.182a.6.6,0,0,1-.819-.273.549.549,0,0,1-.039-.35l.7-4.87-3.434-3.506a.611.611,0,0,1,0-.857.482.482,0,0,1,.312-.156l4.878-.818,2.263-4.364a.631.631,0,0,1,.82-.273.524.524,0,0,1,.234.273m33.989,0,2.3,4.364,4.839.818a.594.594,0,0,1,.507.7.535.535,0,0,1-.2.312l-3.4,3.506.7,4.87a.605.605,0,0,1-.507.662.643.643,0,0,1-.39-.039l-4.37-2.182-4.41,2.182a.6.6,0,0,1-.82-.273.549.549,0,0,1-.039-.35l.7-4.87-3.434-3.506a.611.611,0,0,1,0-.857.482.482,0,0,1,.312-.156l4.878-.818,2.263-4.364a.631.631,0,0,1,.819-.273.525.525,0,0,1,.234.273m-16.858,4.364,2.81,5.376c1.99.312,3.98.662,5.971,1.013a.688.688,0,0,1,.625.818.769.769,0,0,1-.234.429l-4.214,4.325c.312,1.987.585,3.974.9,5.961a.781.781,0,0,1-.625.857.844.844,0,0,1-.468-.078c-1.795-.9-3.629-1.792-5.424-2.688-1.795.9-3.629,1.792-5.424,2.688a.7.7,0,0,1-.976-.35.54.54,0,0,1-.078-.429c.273-1.987.585-3.974.859-5.961l-4.215-4.325a.777.777,0,0,1,0-1.052.622.622,0,0,1,.39-.195c1.99-.351,3.98-.7,5.971-1.013.937-1.792,1.912-3.584,2.849-5.376a.712.712,0,0,1,.976-.312.8.8,0,0,1,.312.312" transform="translate(13074.021 -12149.162)" fill="#fec700" stroke="#000" stroke-width="1"/>
  </g>
</svg>
