<svg xmlns="http://www.w3.org/2000/svg" xmlns:xlink="http://www.w3.org/1999/xlink" width="95.001" height="95" viewBox="0 0 95.001 95">
  <defs>
    <clipPath id="clip-path">
      <rect id="Rectangle_413829" data-name="Rectangle 413829" width="95" height="95" fill="none" stroke="#707070" stroke-width="2"/>
    </clipPath>
  </defs>
  <g id="Group_1222912" data-name="Group 1222912" transform="translate(-778.301 -7058)">
    <ellipse id="Ellipse_12929" data-name="Ellipse 12929" cx="27.416" cy="27.416" rx="27.416" ry="27.416" transform="translate(818.469 7096.216)" fill="#7fe5cf"/>
    <ellipse id="Ellipse_12930" data-name="Ellipse 12930" cx="19.939" cy="19.939" rx="19.939" ry="19.939" transform="translate(778.301 7064.886)" fill="#7fe5cf"/>
    <g id="Group_1222855" data-name="Group 1222855" transform="translate(-22471.699 11945)">
      <rect id="Rectangle_413763" data-name="Rectangle 413763" width="95" height="95" transform="translate(23250 -4887)" fill="none"/>
      <g id="Group_1222850" data-name="Group 1222850" transform="translate(23250 -4887)">
        <g id="Group_1222849" data-name="Group 1222849" clip-path="url(#clip-path)">
          <path id="Path_1285844" data-name="Path 1285844" d="M159.628,386.413V383.3a3.667,3.667,0,0,1,3.667-3.668h43.157a3.667,3.667,0,0,1,3.667,3.668v3.114" transform="translate(-137.414 -326.801)" fill="none" stroke="#000" stroke-linecap="round" stroke-linejoin="round" stroke-width="2"/>
          <path id="Path_1285845" data-name="Path 1285845" d="M159.627,254.306v4.219a3.668,3.668,0,0,0,3.666,3.668h6.533" transform="translate(-137.413 -218.917)" fill="none" stroke="#000" stroke-linecap="round" stroke-linejoin="round" stroke-width="2"/>
          <path id="Path_1285846" data-name="Path 1285846" d="M313.338,254.306v4.219a3.668,3.668,0,0,1-3.668,3.668H279.533" transform="translate(-240.633 -218.917)" fill="none" stroke="#000" stroke-linecap="round" stroke-linejoin="round" stroke-width="2"/>
          <path id="Path_1285847" data-name="Path 1285847" d="M475.034,199.4l-6.712-2.6-5.661,2.6a1.394,1.394,0,0,0-1.271.821l-1.178,2.611a1.394,1.394,0,0,0,1.27,1.967h14.73a1.394,1.394,0,0,0,1.271-1.967L476.3,200.22a1.394,1.394,0,0,0-1.271-.821" transform="translate(-396.061 -169.41)" fill="#8d9ca8" stroke="#707070" stroke-width="2"/>
          <path id="Path_1285848" data-name="Path 1285848" d="M463.7,218.934a1.394,1.394,0,0,0,1.271,1.967H461.48a1.394,1.394,0,0,1-1.271-1.967l1.178-2.612a1.4,1.4,0,0,1,1.271-.82h3.492a1.4,1.4,0,0,0-1.271.82Z" transform="translate(-396.058 -185.512)" fill="#7a8c98"/>
          <path id="Path_1285849" data-name="Path 1285849" d="M475.034,215.5H462.661a1.394,1.394,0,0,0-1.271.821l-1.178,2.611a1.394,1.394,0,0,0,1.27,1.967h14.73a1.394,1.394,0,0,0,1.271-1.967l-1.178-2.611A1.394,1.394,0,0,0,475.034,215.5Z" transform="translate(-396.061 -185.514)" fill="none" stroke="#000" stroke-linecap="round" stroke-linejoin="round" stroke-width="2"/>
          <path id="Path_1285850" data-name="Path 1285850" d="M410.608,10H378.63a4.771,4.771,0,0,0-4.771,4.771V33.827A4.771,4.771,0,0,0,378.63,38.6h31.978a4.771,4.771,0,0,0,4.771-4.771V14.771A4.771,4.771,0,0,0,410.608,10" transform="translate(-321.833 -8.608)" fill="#8d9ca8" stroke="#000" stroke-width="2"/>
          <rect id="Rectangle_413820" data-name="Rectangle 413820" width="31.505" height="18.583" transform="translate(57.034 6.399)" fill="#9be69d" stroke="#707070" stroke-width="2"/>
          <rect id="Rectangle_413821" data-name="Rectangle 413821" width="31.505" height="18.583" transform="translate(57.034 6.399)" fill="none" stroke="#000" stroke-linecap="round" stroke-linejoin="round" stroke-width="2"/>
          <path id="Path_1285851" data-name="Path 1285851" d="M111.623,199.4l-6.712-2.6-5.661,2.6a1.394,1.394,0,0,0-1.271.821L96.8,202.831a1.394,1.394,0,0,0,1.271,1.967H112.8a1.394,1.394,0,0,0,1.27-1.967l-1.178-2.611a1.394,1.394,0,0,0-1.271-.821" transform="translate(-83.222 -169.41)" fill="#8d9ca8" stroke="#707070" stroke-width="2"/>
          <path id="Path_1285852" data-name="Path 1285852" d="M100.289,218.934a1.394,1.394,0,0,0,1.271,1.967H98.068a1.393,1.393,0,0,1-1.271-1.967l1.178-2.612a1.4,1.4,0,0,1,1.271-.82h3.492a1.4,1.4,0,0,0-1.271.82Z" transform="translate(-83.219 -185.512)" fill="#7a8c98"/>
          <path id="Path_1285853" data-name="Path 1285853" d="M111.623,215.5H99.249a1.394,1.394,0,0,0-1.271.821L96.8,218.935a1.394,1.394,0,0,0,1.271,1.967H112.8a1.394,1.394,0,0,0,1.27-1.967l-1.178-2.611A1.394,1.394,0,0,0,111.623,215.5Z" transform="translate(-83.222 -185.514)" fill="none" stroke="#000" stroke-linecap="round" stroke-linejoin="round" stroke-width="2"/>
          <path id="Path_1285854" data-name="Path 1285854" d="M47.2,10H15.219a4.771,4.771,0,0,0-4.771,4.771V33.827A4.771,4.771,0,0,0,15.219,38.6H47.2a4.771,4.771,0,0,0,4.771-4.771V14.771A4.771,4.771,0,0,0,47.2,10" transform="translate(-8.994 -8.608)" fill="#8d9ca8" stroke="#000" stroke-width="2"/>
          <rect id="Rectangle_413823" data-name="Rectangle 413823" width="31.505" height="18.583" transform="translate(6.461 6.399)" fill="#9be69d" stroke="#707070" stroke-width="2"/>
          <path id="Path_1285855" data-name="Path 1285855" d="M46.426,56.811v7.758H77.932V45.986H46.426v4.338" transform="translate(-39.966 -39.587)" fill="none" stroke="#000" stroke-linecap="round" stroke-linejoin="round" stroke-width="2"/>
          <path id="Path_1285856" data-name="Path 1285856" d="M475.034,617.766l-6.712-2.6-5.661,2.6a1.394,1.394,0,0,0-1.271.821l-1.178,2.612a1.394,1.394,0,0,0,1.27,1.967h14.73a1.394,1.394,0,0,0,1.271-1.967l-1.178-2.612a1.394,1.394,0,0,0-1.271-.821" transform="translate(-396.061 -529.557)" fill="#8d9ca8" stroke="#707070" stroke-width="2"/>
          <path id="Path_1285857" data-name="Path 1285857" d="M463.7,637.3a1.394,1.394,0,0,0,1.271,1.967H461.48a1.394,1.394,0,0,1-1.271-1.967l1.178-2.612a1.4,1.4,0,0,1,1.271-.82h3.492a1.4,1.4,0,0,0-1.271.82Z" transform="translate(-396.058 -545.657)" fill="#7a8c98"/>
          <path id="Path_1285858" data-name="Path 1285858" d="M475.034,633.868H462.661a1.394,1.394,0,0,0-1.271.821l-1.178,2.612a1.394,1.394,0,0,0,1.27,1.967h14.73a1.394,1.394,0,0,0,1.271-1.967l-1.178-2.612A1.394,1.394,0,0,0,475.034,633.868Z" transform="translate(-396.061 -545.659)" fill="none" stroke="#000" stroke-linecap="round" stroke-linejoin="round" stroke-width="2"/>
          <path id="Path_1285859" data-name="Path 1285859" d="M410.608,428.366H378.63a4.771,4.771,0,0,0-4.771,4.771v19.056a4.771,4.771,0,0,0,4.771,4.771h31.978a4.771,4.771,0,0,0,4.771-4.771V433.137a4.771,4.771,0,0,0-4.771-4.771" transform="translate(-321.833 -368.754)" fill="#8d9ca8" stroke="#707070" stroke-width="2"/>
          <path id="Path_1285860" data-name="Path 1285860" d="M407.747,428.36H410.6a4.772,4.772,0,0,1,4.77,4.772v19.056a4.77,4.77,0,0,1-4.77,4.77H378.625a4.772,4.772,0,0,1-4.772-4.77V433.132a4.773,4.773,0,0,1,4.772-4.772h22.631" transform="translate(-321.827 -368.749)" fill="none" stroke="#000" stroke-linecap="round" stroke-linejoin="round" stroke-width="2"/>
          <rect id="Rectangle_413824" data-name="Rectangle 413824" width="31.505" height="18.583" transform="translate(57.034 64.619)" fill="#9be69d" stroke="#707070" stroke-width="2"/>
          <rect id="Rectangle_413825" data-name="Rectangle 413825" width="31.505" height="18.583" transform="translate(57.034 64.619)" fill="none" stroke="#000" stroke-linecap="round" stroke-linejoin="round" stroke-width="2"/>
          <path id="Path_1285861" data-name="Path 1285861" d="M111.623,617.766l-6.712-2.6-5.661,2.6a1.394,1.394,0,0,0-1.271.821L96.8,621.2a1.394,1.394,0,0,0,1.271,1.967H112.8a1.394,1.394,0,0,0,1.27-1.967l-1.178-2.612a1.394,1.394,0,0,0-1.271-.821" transform="translate(-83.222 -529.557)" fill="#8d9ca8" stroke="#707070" stroke-width="2"/>
          <path id="Path_1285862" data-name="Path 1285862" d="M100.289,637.3a1.394,1.394,0,0,0,1.271,1.967H98.068A1.393,1.393,0,0,1,96.8,637.3l1.178-2.612a1.4,1.4,0,0,1,1.271-.82h3.492a1.4,1.4,0,0,0-1.271.82Z" transform="translate(-83.219 -545.657)" fill="#7a8c98"/>
          <path id="Path_1285863" data-name="Path 1285863" d="M111.623,633.868H99.249a1.394,1.394,0,0,0-1.271.821L96.8,637.3a1.394,1.394,0,0,0,1.271,1.967H112.8a1.394,1.394,0,0,0,1.27-1.967l-1.178-2.612A1.394,1.394,0,0,0,111.623,633.868Z" transform="translate(-83.222 -545.659)" fill="none" stroke="#000" stroke-linecap="round" stroke-linejoin="round" stroke-width="2"/>
          <path id="Path_1285864" data-name="Path 1285864" d="M47.2,428.366H15.219a4.771,4.771,0,0,0-4.771,4.771v19.056a4.771,4.771,0,0,0,4.771,4.771H47.2a4.771,4.771,0,0,0,4.771-4.771V433.137a4.771,4.771,0,0,0-4.771-4.771" transform="translate(-8.994 -368.754)" fill="#8d9ca8" stroke="#000" stroke-width="2"/>
          <rect id="Rectangle_413827" data-name="Rectangle 413827" width="31.505" height="18.583" transform="translate(6.461 64.619)" fill="#fe646f" stroke="#707070" stroke-width="2"/>
          <rect id="Rectangle_413828" data-name="Rectangle 413828" width="31.505" height="18.583" transform="translate(6.461 64.619)" fill="none" stroke="#000" stroke-linecap="round" stroke-linejoin="round" stroke-width="2"/>
          <line id="Line_982" data-name="Line 982" y1="9.554" transform="translate(47.459 43.276)" fill="none" stroke="#000" stroke-linecap="round" stroke-linejoin="round" stroke-width="2"/>
          <path id="Path_1285865" data-name="Path 1285865" d="M127.021,85.541l3.558,4.317,5.693-9.374" transform="translate(-109.345 -69.284)" fill="none" stroke="#000" stroke-linecap="round" stroke-linejoin="round" stroke-width="2"/>
          <path id="Path_1285866" data-name="Path 1285866" d="M493.176,85.541l3.558,4.317,5.693-9.374" transform="translate(-424.545 -69.284)" fill="none" stroke="#000" stroke-linecap="round" stroke-linejoin="round" stroke-width="2"/>
          <path id="Path_1285867" data-name="Path 1285867" d="M493.176,504.872l3.558,4.317,5.693-9.374" transform="translate(-424.545 -430.261)" fill="none" stroke="#000" stroke-linecap="round" stroke-linejoin="round" stroke-width="2"/>
          <line id="Line_983" data-name="Line 983" x2="8.881" y2="8.881" transform="translate(17.773 69.491)" fill="none" stroke="#000" stroke-linecap="round" stroke-linejoin="round" stroke-width="2"/>
          <line id="Line_984" data-name="Line 984" y1="8.881" x2="8.881" transform="translate(17.773 69.491)" fill="none" stroke="#000" stroke-linecap="round" stroke-linejoin="round" stroke-width="2"/>
        </g>
      </g>
    </g>
  </g>
</svg>
