<svg xmlns="http://www.w3.org/2000/svg" xmlns:xlink="http://www.w3.org/1999/xlink" width="115" height="115" viewBox="0 0 115 115">
  <defs>
    <clipPath id="clip-path">
      <rect id="Rectangle_411098" data-name="Rectangle 411098" width="115" height="115" transform="translate(799.781 1954)" fill="#e8bad8" opacity="0.41"/>
    </clipPath>
  </defs>
  <g id="Mask_Group_1099390" data-name="Mask Group 1099390" transform="translate(-799.781 -1954)" clip-path="url(#clip-path)">
    <g id="Group_1220765" data-name="Group 1220765" transform="translate(799.781 1960.273)">
      <g id="Group_1220751" data-name="Group 1220751">
        <ellipse id="Ellipse_12746" data-name="Ellipse 12746" cx="28.658" cy="28.658" rx="28.658" ry="28.658" transform="translate(56.527 44.289)" fill="#7fe5cf"/>
        <ellipse id="Ellipse_12747" data-name="Ellipse 12747" cx="20.842" cy="20.842" rx="20.842" ry="20.842" fill="#7fe5cf"/>
      </g>
      <g id="task_14662766" transform="translate(18.656 5.203)">
        <g id="Group_1220757" data-name="Group 1220757" transform="translate(0.001 0)">
          <rect id="Rectangle_411097" data-name="Rectangle 411097" width="5.322" height="10.534" transform="translate(38.597 41.34)" fill="#685e68"/>
          <g id="Group_1220752" data-name="Group 1220752" transform="translate(5.733 0)">
            <path id="Path_1242423" data-name="Path 1242423" d="M71.087,48.957a1.43,1.43,0,0,0,1.43,1.43h68.191a1.43,1.43,0,0,0,1.43-1.43V8.929a1.43,1.43,0,0,0-1.43-1.43H72.517a1.43,1.43,0,0,0-1.43,1.43Z" transform="translate(-71.087 -7.499)" fill="#eaf6ff"/>
            <path id="Path_1242424" data-name="Path 1242424" d="M401.156,7.5h-7.685a1.43,1.43,0,0,1,1.429,1.43V48.957a1.43,1.43,0,0,1-1.429,1.43h7.685a1.43,1.43,0,0,0,1.43-1.43V8.929A1.43,1.43,0,0,0,401.156,7.5Z" transform="translate(-331.536 -7.499)" fill="#d8ecfe"/>
          </g>
          <g id="Group_1220753" data-name="Group 1220753" transform="translate(26.045 5.956)">
            <path id="Path_1242425" data-name="Path 1242425" d="M179.044,53.985a13.062,13.062,0,0,0,.177,2.145.679.679,0,0,1-.33.7l-1.737,1a.68.68,0,0,0-.249.929l3.425,5.932a.68.68,0,0,0,.929.249l1.739-1a.679.679,0,0,1,.772.065,13.016,13.016,0,0,0,1.889,1.3c.581.328,1.555.128,2.187.364a.679.679,0,0,1,.441.636v2a.68.68,0,0,0,.68.68l6.114.04a.68.68,0,0,0,.68-.68v-2a.679.679,0,0,1,.441-.636,14.438,14.438,0,0,0,3.907-2.286.679.679,0,0,1,.772-.065l1.739,1a.68.68,0,0,0,.929-.249l2.831-5.1a.68.68,0,0,0-.249-.929l-1.737-1a.678.678,0,0,1-.33-.7,19.423,19.423,0,0,0,.451-2.6,13.07,13.07,0,0,0-.176-2.145.679.679,0,0,1,.33-.7l1.737-1a.68.68,0,0,0,.249-.929l-3.083-5.043a.68.68,0,0,0-.929-.249l-1.739,1a.679.679,0,0,1-.772-.065c-.661-.546-1.226-1.7-1.988-2.11a12.9,12.9,0,0,0-1.572-.712.679.679,0,0,1-.441-.636v-2a.68.68,0,0,0-.68-.68H188.6a.68.68,0,0,0-.68.68v2a.679.679,0,0,1-.441.636,12.963,12.963,0,0,0-3.711,2.146.679.679,0,0,1-.772.065l-1.739-1a.68.68,0,0,0-.929.249l-3.425,5.932a.68.68,0,0,0,.249.929l1.737,1a.678.678,0,0,1,.33.7A13.07,13.07,0,0,0,179.044,53.985Zm12.982-7.345a7.345,7.345,0,0,1,6.683,4.3c.424.929,1.829,1.991.662,5.786-1.288,4.188-2.752,4.041-6.326,4.538a7.345,7.345,0,1,1-1.02-14.62Z" transform="translate(-176.814 -38.501)" fill="#7a6d79"/>
            <path id="Path_1242426" data-name="Path 1242426" d="M244.095,74.79l-1.737-1a.678.678,0,0,1-.33-.7,13.13,13.13,0,0,0,0-4.29.678.678,0,0,1,.33-.7l1.737-1a.68.68,0,0,0,.249-.929l-3.424-5.932a.68.68,0,0,0-.929-.249l-1.739,1a.679.679,0,0,1-.772-.065,13.005,13.005,0,0,0-2.14-1.435,18.138,18.138,0,0,1,.566,8.4,7.347,7.347,0,0,1-5.664,10.323,17.968,17.968,0,0,1-7.388,4.039,12.913,12.913,0,0,0,1.822.85.679.679,0,0,1,.441.636v2a.68.68,0,0,0,.68.68h6.849a.68.68,0,0,0,.68-.68v-2a.679.679,0,0,1,.441-.636,12.963,12.963,0,0,0,3.711-2.146.679.679,0,0,1,.772-.065l1.739,1a.68.68,0,0,0,.929-.249l3.424-5.932A.68.68,0,0,0,244.095,74.79Z" transform="translate(-214.009 -55.459)" fill="#685e68"/>
          </g>
          <path id="Path_1242427" data-name="Path 1242427" d="M190.811,274.895a.715.715,0,0,0,.715-.715v-1.851a2.866,2.866,0,0,0-2.866-2.866H154.7a2.866,2.866,0,0,0-2.866,2.866v1.851a.715.715,0,0,0,.715.715Z" transform="translate(-130.586 -219.136)" fill="#7a6d79"/>
          <g id="Group_1220754" data-name="Group 1220754" transform="translate(30.421 73.708)">
            <path id="Path_1242428" data-name="Path 1242428" d="M221.267,392.416v9.676a5.641,5.641,0,0,1-1.6,3l-6.6,6.287a4.639,4.639,0,0,1-2.636,1.565h-9.589a1.249,1.249,0,0,1-1.248-1.248V392.416a1.249,1.249,0,0,1,1.248-1.248h19.178A1.249,1.249,0,0,1,221.267,392.416Z" transform="translate(-199.593 -391.168)" fill="#ffe177"/>
            <path id="Path_1242429" data-name="Path 1242429" d="M266.839,448.032v.751a3.456,3.456,0,0,1-1.011,2.444l-6.64,6.64a3.454,3.454,0,0,1-2.442,1.011H256v-9.839a1.008,1.008,0,0,1,1.008-1.008h9.829Z" transform="translate(-245.165 -437.108)" fill="#ffd15b"/>
          </g>
          <g id="Group_1220755" data-name="Group 1220755" transform="translate(0 73.708)">
            <path id="Path_1242430" data-name="Path 1242430" d="M62.92,392.416v9.676a5.641,5.641,0,0,1-1.6,3l-6.6,6.287a4.639,4.639,0,0,1-2.636,1.565H42.494a1.249,1.249,0,0,1-1.248-1.248V392.416a1.249,1.249,0,0,1,1.248-1.248H61.672A1.249,1.249,0,0,1,62.92,392.416Z" transform="translate(-41.246 -391.168)" fill="#ffe177"/>
            <path id="Path_1242431" data-name="Path 1242431" d="M108.493,448.032v.751a3.456,3.456,0,0,1-1.011,2.444l-6.64,6.64a3.454,3.454,0,0,1-2.442,1.011h-.744v-9.839a1.008,1.008,0,0,1,1.008-1.008h9.829Z" transform="translate(-86.819 -437.108)" fill="#ffd15b"/>
          </g>
          <g id="Group_1220756" data-name="Group 1220756" transform="translate(60.841 73.708)">
            <path id="Path_1242432" data-name="Path 1242432" d="M379.613,392.416v9.676a5.641,5.641,0,0,1-1.6,3l-6.6,6.287a4.639,4.639,0,0,1-2.636,1.565h-9.589a1.249,1.249,0,0,1-1.248-1.248V392.416a1.249,1.249,0,0,1,1.248-1.248h19.178A1.249,1.249,0,0,1,379.613,392.416Z" transform="translate(-357.939 -391.168)" fill="#ffe177"/>
            <path id="Path_1242433" data-name="Path 1242433" d="M425.185,448.032v.751a3.456,3.456,0,0,1-1.011,2.444l-6.64,6.64a3.454,3.454,0,0,1-2.442,1.011h-.744v-9.839a1.008,1.008,0,0,1,1.008-1.008h9.829Z" transform="translate(-403.511 -437.108)" fill="#ffd15b"/>
          </g>
        </g>
        <g id="Group_1220764" data-name="Group 1220764" transform="translate(0 0)">
          <g id="Group_1220761" data-name="Group 1220761" transform="translate(0 73.708)">
            <g id="Group_1220758" data-name="Group 1220758">
              <path id="Path_1242434" data-name="Path 1242434" d="M61.955,391.168H42.2a.961.961,0,0,0-.961.961V411.98a.961.961,0,0,0,.961.961H52.821a3.457,3.457,0,0,0,2.445-1.013l6.637-6.637a3.457,3.457,0,0,0,1.013-2.445V392.129A.961.961,0,0,0,61.955,391.168Z" transform="translate(-41.239 -391.168)" fill="none" stroke="#000" stroke-linecap="round" stroke-linejoin="round" stroke-miterlimit="10" stroke-width="1"/>
              <path id="Path_1242435" data-name="Path 1242435" d="M108.034,448.044H97.655v10.535" transform="translate(-86.817 -437.117)" fill="none" stroke="#000" stroke-linecap="round" stroke-linejoin="round" stroke-miterlimit="10" stroke-width="1"/>
            </g>
            <g id="Group_1220759" data-name="Group 1220759" transform="translate(30.421)">
              <path id="Path_1242436" data-name="Path 1242436" d="M220.3,391.168H200.546a.961.961,0,0,0-.961.961V411.98a.961.961,0,0,0,.961.961h10.622a3.457,3.457,0,0,0,2.445-1.013l6.637-6.637a3.457,3.457,0,0,0,1.013-2.445V392.129A.961.961,0,0,0,220.3,391.168Z" transform="translate(-199.585 -391.168)" fill="none" stroke="#000" stroke-linecap="round" stroke-linejoin="round" stroke-miterlimit="10" stroke-width="1"/>
              <path id="Path_1242437" data-name="Path 1242437" d="M266.38,448.044H256v10.535" transform="translate(-245.163 -437.117)" fill="none" stroke="#000" stroke-linecap="round" stroke-linejoin="round" stroke-miterlimit="10" stroke-width="1"/>
            </g>
            <g id="Group_1220760" data-name="Group 1220760" transform="translate(60.841 0)">
              <path id="Path_1242438" data-name="Path 1242438" d="M357.931,407.384v4.6a.961.961,0,0,0,.961.961h10.622a3.458,3.458,0,0,0,2.444-1.012l6.638-6.638a3.454,3.454,0,0,0,1.012-2.446V392.131a.961.961,0,0,0-.961-.961H358.892a.961.961,0,0,0-.961.961v8.53" transform="translate(-357.931 -391.17)" fill="none" stroke="#000" stroke-linecap="round" stroke-linejoin="round" stroke-miterlimit="10" stroke-width="1"/>
              <path id="Path_1242439" data-name="Path 1242439" d="M424.726,448.044H414.347v10.535" transform="translate(-403.509 -437.118)" fill="none" stroke="#000" stroke-linecap="round" stroke-linejoin="round" stroke-miterlimit="10" stroke-width="1"/>
            </g>
          </g>
          <path id="Path_1242440" data-name="Path 1242440" d="M158.5,352.261v-6.11a2.133,2.133,0,0,0-2.132-2.133H99.787a2.132,2.132,0,0,0-2.132,2.133v6.11" transform="translate(-86.817 -279.368)" fill="none" stroke="#000" stroke-linecap="round" stroke-linejoin="round" stroke-miterlimit="10" stroke-width="1"/>
          <line id="Line_639" data-name="Line 639" y1="16.775" transform="translate(41.259 56.118)" fill="none" stroke="#000" stroke-linecap="round" stroke-linejoin="round" stroke-miterlimit="10" stroke-width="1"/>
          <g id="Group_1220763" data-name="Group 1220763" transform="translate(5.735 0)">
            <g id="Group_1220762" data-name="Group 1220762">
              <path id="Path_1242441" data-name="Path 1242441" d="M164.366,274.893h26.445a.714.714,0,0,0,.715-.715v-1.852a2.866,2.866,0,0,0-2.866-2.866H154.7a2.866,2.866,0,0,0-2.866,2.866v1.852a.716.716,0,0,0,.715.715h5.1" transform="translate(-136.32 -219.134)" fill="none" stroke="#000" stroke-linecap="round" stroke-linejoin="round" stroke-miterlimit="10" stroke-width="1"/>
              <path id="Path_1242442" data-name="Path 1242442" d="M174.061,7.5H223.9a1.429,1.429,0,0,1,1.429,1.429v24" transform="translate(-154.279 -7.5)" fill="none" stroke="#000" stroke-linecap="round" stroke-linejoin="round" stroke-miterlimit="10" stroke-width="1"/>
              <path id="Path_1242443" data-name="Path 1242443" d="M142.139,39.648v9.308a1.431,1.431,0,0,1-1.429,1.431H72.52a1.431,1.431,0,0,1-1.429-1.431V8.929A1.429,1.429,0,0,1,72.52,7.5H84.149" transform="translate(-71.091 -7.5)" fill="none" stroke="#000" stroke-linecap="round" stroke-linejoin="round" stroke-miterlimit="10" stroke-width="1"/>
            </g>
            <line id="Line_640" data-name="Line 640" y2="6.44" transform="translate(38.185 43.402)" fill="none" stroke="#000" stroke-linecap="round" stroke-linejoin="round" stroke-miterlimit="10" stroke-width="1"/>
            <line id="Line_641" data-name="Line 641" y1="6.535" transform="translate(32.863 43.402)" fill="none" stroke="#000" stroke-linecap="round" stroke-linejoin="round" stroke-miterlimit="10" stroke-width="1"/>
          </g>
          <path id="Path_1242444" data-name="Path 1242444" d="M203.97,54.021a13.078,13.078,0,0,0-.261-2.605l2.741-1.581-4.106-7.108L199.6,44.309a12.935,12.935,0,0,0-4.507-2.605V38.54h-8.207V41.7a12.935,12.935,0,0,0-4.507,2.605l-2.743-1.583-4.106,7.108,2.741,1.581a13.109,13.109,0,0,0,0,5.208l-2.741,1.583,4.106,7.108,2.743-1.585a12.97,12.97,0,0,0,4.507,2.607V69.5h8.207V66.337A12.97,12.97,0,0,0,199.6,63.73l2.743,1.585,4.106-7.108-2.741-1.583A13.059,13.059,0,0,0,203.97,54.021Zm-12.979,7.343a7.344,7.344,0,1,1,7.345-7.343A7.344,7.344,0,0,1,190.991,61.363Z" transform="translate(-149.732 -32.577)" fill="none" stroke="#000" stroke-linecap="round" stroke-linejoin="round" stroke-miterlimit="10" stroke-width="1"/>
        </g>
      </g>
    </g>
  </g>
</svg>
