<svg xmlns="http://www.w3.org/2000/svg" xmlns:xlink="http://www.w3.org/1999/xlink" width="95" height="94.882" viewBox="0 0 95 94.882">
  <defs>
    <clipPath id="clip-path">
      <rect id="Rectangle_413903" data-name="Rectangle 413903" width="94" height="92.739" fill="none"/>
    </clipPath>
  </defs>
  <g id="Group_1222895" data-name="Group 1222895" transform="translate(-3802 5957)">
    <rect id="Rectangle_413904" data-name="Rectangle 413904" width="94.882" height="94.882" transform="translate(3802 -5957)" fill="none"/>
    <ellipse id="Ellipse_12927" data-name="Ellipse 12927" cx="22.588" cy="22.588" rx="22.588" ry="22.588" transform="translate(3849.382 -5909.08)" fill="#7fe5cf"/>
    <ellipse id="Ellipse_12928" data-name="Ellipse 12928" cx="16.427" cy="16.427" rx="16.427" ry="16.427" transform="translate(3809.271 -5944.821)" fill="#7fe5cf"/>
    <g id="Group_1222894" data-name="Group 1222894" transform="translate(3803 -5955.508)">
      <g id="Group_1222893" data-name="Group 1222893" clip-path="url(#clip-path)">
        <path id="Path_1286215" data-name="Path 1286215" d="M147.736,130.7s-24.846-8.89-42.887,3.3l54.813,28.741,16.131-7.128s-9.786-14.654-19.724-21.076-8.333-3.832-8.333-3.832" transform="translate(-82.947 -100.852)" fill="#43aac2"/>
        <path id="Path_1286216" data-name="Path 1286216" d="M92.867,109.7l17.311-5.576,2.289,10.493,4.92-.92V130.63l-14.372-14.408-4.893,1.153Z" transform="translate(-73.468 -82.315)" fill="#ffeb92"/>
        <path id="Path_1286217" data-name="Path 1286217" d="M43.831,168.428a42.992,42.992,0,0,0-21.345,18.643L16.246,184.2a49.8,49.8,0,0,1,19.086-19.245l1.611,1.647a1.435,1.435,0,0,0,1.406.364l3.223-.935Z" transform="translate(-12.852 -130.414)" fill="#43aac2"/>
        <path id="Path_1286218" data-name="Path 1286218" d="M205.491,347.994a5.172,5.172,0,1,1-5.151,5.179,5.185,5.185,0,0,1,5.151-5.179" transform="translate(-158.491 -275.118)" fill="#97d0dc"/>
        <path id="Path_1286219" data-name="Path 1286219" d="M79.261,192.112l5.435,5.781a32.889,32.889,0,0,0-19.765,14.825l-6.557-3.009a40.171,40.171,0,0,1,20.887-17.6" transform="translate(-46.18 -151.88)" fill="#97d0dc"/>
        <path id="Path_1286220" data-name="Path 1286220" d="M162.63,200.262l-6.557,3.009a33.2,33.2,0,0,0-23.857-15.649,1.422,1.422,0,0,0-.379,2.819,30.37,30.37,0,0,1,21.645,14.018l-7.062,3.247a22.517,22.517,0,0,0-37.191,0l-7.062-3.247a30.1,30.1,0,0,1,19.449-13.606l1.153,1.2a1.422,1.422,0,0,0,1.027.444,1.756,1.756,0,0,0,.49-.079,1.462,1.462,0,0,0,.932-1.283l.49-10.9c.711-.048,1.422-.079,2.117-.079a40.147,40.147,0,0,1,34.806,20.1" transform="translate(-80.825 -142.433)" fill="#97d0dc"/>
        <path id="Path_1286221" data-name="Path 1286221" d="M180.24,319.969A8.023,8.023,0,1,0,188.25,328a8.017,8.017,0,0,0-8.01-8.031m0,19.862A11.84,11.84,0,1,1,192.058,328a11.842,11.842,0,0,1-11.818,11.832" transform="translate(-133.241 -249.944)" fill="#43aac2"/>
        <path id="Path_1286222" data-name="Path 1286222" d="M229.462,20.366a1.427,1.427,0,0,0,0,2.012l3.713,3.722-3.713,3.738a1.427,1.427,0,0,0,0,2.011,1.41,1.41,0,0,0,1,.412,1.475,1.475,0,0,0,1.011-.412l3.713-3.722,3.713,3.722a1.447,1.447,0,0,0,2.022,0,1.427,1.427,0,0,0,0-2.011L237.2,26.1l3.713-3.722a1.426,1.426,0,0,0-2.022-2.012l-3.713,3.722-3.713-3.722a1.418,1.418,0,0,0-2.007,0m5.719,18.294A12.561,12.561,0,1,1,247.71,26.1a12.554,12.554,0,0,1-12.529,12.56" transform="translate(-176.143 -10.704)" fill="#ff7863"/>
        <path id="Path_1286223" data-name="Path 1286223" d="M259.4,52.329l-3.713,3.722a1.475,1.475,0,0,1-1.011.412,1.41,1.41,0,0,1-1-.412,1.427,1.427,0,0,1,0-2.011l3.713-3.738-3.713-3.722a1.421,1.421,0,0,1,2.007-2.012L259.4,48.29l3.713-3.722a1.426,1.426,0,1,1,2.022,2.012L261.422,50.3l3.713,3.738a1.427,1.427,0,0,1,0,2.011,1.447,1.447,0,0,1-2.022,0Z" transform="translate(-200.361 -34.906)"/>
        <path id="Path_1286224" data-name="Path 1286224" d="M189.57,342.411a5.159,5.159,0,1,0,5.151-5.179,5.158,5.158,0,0,0-5.151,5.179m-2.844,0a8,8,0,1,1,7.994,8.015,8.017,8.017,0,0,1-7.994-8.015" transform="translate(-147.721 -264.355)"/>
        <path id="Path_1286225" data-name="Path 1286225" d="M157.653,317.237a11.818,11.818,0,1,0,11.818-11.848,11.842,11.842,0,0,0-11.818,11.848m-2.844,0a14.662,14.662,0,1,1,14.662,14.683,14.7,14.7,0,0,1-14.662-14.683" transform="translate(-122.471 -239.181)"/>
        <path id="Path_1286226" data-name="Path 1286226" d="M46.51,15.4A12.529,12.529,0,1,0,59.038,2.835,12.554,12.554,0,0,0,46.51,15.4M40.79,48.42A30.1,30.1,0,0,0,21.341,62.026L28.4,65.273a22.505,22.505,0,0,1,37.191,0l7.062-3.247A30.37,30.37,0,0,0,51.012,48.009a1.422,1.422,0,0,1,.379-2.819A33.2,33.2,0,0,1,75.248,60.839l6.557-3.01A40.148,40.148,0,0,0,47,37.729c-.7,0-1.406.032-2.117.079l-.49,10.9a1.462,1.462,0,0,1-.932,1.283,1.758,1.758,0,0,1-.49.079,1.422,1.422,0,0,1-1.027-.443Zm-7.71-8.189a40.171,40.171,0,0,0-20.887,17.6l6.557,3.01A32.89,32.89,0,0,1,38.515,46.013Zm-10.6-5.686A49.8,49.8,0,0,0,3.394,53.79l6.241,2.867A42.993,42.993,0,0,1,30.979,38.014L28.72,35.622l-3.223.934a1.434,1.434,0,0,1-1.406-.364ZM93.844,53.806a1.461,1.461,0,0,1,.079,1.125,1.39,1.39,0,0,1-.758.824L84.4,59.777H84.38l-9.1,4.182v.016l-9.622,4.4a1.3,1.3,0,0,1-.584.127,1.383,1.383,0,0,1-1.217-.681,19.672,19.672,0,0,0-33.7,0,1.437,1.437,0,0,1-1.311.681,1.194,1.194,0,0,1-.506-.127l-9.606-4.4-.016-.016-9.1-4.182L.834,55.754a1.439,1.439,0,0,1-.758-.824,1.4,1.4,0,0,1,.095-1.125A52.584,52.584,0,0,1,20.409,32.47l-3.033-3.088a1.421,1.421,0,1,1,2.022-2l6.114,6.193,3.255-.935a1.409,1.409,0,0,1,1.422.4L34.5,37.6l7.2,7.619L42.244,33.2l-3.223.792a1.43,1.43,0,0,1-1.185-.237,1.456,1.456,0,0,1-.585-1.077L36.714,21.81a1.42,1.42,0,0,1,1.343-1.5,1.443,1.443,0,0,1,1.5,1.362l.458,9.139,3.4-.84a1.428,1.428,0,0,1,1.754,1.457l-.158,3.516c.663-.016,1.327-.063,1.991-.063A42.97,42.97,0,0,1,84.38,56.657l6.225-2.867A50.356,50.356,0,0,0,62.277,30.459a14.507,14.507,0,0,1-3.239.348A15.391,15.391,0,1,1,66.4,28.922,53.333,53.333,0,0,1,93.844,53.806" transform="translate(0)"/>
      </g>
    </g>
  </g>
</svg>
