<svg xmlns="http://www.w3.org/2000/svg" xmlns:xlink="http://www.w3.org/1999/xlink" width="95" height="95" viewBox="0 0 95 95">
  <defs>
    <clipPath id="clip-path">
      <rect id="Rectangle_414341" data-name="Rectangle 414341" width="67.993" height="71.103" fill="none"/>
    </clipPath>
  </defs>
  <g id="Group_1223152" data-name="Group 1223152" transform="translate(2745 11284)">
    <rect id="Rectangle_414278" data-name="Rectangle 414278" width="95" height="95" transform="translate(-2745 -11284)" fill="none"/>
    <g id="Group_1223135" data-name="Group 1223135" transform="translate(1062.774 -237.197)">
      <ellipse id="Ellipse_12937" data-name="Ellipse 12937" cx="28.658" cy="28.658" rx="28.658" ry="28.658" transform="translate(-3770.09 -11011.514)" fill="#ffc94a"/>
      <ellipse id="Ellipse_12938" data-name="Ellipse 12938" cx="20.842" cy="20.842" rx="20.842" ry="20.842" transform="translate(-3806.617 -11044.803)" fill="#ffc94a"/>
    </g>
    <g id="Group_1223169" data-name="Group 1223169" transform="translate(-2730.918 -11272.051)">
      <g id="Group_1223168" data-name="Group 1223168" transform="translate(0 0)" clip-path="url(#clip-path)">
        <path id="Path_1287377" data-name="Path 1287377" d="M61.266,34.529H32.594a6.174,6.174,0,0,1,.783,6.322l-3.519-3.483-3.128,3.1,3.519,3.484a6.268,6.268,0,0,1-7.038-1.29,6.117,6.117,0,0,1-1.3-6.97L20.6,34.4H11.873l-1.3,1.29a6.119,6.119,0,0,1-1.3,6.97c-.261.258-.652.516-.912.773v2.453a3.155,3.155,0,0,0,3.127,3.1H61.4a3.155,3.155,0,0,0,3.125-3.1v-8.26a3.185,3.185,0,0,0-3.257-3.1" transform="translate(2.426 9.991)" fill="#8c9fb0"/>
        <path id="Path_1287378" data-name="Path 1287378" d="M58.8,23.2H29.74l-.13.129a6.27,6.27,0,0,1-7.038,1.29L16.837,30.3l5.735,5.677a6.27,6.27,0,0,1,7.038,1.29c.13.13.391.387.52.517H58.8a3.158,3.158,0,0,0,3.128-3.1V26.426A3.029,3.029,0,0,0,58.8,23.2" transform="translate(4.89 6.739)" fill="#57606f"/>
        <path id="Path_1287379" data-name="Path 1287379" d="M61.266,12H11.481a3.155,3.155,0,0,0-3.127,3.1v1.936a5.722,5.722,0,0,1,.912.776,6.116,6.116,0,0,1,1.3,6.967l1.693,1.679h7.82l1.694-1.679a6.114,6.114,0,0,1,1.3-6.967,6.268,6.268,0,0,1,7.038-1.29L26.6,20l3.128,3.1,3.519-3.485a6.132,6.132,0,0,1-1.173,6.841H61.135a3.156,3.156,0,0,0,3.128-3.1V15.1a2.821,2.821,0,0,0-3-3.1" transform="translate(2.426 3.486)" fill="#8c9fb0"/>
        <path id="Path_1287380" data-name="Path 1287380" d="M61.266.7H11.481A3.155,3.155,0,0,0,8.354,3.8v8.26a3.154,3.154,0,0,0,3.127,3.1H61.4a3.153,3.153,0,0,0,3.125-3.1V3.8A3.185,3.185,0,0,0,61.266.7" transform="translate(2.426 0.204)" fill="#57606f"/>
        <path id="Path_1287381" data-name="Path 1287381" d="M30.834,36.214a6.174,6.174,0,0,1,.782,6.322L28.1,39.053l-3.128,3.1,3.52,3.484a6.27,6.27,0,0,1-7.039-1.29,6.119,6.119,0,0,1-1.3-6.97l-1.3-1.29L14.413,31.7l3.128-3.1,5.735,5.678a6.266,6.266,0,0,1,7.037,1.29c.13.258.391.387.521.645" transform="translate(4.186 8.307)" fill="#4380a0"/>
        <path id="Path_1287382" data-name="Path 1287382" d="M10.462,16.125a5.592,5.592,0,0,1,.912.776,6.116,6.116,0,0,1,1.3,6.967l1.694,1.679,3.91,3.871-3.129,3.1-4.691-4.644-.912-.9a6.268,6.268,0,0,1-7.038-1.29,6.115,6.115,0,0,1-1.3-6.968L4.728,22.19l3.128-3.1L4.467,15.61a6.552,6.552,0,0,1,6,.515" transform="translate(0.188 4.392)" fill="#4380a0"/>
        <path id="Path_1287383" data-name="Path 1287383" d="M18.382,35.7l-4.431,4.387-1.3,1.29a6.116,6.116,0,0,1-1.3,6.968c-.259.258-.65.516-.911.774a6.251,6.251,0,0,1-6,.516l3.519-3.483-3.128-3.1L1.31,46.538a6.116,6.116,0,0,1,1.3-6.968,6.266,6.266,0,0,1,7.037-1.29l.912-.9,4.692-4.646,3.128-3.1,3.91-3.871,1.694-1.678a6.114,6.114,0,0,1,1.3-6.967,6.265,6.265,0,0,1,7.038-1.29l-3.519,3.483,3.127,3.1,3.519-3.484a6.128,6.128,0,0,1-1.173,6.839l-.13.129a6.265,6.265,0,0,1-7.037,1.29L21.38,32.859Z" transform="translate(0.217 4.435)" fill="#bdf9ff"/>
        <path id="Path_1287384" data-name="Path 1287384" d="M39.487,53.1V56.33H24.109v-4.9h5.6V48.2h4.171v3.226h5.6Z" transform="translate(7.002 14)" fill="#97a8c4"/>
        <path id="Path_1287385" data-name="Path 1287385" d="M43.716,52.5a1.633,1.633,0,0,1,.52,1.161,1.715,1.715,0,0,1-1.693,1.678H36.026V52.11h6.517a1,1,0,0,1,1.173.387" transform="translate(10.463 15.121)" fill="#232b3f"/>
        <path id="Path_1287386" data-name="Path 1287386" d="M25.956,52.029v3.226H19.44a1.428,1.428,0,0,1-1.174-.516,1.63,1.63,0,0,1-.52-1.161A1.718,1.718,0,0,1,19.44,51.9h6.515Z" transform="translate(5.154 15.074)" fill="#232b3f"/>
        <rect id="Rectangle_414340" data-name="Rectangle 414340" width="2.476" height="3.226" transform="translate(37.627 58.974)" fill="#232b3f"/>
        <path id="Path_1287387" data-name="Path 1287387" d="M47.391,38.2a2.462,2.462,0,0,1,2.475,2.451A2.385,2.385,0,0,1,47.391,43.1a2.462,2.462,0,0,1-2.478-2.453A2.385,2.385,0,0,1,47.391,38.2" transform="translate(13.044 11.095)" fill="#07cc66"/>
        <path id="Path_1287388" data-name="Path 1287388" d="M47.391,27a2.462,2.462,0,0,1,2.475,2.451A2.385,2.385,0,0,1,47.391,31.9a2.462,2.462,0,0,1-2.478-2.453A2.385,2.385,0,0,1,47.391,27" transform="translate(13.044 7.842)" fill="#07cc66"/>
        <path id="Path_1287389" data-name="Path 1287389" d="M47.391,15.7a2.462,2.462,0,0,1,2.475,2.451A2.385,2.385,0,0,1,47.391,20.6a2.462,2.462,0,0,1-2.478-2.453A2.385,2.385,0,0,1,47.391,15.7" transform="translate(13.044 4.56)" fill="#07cc66"/>
        <path id="Path_1287390" data-name="Path 1287390" d="M47.391,4.5a2.462,2.462,0,0,1,2.475,2.451A2.385,2.385,0,0,1,47.391,9.4a2.462,2.462,0,0,1-2.478-2.453A2.385,2.385,0,0,1,47.391,4.5" transform="translate(13.044 1.307)" fill="#07cc66"/>
        <path id="Path_1287391" data-name="Path 1287391" d="M43.552,38.2a2.462,2.462,0,0,1,2.476,2.451A2.386,2.386,0,0,1,43.552,43.1a2.452,2.452,0,1,1,0-4.9" transform="translate(11.93 11.095)" fill="#fb2b3a"/>
        <path id="Path_1287392" data-name="Path 1287392" d="M43.552,27a2.462,2.462,0,0,1,2.476,2.451A2.386,2.386,0,0,1,43.552,31.9a2.452,2.452,0,1,1,0-4.9" transform="translate(11.93 7.842)" fill="#fb2b3a"/>
        <path id="Path_1287393" data-name="Path 1287393" d="M43.552,15.7a2.462,2.462,0,0,1,2.476,2.451A2.386,2.386,0,0,1,43.552,20.6a2.452,2.452,0,1,1,0-4.9" transform="translate(11.93 4.56)" fill="#fb2b3a"/>
        <path id="Path_1287394" data-name="Path 1287394" d="M43.552,4.5a2.462,2.462,0,0,1,2.476,2.451A2.386,2.386,0,0,1,43.552,9.4a2.452,2.452,0,1,1,0-4.9" transform="translate(11.93 1.307)" fill="#fb2b3a"/>
        <path id="Path_1287395" data-name="Path 1287395" d="M39.814,38.2a2.462,2.462,0,0,1,2.476,2.451A2.385,2.385,0,0,1,39.814,43.1a2.463,2.463,0,0,1-2.476-2.453A2.385,2.385,0,0,1,39.814,38.2" transform="translate(10.844 11.095)" fill="#4a78ff"/>
        <path id="Path_1287396" data-name="Path 1287396" d="M39.814,27a2.462,2.462,0,0,1,2.476,2.451A2.385,2.385,0,0,1,39.814,31.9a2.463,2.463,0,0,1-2.476-2.453A2.385,2.385,0,0,1,39.814,27" transform="translate(10.844 7.842)" fill="#4a78ff"/>
        <path id="Path_1287397" data-name="Path 1287397" d="M39.814,4.5a2.462,2.462,0,0,1,2.476,2.451A2.385,2.385,0,0,1,39.814,9.4a2.463,2.463,0,0,1-2.476-2.453A2.385,2.385,0,0,1,39.814,4.5" transform="translate(10.844 1.307)" fill="#4a78ff"/>
        <path id="Path_1287398" data-name="Path 1287398" d="M39.814,15.7a2.462,2.462,0,0,1,2.476,2.451A2.385,2.385,0,0,1,39.814,20.6a2.463,2.463,0,0,1-2.476-2.453A2.385,2.385,0,0,1,39.814,15.7" transform="translate(10.844 4.56)" fill="#4a78ff"/>
        <path id="Path_1287399" data-name="Path 1287399" d="M19.813,35.487H11.08l4.3-4.387Z" transform="translate(3.218 9.033)" fill="#57606f"/>
        <path id="Path_1287400" data-name="Path 1287400" d="M19.2,23.2l-3.91,4-3.91-4Z" transform="translate(3.306 6.739)" fill="#57606f"/>
        <path id="Path_1287401" data-name="Path 1287401" d="M13.074,29.775,8.253,34.42V25Z" transform="translate(2.397 7.262)" fill="#57606f"/>
        <path id="Path_1287402" data-name="Path 1287402" d="M47.567,44.051a3.226,3.226,0,1,1,3.256-3.226,3.21,3.21,0,0,1-3.256,3.226m0-4.775a1.678,1.678,0,1,0,1.692,1.679,1.718,1.718,0,0,0-1.692-1.679" transform="translate(12.868 10.921)"/>
        <path id="Path_1287403" data-name="Path 1287403" d="M43.728,44.051a3.226,3.226,0,1,1,3.257-3.226,3.21,3.21,0,0,1-3.257,3.226m0-4.775a1.678,1.678,0,1,0,1.693,1.679,1.719,1.719,0,0,0-1.693-1.679" transform="translate(11.754 10.921)"/>
        <path id="Path_1287404" data-name="Path 1287404" d="M39.99,44.051a3.226,3.226,0,1,1,3.258-3.226,3.209,3.209,0,0,1-3.258,3.226m0-4.775a1.678,1.678,0,1,0,1.694,1.679,1.717,1.717,0,0,0-1.694-1.679" transform="translate(10.669 10.921)"/>
        <path id="Path_1287405" data-name="Path 1287405" d="M18.959,42.349h-7.3a.774.774,0,1,1,0-1.549h7.3a.774.774,0,1,1,0,1.549" transform="translate(3.159 11.85)"/>
        <path id="Path_1287406" data-name="Path 1287406" d="M32.974,42.349H28.021a.774.774,0,1,1,0-1.549h4.953a.774.774,0,1,1,0,1.549" transform="translate(7.911 11.85)"/>
        <path id="Path_1287407" data-name="Path 1287407" d="M16.912,39.849h-4.04a.774.774,0,1,1,0-1.549h4.04a.837.837,0,0,1,.782.773.748.748,0,0,1-.782.776" transform="translate(3.511 11.124)"/>
        <path id="Path_1287408" data-name="Path 1287408" d="M47.567,32.852a3.226,3.226,0,1,1,3.256-3.226,3.211,3.211,0,0,1-3.256,3.226m0-4.9a1.678,1.678,0,1,0,1.692,1.678,1.718,1.718,0,0,0-1.692-1.678" transform="translate(12.868 7.668)"/>
        <path id="Path_1287409" data-name="Path 1287409" d="M43.728,32.852a3.226,3.226,0,1,1,3.257-3.226,3.211,3.211,0,0,1-3.257,3.226m0-4.9a1.678,1.678,0,1,0,1.693,1.678,1.719,1.719,0,0,0-1.693-1.678" transform="translate(11.754 7.668)"/>
        <path id="Path_1287410" data-name="Path 1287410" d="M39.99,32.852a3.226,3.226,0,1,1,3.258-3.226,3.21,3.21,0,0,1-3.258,3.226m0-4.9a1.678,1.678,0,1,0,1.694,1.678,1.717,1.717,0,0,0-1.694-1.678" transform="translate(10.669 7.668)"/>
        <path id="Path_1287411" data-name="Path 1287411" d="M34.616,31.049H22.366a.774.774,0,1,1,0-1.549h12.25a.774.774,0,1,1,0,1.549" transform="translate(6.269 8.568)"/>
        <path id="Path_1287412" data-name="Path 1287412" d="M34.235,28.549H23.679a.774.774,0,1,1,0-1.549H34.235a.774.774,0,1,1,0,1.549" transform="translate(6.65 7.842)"/>
        <path id="Path_1287413" data-name="Path 1287413" d="M47.567,21.551a3.226,3.226,0,1,1,3.256-3.226,3.21,3.21,0,0,1-3.256,3.226m0-4.775a1.678,1.678,0,1,0,1.692,1.679,1.718,1.718,0,0,0-1.692-1.679" transform="translate(12.868 4.386)"/>
        <path id="Path_1287414" data-name="Path 1287414" d="M43.728,21.551a3.226,3.226,0,1,1,3.257-3.226,3.21,3.21,0,0,1-3.257,3.226m0-4.775a1.678,1.678,0,1,0,1.693,1.679,1.634,1.634,0,0,0-1.693-1.679" transform="translate(11.754 4.386)"/>
        <path id="Path_1287415" data-name="Path 1287415" d="M39.99,21.551a3.226,3.226,0,1,1,3.258-3.226,3.209,3.209,0,0,1-3.258,3.226m0-4.775a1.678,1.678,0,1,0,1.694,1.679,1.717,1.717,0,0,0-1.694-1.679" transform="translate(10.669 4.386)"/>
        <path id="Path_1287416" data-name="Path 1287416" d="M16.912,19.849h-4.04a.774.774,0,1,1,0-1.549h4.04a.837.837,0,0,1,.782.773c.13.388-.261.776-.782.776" transform="translate(3.511 5.316)"/>
        <path id="Path_1287417" data-name="Path 1287417" d="M32.24,19.849H30.546a.774.774,0,1,1,0-1.549H32.24a.774.774,0,1,1,0,1.549" transform="translate(8.645 5.316)"/>
        <path id="Path_1287418" data-name="Path 1287418" d="M18.607,17.349H12.872a.774.774,0,1,1,0-1.549h5.735a.774.774,0,1,1,0,1.549" transform="translate(3.511 4.589)"/>
        <path id="Path_1287419" data-name="Path 1287419" d="M33.15,17.349H27.415a.774.774,0,1,1,0-1.549H33.15a.774.774,0,1,1,0,1.549" transform="translate(7.735 4.589)"/>
        <path id="Path_1287420" data-name="Path 1287420" d="M61.471,16.26a.774.774,0,1,1,0-1.549,2.325,2.325,0,0,0,2.346-2.323V4.131a2.326,2.326,0,0,0-2.346-2.324H11.686A2.326,2.326,0,0,0,9.341,4.131v8.258a2.324,2.324,0,0,0,2.345,2.323.774.774,0,1,1,0,1.549,4.04,4.04,0,0,1-4.039-4V4a4.04,4.04,0,0,1,4.039-4H61.6a4.04,4.04,0,0,1,4.039,4v8.259a4.245,4.245,0,0,1-4.171,4" transform="translate(2.221 0.001)"/>
        <path id="Path_1287421" data-name="Path 1287421" d="M47.567,10.352a3.226,3.226,0,1,1,3.256-3.226,3.211,3.211,0,0,1-3.256,3.226m0-4.9a1.718,1.718,0,0,0-1.7,1.678,1.694,1.694,0,0,0,3.387,0,1.811,1.811,0,0,0-1.692-1.678" transform="translate(12.868 1.133)"/>
        <path id="Path_1287422" data-name="Path 1287422" d="M43.728,10.352a3.226,3.226,0,1,1,3.257-3.226,3.211,3.211,0,0,1-3.257,3.226m0-4.9a1.719,1.719,0,0,0-1.7,1.678,1.694,1.694,0,0,0,3.389,0,1.717,1.717,0,0,0-1.693-1.678" transform="translate(11.754 1.133)"/>
        <path id="Path_1287423" data-name="Path 1287423" d="M39.99,10.352a3.226,3.226,0,1,1,3.258-3.226,3.21,3.21,0,0,1-3.258,3.226m0-4.9A1.717,1.717,0,0,0,38.3,7.126a1.694,1.694,0,0,0,3.387,0A1.813,1.813,0,0,0,39.99,5.449" transform="translate(10.669 1.133)"/>
        <path id="Path_1287424" data-name="Path 1287424" d="M37.726,8.549H11.66a.839.839,0,0,1-.782-.776A.838.838,0,0,1,11.66,7H37.726a.837.837,0,0,1,.782.773.838.838,0,0,1-.782.776" transform="translate(3.159 2.034)"/>
        <path id="Path_1287425" data-name="Path 1287425" d="M37.726,6.049H11.66a.839.839,0,0,1-.782-.776A.838.838,0,0,1,11.66,4.5H37.726a.837.837,0,0,1,.782.773.838.838,0,0,1-.782.776" transform="translate(3.159 1.307)"/>
        <path id="Path_1287426" data-name="Path 1287426" d="M31.152,49.973a.837.837,0,0,1-.782-.774V45.973a.782.782,0,0,1,1.564,0V49.2c.13.387-.261.774-.782.774" transform="translate(8.821 13.128)"/>
        <path id="Path_1287427" data-name="Path 1287427" d="M29.334,49.973a.837.837,0,0,1-.782-.774V45.973a.782.782,0,0,1,1.564,0V49.2a.837.837,0,0,1-.782.774" transform="translate(8.293 13.128)"/>
        <path id="Path_1287428" data-name="Path 1287428" d="M39.663,55.449H24.285a.774.774,0,1,1,0-1.549H39.793a.838.838,0,0,1,.782.774.869.869,0,0,1-.912.774" transform="translate(6.826 15.655)"/>
        <path id="Path_1287429" data-name="Path 1287429" d="M39.692,54.052a.838.838,0,0,1-.783-.774V52.5H33.958a.837.837,0,0,1-.782-.774V49.278H30.7v2.452a.836.836,0,0,1-.782.774H24.966v.774a.782.782,0,0,1-1.564,0V51.6a.837.837,0,0,1,.782-.776h4.951V48.376a.837.837,0,0,1,.782-.776h4.04a.837.837,0,0,1,.782.776v2.451h4.953a.836.836,0,0,1,.781.776v1.676c.132.387-.259.774-.781.774" transform="translate(6.797 13.825)"/>
        <path id="Path_1287430" data-name="Path 1287430" d="M42.719,56.174H36.2a.838.838,0,0,1-.783-.773V52.175A.839.839,0,0,1,36.2,51.4h6.517a2.488,2.488,0,0,1,1.693.645,2.445,2.445,0,0,1,.652,1.679,2.212,2.212,0,0,1-2.345,2.451m-5.6-1.549h5.733a.837.837,0,0,0,.783-.774.674.674,0,0,0-.261-.516.988.988,0,0,0-.523-.257H37.115Z" transform="translate(10.287 14.929)"/>
        <path id="Path_1287431" data-name="Path 1287431" d="M26.1,56.175H19.587a2.491,2.491,0,0,1-1.694-.645,2.124,2.124,0,0,1-.652-1.678A2.462,2.462,0,0,1,19.717,51.4h6.515a.837.837,0,0,1,.782.774V55.4a1.115,1.115,0,0,1-.912.774m-6.515-3.226a.837.837,0,0,0-.782.776.668.668,0,0,0,.261.515.982.982,0,0,0,.521.258h5.735V52.819H19.587Z" transform="translate(5.007 14.929)"/>
        <path id="Path_1287432" data-name="Path 1287432" d="M19.988,35.449H11.256a.774.774,0,1,1,0-1.549h8.732a.774.774,0,1,1,0,1.549" transform="translate(3.042 9.846)"/>
        <path id="Path_1287433" data-name="Path 1287433" d="M61.471,50.029H11.686a4.04,4.04,0,0,1-4.039-4V43.708a.838.838,0,0,1,.782-.776.838.838,0,0,1,.782.776v2.321a2.324,2.324,0,0,0,2.345,2.323H61.471a2.325,2.325,0,0,0,2.346-2.323V37.77a2.325,2.325,0,0,0-2.346-2.323.774.774,0,1,1,0-1.549,4.041,4.041,0,0,1,4.04,4v8.128a4.04,4.04,0,0,1-4.04,4" transform="translate(2.221 9.846)"/>
        <path id="Path_1287434" data-name="Path 1287434" d="M55.986,38.7H27.314a.774.774,0,1,1,0-1.549h28.8a2.324,2.324,0,0,0,2.345-2.323V26.572a2.326,2.326,0,0,0-2.345-2.324.774.774,0,1,1,0-1.547,4.039,4.039,0,0,1,4.039,4v8.26A4.221,4.221,0,0,1,55.986,38.7" transform="translate(7.706 6.594)"/>
        <path id="Path_1287435" data-name="Path 1287435" d="M19.379,24.247h-7.82a.774.774,0,1,1,0-1.547h7.82a.837.837,0,0,1,.782.773c.13.387-.261.774-.782.774" transform="translate(3.13 6.593)"/>
        <path id="Path_1287436" data-name="Path 1287436" d="M61.442,27.529H32.38a.774.774,0,1,1,0-1.547H61.442a2.326,2.326,0,0,0,2.346-2.324V15.4a2.325,2.325,0,0,0-2.346-2.323H11.657A2.324,2.324,0,0,0,9.312,15.4v1.936a.837.837,0,0,1-.782.773.837.837,0,0,1-.782-.773V15.4a4.041,4.041,0,0,1,4.039-4H61.7a4.041,4.041,0,0,1,4.04,4v8.258a4.458,4.458,0,0,1-4.3,3.871" transform="translate(2.25 3.311)"/>
        <path id="Path_1287437" data-name="Path 1287437" d="M15.442,33.655a.679.679,0,0,1-.521-.258L9.578,28.106a7.184,7.184,0,0,1-7.429-1.678A7.048,7.048,0,0,1,.715,18.557a1.3,1.3,0,0,1,.652-.516.964.964,0,0,1,.782.258l3,2.968L7.1,19.331l-3-2.968a1.375,1.375,0,0,1-.261-.774.86.86,0,0,1,.52-.645,7.315,7.315,0,0,1,6.909.516,3.514,3.514,0,0,1,1.041.9,7.013,7.013,0,0,1,1.694,7.355l5.344,5.291a.955.955,0,0,1,0,1.161.98.98,0,0,1-1.173,0l-5.865-5.549a.789.789,0,0,1-.13-.9,5.285,5.285,0,0,0-1.173-6.065,3.421,3.421,0,0,0-.782-.645,5.625,5.625,0,0,0-4.04-.774L8.8,18.815a.955.955,0,0,1,0,1.161l-3.128,3.1a.98.98,0,0,1-1.173,0L1.888,20.492a5.424,5.424,0,0,0,1.563,4.9,5.642,5.642,0,0,0,6.127,1.161.81.81,0,0,1,.912.129l5.733,5.678a.955.955,0,0,1,0,1.161,1.955,1.955,0,0,1-.782.129" transform="translate(0.029 4.156)"/>
        <path id="Path_1287438" data-name="Path 1287438" d="M26.073,47.212a7.722,7.722,0,0,1-5.083-2.065A7.013,7.013,0,0,1,19.3,37.792L13.952,32.5a.961.961,0,0,1,0-1.163.982.982,0,0,1,1.174,0l5.733,5.679a.789.789,0,0,1,.13.9,5.283,5.283,0,0,0,1.173,6.064,5.8,5.8,0,0,0,4.953,1.549l-2.607-2.581a.953.953,0,0,1,0-1.16l3.128-3.1a1,1,0,0,1,.521-.258.683.683,0,0,1,.521.258l2.605,2.581a5.869,5.869,0,0,0-1.041-4.387c-.13-.129-.261-.387-.391-.515a5.638,5.638,0,0,0-6.126-1.163.806.806,0,0,1-.912-.128L17.08,29.4a.957.957,0,0,1,0-1.16.98.98,0,0,1,1.173,0l5.344,5.29a7.181,7.181,0,0,1,7.428,1.678,2.276,2.276,0,0,1,.523.645,7.212,7.212,0,0,1,.912,7.228,1.3,1.3,0,0,1-.652.515.962.962,0,0,1-.782-.258l-3-2.968-1.955,1.936,3,2.968a1.379,1.379,0,0,1,.261.776.861.861,0,0,1-.521.645,8.6,8.6,0,0,1-2.737.515" transform="translate(3.996 8.147)"/>
        <path id="Path_1287439" data-name="Path 1287439" d="M7.261,51.177h0a7.14,7.14,0,0,1-2.867-.645,1.291,1.291,0,0,1-.521-.645.943.943,0,0,1,.261-.774l3-2.968L5.176,44.209l-3.128,3.1a1.4,1.4,0,0,1-.781.258.867.867,0,0,1-.653-.515A7.039,7.039,0,0,1,7,37.112a7.447,7.447,0,0,1,2.346.387L23.161,23.821a7.015,7.015,0,0,1,1.694-7.357,6.875,6.875,0,0,1,7.82-1.419,1.3,1.3,0,0,1,.521.645.942.942,0,0,1-.261.774l-3,2.968,1.955,1.936,3-2.968a1.4,1.4,0,0,1,.782-.258.866.866,0,0,1,.652.517,7.077,7.077,0,0,1-1.3,7.743l-.129.128a7.157,7.157,0,0,1-4.953,2.065,7.447,7.447,0,0,1-2.346-.387L13.908,41.757a7.013,7.013,0,0,1-1.694,7.355,6.509,6.509,0,0,1-1.043.9,6.946,6.946,0,0,1-3.91,1.161M6.219,49.5a2.87,2.87,0,0,0,1.043.13,5.109,5.109,0,0,0,3-.9c.261-.258.521-.386.782-.645a5.5,5.5,0,0,0,1.173-6.065.789.789,0,0,1,.13-.9l14.6-14.453a.813.813,0,0,1,.912-.129,6.192,6.192,0,0,0,2.216.517,5.549,5.549,0,0,0,3.91-1.55l.13-.129A5.862,5.862,0,0,0,35.542,20.6l-2.607,2.581a1,1,0,0,1-.521.257.682.682,0,0,1-.521-.257l-3.128-3.1a.955.955,0,0,1,0-1.161l2.607-2.581a2.9,2.9,0,0,0-1.043-.129,5.431,5.431,0,0,0-5.083,7.615.787.787,0,0,1-.13.9L10.389,39.047a.8.8,0,0,1-.912.129,6.679,6.679,0,0,0-2.216-.387,5.554,5.554,0,0,0-3.91,1.549,5.671,5.671,0,0,0-1.564,4.9l2.607-2.581a1,1,0,0,1,.521-.258.683.683,0,0,1,.521.258l3.128,3.1a.953.953,0,0,1,0,1.16Z" transform="translate(0 4.183)"/>
        <path id="Path_1287440" data-name="Path 1287440" d="M8.429,35.469a.837.837,0,0,1-.782-.776V25.274a.837.837,0,0,1,.782-.774.837.837,0,0,1,.782.774v9.291a.728.728,0,0,1-.782.9" transform="translate(2.221 7.116)"/>
      </g>
    </g>
  </g>
</svg>
