<svg xmlns="http://www.w3.org/2000/svg" xmlns:xlink="http://www.w3.org/1999/xlink" width="95.001" height="95" viewBox="0 0 95.001 95">
  <defs>
    <clipPath id="clip-path">
      <rect id="Rectangle_414345" data-name="Rectangle 414345" width="89.135" height="68.979" transform="translate(0 0)" fill="none"/>
    </clipPath>
  </defs>
  <g id="Group_1223172" data-name="Group 1223172" transform="translate(-13803.999 10357)">
    <rect id="Rectangle_414063" data-name="Rectangle 414063" width="95" height="95" transform="translate(13804 -10357)" fill="none"/>
    <g id="Group_1222974" data-name="Group 1222974" transform="translate(833.563 -19.102)">
      <ellipse id="Ellipse_12935" data-name="Ellipse 12935" cx="27.416" cy="27.416" rx="27.416" ry="27.416" transform="translate(13010.604 -10302.149)" fill="#ffc94a"/>
      <ellipse id="Ellipse_12936" data-name="Ellipse 12936" cx="19.939" cy="19.939" rx="19.939" ry="19.939" transform="translate(12970.436 -10333.479)" fill="#ffc94a"/>
    </g>
    <g id="Group_1223182" data-name="Group 1223182" transform="translate(13806.933 -10343.494)">
      <g id="Group_1223173" data-name="Group 1223173" transform="translate(0 -0.002)" clip-path="url(#clip-path)">
        <path id="Path_1287441" data-name="Path 1287441" d="M421.928,966.144a4.448,4.448,0,0,1-.9,3.059,3.17,3.17,0,0,1-2.477,1,3.534,3.534,0,0,1-1.739-.425,2.869,2.869,0,0,1-1.2-1.33,5.107,5.107,0,0,1-.431-2.208,7.032,7.032,0,0,1,.334-2.337,2.715,2.715,0,0,1,1.082-1.422A3.456,3.456,0,0,1,418.5,962a3.9,3.9,0,0,1,1.475.258,2.7,2.7,0,0,1,1.077.792,3.491,3.491,0,0,1,.657,1.3,6.678,6.678,0,0,1,.215,1.8m-2.014-.108a5.139,5.139,0,0,0-.3-2.052,1.08,1.08,0,0,0-1.066-.641,1.113,1.113,0,0,0-.824.307,1.691,1.691,0,0,0-.42.9,8.439,8.439,0,0,0-.113,1.524,8.757,8.757,0,0,0,.113,1.562,1.72,1.72,0,0,0,.415.91,1.109,1.109,0,0,0,.829.307,1.069,1.069,0,0,0,1.082-.678,5.919,5.919,0,0,0,.285-2.143m9.2-2.617-8.971,14.464q-.345.592-.775.592a.817.817,0,0,1-.5-.189.588.588,0,0,1-.248-.49,1.053,1.053,0,0,1,.215-.549l9.025-14.583a4.015,4.015,0,0,1,.415-.6.65.65,0,0,1,.512-.2.73.73,0,0,1,.522.188.658.658,0,0,1,.2.5,2.211,2.211,0,0,1-.4.862m3.845,10.512a4.448,4.448,0,0,1-.9,3.059,3.17,3.17,0,0,1-2.477,1,3.522,3.522,0,0,1-1.75-.431,2.938,2.938,0,0,1-1.206-1.325,5.01,5.01,0,0,1-.436-2.208,5.2,5.2,0,0,1,.8-3.161,2.987,2.987,0,0,1,2.547-1.061,3.856,3.856,0,0,1,1.47.258,2.821,2.821,0,0,1,1.077.776,3.3,3.3,0,0,1,.662,1.287,6.739,6.739,0,0,1,.215,1.8m-2.014-.108a5.069,5.069,0,0,0-.3-2.03,1.08,1.08,0,0,0-1.066-.641,1.135,1.135,0,0,0-.84.3,1.731,1.731,0,0,0-.425.888,7.625,7.625,0,0,0-.124,1.524,5.375,5.375,0,0,0,.307,2.111,1.1,1.1,0,0,0,1.082.668,1.071,1.071,0,0,0,1.077-.684,5.824,5.824,0,0,0,.291-2.138" transform="translate(-395.319 -915.866)" fill="#53c47b"/>
        <path id="Path_1287442" data-name="Path 1287442" d="M41.714,21.653H37.637V40.217H28.747A14.119,14.119,0,0,0,14.628,54.336v8.272H7.049a1.7,1.7,0,0,1-1.695-1.695V21.653H2.026A2.021,2.021,0,0,1,.684,18.119L20.528.507a2.022,2.022,0,0,1,2.683,0L43.056,18.119a2.021,2.021,0,0,1-1.342,3.533" transform="translate(0 0.002)" fill="#53c47b" stroke="#000" stroke-width="1" stroke-dasharray="80 10"/>
        <path id="Path_1287443" data-name="Path 1287443" d="M1087.8,145.492a4.447,4.447,0,0,1,.9-3.059,3.169,3.169,0,0,1,2.477-1,3.534,3.534,0,0,1,1.739.425,2.869,2.869,0,0,1,1.2,1.33,5.107,5.107,0,0,1,.431,2.208,7.033,7.033,0,0,1-.334,2.337,2.715,2.715,0,0,1-1.083,1.422,3.456,3.456,0,0,1-1.912.485,3.9,3.9,0,0,1-1.475-.258,2.7,2.7,0,0,1-1.077-.792,3.49,3.49,0,0,1-.657-1.3,6.676,6.676,0,0,1-.215-1.8m2.014.108a5.138,5.138,0,0,0,.3,2.052,1.08,1.08,0,0,0,1.066.641,1.114,1.114,0,0,0,.824-.307,1.692,1.692,0,0,0,.42-.9,8.439,8.439,0,0,0,.113-1.524,8.758,8.758,0,0,0-.113-1.562,1.721,1.721,0,0,0-.415-.91,1.109,1.109,0,0,0-.829-.307,1.069,1.069,0,0,0-1.082.679,5.92,5.92,0,0,0-.285,2.143m-9.2,2.617,8.971-14.464q.345-.592.776-.592a.817.817,0,0,1,.5.188.588.588,0,0,1,.248.49,1.052,1.052,0,0,1-.215.549l-9.025,14.583a4.006,4.006,0,0,1-.415.6.649.649,0,0,1-.511.2.729.729,0,0,1-.522-.188.657.657,0,0,1-.2-.5,2.209,2.209,0,0,1,.4-.862m-3.845-10.512a4.448,4.448,0,0,1,.9-3.059,3.17,3.17,0,0,1,2.477-1,3.521,3.521,0,0,1,1.75.431,2.939,2.939,0,0,1,1.206,1.325,5.01,5.01,0,0,1,.436,2.208,5.2,5.2,0,0,1-.8,3.161,2.988,2.988,0,0,1-2.547,1.061,3.855,3.855,0,0,1-1.47-.258,2.821,2.821,0,0,1-1.077-.775,3.293,3.293,0,0,1-.662-1.287,6.731,6.731,0,0,1-.216-1.8m2.014.108a5.067,5.067,0,0,0,.3,2.03,1.08,1.08,0,0,0,1.066.641,1.135,1.135,0,0,0,.84-.3,1.73,1.73,0,0,0,.426-.889,7.62,7.62,0,0,0,.124-1.524,5.376,5.376,0,0,0-.307-2.111,1.1,1.1,0,0,0-1.082-.668,1.07,1.07,0,0,0-1.077.684,5.823,5.823,0,0,0-.291,2.138" transform="translate(-1025.272 -126.791)" fill="#e53c3c"/>
        <path id="Path_1287444" data-name="Path 1287444" d="M951.2,174.113h4.077V155.549h8.891a14.119,14.119,0,0,0,14.119-14.119v-8.272h7.579a1.7,1.7,0,0,1,1.695,1.695v39.261h3.329a2.021,2.021,0,0,1,1.342,3.533l-19.845,17.612a2.022,2.022,0,0,1-2.683,0l-19.844-17.612a2.021,2.021,0,0,1,1.342-3.533" transform="translate(-903.779 -126.789)" fill="#e53c3c" stroke="#000" stroke-width="1" stroke-dasharray="80 10"/>
      </g>
    </g>
  </g>
</svg>
