<svg xmlns="http://www.w3.org/2000/svg" xmlns:xlink="http://www.w3.org/1999/xlink" width="95.001" height="95" viewBox="0 0 95.001 95">
  <defs>
    <clipPath id="clip-path">
      <rect id="Rectangle_414212" data-name="Rectangle 414212" width="79.228" height="82.946" fill="none"/>
    </clipPath>
  </defs>
  <g id="Group_1223076" data-name="Group 1223076" transform="translate(8 8081)">
    <rect id="Rectangle_414167" data-name="Rectangle 414167" width="95" height="95" transform="translate(-8 -8081)" fill="none"/>
    <g id="Group_1223055" data-name="Group 1223055" transform="translate(-12978.436 2256.479)">
      <ellipse id="Ellipse_12935" data-name="Ellipse 12935" cx="27.416" cy="27.416" rx="27.416" ry="27.416" transform="translate(13010.604 -10302.149)" fill="#7fe5cf"/>
      <ellipse id="Ellipse_12936" data-name="Ellipse 12936" cx="19.939" cy="19.939" rx="19.939" ry="19.939" transform="translate(12970.436 -10333.479)" fill="#7fe5cf"/>
    </g>
    <g id="Group_1223064" data-name="Group 1223064" transform="translate(0 -8075)">
      <g id="Group_1223063" data-name="Group 1223063" transform="translate(0 0)" clip-path="url(#clip-path)">
        <path id="Path_1286950" data-name="Path 1286950" d="M75.921,40.5H2.906A2.468,2.468,0,0,0,.5,42.882V59.135a2.468,2.468,0,0,0,2.406,2.382H75.921a2.468,2.468,0,0,0,2.406-2.382V42.882A2.374,2.374,0,0,0,75.921,40.5" transform="translate(0.201 16.245)" fill="#73665c"/>
        <path id="Path_1286951" data-name="Path 1286951" d="M75.921,40.5H2.906A2.468,2.468,0,0,0,.5,42.882V59.135a2.468,2.468,0,0,0,2.406,2.382H75.921a2.468,2.468,0,0,0,2.406-2.382V42.882A2.374,2.374,0,0,0,75.921,40.5Z" transform="translate(0.201 16.245)" fill="none" stroke="#000" stroke-miterlimit="10" stroke-width="1"/>
        <path id="Path_1286952" data-name="Path 1286952" d="M75.921,20.5H2.906A2.468,2.468,0,0,0,.5,22.882V39.135a2.468,2.468,0,0,0,2.406,2.382H75.921a2.468,2.468,0,0,0,2.406-2.382V22.882A2.374,2.374,0,0,0,75.921,20.5" transform="translate(0.201 8.223)" fill="#73665c"/>
        <path id="Path_1286953" data-name="Path 1286953" d="M75.921,20.5H2.906A2.468,2.468,0,0,0,.5,22.882V39.135a2.468,2.468,0,0,0,2.406,2.382H75.921a2.468,2.468,0,0,0,2.406-2.382V22.882A2.374,2.374,0,0,0,75.921,20.5Z" transform="translate(0.201 8.223)" fill="none" stroke="#000" stroke-miterlimit="10" stroke-width="1"/>
        <path id="Path_1286954" data-name="Path 1286954" d="M75.921.5H2.906A2.468,2.468,0,0,0,.5,2.882V19.135a2.468,2.468,0,0,0,2.406,2.382H75.921a2.468,2.468,0,0,0,2.406-2.382V2.882A2.374,2.374,0,0,0,75.921.5" transform="translate(0.201 0.2)" fill="#73665c"/>
        <path id="Path_1286955" data-name="Path 1286955" d="M75.921.5H2.906A2.468,2.468,0,0,0,.5,2.882V19.135a2.468,2.468,0,0,0,2.406,2.382H75.921a2.468,2.468,0,0,0,2.406-2.382V2.882A2.374,2.374,0,0,0,75.921.5Z" transform="translate(0.201 0.2)" fill="none" stroke="#000" stroke-miterlimit="10" stroke-width="1"/>
        <path id="Path_1286956" data-name="Path 1286956" d="M49.484,45.5A3.5,3.5,0,1,1,45.948,49a3.485,3.485,0,0,1,3.536-3.5" transform="translate(18.431 18.251)" fill="#ffd24d"/>
        <path id="Path_1286957" data-name="Path 1286957" d="M49.484,25.5A3.5,3.5,0,1,1,45.948,29a3.485,3.485,0,0,1,3.536-3.5" transform="translate(18.431 10.228)" fill="#a5c63b"/>
        <path id="Path_1286958" data-name="Path 1286958" d="M49.484,5.5A3.5,3.5,0,1,1,45.948,9a3.485,3.485,0,0,1,3.536-3.5" transform="translate(18.431 2.206)" fill="#f14742"/>
        <rect id="Rectangle_414184" data-name="Rectangle 414184" width="5.377" height="7.006" transform="translate(60.839 21.717)" fill="#2d2c2e"/>
        <rect id="Rectangle_414185" data-name="Rectangle 414185" width="5.377" height="7.006" transform="translate(13.152 21.717)" fill="#2d2c2e"/>
        <rect id="Rectangle_414186" data-name="Rectangle 414186" width="5.377" height="7.006" transform="translate(13.152 49.74)" fill="#2d2c2e"/>
        <rect id="Rectangle_414187" data-name="Rectangle 414187" width="5.377" height="7.006" transform="translate(60.839 49.74)" fill="#2d2c2e"/>
        <rect id="Rectangle_414188" data-name="Rectangle 414188" width="3.538" height="3.503" transform="translate(21.925 68.935)"/>
        <rect id="Rectangle_414189" data-name="Rectangle 414189" width="3.538" height="3.503" transform="translate(21.925 61.929)"/>
        <rect id="Rectangle_414190" data-name="Rectangle 414190" width="3.538" height="3.503" transform="translate(21.925 40.913)"/>
        <rect id="Rectangle_414191" data-name="Rectangle 414191" width="3.538" height="3.503" transform="translate(21.925 33.907)"/>
        <rect id="Rectangle_414193" data-name="Rectangle 414193" width="3.538" height="3.503" transform="translate(21.925 5.885)"/>
        <rect id="Rectangle_414194" data-name="Rectangle 414194" width="3.536" height="3.503" transform="translate(16.69 68.935)"/>
        <rect id="Rectangle_414197" data-name="Rectangle 414197" width="3.536" height="3.503" transform="translate(16.69 33.907)"/>
        <rect id="Rectangle_414198" data-name="Rectangle 414198" width="3.536" height="3.503" transform="translate(16.69 12.89)"/>
        <rect id="Rectangle_414199" data-name="Rectangle 414199" width="3.536" height="3.503" transform="translate(16.69 5.885)"/>
        <rect id="Rectangle_414201" data-name="Rectangle 414201" width="3.538" height="3.503" transform="translate(11.313 61.929)"/>
        <rect id="Rectangle_414204" data-name="Rectangle 414204" width="3.538" height="3.503" transform="translate(11.313 12.89)"/>
        <rect id="Rectangle_414207" data-name="Rectangle 414207" width="3.536" height="3.503" transform="translate(6.078 61.929)"/>
        <rect id="Rectangle_414208" data-name="Rectangle 414208" width="3.536" height="3.503" transform="translate(6.078 40.913)"/>
        <rect id="Rectangle_414209" data-name="Rectangle 414209" width="3.536" height="3.503" transform="translate(6.078 33.907)"/>
        <rect id="Rectangle_414211" data-name="Rectangle 414211" width="3.536" height="3.503" transform="translate(6.078 5.885)"/>
        <path id="Path_1286959" data-name="Path 1286959" d="M50.012,14.708a5.349,5.349,0,0,1-5.377-5.324A5.232,5.232,0,0,1,50.012,4.2a5.349,5.349,0,0,1,5.377,5.324,5.232,5.232,0,0,1-5.377,5.184m0-7.006A1.822,1.822,0,1,0,51.85,9.524,1.863,1.863,0,0,0,50.012,7.7" transform="translate(17.904 1.684)"/>
        <path id="Path_1286961" data-name="Path 1286961" d="M37.686,14.749a1.863,1.863,0,0,1-1.838-1.821V5.921a1.84,1.84,0,0,1,3.679,0v7.006a2.091,2.091,0,0,1-1.841,1.821" transform="translate(14.379 1.644)"/>
        <path id="Path_1286962" data-name="Path 1286962" d="M33.848,14.749a1.863,1.863,0,0,1-1.838-1.821V5.921a1.839,1.839,0,0,1,3.678,0v7.006a1.864,1.864,0,0,1-1.84,1.821" transform="translate(12.84 1.644)"/>
        <path id="Path_1286964" data-name="Path 1286964" d="M26.274,14.749a1.863,1.863,0,0,1-1.838-1.821V5.921a1.84,1.84,0,0,1,3.679,0v7.006a1.865,1.865,0,0,1-1.841,1.821" transform="translate(9.802 1.644)"/>
        <path id="Path_1286965" data-name="Path 1286965" d="M22.539,14.749A1.865,1.865,0,0,1,20.7,12.927V5.921a1.84,1.84,0,0,1,3.679,0v7.006a2.088,2.088,0,0,1-1.838,1.821" transform="translate(8.302 1.644)"/>
        <path id="Path_1286966" data-name="Path 1286966" d="M50.012,34.708a5.349,5.349,0,0,1-5.377-5.324A5.232,5.232,0,0,1,50.012,24.2a5.349,5.349,0,0,1,5.377,5.324,5.232,5.232,0,0,1-5.377,5.184m0-7.006a1.863,1.863,0,0,0-1.838,1.821,1.746,1.746,0,0,0,1.838,1.681,1.863,1.863,0,0,0,1.838-1.821A1.746,1.746,0,0,0,50.012,27.7" transform="translate(17.904 9.707)"/>
        <path id="Path_1286967" data-name="Path 1286967" d="M41.424,34.749a1.864,1.864,0,0,1-1.84-1.821V25.921a1.839,1.839,0,0,1,3.678,0v7.006a1.863,1.863,0,0,1-1.838,1.821" transform="translate(15.878 9.667)"/>
        <path id="Path_1286969" data-name="Path 1286969" d="M33.848,34.749a1.863,1.863,0,0,1-1.838-1.821V25.921a1.839,1.839,0,0,1,3.678,0v7.006a1.864,1.864,0,0,1-1.84,1.821" transform="translate(12.84 9.667)"/>
        <path id="Path_1286970" data-name="Path 1286970" d="M30.112,34.749a1.863,1.863,0,0,1-1.838-1.821V25.921a1.838,1.838,0,0,1,3.677,0v7.006a2.087,2.087,0,0,1-1.838,1.821" transform="translate(11.341 9.667)"/>
        <path id="Path_1286973" data-name="Path 1286973" d="M50.012,54.708a5.349,5.349,0,0,1-5.377-5.324A5.232,5.232,0,0,1,50.012,44.2a5.349,5.349,0,0,1,5.377,5.324,5.232,5.232,0,0,1-5.377,5.184m0-7.006a1.822,1.822,0,1,0,1.838,1.821A1.863,1.863,0,0,0,50.012,47.7" transform="translate(17.904 17.729)"/>
        <path id="Path_1286976" data-name="Path 1286976" d="M33.848,54.749a1.863,1.863,0,0,1-1.838-1.821V45.921a1.839,1.839,0,0,1,3.678,0v7.006a1.864,1.864,0,0,1-1.84,1.821" transform="translate(12.84 17.689)"/>
        <path id="Path_1286978" data-name="Path 1286978" d="M26.274,54.749a1.863,1.863,0,0,1-1.838-1.821V45.921a1.84,1.84,0,0,1,3.679,0v7.006a1.865,1.865,0,0,1-1.841,1.821" transform="translate(9.802 17.689)"/>
        <path id="Path_1286979" data-name="Path 1286979" d="M22.539,54.749A1.865,1.865,0,0,1,20.7,52.927V45.921a1.84,1.84,0,0,1,3.679,0v7.006a2.088,2.088,0,0,1-1.838,1.821" transform="translate(8.302 17.689)"/>
        <path id="Path_1286980" data-name="Path 1286980" d="M47.786,24.749a1.863,1.863,0,0,1-1.838-1.821V15.921a1.838,1.838,0,0,1,3.677,0v7.006a2.088,2.088,0,0,1-1.838,1.821" transform="translate(18.431 5.656)"/>
        <path id="Path_1286981" data-name="Path 1286981" d="M43.948,24.749a1.863,1.863,0,0,1-1.838-1.821V15.921a1.839,1.839,0,0,1,3.678,0v7.006a1.864,1.864,0,0,1-1.84,1.821" transform="translate(16.891 5.656)"/>
        <path id="Path_1286982" data-name="Path 1286982" d="M13.65,24.749a1.863,1.863,0,0,1-1.838-1.821V15.921a1.839,1.839,0,0,1,3.678,0v7.006a1.864,1.864,0,0,1-1.84,1.821" transform="translate(4.738 5.656)"/>
        <path id="Path_1286983" data-name="Path 1286983" d="M9.913,24.749a1.864,1.864,0,0,1-1.838-1.821V15.921a1.839,1.839,0,0,1,3.678,0v7.006a2.088,2.088,0,0,1-1.84,1.821" transform="translate(3.239 5.656)"/>
        <path id="Path_1286984" data-name="Path 1286984" d="M47.786,44.749a1.863,1.863,0,0,1-1.838-1.821V35.921a1.838,1.838,0,0,1,3.677,0v7.006a2.088,2.088,0,0,1-1.838,1.821" transform="translate(18.431 13.678)"/>
        <path id="Path_1286985" data-name="Path 1286985" d="M43.948,44.749a1.863,1.863,0,0,1-1.838-1.821V35.921a1.839,1.839,0,0,1,3.678,0v7.006a1.864,1.864,0,0,1-1.84,1.821" transform="translate(16.891 13.678)"/>
        <path id="Path_1286986" data-name="Path 1286986" d="M13.65,44.749a1.863,1.863,0,0,1-1.838-1.821V35.921a1.839,1.839,0,0,1,3.678,0v7.006a1.864,1.864,0,0,1-1.84,1.821" transform="translate(4.738 13.678)"/>
        <path id="Path_1286987" data-name="Path 1286987" d="M9.913,44.749a1.864,1.864,0,0,1-1.838-1.821V35.921a1.839,1.839,0,0,1,3.678,0v7.006a2.088,2.088,0,0,1-1.84,1.821" transform="translate(3.239 13.678)"/>
        <path id="Path_1286988" data-name="Path 1286988" d="M47.786,61.246a1.863,1.863,0,0,1-1.838-1.821v-3.5a1.838,1.838,0,0,1,3.677,0v3.5a2.088,2.088,0,0,1-1.838,1.821" transform="translate(18.431 21.7)"/>
        <path id="Path_1286989" data-name="Path 1286989" d="M43.948,61.246a1.863,1.863,0,0,1-1.838-1.821v-3.5a1.839,1.839,0,0,1,3.678,0v3.5a1.864,1.864,0,0,1-1.84,1.821" transform="translate(16.891 21.7)"/>
        <path id="Path_1286990" data-name="Path 1286990" d="M13.65,61.246a1.863,1.863,0,0,1-1.838-1.821v-3.5a1.839,1.839,0,0,1,3.678,0v3.5a1.864,1.864,0,0,1-1.84,1.821" transform="translate(4.738 21.7)"/>
        <path id="Path_1286991" data-name="Path 1286991" d="M9.913,61.246a1.864,1.864,0,0,1-1.838-1.821v-3.5a1.839,1.839,0,0,1,3.678,0v3.5a2.088,2.088,0,0,1-1.84,1.821" transform="translate(3.239 21.7)"/>
      </g>
    </g>
  </g>
</svg>
