<svg xmlns="http://www.w3.org/2000/svg" xmlns:xlink="http://www.w3.org/1999/xlink" width="95.001" height="95" viewBox="0 0 95.001 95">
  <defs>
    <clipPath id="clip-path">
      <rect id="Rectangle_414218" data-name="Rectangle 414218" width="85.421" height="79.414" fill="none"/>
    </clipPath>
  </defs>
  <g id="Group_1223078" data-name="Group 1223078" transform="translate(-257 8081)">
    <rect id="Rectangle_414168" data-name="Rectangle 414168" width="95" height="95" transform="translate(257 -8081)" fill="none"/>
    <g id="Group_1223056" data-name="Group 1223056" transform="translate(-12713.436 2256.479)">
      <ellipse id="Ellipse_12935" data-name="Ellipse 12935" cx="27.416" cy="27.416" rx="27.416" ry="27.416" transform="translate(13010.604 -10302.149)" fill="#7fe5cf"/>
      <ellipse id="Ellipse_12936" data-name="Ellipse 12936" cx="19.939" cy="19.939" rx="19.939" ry="19.939" transform="translate(12970.436 -10333.479)" fill="#7fe5cf"/>
    </g>
    <g id="Group_1223073" data-name="Group 1223073" transform="translate(262 -8074)">
      <g id="Group_1223072" data-name="Group 1223072" transform="translate(0 0)" clip-path="url(#clip-path)">
        <path id="Path_1287038" data-name="Path 1287038" d="M61.308,28.708A3.778,3.778,0,0,1,57.5,24.933V19.9H8.074V61.844H68.228V28.708Z" transform="translate(3.215 7.923)" fill="#ecf0f1"/>
        <path id="Path_1287039" data-name="Path 1287039" d="M46.105,42.5a2.657,2.657,0,1,1-2.683,2.656A2.668,2.668,0,0,1,46.105,42.5" transform="translate(17.288 16.921)" fill="#193772"/>
        <path id="Path_1287040" data-name="Path 1287040" d="M14.6,23.7a2.668,2.668,0,0,1,2.683,2.656A2.584,2.584,0,0,1,14.6,29.013a2.657,2.657,0,1,1,0-5.313" transform="translate(4.743 9.436)" fill="#193772"/>
        <path id="Path_1287041" data-name="Path 1287041" d="M50.532,38.7v2.936l-4.378.979a12.978,12.978,0,0,1-1.412,3.5l2.4,3.775-2.118,2.1-3.813-2.377a10.957,10.957,0,0,1-3.53,1.4l-.988,4.334H33.729l-.988-4.334a13.24,13.24,0,0,1-3.53-1.4L25.4,51.984l-2.118-2.1,2.4-3.775a10.724,10.724,0,0,1-1.412-3.5l-4.378-.979V38.7l4.378-.979a12.979,12.979,0,0,1,1.412-3.5l-2.4-3.775,2.118-2.1,3.813,2.377a10.944,10.944,0,0,1,3.53-1.4L33.729,25h2.964l.988,4.334a13.259,13.259,0,0,1,3.53,1.4l3.813-2.377,2.118,2.1-2.4,3.775a10.725,10.725,0,0,1,1.412,3.5ZM39.941,40.1a4.66,4.66,0,1,0-4.66,4.614,4.5,4.5,0,0,0,4.66-4.614" transform="translate(7.919 9.953)" fill="#193772"/>
        <path id="Path_1287042" data-name="Path 1287042" d="M50.532,38.7v2.936l-4.378.979a12.978,12.978,0,0,1-1.412,3.5l2.4,3.775-2.118,2.1-3.813-2.377a10.957,10.957,0,0,1-3.53,1.4l-.988,4.334H33.729l-.988-4.334a13.24,13.24,0,0,1-3.53-1.4L25.4,51.984l-2.118-2.1,2.4-3.775a10.724,10.724,0,0,1-1.412-3.5l-4.378-.979V38.7l4.378-.979a12.979,12.979,0,0,1,1.412-3.5l-2.4-3.775,2.118-2.1,3.813,2.377a10.944,10.944,0,0,1,3.53-1.4L33.729,25h2.964l.988,4.334a13.259,13.259,0,0,1,3.53,1.4l3.813-2.377,2.118,2.1-2.4,3.775a10.725,10.725,0,0,1,1.412,3.5ZM39.941,40.1a4.66,4.66,0,1,0-4.66,4.614A4.5,4.5,0,0,0,39.941,40.1Z" transform="translate(7.919 9.953)" fill="none" stroke="#000" stroke-miterlimit="10" stroke-width="1"/>
        <path id="Path_1287043" data-name="Path 1287043" d="M78.161,50h3.53A8.816,8.816,0,0,1,72.8,58.808H9.254a8.913,8.913,0,0,1-6.212-2.517A8.737,8.737,0,0,1,.5,50.14H78.161Z" transform="translate(0.199 19.907)" fill="#3c3b3d"/>
        <path id="Path_1287044" data-name="Path 1287044" d="M78.161,50h3.53A8.816,8.816,0,0,1,72.8,58.808H9.254a8.913,8.913,0,0,1-6.212-2.517A8.737,8.737,0,0,1,.5,50.14H78.161Z" transform="translate(0.199 19.907)" fill="none" stroke="#000" stroke-miterlimit="10" stroke-width="1"/>
        <rect id="Rectangle_414216" data-name="Rectangle 414216" width="7.059" height="33.276" transform="translate(71.301 36.631)" fill="#57606f"/>
        <rect id="Rectangle_414217" data-name="Rectangle 414217" width="7.059" height="33.276" transform="translate(71.301 36.631)" fill="none" stroke="#000" stroke-miterlimit="10" stroke-width="1"/>
        <path id="Path_1287045" data-name="Path 1287045" d="M59.506,15v6.991H10.084V63.935H3.025V21.012A6,6,0,0,1,9.1,15Z" transform="translate(1.204 5.972)" fill="#57606f"/>
        <path id="Path_1287046" data-name="Path 1287046" d="M59.506,15v6.991H10.084V63.935H3.025V21.012A6,6,0,0,1,9.1,15Z" transform="translate(1.204 5.972)" fill="none" stroke="#000" stroke-miterlimit="10" stroke-width="1"/>
        <path id="Path_1287047" data-name="Path 1287047" d="M61.072,36.154H47.235a3.778,3.778,0,0,1-3.813-3.775V4.975A3.778,3.778,0,0,1,47.235,1.2H62.625a3.778,3.778,0,0,1,3.813,3.775V32.518a3.778,3.778,0,0,1-3.813,3.775H61.072Z" transform="translate(17.288 0.477)" fill="#73665c"/>
        <path id="Path_1287048" data-name="Path 1287048" d="M14.918,44.259a1.765,1.765,0,0,1,.565,1.258,1.512,1.512,0,0,1-.565,1.258,2.113,2.113,0,0,1-1.271.559,1.86,1.86,0,0,1-1.836-1.818,1.512,1.512,0,0,1,.565-1.258,2.117,2.117,0,0,1,1.271-.559,1.382,1.382,0,0,1,1.271.559" transform="translate(4.702 17.398)"/>
        <path id="Path_1287049" data-name="Path 1287049" d="M63.108,38.449H47.717A5.487,5.487,0,0,1,42.21,33V5.453A5.487,5.487,0,0,1,47.717,0H63.108a5.487,5.487,0,0,1,5.507,5.453V33a5.487,5.487,0,0,1-5.507,5.453M47.717,3.5A1.921,1.921,0,0,0,45.74,5.453V33a1.921,1.921,0,0,0,1.977,1.957H63.108A1.921,1.921,0,0,0,65.085,33V5.453A1.921,1.921,0,0,0,63.108,3.5Z" transform="translate(16.806 0)"/>
        <path id="Path_1287050" data-name="Path 1287050" d="M53.356,7.235H51.52a1.86,1.86,0,0,1-1.836-1.818A1.86,1.86,0,0,1,51.52,3.6h1.836a1.86,1.86,0,0,1,1.836,1.818,1.964,1.964,0,0,1-1.836,1.818" transform="translate(19.781 1.433)"/>
        <path id="Path_1287051" data-name="Path 1287051" d="M32.647,44.063a6.432,6.432,0,1,1,6.5-6.431,6.36,6.36,0,0,1-6.5,6.431m0-9.368a2.881,2.881,0,0,0-2.965,2.936A2.966,2.966,0,1,0,32.647,34.7" transform="translate(10.413 12.422)"/>
        <path id="Path_1287052" data-name="Path 1287052" d="M60.107,30.19H47.682a1.86,1.86,0,0,1-1.836-1.818V9.218a1.836,1.836,0,0,1,3.672,0V26.694h8.9V9.218a1.835,1.835,0,0,1,3.67,0V28.512a2.107,2.107,0,0,1-1.977,1.678" transform="translate(18.253 2.946)"/>
      </g>
    </g>
  </g>
</svg>
