<svg xmlns="http://www.w3.org/2000/svg" xmlns:xlink="http://www.w3.org/1999/xlink" width="95.001" height="86.162" viewBox="0 0 95.001 86.162">
  <defs>
    <clipPath id="clip-path">
      <rect id="Rectangle_414224" data-name="Rectangle 414224" width="59.316" height="63.912" fill="none"/>
    </clipPath>
  </defs>
  <g id="Group_1223081" data-name="Group 1223081" transform="translate(-8771.999 4651.581)">
    <path id="Path_1287076" data-name="Path 1287076" d="M54.343,43.5A19.8,19.8,0,0,0,38.119,74.71a19.836,19.836,0,0,0,27.6-27.6A19.692,19.692,0,0,0,54.343,43.5" transform="translate(8751.182 -4649.073)" fill="#6fd6af"/>
    <rect id="Rectangle_414069" data-name="Rectangle 414069" width="82" height="82" transform="translate(8778 -4649)" fill="none"/>
    <g id="Group_1222986" data-name="Group 1222986" transform="translate(-4198.437 5681.898)">
      <ellipse id="Ellipse_12935" data-name="Ellipse 12935" cx="27.416" cy="27.416" rx="27.416" ry="27.416" transform="translate(13010.604 -10302.149)" fill="#ffc94a"/>
      <ellipse id="Ellipse_12936" data-name="Ellipse 12936" cx="19.939" cy="19.939" rx="19.939" ry="19.939" transform="translate(12970.436 -10333.479)" fill="#ffc94a"/>
    </g>
    <g id="Group_1223080" data-name="Group 1223080" transform="translate(8794.793 -4645.46)">
      <g id="Group_1223079" data-name="Group 1223079" transform="translate(0 0)" clip-path="url(#clip-path)">
        <path id="Path_1287053" data-name="Path 1287053" d="M48.2,35.032a4.411,4.411,0,0,1,0,6.393,4.518,4.518,0,0,1-6.455,0,4.424,4.424,0,0,1-.973-4.946,6.89,6.89,0,0,1,.973-1.568,4.63,4.63,0,0,1,6.455.121" transform="translate(8.319 6.931)" fill="#ccf5ec"/>
        <path id="Path_1287054" data-name="Path 1287054" d="M28,23.715a4.412,4.412,0,0,1,0,6.391,4.516,4.516,0,0,1-6.454,0,4.412,4.412,0,0,1,0-6.391,4.747,4.747,0,0,1,6.454,0" transform="translate(4.155 4.623)" fill="#ccf5ec"/>
        <path id="Path_1287055" data-name="Path 1287055" d="M40.651,17.234a4.3,4.3,0,0,1,1.1-4.7,4.518,4.518,0,0,1,6.455,0,4.412,4.412,0,0,1,0,6.391,4.518,4.518,0,0,1-6.455,0,5.071,5.071,0,0,1-1.1-1.688" transform="translate(8.312 2.301)" fill="#ccf5ec"/>
        <path id="Path_1287056" data-name="Path 1287056" d="M13.4,1.2V13.258H1.215Z" transform="translate(0.25 0.246)" fill="#bec3c7"/>
        <path id="Path_1287057" data-name="Path 1287057" d="M13.4,1.2V13.258H1.215Z" transform="translate(0.25 0.246)" fill="none" stroke="#000" stroke-miterlimit="10" stroke-width="1"/>
        <path id="Path_1287058" data-name="Path 1287058" d="M31.907,34.6a4.516,4.516,0,0,1-6.454,0,4.412,4.412,0,0,1,0-6.391,4.516,4.516,0,0,1,6.454,0l10.475-5.547V1.2H13.395V13.258H1.216V63.064H42.381V40.151l.121-.121Z" transform="translate(0.25 0.246)" fill="#ecf0f1"/>
        <path id="Path_1287059" data-name="Path 1287059" d="M31.907,34.6a4.516,4.516,0,0,1-6.454,0,4.412,4.412,0,0,1,0-6.391,4.516,4.516,0,0,1,6.454,0l10.475-5.547V1.2H13.395V13.258H1.216V63.064H42.381V40.151l.121-.121Z" transform="translate(0.25 0.246)" fill="none" stroke="#000" stroke-miterlimit="10" stroke-width="1"/>
        <path id="Path_1287060" data-name="Path 1287060" d="M36.719,21.681a1.523,1.523,0,0,1,.486,1.084,1.171,1.171,0,0,1-.486,1.087,1.552,1.552,0,0,1-1.1.481,1.6,1.6,0,0,1-1.585-1.568,1.3,1.3,0,0,1,.488-1.084,1.548,1.548,0,0,1,1.1-.482,1.328,1.328,0,0,1,1.1.482" transform="translate(7.009 4.365)"/>
        <path id="Path_1287061" data-name="Path 1287061" d="M36.719,25.38a1.526,1.526,0,0,1,.486,1.085,1.171,1.171,0,0,1-.486,1.087,1.557,1.557,0,0,1-1.1.481,1.6,1.6,0,0,1-1.585-1.568,1.306,1.306,0,0,1,.488-1.085,1.552,1.552,0,0,1,1.1-.481,1.834,1.834,0,0,1,1.1.481" transform="translate(7.009 5.127)"/>
        <path id="Path_1287062" data-name="Path 1287062" d="M36.719,29.2a1.523,1.523,0,0,1,.486,1.084,1.171,1.171,0,0,1-.486,1.087,1.984,1.984,0,0,1-1.1.362,1.605,1.605,0,0,1-1.585-1.568,1.309,1.309,0,0,1,.488-1.087,1.547,1.547,0,0,1,1.1-.481c.486,0,.73.24,1.1.6" transform="translate(7.009 5.889)"/>
        <rect id="Rectangle_414219" data-name="Rectangle 414219" width="3.044" height="3.015" transform="translate(36.542 6.027)"/>
        <rect id="Rectangle_414220" data-name="Rectangle 414220" width="3.045" height="3.015" transform="translate(31.914 6.027)"/>
        <rect id="Rectangle_414221" data-name="Rectangle 414221" width="3.044" height="3.015" transform="translate(27.407 6.027)"/>
        <rect id="Rectangle_414222" data-name="Rectangle 414222" width="3.044" height="3.015" transform="translate(22.78 6.027)"/>
        <rect id="Rectangle_414223" data-name="Rectangle 414223" width="3.045" height="3.015" transform="translate(18.272 6.027)"/>
        <path id="Path_1287063" data-name="Path 1287063" d="M45.181,22.058a5.745,5.745,0,0,1-4.264-1.809,6.859,6.859,0,0,1-1.462-2.171,5.756,5.756,0,0,1,1.462-6.271A6.243,6.243,0,0,1,45.181,10a5.744,5.744,0,0,1,4.263,1.809,6.123,6.123,0,0,1,1.827,4.221,5.633,5.633,0,0,1-1.827,4.221,6.01,6.01,0,0,1-4.263,1.809m0-9.045a3.524,3.524,0,0,0-2.192.844,3.017,3.017,0,0,0-.732,3.135,2.165,2.165,0,0,0,.732,1.085,2.953,2.953,0,0,0,2.192.844,3.516,3.516,0,0,0,2.191-.844,2.889,2.889,0,0,0,.853-2.171,3.445,3.445,0,0,0-.853-2.169,3.418,3.418,0,0,0-2.191-.725" transform="translate(8.046 2.059)"/>
        <path id="Path_1287064" data-name="Path 1287064" d="M45.174,44.579A5.745,5.745,0,0,1,40.91,42.77a5.878,5.878,0,0,1-1.337-6.511,7.383,7.383,0,0,1,1.337-2.051A6.238,6.238,0,0,1,45.174,32.4a5.744,5.744,0,0,1,4.263,1.809,6.125,6.125,0,0,1,1.827,4.221,5.635,5.635,0,0,1-1.827,4.221,5.662,5.662,0,0,1-4.263,1.93m0-9.045a3.524,3.524,0,0,0-2.192.844,6.785,6.785,0,0,0-.732.965,2.785,2.785,0,0,0,.732,3.256,2.953,2.953,0,0,0,2.192.844,3.517,3.517,0,0,0,2.191-.844,2.889,2.889,0,0,0,.853-2.171,3.445,3.445,0,0,0-.853-2.169,3.418,3.418,0,0,0-2.191-.725" transform="translate(8.053 6.672)"/>
        <path id="Path_1287065" data-name="Path 1287065" d="M24.979,33.258a5.739,5.739,0,0,1-4.263-1.809,6.112,6.112,0,0,1-1.827-4.221,5.63,5.63,0,0,1,1.827-4.221A6.23,6.23,0,0,1,24.979,21.2a5.738,5.738,0,0,1,4.262,1.809,6.113,6.113,0,0,1,1.828,4.221,5.631,5.631,0,0,1-1.828,4.221,5.552,5.552,0,0,1-4.262,1.809m0-9.045a3.519,3.519,0,0,0-2.192.844,2.891,2.891,0,0,0-.853,2.171,3.448,3.448,0,0,0,.853,2.171,2.949,2.949,0,0,0,2.192.844A3.518,3.518,0,0,0,27.17,29.4a2.891,2.891,0,0,0,.853-2.171,3.441,3.441,0,0,0-.853-2.171,3.518,3.518,0,0,0-2.191-.844" transform="translate(3.89 4.365)"/>
        <path id="Path_1287066" data-name="Path 1287066" d="M43.759,39.292a1.556,1.556,0,0,1-.73-.121L26.1,30.488a1.437,1.437,0,0,1-.608-2.05,1.493,1.493,0,0,1,2.069-.6L44.49,36.518a1.437,1.437,0,0,1,.609,2.05,1.4,1.4,0,0,1-1.34.724" transform="translate(5.204 5.687)"/>
        <path id="Path_1287067" data-name="Path 1287067" d="M26.923,26.824a1.422,1.422,0,0,1-1.34-.843,1.537,1.537,0,0,1,.609-2.05L43,15.128a1.567,1.567,0,0,1,2.071.6,1.536,1.536,0,0,1-.609,2.049l-16.807,8.8a.9.9,0,0,1-.731.24" transform="translate(5.234 3.08)"/>
        <path id="Path_1287068" data-name="Path 1287068" d="M26.387,18.034H6.535a1.568,1.568,0,1,1,0-3.135H26.387a1.6,1.6,0,0,1,1.582,1.568,1.692,1.692,0,0,1-1.582,1.568" transform="translate(1.02 3.068)"/>
        <path id="Path_1287069" data-name="Path 1287069" d="M21.759,21.734H6.537a1.568,1.568,0,1,1,0-3.135H21.759a1.568,1.568,0,1,1,0,3.135" transform="translate(1.02 3.83)"/>
        <path id="Path_1287070" data-name="Path 1287070" d="M17.252,25.534H6.535a1.568,1.568,0,1,1,0-3.135H17.252a1.6,1.6,0,0,1,1.583,1.568,1.694,1.694,0,0,1-1.583,1.568" transform="translate(1.02 4.612)"/>
        <path id="Path_1287071" data-name="Path 1287071" d="M17.252,29.234H6.535a1.568,1.568,0,1,1,0-3.135H17.252a1.568,1.568,0,1,1,0,3.135" transform="translate(1.02 5.374)"/>
        <path id="Path_1287072" data-name="Path 1287072" d="M17.252,40.534H6.535a1.568,1.568,0,1,1,0-3.135H17.252a1.568,1.568,0,1,1,0,3.135" transform="translate(1.02 7.701)"/>
        <path id="Path_1287073" data-name="Path 1287073" d="M23.342,44.234H6.535a1.568,1.568,0,1,1,0-3.135H23.342a1.6,1.6,0,0,1,1.583,1.568,1.694,1.694,0,0,1-1.583,1.568" transform="translate(1.02 8.463)"/>
        <path id="Path_1287074" data-name="Path 1287074" d="M33.939,48.034H6.535a1.568,1.568,0,1,1,0-3.135h27.4a1.568,1.568,0,1,1,0,3.135" transform="translate(1.02 9.246)"/>
      </g>
    </g>
    <path id="Path_1287075" data-name="Path 1287075" d="M51.594,40.75A19.845,19.845,0,1,1,31.749,60.595,19.845,19.845,0,0,1,51.594,40.75" transform="translate(8748.969 -4651.284)" fill="#53c99b" stroke="#000" stroke-width="1"/>
    <path id="Path_1287077" data-name="Path 1287077" d="M59.77,49.919,43.186,66.5,35.531,58.85l3.828-3.826,3.826,3.826L55.942,46.093Z" transform="translate(8752.012 -4646.988)" fill="#f6fbff"/>
    <path id="Path_1287078" data-name="Path 1287078" d="M57.5,45.74a1.353,1.353,0,0,0-1.914,0l-11.8,11.8-2.87-2.87a1.353,1.353,0,0,0-1.914,0L35.177,58.5a1.355,1.355,0,0,0,0,1.912l7.655,7.655a1.351,1.351,0,0,0,1.91,0l0,0L61.329,51.489a1.355,1.355,0,0,0,0-1.912ZM43.788,65.2l-5.74-5.742,1.914-1.912,2.87,2.868a1.351,1.351,0,0,0,1.91,0l0,0L56.551,48.6l1.914,1.916Z" transform="translate(8751.41 -4647.591)"/>
  </g>
</svg>
