<svg xmlns="http://www.w3.org/2000/svg" width="95.001" height="95" viewBox="0 0 95.001 95">
  <g id="Group_1223049" data-name="Group 1223049" transform="translate(-3 4732)">
    <rect id="Rectangle_414160" data-name="Rectangle 414160" width="95" height="95" transform="translate(3 -4732)" fill="none"/>
    <g id="Group_1223041" data-name="Group 1223041" transform="translate(-12967.436 5605.479)">
      <ellipse id="Ellipse_12935" data-name="Ellipse 12935" cx="27.416" cy="27.416" rx="27.416" ry="27.416" transform="translate(13010.604 -10302.149)" fill="#7fe5cf"/>
      <ellipse id="Ellipse_12936" data-name="Ellipse 12936" cx="19.939" cy="19.939" rx="19.939" ry="19.939" transform="translate(12970.436 -10333.479)" fill="#7fe5cf"/>
    </g>
    <g id="Group_1223034" data-name="Group 1223034" transform="translate(3.65 -4728.029)">
      <g id="Group_1223052" data-name="Group 1223052" transform="translate(7 4)">
        <path id="Path_1286838" data-name="Path 1286838" d="M70.65,13.108a4.268,4.268,0,0,1,2.531,3.864V62.544a4.208,4.208,0,0,1-4.264,4.264H7.49a4.208,4.208,0,0,1-4.264-4.264V16.972a4.267,4.267,0,0,1,2.532-3.864c.133,2.4.267-2,1.731-.133,0,1.6.666-1.866.666-.267h60.1l1.067.133Z" transform="translate(1.512 3.949)" fill="#7d89aa"/>
        <rect id="Rectangle_414150" data-name="Rectangle 414150" width="60.096" height="39.176" transform="translate(9.668 21.72)" fill="#fff"/>
        <path id="Path_1286841" data-name="Path 1286841" d="M31.868,49.123H21.475l1.2-6.262a7.723,7.723,0,0,1,7.6-6.263H36.8a7.7,7.7,0,0,1,7.6,6.263l1.2,6.262Z" transform="translate(7.381 11.772)" fill="#4a78ff"/>
        <path id="Path_1286842" data-name="Path 1286842" d="M51.407,54.57a3.217,3.217,0,0,1,.932,2.4A3.3,3.3,0,0,1,49.007,60.3H19.161a3.836,3.836,0,0,1-2.4-.933,3.021,3.021,0,0,1-.932-2.4,3.3,3.3,0,0,1,3.331-3.332H49.142a2.925,2.925,0,0,1,2.265.932" transform="translate(5.566 17.253)" fill="#5c6887"/>
        <path id="Path_1286843" data-name="Path 1286843" d="M32.269.706a10.817,10.817,0,1,0,4.265,20.787A10.913,10.913,0,0,0,43.2,11.5,10.948,10.948,0,0,0,32.269.706" transform="translate(7.381 0.228)" fill="#32438c"/>
        <path id="Path_1286844" data-name="Path 1286844" d="M48.7,4.437A10.793,10.793,0,1,1,37.909,15.23,10.794,10.794,0,0,1,48.7,4.437" transform="translate(12.667 1.428)" fill="#57606f"/>
        <path id="Path_1286845" data-name="Path 1286845" d="M15.938,4.437A10.793,10.793,0,1,0,26.732,15.23,10.754,10.754,0,0,0,15.938,4.437" transform="translate(2.126 1.428)" fill="#57606f"/>
        <path id="Path_1286846" data-name="Path 1286846" d="M48.249,13.913a10.9,10.9,0,0,1,8.794,4.532,1.815,1.815,0,0,0-.4.533,10.834,10.834,0,0,1-17.323-.4,10.584,10.584,0,0,1,8.928-4.664" transform="translate(13.121 4.476)" fill="#95e6f9"/>
        <path id="Path_1286847" data-name="Path 1286847" d="M40.577,14.714h0a11.6,11.6,0,0,1-4.664,3.73,10.838,10.838,0,0,1-4.13.8,10.371,10.371,0,0,1-4.131-.8,11.618,11.618,0,0,1-4.664-3.73,10.74,10.74,0,0,1,8.8-4.532,10.558,10.558,0,0,1,8.794,4.532" transform="translate(7.868 3.276)" fill="#ff5987"/>
        <path id="Path_1286848" data-name="Path 1286848" d="M24.276,18.445h0a10.736,10.736,0,0,1-8.794,4.531,10.918,10.918,0,0,1-8.4-3.864c-.133-.267-.4-.4-.533-.666a10.734,10.734,0,0,1,8.794-4.532,10.985,10.985,0,0,1,8.928,4.532" transform="translate(2.582 4.476)" fill="#59d9a4"/>
        <path id="Path_1286849" data-name="Path 1286849" d="M47.081,7.662a4.131,4.131,0,1,1-4.131,4.131,4.131,4.131,0,0,1,4.131-4.131" transform="translate(14.288 2.465)" fill="#ffe2b6"/>
        <path id="Path_1286850" data-name="Path 1286850" d="M30.647,3.831a4.131,4.131,0,1,1-4.131,4.131,4.131,4.131,0,0,1,4.131-4.131" transform="translate(9.003 1.233)" fill="#ffe2b6"/>
        <path id="Path_1286851" data-name="Path 1286851" d="M14.314,7.662a4.131,4.131,0,1,1-4.13,4.131,4.131,4.131,0,0,1,4.13-4.131" transform="translate(3.75 2.465)" fill="#ffe2b6"/>
        <path id="Path_1286852" data-name="Path 1286852" d="M31.911,28.129a5.6,5.6,0,1,1-5.6,5.6,5.6,5.6,0,0,1,5.6-5.6" transform="translate(8.938 9.048)" fill="#ffe2b6"/>
        <path id="Path_1286856" data-name="Path 1286856" d="M28.864,49.02a1.687,1.687,0,0,0-.533,1.2,1.732,1.732,0,1,0,3.464,0,1.449,1.449,0,0,0-.533-1.2,1.69,1.69,0,0,0-2.4,0" transform="translate(9.586 15.607)"/>
        <path id="Path_1286860" data-name="Path 1286860" d="M71.612,16.523A11.687,11.687,0,0,0,60.02,4.931a11.4,11.4,0,0,0-9.994,5.729,11.633,11.633,0,0,0-23.185,0,11.4,11.4,0,0,0-9.994-5.729A11.6,11.6,0,0,0,5.254,16.523a4.985,4.985,0,0,0-2.532,4.4V66.493a5.061,5.061,0,0,0,5.063,5.063H20.178a4.249,4.249,0,0,0,.4,5.464,4.14,4.14,0,0,0,2.931,1.2H53.49a4.153,4.153,0,0,0,4.131-4.131,4.39,4.39,0,0,0-.8-2.531H69.213a5.062,5.062,0,0,0,5.064-5.063V20.922a5.966,5.966,0,0,0-2.666-4.4M60.02,6.662a9.987,9.987,0,0,1,9.993,10.395,9.844,9.844,0,0,1-1.2,4.4,10.98,10.98,0,0,0-5.464-3.464,4.957,4.957,0,0,0,1.733-3.732,5.064,5.064,0,0,0-10.128,0,4.754,4.754,0,0,0,1.733,3.732,12.4,12.4,0,0,0-5.464,3.464l-.132-.133a10.352,10.352,0,0,1-.933-6.929A10.016,10.016,0,0,1,60.02,6.662M38.3,55.833l-2.664-3.065A.853.853,0,1,0,34.3,53.834l1.733,2h-3.6a.8.8,0,0,0,0,1.6H37.9a1.2,1.2,0,0,1,0,2.4H28.573L29.638,54.5a6.869,6.869,0,0,1,6.8-5.464h6.529a6.869,6.869,0,0,1,6.8,5.464l1.067,5.329H40.7a3.874,3.874,0,0,0,.267-1.2,3.246,3.246,0,0,0-2.666-2.8m1.2-8.262a4.8,4.8,0,1,1,4.8-4.8,4.864,4.864,0,0,1-4.8,4.8M52.291,59.964l-1.067-5.6a8.623,8.623,0,0,0-7.462-6.8,6.4,6.4,0,1,0-8.527,0,8.63,8.63,0,0,0-7.328,6.8l-1.067,5.6H9.117V54.1h9.994a.8.8,0,0,0,0-1.6H9.117V25.584a10.925,10.925,0,0,0,7.2,2.664l8.928,8.928a.848.848,0,0,0,1.2-1.2l-7.861-7.861a11.7,11.7,0,0,0,8.262-5.729h7.195a14.58,14.58,0,0,0,3.465.8v6.662a.8.8,0,1,0,1.6,0V23.186a14.58,14.58,0,0,0,3.465-.8h7.195c.133.266.4.666.534.932a12.264,12.264,0,0,0,7.728,4.8l-7.861,7.861a.848.848,0,0,0,1.2,1.2l8.928-8.928a12.159,12.159,0,0,0,7.328-2.8V52.5H57.488a.8.8,0,0,0,0,1.6H67.614v5.864ZM13.382,14.258a3.331,3.331,0,1,1,3.331,3.332,3.385,3.385,0,0,1-3.331-3.332M28.306,17.59a2.8,2.8,0,0,0,.533.8,12.955,12.955,0,0,0,2.265,2.4h-3.6a11.241,11.241,0,0,0,.8-3.2m6.662-8.4A3.331,3.331,0,1,1,38.3,12.527a3.3,3.3,0,0,1-3.331-3.332m13.325,8.4a27.521,27.521,0,0,0,.666,3.2h-3.6a9.668,9.668,0,0,0,2.265-2.4,1.779,1.779,0,0,0,.666-.8m8.4-3.332A3.331,3.331,0,1,1,60.02,17.59a3.385,3.385,0,0,1-3.332-3.332M60.02,26.651a10.111,10.111,0,0,1-7.862-3.731,9.919,9.919,0,0,1,7.862-3.731,10.111,10.111,0,0,1,7.861,3.731,10.311,10.311,0,0,1-7.861,3.731M42.164,20.922h0a9.559,9.559,0,0,1-3.864.8,10.316,10.316,0,0,1-7.861-3.73A9.914,9.914,0,0,1,38.3,14.258a10.109,10.109,0,0,1,7.862,3.732,12.42,12.42,0,0,1-4,2.931M16.713,26.651A10.313,10.313,0,0,1,8.852,22.92a9.916,9.916,0,0,1,7.861-3.731,10.113,10.113,0,0,1,7.862,3.731,10.315,10.315,0,0,1-7.862,3.731M38.3,1.733a10.067,10.067,0,0,1,9.994,9.993,10.237,10.237,0,0,1-1.2,4.8,10.454,10.454,0,0,0-5.464-3.464,4.957,4.957,0,0,0,1.733-3.731,5.064,5.064,0,0,0-10.128,0,4.751,4.751,0,0,0,1.733,3.731A12.408,12.408,0,0,0,29.5,16.523a10.237,10.237,0,0,1-1.2-4.8A9.98,9.98,0,0,1,38.3,1.733M16.713,6.662a9.977,9.977,0,0,1,9.727,7.729,10.165,10.165,0,0,1-.932,7.063,10.442,10.442,0,0,0-5.464-3.464,4.956,4.956,0,0,0,1.731-3.732,5.063,5.063,0,1,0-10.126,0,4.754,4.754,0,0,0,1.733,3.732,12.4,12.4,0,0,0-5.464,3.464,8.384,8.384,0,0,1-1.2-4.4A9.987,9.987,0,0,1,16.713,6.662m39.042,67.56a2.53,2.53,0,0,1-2.531,2.531H23.375a2.532,2.532,0,0,1,0-5.063H53.358a2.42,2.42,0,0,1,2.4,2.532m16.657-7.729a3.528,3.528,0,0,1-3.465,3.464H7.653a3.528,3.528,0,0,1-3.465-3.464V20.922a3.83,3.83,0,0,1,.933-2.4,10.742,10.742,0,0,0,2.4,5.329V60.763a.861.861,0,0,0,.8.8h60.1a.86.86,0,0,0,.8-.8V23.72a11.327,11.327,0,0,0,2.132-5.2,3.21,3.21,0,0,1,.933,2.4Z" transform="translate(1.35 0.001)"/>
      </g>
    </g>
  </g>
</svg>
