<svg xmlns="http://www.w3.org/2000/svg" xmlns:xlink="http://www.w3.org/1999/xlink" width="95.001" height="95" viewBox="0 0 95.001 95">
  <defs>
    <clipPath id="clip-path">
      <rect id="Rectangle_414156" data-name="Rectangle 414156" width="81.894" height="85.362" fill="none"/>
    </clipPath>
  </defs>
  <g id="Group_1223050" data-name="Group 1223050" transform="translate(-129 4732)">
    <rect id="Rectangle_414164" data-name="Rectangle 414164" width="95" height="95" transform="translate(129 -4732)" fill="none"/>
    <g id="Group_1223045" data-name="Group 1223045" transform="translate(-12841.436 5605.479)">
      <ellipse id="Ellipse_12935" data-name="Ellipse 12935" cx="27.416" cy="27.416" rx="27.416" ry="27.416" transform="translate(13010.604 -10302.149)" fill="#7fe5cf"/>
      <ellipse id="Ellipse_12936" data-name="Ellipse 12936" cx="19.939" cy="19.939" rx="19.939" ry="19.939" transform="translate(12970.436 -10333.479)" fill="#7fe5cf"/>
    </g>
    <g id="Group_1223036" data-name="Group 1223036" transform="translate(135 -4728)">
      <g id="Group_1223035" data-name="Group 1223035" transform="translate(0 0)" clip-path="url(#clip-path)">
        <path id="Path_1286863" data-name="Path 1286863" d="M75.161,10.485H5.634A4.766,4.766,0,0,0,.807,15.312V66.89a4.766,4.766,0,0,0,4.827,4.827H75.161a4.765,4.765,0,0,0,4.826-4.827V15.312a4.763,4.763,0,0,0-4.826-4.827" transform="translate(0.4 5.199)" fill="#7d89aa"/>
        <rect id="Rectangle_414152" data-name="Rectangle 414152" width="68.019" height="44.339" transform="translate(6.938 21.416)" fill="#fff"/>
        <rect id="Rectangle_414153" data-name="Rectangle 414153" width="13.271" height="6.636" transform="translate(52.183 51.579)" fill="#ff5987"/>
        <rect id="Rectangle_414154" data-name="Rectangle 414154" width="13.271" height="6.636" transform="translate(52.183 40.268)" fill="#fc6"/>
        <rect id="Rectangle_414155" data-name="Rectangle 414155" width="13.271" height="6.636" transform="translate(52.183 28.956)" fill="#59d9a4"/>
        <path id="Path_1286866" data-name="Path 1286866" d="M53.778,52.576a3.629,3.629,0,0,1,1.056,2.714,3.734,3.734,0,0,1-3.77,3.773H17.282a4.335,4.335,0,0,1-2.715-1.056,3.419,3.419,0,0,1-1.056-2.717,3.732,3.732,0,0,1,3.771-3.768H51.214a3.3,3.3,0,0,1,2.564,1.055" transform="translate(6.7 25.548)" fill="#5c6887"/>
        <path id="Path_1286867" data-name="Path 1286867" d="M24.379,30.588l-7.541,4.223v-8.6Z" transform="translate(8.349 12.998)" fill="#fff"/>
        <path id="Path_1286868" data-name="Path 1286868" d="M22.6,20.87A12.216,12.216,0,1,1,10.385,33.085,12.166,12.166,0,0,1,22.6,20.87M20.038,37.459l7.39-4.374-7.39-4.374Z" transform="translate(5.15 10.348)" fill="#ff5987"/>
        <path id="Path_1286871" data-name="Path 1286871" d="M26.616,46.968a1.91,1.91,0,0,0-.6,1.357,1.96,1.96,0,1,0,3.921,0,1.637,1.637,0,0,0-.6-1.357,1.91,1.91,0,0,0-2.714,0" transform="translate(12.899 23.01)"/>
        <path id="Path_1286874" data-name="Path 1286874" d="M22.951,46.708A13.271,13.271,0,1,0,9.68,33.588a13.068,13.068,0,0,0,13.271,13.12m0-24.432a11.312,11.312,0,1,1-11.31,11.312,11.394,11.394,0,0,1,11.31-11.312" transform="translate(4.8 9.999)"/>
        <path id="Path_1286875" data-name="Path 1286875" d="M17.138,36.053a.557.557,0,0,0,.453-.151l7.388-4.374a.854.854,0,0,0,0-1.508l-7.388-4.374a.963.963,0,0,0-.906,0,.831.831,0,0,0-.453.754V35c0,.754.453,1.056.906,1.056m1.055-7.843,4.676,2.715-4.676,2.714Z" transform="translate(8.049 12.661)"/>
        <path id="Path_1286878" data-name="Path 1286878" d="M72.957,13.711H4.939a.975.975,0,0,0-.906.905V58.957a.975.975,0,0,0,.906.9H72.957a.974.974,0,0,0,.905-.9V14.616a.8.8,0,0,0-.905-.905m-.9,44.19H5.843V15.521H72.052Z" transform="translate(2 6.798)"/>
        <path id="Path_1286879" data-name="Path 1286879" d="M75.411,9.88H6.034A5.729,5.729,0,0,0,.3,15.612V67.19a5.729,5.729,0,0,0,5.731,5.732H20.06a4.81,4.81,0,0,0,.453,6.184,4.68,4.68,0,0,0,3.318,1.357H57.764a4.7,4.7,0,0,0,4.676-4.676,4.969,4.969,0,0,0-.9-2.865H75.562a5.729,5.729,0,0,0,5.731-5.732V15.612A5.763,5.763,0,0,0,75.411,9.88M60.48,75.938A2.865,2.865,0,0,1,57.614,78.8H23.832a2.865,2.865,0,1,1,0-5.731H57.764a2.74,2.74,0,0,1,2.717,2.865M79.331,67.19a3.993,3.993,0,0,1-3.921,3.922H6.034A3.993,3.993,0,0,1,2.113,67.19V15.612A3.993,3.993,0,0,1,6.034,11.69H75.562a3.993,3.993,0,0,1,3.921,3.922V67.19Z" transform="translate(0.15 4.899)"/>
        <path id="Path_1286880" data-name="Path 1286880" d="M35.185,27.2H48.456a.972.972,0,0,0,.9-.9V19.657a.973.973,0,0,0-.9-.905H35.185a.973.973,0,0,0-.905.905v6.637a.972.972,0,0,0,.905.9m.905-6.636H47.4v4.676H36.09Z" transform="translate(16.998 9.298)"/>
        <path id="Path_1286881" data-name="Path 1286881" d="M35.185,34.76H48.456a.972.972,0,0,0,.9-.905V27.219a.973.973,0,0,0-.9-.905H35.185a.973.973,0,0,0-.905.905v6.636a.972.972,0,0,0,.905.905m.905-6.636H47.4V32.8H36.09Z" transform="translate(16.998 13.048)"/>
        <path id="Path_1286882" data-name="Path 1286882" d="M35.185,42.322H48.456a.973.973,0,0,0,.9-.905V34.781a.972.972,0,0,0-.9-.905H35.185a.972.972,0,0,0-.905.905v6.636a.973.973,0,0,0,.905.905m.905-6.637H47.4v4.676H36.09Z" transform="translate(16.998 16.798)"/>
      </g>
    </g>
  </g>
</svg>
