<svg xmlns="http://www.w3.org/2000/svg" xmlns:xlink="http://www.w3.org/1999/xlink" width="95" height="95" viewBox="0 0 95 95">
  <defs>
    <clipPath id="clip-path">
      <rect id="Rectangle_413731" data-name="Rectangle 413731" width="95" height="95" transform="translate(0.001 0.001)" fill="none"/>
    </clipPath>
  </defs>
  <g id="Group_1222862" data-name="Group 1222862" transform="translate(-23534 10988)">
    <rect id="Rectangle_413727" data-name="Rectangle 413727" width="95" height="95" transform="translate(23534 -10988)" fill="none"/>
    <g id="Group_1222755" data-name="Group 1222755" transform="translate(23534.223 -10987.726)">
      <g id="Group_1222754" data-name="Group 1222754" transform="translate(-0.224 -0.275)" clip-path="url(#clip-path)">
        <path id="Path_1285626" data-name="Path 1285626" d="M168.492,252.305H107.354V206.452h58.081a3.056,3.056,0,0,1,3.057,3.057Z" transform="translate(-87.282 -168.003)" fill="#ccd1d9"/>
        <rect id="Rectangle_413730" data-name="Rectangle 413730" width="48.91" height="33.626" transform="translate(26.186 44.562)" fill="#69d6f4"/>
        <path id="Path_1285627" data-name="Path 1285627" d="M139.749,463.365H98.481a7.645,7.645,0,0,1-7.642-7.642,1.533,1.533,0,0,1,1.528-1.528h64.195a1.533,1.533,0,0,1,1.528,1.528,7.613,7.613,0,0,1-6.114,7.489,7.2,7.2,0,0,1-1.529.153h-10.7Z" transform="translate(-73.824 -369.892)" fill="#969faa"/>
        <path id="Path_1285628" data-name="Path 1285628" d="M74.917,24.774H44.348a3.066,3.066,0,0,0-3.057,3.057V55.343A3.066,3.066,0,0,0,44.348,58.4H56.575l1.162,4.631a1.953,1.953,0,0,0,3.791,0L62.689,58.4H74.917a3.066,3.066,0,0,0,3.057-3.057V27.831a3.066,3.066,0,0,0-3.057-3.057" transform="translate(-33.446 -19.951)" fill="#e6e9ed"/>
        <path id="Path_1285629" data-name="Path 1285629" d="M129.985,140.387v4.585a1.533,1.533,0,0,1-1.528,1.528H125.4a1.533,1.533,0,0,1-1.528-1.528v-4.585Z" transform="translate(-100.742 -114.166)" fill="#b4dd7f"/>
        <path id="Path_1285630" data-name="Path 1285630" d="M107.355,63.34a5.532,5.532,0,0,1,5.533-5.533h1.162a5.532,5.532,0,0,1,5.533,5.533v.214a2.931,2.931,0,0,1-.015.367H107.386a1.49,1.49,0,0,1-.031-.367Z" transform="translate(-87.283 -46.87)" fill="#b4dd7f"/>
        <path id="Path_1285631" data-name="Path 1285631" d="M170.156,17.429a10.7,10.7,0,1,1,0,21.4h-1.528a10.991,10.991,0,0,1-3.225,6.114l-.5.459a10.991,10.991,0,0,1-7.092,2.6H156.43a9.2,9.2,0,0,1-9.2-9.2,9.056,9.056,0,0,1,.474-2.919l1.055-3.164H110.546V28.128a5.433,5.433,0,0,1-3.026-4.585h41.237l-.489-.963a9.891,9.891,0,0,1-1.039-4.433,9.915,9.915,0,0,1,9.889-9.889h.688a10.977,10.977,0,0,1,10.821,9.171Zm4.585,10.7a4.585,4.585,0,1,0-4.585,4.585,4.579,4.579,0,0,0,4.585-4.585m-12.228-9.171a4.585,4.585,0,1,0-4.585,4.585,4.579,4.579,0,0,0,4.585-4.585m0,18.341a4.585,4.585,0,1,0-4.585,4.585,4.579,4.579,0,0,0,4.585-4.585" transform="translate(-87.417 -6.492)" fill="#b4dd7f"/>
        <path id="Path_1285632" data-name="Path 1285632" d="M14.372,287.8A9.183,9.183,0,0,0,26.6,296.452v6.633H20.485v-.52a3.056,3.056,0,0,0-5.212-2.17l-.382.382-4.326-4.325.382-.382a3.056,3.056,0,0,0-2.17-5.212h-.52v-6.114h.52a3.056,3.056,0,0,0,2.17-5.212l-.382-.382,4.326-4.325.382.382a3.056,3.056,0,0,0,5.212-2.171v-.52H26.6v6.633A9.183,9.183,0,0,0,14.372,287.8Z" transform="translate(-6.527 -221.84)" fill="#ffc729"/>
        <path id="Path_1285633" data-name="Path 1285633" d="M53.518,314.72v8.651a9.171,9.171,0,1,1,0-17.3v8.651a3.057,3.057,0,1,0-3.057,3.057,3.066,3.066,0,0,0,3.057-3.057" transform="translate(-33.445 -248.759)" fill="#fcd770"/>
        <path id="Path_1285634" data-name="Path 1285634" d="M328.179,307.077v19.87h-6.114v-19.87a1.533,1.533,0,0,1,1.528-1.528h3.057a1.533,1.533,0,0,1,1.528,1.528" transform="translate(-262.253 -248.759)" fill="#ef7385"/>
        <path id="Path_1285635" data-name="Path 1285635" d="M262.114,340.109v13.756H256V340.109a1.533,1.533,0,0,1,1.528-1.528h3.057a1.533,1.533,0,0,1,1.528,1.528" transform="translate(-208.416 -275.677)" fill="#ef7385"/>
        <path id="Path_1285636" data-name="Path 1285636" d="M196.05,373.141v7.642h-6.114v-7.642a1.533,1.533,0,0,1,1.528-1.528h3.057a1.533,1.533,0,0,1,1.528,1.528" transform="translate(-154.579 -302.596)" fill="#ef7385"/>
        <path id="Path_1285637" data-name="Path 1285637" d="M352.953,45.259a6.114,6.114,0,1,0-6.114-6.114,6.12,6.12,0,0,0,6.114,6.114m0-9.171a3.057,3.057,0,1,1-3.057,3.057,3.06,3.06,0,0,1,3.057-3.057" transform="translate(-282.442 -26.681)"/>
        <path id="Path_1285638" data-name="Path 1285638" d="M352.953,144.356a6.114,6.114,0,1,0-6.114-6.114,6.12,6.12,0,0,0,6.114,6.114m0-9.171a3.057,3.057,0,1,1-3.057,3.057,3.06,3.06,0,0,1,3.057-3.057" transform="translate(-282.442 -107.437)"/>
        <path id="Path_1285639" data-name="Path 1285639" d="M419.017,94.808a6.114,6.114,0,1,0-6.114-6.114,6.12,6.12,0,0,0,6.114,6.114m0-9.171a3.057,3.057,0,1,1-3.057,3.057,3.06,3.06,0,0,1,3.057-3.057" transform="translate(-336.278 -67.059)"/>
        <path id="Path_1285640" data-name="Path 1285640" d="M82.536,33.627a12.228,12.228,0,0,0,0-24.455h-.3A12.46,12.46,0,0,0,70.182,0H69.5A11.42,11.42,0,0,0,58.755,15.285h-12.9V7.643a4.591,4.591,0,0,0-4.585-4.585H10.7A4.591,4.591,0,0,0,6.114,7.643V35.155A4.591,4.591,0,0,0,10.7,39.74h7.642v9.171H12.228v2.053a1.528,1.528,0,0,1-2.609,1.082L8.167,50.594,1.683,57.078,3.135,58.53a1.528,1.528,0,0,1-1.082,2.609H0v9.17H2.053a1.528,1.528,0,0,1,1.082,2.609L1.683,74.37l6.484,6.484L9.619,79.4a1.528,1.528,0,0,1,2.609,1.082v2.053h6.114a3.06,3.06,0,0,0-3.057,3.057,9.18,9.18,0,0,0,9.171,9.171H76.422a9.18,9.18,0,0,0,9.171-9.171,3.06,3.06,0,0,0-3.057-3.057V41.269a4.577,4.577,0,0,0-2.083-3.833,12.478,12.478,0,0,0,1.782-3.809ZM62.021,15.163A8.364,8.364,0,0,1,69.5,3.058h.68A9.418,9.418,0,0,1,79.5,10.952l.212,1.276h2.823a9.171,9.171,0,0,1,0,18.341H79.713L79.5,31.846a9.415,9.415,0,0,1-9.317,7.894H68.814a7.679,7.679,0,0,1-7.283-10.1l1.729-5.181h-38.8v-4l-.845-.422A3.961,3.961,0,0,1,21.9,18.344H63.609Zm2.173,61.26H61.138V58.082h3.057Zm0-21.4H61.138a3.06,3.06,0,0,0-3.057,3.057V76.423H55.024V64.2a3.06,3.06,0,0,0-3.057-3.057H48.91A3.06,3.06,0,0,0,45.853,64.2V76.423H42.8V70.309a3.06,3.06,0,0,0-3.057-3.057H36.683a3.06,3.06,0,0,0-3.057,3.057v6.114H27.512V45.854H73.365V76.423H67.252V58.082a3.06,3.06,0,0,0-3.057-3.057m-12.228,21.4H48.91V64.2h3.057Zm-12.227,0H36.683V70.309H39.74ZM29.469,42.8l.764-3.057H61.327A10.693,10.693,0,0,0,68.814,42.8ZM45.853,27.513H59.016L58.63,28.67a10.785,10.785,0,0,0-.549,3.395,10.664,10.664,0,0,0,1.059,4.619H45.571a4.5,4.5,0,0,0,.283-1.528Zm-21.4,0h3.057V30.57H24.455ZM21.524,15.285A4,4,0,0,1,25.4,12.228h1.168a4,4,0,0,1,3.876,3.057ZM9.171,35.155V7.643A1.53,1.53,0,0,1,10.7,6.115H41.268A1.53,1.53,0,0,1,42.8,7.643v7.642H33.529a7.047,7.047,0,0,0-6.963-6.114H25.4a7.066,7.066,0,0,0-7.057,7.058v.223A7.015,7.015,0,0,0,21.4,22.269v8.3a3.06,3.06,0,0,0,3.057,3.057h3.057a3.06,3.06,0,0,0,3.057-3.057V27.513H42.8v7.642a1.53,1.53,0,0,1-1.528,1.528H27.848L26.4,42.472a.445.445,0,0,1-.833,0l-1.449-5.788H10.7a1.53,1.53,0,0,1-1.529-1.528M18.341,61.42a4.537,4.537,0,0,0-1.528-.281,4.585,4.585,0,1,0,0,9.17,4.533,4.533,0,0,0,1.528-.281V73.2a7.643,7.643,0,1,1,0-14.945Zm0,4.3A1.528,1.528,0,1,1,16.813,64.2a1.529,1.529,0,0,1,1.528,1.528M15.179,79.48a4.6,4.6,0,0,0-6.938-2.873L5.93,74.3a4.5,4.5,0,0,0,.359-4.213,4.5,4.5,0,0,0-3.233-2.725V64.088A4.5,4.5,0,0,0,6.29,61.363a4.5,4.5,0,0,0-.359-4.212L8.241,54.84a4.6,4.6,0,0,0,6.938-2.872h3.162v3.187a10.577,10.577,0,0,0-1.528-.13,10.7,10.7,0,1,0,0,21.4,10.576,10.576,0,0,0,1.528-.13V79.48Zm64.3,11.378V88.651H76.422v3.057H73.365V88.651H70.308v3.057H67.252V88.651H64.195v3.057H24.455a6.12,6.12,0,0,1-6.114-6.114H82.536a6.094,6.094,0,0,1-3.057,5.264M21.4,82.537V39.74h.336l.868,3.473a3.476,3.476,0,0,0,1.853,2.279V79.48H76.422V42.8H70.182A12.471,12.471,0,0,0,78.3,39.811a1.508,1.508,0,0,1,1.181,1.458V82.537Z" transform="translate(0.202 0.237)"/>
      </g>
    </g>
  </g>
</svg>
