<svg xmlns="http://www.w3.org/2000/svg" width="95" height="95" viewBox="0 0 95 95">
  <g id="Group_1223139" data-name="Group 1223139" transform="translate(3841 11284)">
    <rect id="Rectangle_414270" data-name="Rectangle 414270" width="95" height="95" transform="translate(-3841 -11284)" fill="none"/>
    <g id="Group_1223117" data-name="Group 1223117" transform="translate(-33.226 -237.197)">
      <ellipse id="Ellipse_12937" data-name="Ellipse 12937" cx="28.658" cy="28.658" rx="28.658" ry="28.658" transform="translate(-3770.09 -11011.514)" fill="#ffc94a"/>
      <ellipse id="Ellipse_12938" data-name="Ellipse 12938" cx="20.842" cy="20.842" rx="20.842" ry="20.842" transform="translate(-3806.617 -11044.803)" fill="#ffc94a"/>
    </g>
    <rect id="Rectangle_414289" data-name="Rectangle 414289" width="3.662" height="1.894" transform="translate(-3767.011 -11206.405)" fill="#515046" stroke="#000" stroke-width="1"/>
    <rect id="Rectangle_414290" data-name="Rectangle 414290" width="3.662" height="1.894" transform="translate(-3822.494 -11206.405)" fill="#515046" stroke="#000" stroke-width="1"/>
    <path id="Path_1287226" data-name="Path 1287226" d="M17,230.988a1.266,1.266,0,0,0,1.263,1.263H88.848a1.266,1.266,0,0,0,1.263-1.263V229.7H17Z" transform="translate(-3846.465 -11440.575)" stroke="#000" stroke-width="1"/>
    <path id="Path_1287227" data-name="Path 1287227" d="M42.639,180.5a1.439,1.439,0,1,1-1.439,1.439,1.439,1.439,0,0,1,1.439-1.439" transform="translate(-3864.553 -11403.801)" fill="#00ff36" stroke="#000" stroke-width="1"/>
    <path id="Path_1287228" data-name="Path 1287228" d="M81.439,180.4A1.439,1.439,0,1,1,80,181.839a1.439,1.439,0,0,1,1.439-1.439" transform="translate(-3893.555 -11403.726)" fill="#00ff36" stroke="#000" stroke-width="1"/>
    <path id="Path_1287229" data-name="Path 1287229" d="M120.039,180.4a1.439,1.439,0,1,1-1.439,1.439,1.439,1.439,0,0,1,1.439-1.439" transform="translate(-3922.406 -11403.726)" fill="#00ff36" stroke="#000" stroke-width="1"/>
    <path id="Path_1287230" data-name="Path 1287230" d="M211.147,180.4H190.565a1.482,1.482,0,0,0-1.465,1.465,1.466,1.466,0,0,0,1.465,1.465h20.582a1.482,1.482,0,0,0,1.465-1.465,1.5,1.5,0,0,0-1.465-1.465" transform="translate(-3975.103 -11403.726)" fill="#3eb287" stroke="#000" stroke-width="1"/>
    <path id="Path_1287231" data-name="Path 1287231" d="M277.955,122H272.5v5.228h5.455Z" transform="translate(-4037.44 -11360.074)" stroke="#000" stroke-width="1"/>
    <path id="Path_1287232" data-name="Path 1287232" d="M280.776,1.288A1.282,1.282,0,0,0,280.4.379,1.347,1.347,0,0,0,279.488,0,1.293,1.293,0,0,0,278.2,1.288V28.865h2.576Z" transform="translate(-4041.701 -11268.884)" fill="#515046" stroke="#000" stroke-width="1"/>
    <path id="Path_1287233" data-name="Path 1287233" d="M89.9,13.059a1.512,1.512,0,0,0,.859-.278,28.179,28.179,0,0,1,16.365-5.076,27.885,27.885,0,0,1,16.365,5.076,1.463,1.463,0,0,0,2.046-.328,1.392,1.392,0,0,0,.278-1.061,1.467,1.467,0,0,0-.606-1.01A30.819,30.819,0,0,0,107.15,4.7a30.489,30.489,0,0,0-18.082,5.682,1.416,1.416,0,0,0-.606.985A1.671,1.671,0,0,0,88.74,12.5a1.513,1.513,0,0,0,1.162.556" transform="translate(-3899.87 -11272.396)" fill="#55c2ec" stroke="#000" stroke-width="1"/>
    <path id="Path_1287234" data-name="Path 1287234" d="M136.956,52.757a1.441,1.441,0,0,0,.3-.884.7.7,0,0,0-.025-.227,1.447,1.447,0,0,0-.631-.985,22.413,22.413,0,0,0-24.244,0,1.539,1.539,0,0,0-.631.985A1.489,1.489,0,0,0,114,53.161a19.612,19.612,0,0,1,20.986.025,1.514,1.514,0,0,0,1.97-.429" transform="translate(-3917.251 -11304.089)" fill="#55c2ec" stroke="#000" stroke-width="1"/>
    <path id="Path_1287235" data-name="Path 1287235" d="M148.214,90.565a12.844,12.844,0,0,0-6.036-1.465,12.67,12.67,0,0,0-6.01,1.465,1.613,1.613,0,0,0-.783,1.035,1.444,1.444,0,0,0,.253,1.187.131.131,0,0,0,.051.1,1.428,1.428,0,0,0,1.793.379,10.43,10.43,0,0,1,9.319,0,1.533,1.533,0,0,0,1.844-.4c.025-.025.025-.051.05-.051a1.576,1.576,0,0,0,.253-1.263,1.4,1.4,0,0,0-.732-.985" transform="translate(-3934.924 -11335.482)" fill="#55c2ec" stroke="#000" stroke-width="1"/>
    <path id="Path_1287236" data-name="Path 1287236" d="M37.376,1.288A1.4,1.4,0,0,0,37,.379a1.286,1.286,0,0,0-2.2.909V28.865h2.576Z" transform="translate(-3859.77 -11268.884)" fill="#515046" stroke="#000" stroke-width="1"/>
    <path id="Path_1287237" data-name="Path 1287237" d="M78.843,150.5H2.8A2.813,2.813,0,0,0,0,153.3v12.45a2.813,2.813,0,0,0,2.8,2.8h.328a.492.492,0,0,1,.2-.025.492.492,0,0,1,.2.025H78.161a.492.492,0,0,1,.2-.025.627.627,0,0,1,.2.025h.328a2.809,2.809,0,0,0,2-.833,2.746,2.746,0,0,0,.783-1.97V153.3a2.818,2.818,0,0,0-2.828-2.8m-67,12.4a3.409,3.409,0,1,1,3.409-3.409,3.428,3.428,0,0,1-3.409,3.409m9.8,0a3.409,3.409,0,1,1,3.409-3.409,3.428,3.428,0,0,1-3.409,3.409m9.748,0A3.409,3.409,0,1,1,34.8,159.49a3.428,3.428,0,0,1-3.409,3.409m38.411,0H49.22a3.409,3.409,0,1,1,0-6.819H69.8a3.409,3.409,0,1,1,0,6.819" transform="translate(-3833.758 -11381.377)" fill="#9b9f9f" stroke="#000" stroke-width="1"/>
    <path id="Path_1287238" data-name="Path 1287238" d="M34.655,122H29.2v5.228h5.455Z" transform="translate(-3855.584 -11360.074)" stroke="#000" stroke-width="1"/>
  </g>
</svg>
