<svg xmlns="http://www.w3.org/2000/svg" xmlns:xlink="http://www.w3.org/1999/xlink" width="95.001" height="95" viewBox="0 0 95.001 95">
  <defs>
    <clipPath id="clip-path">
      <rect id="Rectangle_413988" data-name="Rectangle 413988" width="83.005" height="86.061" fill="rgba(0,0,0,0)"/>
    </clipPath>
  </defs>
  <g id="Group_1222977" data-name="Group 1222977" transform="translate(-13450.999 10357)">
    <rect id="Rectangle_414060" data-name="Rectangle 414060" width="95" height="95" transform="translate(13451 -10357)" fill="none"/>
    <g id="Group_1222971" data-name="Group 1222971" transform="translate(480.563 -18.323)">
      <ellipse id="Ellipse_12935" data-name="Ellipse 12935" cx="27.416" cy="27.416" rx="27.416" ry="27.416" transform="translate(13010.604 -10302.149)" fill="#7fe5cf"/>
      <ellipse id="Ellipse_12936" data-name="Ellipse 12936" cx="19.939" cy="19.939" rx="19.939" ry="19.939" transform="translate(12970.436 -10333.479)" fill="#7fe5cf"/>
    </g>
    <g id="Group_1222958" data-name="Group 1222958" transform="translate(13456.998 -10352.531)">
      <g id="Group_1222957" data-name="Group 1222957" transform="translate(0 0)" clip-path="url(#clip-path)">
        <path id="Path_1286344" data-name="Path 1286344" d="M57.593,21.9V32.8a9.012,9.012,0,0,1-9.079,8.973H46.407A9.012,9.012,0,0,1,37.328,32.8V21.9Z" transform="translate(22.495 13.197)" fill="#95a5a5"/>
        <path id="Path_1286345" data-name="Path 1286345" d="M39.111,34.621v-10.9H57.592V21.8H37.327V32.7a9.239,9.239,0,0,0,3.567,7.212,8.344,8.344,0,0,1-1.784-5.289" transform="translate(22.494 13.137)" fill="#7e8c8d"/>
        <path id="Path_1286346" data-name="Path 1286346" d="M.77,34.873h0A8.3,8.3,0,0,1,.607,32.79V26.7H41.136v6.09a14.205,14.205,0,0,1-14.263,14.1H14.712A14.092,14.092,0,0,1,.77,34.873" transform="translate(0.366 16.09)" fill="#57606f"/>
        <path id="Path_1286347" data-name="Path 1286347" d="M2.714,37.117h0a8.318,8.318,0,0,1-.163-2.085v-6.09H41.137V26.7H.607v6.09a9.77,9.77,0,0,0,.162,2.083,14.189,14.189,0,0,0,4.539,8.492,14.292,14.292,0,0,1-2.593-6.249" transform="translate(0.366 16.09)" fill="#414a56"/>
        <path id="Path_1286348" data-name="Path 1286348" d="M60.331,18.1v6.09H36.013V18.1H60.331Z" transform="translate(21.702 10.907)" fill="#707487"/>
        <path id="Path_1286349" data-name="Path 1286349" d="M37.8,19.864H60.331V18.1H36.013v6.09H37.8Z" transform="translate(21.702 10.907)" fill="#5b6072"/>
        <rect id="Rectangle_413987" data-name="Rectangle 413987" width="8.106" height="8.013" transform="translate(17.185 75.003)" fill="#57606f"/>
        <path id="Path_1286350" data-name="Path 1286350" d="M12.345,48.4h6.484V46.8H10.723v8.013h1.622Z" transform="translate(6.462 28.202)" fill="#414a56"/>
        <path id="Path_1286351" data-name="Path 1286351" d="M24.406,47.313v4.007H8.194V39.3H24.406Z" transform="translate(4.938 23.683)" fill="#707487"/>
        <path id="Path_1286352" data-name="Path 1286352" d="M10.14,41.223H24.406V39.3H8.194V51.32H10.14Z" transform="translate(4.938 23.683)" fill="#5b6072"/>
        <path id="Path_1286353" data-name="Path 1286353" d="M37.1,9.585a2,2,0,0,1,.163.963,3.585,3.585,0,0,1-3.083,3.364L7.434,19.842C5,20.483,2.569,19.2,2.085,17.277a2.012,2.012,0,0,1-.162-.962,3.593,3.593,0,0,1,3.242-3.364L31.751,7.021c2.431-.321,4.864.8,5.351,2.564" transform="translate(1.159 4.198)" fill="#e8f9f9"/>
        <path id="Path_1286354" data-name="Path 1286354" d="M3.441,18.725a2.015,2.015,0,0,1-.162-.962A3.6,3.6,0,0,1,6.521,14.4l26.588-5.93a5.8,5.8,0,0,1,3.729.641c-.811-1.6-2.918-2.4-5.188-2.083L5.063,12.956a3.6,3.6,0,0,0-3.242,3.366,2.015,2.015,0,0,0,.162.962A3.128,3.128,0,0,0,3.6,19.206a.585.585,0,0,0-.162-.481" transform="translate(1.097 4.192)" fill="#cce5e4"/>
        <path id="Path_1286355" data-name="Path 1286355" d="M14.585.66c5.51-1.282,7.781,5.609,2.269,6.891L7.45,9.794C1.775,10.916-.492,4.027,5.181,2.9Z" transform="translate(1.141 0.302)" fill="#e8f9f9"/>
        <path id="Path_1286356" data-name="Path 1286356" d="M6.81,4.588l9.4-2.083a4.419,4.419,0,0,1,3.567.481c-.649-1.6-2.595-2.724-5.189-2.242l-9.4,2.082c-4.215.8-4.051,4.808-1.458,6.41-.811-1.923,0-4.167,3.08-4.648" transform="translate(1.134 0.38)" fill="#cce5e4"/>
        <path id="Path_1286357" data-name="Path 1286357" d="M37.1,18.4a2,2,0,0,1,.163.963,3.882,3.882,0,0,1-3.083,3.364L7.434,28.662C5,29.142,2.569,28.02,2.085,26.1a2.021,2.021,0,0,1-.162-.963A3.886,3.886,0,0,1,5.165,21.61l26.586-5.769c2.431-.479,4.864.643,5.351,2.564" transform="translate(1.159 9.479)" fill="#e8f9f9"/>
        <path id="Path_1286358" data-name="Path 1286358" d="M3.158,27.762A2.018,2.018,0,0,1,3,26.8a3.886,3.886,0,0,1,3.242-3.526l26.749-5.768a5.783,5.783,0,0,1,4.053.641,4.5,4.5,0,0,0-5.188-2.4L5.265,21.512a3.883,3.883,0,0,0-3.242,3.526,2.008,2.008,0,0,0,.162.96,2.173,2.173,0,0,0,.973,1.764c.162.16.162,0,0,0" transform="translate(1.219 9.419)" fill="#cce5e4"/>
        <path id="Path_1286359" data-name="Path 1286359" d="M6.57,11.218A5.18,5.18,0,0,1,1.22,6.891c-.162-1.763.811-4.007,4.053-4.649l9.4-2.083A4.587,4.587,0,0,1,16.136,0a4.715,4.715,0,0,1,5.026,4.165c.162,1.764-.649,4.007-3.891,4.808l-9.4,2.083c-.325,0-.811.162-1.3.162m9.728-9.3a3.193,3.193,0,0,0-1.135.16l-9.4,2.082c-1.62.322-2.593,1.282-2.431,2.566A3.069,3.069,0,0,0,6.57,9.3a2.075,2.075,0,0,0,.973-.16l9.4-2.085c1.622-.319,2.595-1.441,2.433-2.723a2.892,2.892,0,0,0-3.08-2.4" transform="translate(0.725 0)"/>
        <path id="Path_1286360" data-name="Path 1286360" d="M6.563,21.366A5.4,5.4,0,0,1,1.377,18a3.5,3.5,0,0,1-.162-1.282c0-2.083,1.62-3.846,4.051-4.327L31.854,6.46c.325,0,.811-.16,1.135-.16A5.48,5.48,0,0,1,38.34,9.666a3.5,3.5,0,0,1,.162,1.284,4.6,4.6,0,0,1-3.891,4.325L7.861,21.2a3.172,3.172,0,0,1-1.3.162M32.341,8.383,5.754,14.313c-1.46.321-2.431,1.282-2.431,2.4a.962.962,0,0,0,.162.643,3.19,3.19,0,0,0,3.242,1.922,2.081,2.081,0,0,0,.973-.16l26.749-5.93a2.711,2.711,0,0,0,2.269-2.4.95.95,0,0,0-.162-.639c-.324-1.123-1.784-1.925-3.4-1.925a1.23,1.23,0,0,1-.811.16" transform="translate(0.732 3.796)"/>
        <path id="Path_1286361" data-name="Path 1286361" d="M6.726,30.165A5.474,5.474,0,0,1,1.377,26.8a3.5,3.5,0,0,1-.162-1.282c0-2.083,1.62-3.846,4.051-4.487L31.854,15.26a4.543,4.543,0,0,1,1.46-.16,5.037,5.037,0,0,1,5.026,3.366,3.5,3.5,0,0,1,.162,1.282,4.741,4.741,0,0,1-3.891,4.327L7.861,30c-.325,0-.649.16-1.135.16M33.476,17.023a2.078,2.078,0,0,0-.973.16L5.915,22.953a2.735,2.735,0,0,0-2.431,2.564.956.956,0,0,0,.162.641c.324,1.122,1.782,1.923,3.4,1.923h.811l26.749-5.93a2.711,2.711,0,0,0,2.271-2.4.949.949,0,0,0-.163-.641v-.16a3.506,3.506,0,0,0-3.242-1.923" transform="translate(0.732 9.099)"/>
        <path id="Path_1286362" data-name="Path 1286362" d="M27.4,48.095a.961.961,0,1,1,0-1.922A13,13,0,0,0,40.53,33.19V28.224H1.946V33.19a7.721,7.721,0,0,0,.162,1.923c0,.481-.324,1.123-.811,1.123s-1.135-.322-1.135-.8A9.064,9.064,0,0,1,0,33.352V27.261A1.04,1.04,0,0,1,.973,26.3H41.5a1.041,1.041,0,0,1,.973.962v6.092A15.035,15.035,0,0,1,27.4,48.095" transform="translate(0 15.848)"/>
        <path id="Path_1286363" data-name="Path 1286363" d="M15.178,45.141A15.413,15.413,0,0,1,.1,32.32c0-.481.324-1.12.811-1.12s1.135.319,1.135.8A13.18,13.18,0,0,0,15.017,43.22a1.041,1.041,0,0,1,.973.96.9.9,0,0,1-.811.962" transform="translate(0.061 18.802)"/>
        <path id="Path_1286364" data-name="Path 1286364" d="M21.2,29.929a1.041,1.041,0,0,1-.973-.962V24.16a.973.973,0,0,1,1.946,0v4.808a1.04,1.04,0,0,1-.973.962" transform="translate(12.192 13.981)"/>
        <path id="Path_1286365" data-name="Path 1286365" d="M6.031,29.929a1.041,1.041,0,0,1-.973-.962V24.16a1.041,1.041,0,0,1,.973-.96A1.039,1.039,0,0,1,7,24.16v4.808a1.04,1.04,0,0,1-.973.962" transform="translate(3.048 13.981)"/>
        <path id="Path_1286366" data-name="Path 1286366" d="M24.772,52.641H20.719a.961.961,0,1,1,0-1.922H23.8v-10.1H9.533v10.1h3.08a.961.961,0,1,1,0,1.922H8.56a1.041,1.041,0,0,1-.973-.962V39.66a1.041,1.041,0,0,1,.973-.96H24.772a1.041,1.041,0,0,1,.973.96V51.68a1.041,1.041,0,0,1-.973.962" transform="translate(4.572 23.321)"/>
        <path id="Path_1286367" data-name="Path 1286367" d="M19.195,56.135H11.089a1.039,1.039,0,0,1-.973-.96V47.162a1.04,1.04,0,0,1,.973-.962h8.106a1.041,1.041,0,0,1,.973.962v8.013a1.041,1.041,0,0,1-.973.96m-7.133-1.922h6.16V48.122h-6.16Z" transform="translate(6.096 27.841)"/>
        <path id="Path_1286368" data-name="Path 1286368" d="M48.841,43.154H46.732a10.217,10.217,0,0,1-10.214-10.1V22.16a.973.973,0,0,1,1.946,0v10.9a7.983,7.983,0,0,0,8.108,8.013h2.106a7.981,7.981,0,0,0,8.106-8.013V22.16a.973.973,0,0,1,1.946,0v10.9a9.648,9.648,0,0,1-9.888,10.1" transform="translate(22.007 12.775)"/>
        <path id="Path_1286369" data-name="Path 1286369" d="M60.7,25.672H36.379a1.038,1.038,0,0,1-.973-.96V18.46a1.039,1.039,0,0,1,.973-.96H60.7a1.039,1.039,0,0,1,.971.96v6.252a1.038,1.038,0,0,1-.971.96M37.352,23.59H59.724V19.423H37.352Z" transform="translate(21.337 10.546)"/>
        <path id="Path_1286370" data-name="Path 1286370" d="M40.223,23.22a1.041,1.041,0,0,1-.973-.963V12.162a.973.973,0,0,1,1.946,0V22.257a1.042,1.042,0,0,1-.973.963" transform="translate(23.653 6.749)"/>
        <path id="Path_1286371" data-name="Path 1286371" d="M47.81,23.22a1.041,1.041,0,0,1-.973-.963V12.162a.973.973,0,0,1,1.946,0V22.257a1.042,1.042,0,0,1-.973.963" transform="translate(28.225 6.749)"/>
        <path id="Path_1286372" data-name="Path 1286372" d="M53.208,65.752a7.147,7.147,0,0,1-5.026-2.085A6.99,6.99,0,0,1,46.074,58.7V56.618a5.023,5.023,0,0,0-5.026-4.97H18.676a.961.961,0,1,1,0-1.922H41.048a7.155,7.155,0,0,1,7.133,7.05V58.7a4.947,4.947,0,0,0,1.458,3.526A5.058,5.058,0,0,0,58.233,58.7V34.662a.973.973,0,0,1,1.946,0V58.7a7.016,7.016,0,0,1-6.971,7.052" transform="translate(10.668 20.308)"/>
        <path id="Path_1286373" data-name="Path 1286373" d="M46.8,29.423H42.752a.962.962,0,1,1,0-1.923H46.8a.962.962,0,1,1,0,1.923" transform="translate(25.177 16.572)"/>
        <path id="Path_1286374" data-name="Path 1286374" d="M25.23,33.122H1.074a.961.961,0,1,1,0-1.922H25.23a.961.961,0,1,1,0,1.922" transform="translate(0.061 18.802)"/>
      </g>
    </g>
  </g>
</svg>
