<svg xmlns="http://www.w3.org/2000/svg" xmlns:xlink="http://www.w3.org/1999/xlink" width="95" height="95" viewBox="0 0 95 95">
  <defs>
    <clipPath id="clip-path">
      <rect id="Rectangle_413441" data-name="Rectangle 413441" width="95" height="79.937" fill="none"/>
    </clipPath>
  </defs>
  <g id="Group_1222576" data-name="Group 1222576" transform="translate(6711 9474)">
    <rect id="Rectangle_413438" data-name="Rectangle 413438" width="95" height="95" transform="translate(-6711 -9474)" fill="none"/>
    <g id="Group_1222566" data-name="Group 1222566" transform="translate(-6711 -9466)">
      <g id="Group_1222565" data-name="Group 1222565" clip-path="url(#clip-path)">
        <path id="Path_1285029" data-name="Path 1285029" d="M70.632,114.412a50.181,50.181,0,0,1,67.834,0l-6.518,7.114a40.538,40.538,0,0,0-54.8,0Z" transform="translate(-57.049 -81.75)" fill="#66d4f1" fill-rule="evenodd"/>
        <path id="Path_1285030" data-name="Path 1285030" d="M138.414,209.7a30.9,30.9,0,0,1,41.764,0l-8.025,8.759a19.022,19.022,0,0,0-25.713,0Z" transform="translate(-111.796 -162.807)" fill="#66d4f1" fill-rule="evenodd"/>
        <path id="Path_1285031" data-name="Path 1285031" d="M7,24.959a68.286,68.286,0,0,1,92.308,0l-5.881,6.419a59.585,59.585,0,0,0-80.547,0Z" transform="translate(-5.653 -5.654)" fill="#66d4f1" fill-rule="evenodd"/>
        <path id="Path_1285032" data-name="Path 1285032" d="M152.963,130.3a1.474,1.474,0,0,1,2.776-.953l15.275,33.82-8.7,5.873Z" transform="translate(-123.514 -103.775)" fill="#e4e8eb" fill-rule="evenodd"/>
        <path id="Path_1285033" data-name="Path 1285033" d="M212.23,306.537A10.865,10.865,0,1,0,201.365,317.4a10.887,10.887,0,0,0,10.865-10.865" transform="translate(-153.865 -238.812)" fill="#f4f6f8" fill-rule="evenodd"/>
        <path id="Path_1285034" data-name="Path 1285034" d="M25.456,15.719a58.362,58.362,0,0,0-17.319,11h0a1.347,1.347,0,0,1-1.9-.083L.354,20.215a1.347,1.347,0,0,1,.083-1.9h0a69.633,69.633,0,0,1,94.127,0h0a1.347,1.347,0,0,1,.083,1.9l-5.881,6.419a1.347,1.347,0,0,1-1.9.083h0A58.315,58.315,0,0,0,28.7,14.5l2.781,6.157a51.6,51.6,0,0,1,50.844,11.01h0a1.347,1.347,0,0,1,.083,1.9l-6.518,7.114a1.347,1.347,0,0,1-1.9.083h0A39.254,39.254,0,0,0,36.6,32l2.9,6.422A32.293,32.293,0,0,1,69.291,45.9h0a1.347,1.347,0,0,1,.083,1.9l-8.026,8.76a1.347,1.347,0,0,1-1.9.083h0A17.623,17.623,0,0,0,47.5,51.992a17.872,17.872,0,0,0-1.824.093l1.55,3.432q.137,0,.274,0a12.226,12.226,0,1,1-10.844,6.607l-1.288-5.338a1.347,1.347,0,0,1-1.717-.225L25.626,47.8a1.347,1.347,0,0,1,.083-1.9h0a32.387,32.387,0,0,1,5.983-4.342l-1.685-6.981a39.341,39.341,0,0,0-9,6.194h0a1.347,1.347,0,0,1-1.9-.083l-6.518-7.114a1.347,1.347,0,0,1,.083-1.9h0a51.661,51.661,0,0,1,14.379-9.332Zm2.132-3.681A61.008,61.008,0,0,1,87.681,23.833L91.743,19.4a66.939,66.939,0,0,0-88.487,0L7.32,23.833a61.021,61.021,0,0,1,17.5-10.76L24.461,11.6A1.346,1.346,0,0,1,27,10.728Zm7.9,17.481A41.947,41.947,0,0,1,74.8,37.889l4.7-5.131A48.906,48.906,0,0,0,32.6,23.128ZM44.445,55.9,30.44,24.892l8.291,34.35a12.234,12.234,0,0,1,5.715-3.34m.07-6.385A20.5,20.5,0,0,1,47.5,49.3a20.291,20.291,0,0,1,12.744,4.479l6.216-6.784a29.6,29.6,0,0,0-25.83-6.081ZM32.351,44.285a29.68,29.68,0,0,0-3.811,2.709L34.6,53.61ZM27.695,25a48.948,48.948,0,0,0-12.2,7.762l4.7,5.131a42,42,0,0,1,9.162-6ZM57.019,67.725A9.519,9.519,0,1,0,47.5,77.245a9.538,9.538,0,0,0,9.519-9.519M46.4,65.646l.057.039A1.346,1.346,0,0,1,44.926,67.9l-3.6-2.492a1.346,1.346,0,0,1,0-2.214l3.6-2.492a1.346,1.346,0,0,1,1.532,2.214l-.057.039h6.506a1.346,1.346,0,1,1,0,2.692ZM48.865,72.5H42.092a1.346,1.346,0,0,1,0-2.692h6.773l-.364-.273a1.346,1.346,0,1,1,1.614-2.155l3.6,2.7a1.346,1.346,0,0,1,0,2.155l-3.6,2.7A1.346,1.346,0,1,1,48.5,72.77Z" transform="translate(0)" fill-rule="evenodd"/>
      </g>
    </g>
  </g>
</svg>
