<svg xmlns="http://www.w3.org/2000/svg" xmlns:xlink="http://www.w3.org/1999/xlink" width="95" height="95" viewBox="0 0 95 95">
  <defs>
    <clipPath id="clip-path">
      <rect id="Rectangle_413448" data-name="Rectangle 413448" width="95" height="95" fill="none"/>
    </clipPath>
  </defs>
  <g id="Group_1222575" data-name="Group 1222575" transform="translate(6574 9474)">
    <rect id="Rectangle_413439" data-name="Rectangle 413439" width="95" height="95" transform="translate(-6574 -9474)" fill="none"/>
    <g id="Group_1222571" data-name="Group 1222571" transform="translate(-6573.718 -9473.667)">
      <rect id="Rectangle_413443" data-name="Rectangle 413443" width="89" height="67" transform="translate(1.718 1.667)" fill="#94a4ad"/>
      <path id="Path_1285060" data-name="Path 1285060" d="M328,160v12.216h3.054V176.8h15.271v-4.581h3.054V160Z" transform="translate(-265.394 -129.469)" fill="#f7c244"/>
      <g id="Group_1222570" data-name="Group 1222570" transform="translate(-0.282 -0.333)">
        <g id="Group_1222569" data-name="Group 1222569" clip-path="url(#clip-path)">
          <path id="Path_1285061" data-name="Path 1285061" d="M341.743,172.216a3.054,3.054,0,0,0,3.054-3.054V160H328v12.216Z" transform="translate(-265.111 -129.136)" fill="#f9ce69"/>
          <path id="Path_1285062" data-name="Path 1285062" d="M40,40V52.216h3.054V56.8H58.325V52.216h3.054V40Z" transform="translate(-32.085 -32.042)" fill="#f7c244"/>
          <path id="Path_1285063" data-name="Path 1285063" d="M53.743,52.216A3.054,3.054,0,0,0,56.8,49.162V40H40V52.216Z" transform="translate(-32.085 -32.042)" fill="#f9ce69"/>
          <path id="Path_1285064" data-name="Path 1285064" d="M184,40V52.216h3.054V56.8h15.271V52.216h3.054V40Z" transform="translate(-148.598 -32.042)" fill="#f7c244"/>
          <path id="Path_1285065" data-name="Path 1285065" d="M197.743,52.216a3.054,3.054,0,0,0,3.054-3.054V40H184V52.216Z" transform="translate(-148.598 -32.042)" fill="#f9ce69"/>
          <path id="Path_1285066" data-name="Path 1285066" d="M328,40V52.216h3.054V56.8h15.271V52.216h3.054V40Z" transform="translate(-265.111 -32.042)" fill="#f7c244"/>
          <path id="Path_1285067" data-name="Path 1285067" d="M341.743,52.216a3.054,3.054,0,0,0,3.054-3.054V40H328V52.216Z" transform="translate(-265.111 -32.042)" fill="#f9ce69"/>
          <path id="Path_1285068" data-name="Path 1285068" d="M184,160v12.216h3.054V176.8h15.271v-4.581h3.054V160Z" transform="translate(-148.598 -129.136)" fill="#f7c244"/>
          <path id="Path_1285069" data-name="Path 1285069" d="M197.743,172.216a3.054,3.054,0,0,0,3.054-3.054V160H184v12.216Z" transform="translate(-148.598 -129.136)" fill="#f9ce69"/>
          <path id="Path_1285070" data-name="Path 1285070" d="M40,160v12.216h3.054V176.8H58.325v-4.581h3.054V160Z" transform="translate(-32.085 -129.136)" fill="#f7c244"/>
          <path id="Path_1285071" data-name="Path 1285071" d="M53.743,172.216a3.054,3.054,0,0,0,3.054-3.054V160H40v12.216Z" transform="translate(-32.085 -129.136)" fill="#f9ce69"/>
          <rect id="Rectangle_413444" data-name="Rectangle 413444" width="21" height="18" transform="translate(72 54)" fill="#94a4ad"/>
          <path id="Path_1285072" data-name="Path 1285072" d="M376,280v15.271h13.743a4.581,4.581,0,0,0,4.581-4.581V280Z" transform="translate(-303.949 -226.23)" fill="#b3bec4"/>
          <path id="Path_1285073" data-name="Path 1285073" d="M392,234.689v-6.108h3.054V224h9.162v4.581h3.054v6.108Z" transform="translate(-316.895 -180.92)" fill="#d1d8dc"/>
          <rect id="Rectangle_413445" data-name="Rectangle 413445" width="16" height="6" transform="translate(75 72)" fill="#f9ce69"/>
          <rect id="Rectangle_413446" data-name="Rectangle 413446" width="7" height="17" transform="translate(79 78)" fill="#94a4ad"/>
          <rect id="Rectangle_413447" data-name="Rectangle 413447" width="9" height="6" transform="translate(78 60)" fill="#d1d8dc"/>
          <path id="Path_1285074" data-name="Path 1285074" d="M52.581,305.96V287.635H48L55.635,280l7.635,7.635H58.689V305.96Z" transform="translate(-38.558 -226.23)" fill="#4596ec"/>
          <path id="Path_1285075" data-name="Path 1285075" d="M212.581,305.96V287.635H208L215.635,280l7.635,7.635h-4.581V305.96Z" transform="translate(-168.017 -226.23)" fill="#4596ec"/>
          <path id="Path_1285076" data-name="Path 1285076" d="M52.581,287.635v15.271a3.054,3.054,0,0,0,3.054-3.054V280L48,287.635Z" transform="translate(-38.558 -226.23)" fill="#6aabf0"/>
          <path id="Path_1285077" data-name="Path 1285077" d="M212.581,287.635v15.271a3.054,3.054,0,0,0,3.054-3.054V280L208,287.635Z" transform="translate(-168.017 -226.23)" fill="#6aabf0"/>
          <path id="Path_1285078" data-name="Path 1285078" d="M398.108,231.635a3.054,3.054,0,0,0,3.054-3.054V224h-6.108v4.581H392v3.054Z" transform="translate(-316.895 -180.92)" fill="#f5f5f5"/>
          <path id="Path_1285079" data-name="Path 1285079" d="M390.906,226.689h-1.527v-4.581a1.527,1.527,0,0,0-1.527-1.527h-1.527v-3.054A1.527,1.527,0,0,0,384.8,216h-9.162a1.527,1.527,0,0,0-1.527,1.527v3.054h-1.527a1.527,1.527,0,0,0-1.527,1.527v4.581h-1.527A1.527,1.527,0,0,0,368,228.216v18.325a1.527,1.527,0,0,0,1.527,1.527h1.527v4.581a1.527,1.527,0,0,0,1.527,1.527h3.054v15.271h3.054V254.176h3.054v15.271H384.8V254.176h3.054a1.527,1.527,0,0,0,1.527-1.527v-4.581h1.527a1.527,1.527,0,0,0,1.527-1.527V228.216a1.527,1.527,0,0,0-1.527-1.527m-16.8-3.054h1.527a1.527,1.527,0,0,0,1.527-1.527v-3.054h6.108v3.054a1.527,1.527,0,0,0,1.527,1.527h1.527v3.054H374.108Zm12.216,27.487H374.108v-3.054h12.216Zm3.054-6.108H371.054V229.743h18.325Z" transform="translate(-297.476 -174.447)"/>
          <path id="Path_1285080" data-name="Path 1285080" d="M401.527,313.162h9.162a1.527,1.527,0,0,0,1.527-1.527v-6.108A1.527,1.527,0,0,0,410.689,304h-9.162A1.527,1.527,0,0,0,400,305.527v6.108a1.527,1.527,0,0,0,1.527,1.527m1.527-6.108h6.108v3.054h-6.108Z" transform="translate(-323.368 -245.649)"/>
          <path id="Path_1285081" data-name="Path 1285081" d="M56.433,33.527A1.527,1.527,0,0,0,54.906,32H33.527A1.527,1.527,0,0,0,32,33.527V45.743a1.527,1.527,0,0,0,1.527,1.527h1.527v3.054a1.527,1.527,0,0,0,1.527,1.527H51.852a1.527,1.527,0,0,0,1.527-1.527V47.271h1.527a1.527,1.527,0,0,0,1.527-1.527ZM53.379,44.216H51.852a1.527,1.527,0,0,0-1.527,1.527V48.8H38.108V45.743a1.527,1.527,0,0,0-1.527-1.527H35.054V35.054h4.581v6.108h3.054V35.054h3.054v6.108H48.8V35.054h4.581Z" transform="translate(-25.612 -25.569)"/>
          <path id="Path_1285082" data-name="Path 1285082" d="M36.581,171.852H51.852a1.527,1.527,0,0,0,1.527-1.527v-3.054h1.527a1.527,1.527,0,0,0,1.527-1.527V153.527A1.527,1.527,0,0,0,54.906,152H33.527A1.527,1.527,0,0,0,32,153.527v12.216a1.527,1.527,0,0,0,1.527,1.527h1.527v3.054a1.527,1.527,0,0,0,1.527,1.527m-1.527-16.8h4.581v6.108h3.054v-6.108h3.054v6.108H48.8v-6.108h4.581v9.162H51.852a1.527,1.527,0,0,0-1.527,1.527V168.8H38.108v-3.054a1.527,1.527,0,0,0-1.527-1.527H35.054Z" transform="translate(-25.612 -122.663)"/>
          <path id="Path_1285083" data-name="Path 1285083" d="M200.433,33.527A1.527,1.527,0,0,0,198.906,32H177.527A1.527,1.527,0,0,0,176,33.527V45.743a1.527,1.527,0,0,0,1.527,1.527h1.527v3.054a1.527,1.527,0,0,0,1.527,1.527h15.271a1.527,1.527,0,0,0,1.527-1.527V47.271h1.527a1.527,1.527,0,0,0,1.527-1.527Zm-3.054,10.689h-1.527a1.527,1.527,0,0,0-1.527,1.527V48.8H182.108V45.743a1.527,1.527,0,0,0-1.527-1.527h-1.527V35.054h4.581v6.108h3.054V35.054h3.054v6.108H192.8V35.054h4.581Z" transform="translate(-142.125 -25.569)"/>
          <path id="Path_1285084" data-name="Path 1285084" d="M180.581,171.852h15.271a1.527,1.527,0,0,0,1.527-1.527v-3.054h1.527a1.527,1.527,0,0,0,1.527-1.527V153.527A1.527,1.527,0,0,0,198.906,152H177.527A1.527,1.527,0,0,0,176,153.527v12.216a1.527,1.527,0,0,0,1.527,1.527h1.527v3.054a1.527,1.527,0,0,0,1.527,1.527m-1.527-16.8h4.581v6.108h3.054v-6.108h3.054v6.108H192.8v-6.108h4.581v9.162h-1.527a1.527,1.527,0,0,0-1.527,1.527V168.8H182.108v-3.054a1.527,1.527,0,0,0-1.527-1.527h-1.527Z" transform="translate(-142.125 -122.663)"/>
          <path id="Path_1285085" data-name="Path 1285085" d="M344.433,33.527A1.527,1.527,0,0,0,342.906,32H321.527A1.527,1.527,0,0,0,320,33.527V45.743a1.527,1.527,0,0,0,1.527,1.527h1.527v3.054a1.527,1.527,0,0,0,1.527,1.527h15.271a1.527,1.527,0,0,0,1.527-1.527V47.271h1.527a1.527,1.527,0,0,0,1.527-1.527Zm-3.054,10.689h-1.527a1.527,1.527,0,0,0-1.527,1.527V48.8H326.108V45.743a1.527,1.527,0,0,0-1.527-1.527h-1.527V35.054h4.581v6.108h3.054V35.054h3.054v6.108H336.8V35.054h4.581Z" transform="translate(-258.639 -25.569)"/>
          <path id="Path_1285086" data-name="Path 1285086" d="M344.433,162.689v-9.162A1.527,1.527,0,0,0,342.906,152H321.527A1.527,1.527,0,0,0,320,153.527v12.216a1.527,1.527,0,0,0,1.527,1.527h1.527v3.054a1.527,1.527,0,0,0,1.527,1.527h4.581V168.8h-3.054v-3.054a1.527,1.527,0,0,0-1.527-1.527h-1.527v-9.162h4.581v6.108h3.054v-6.108h3.054v6.108H336.8v-6.108h4.581v7.635Z" transform="translate(-258.639 -122.663)"/>
          <path id="Path_1285087" data-name="Path 1285087" d="M51.92,62.609h3.054A1.527,1.527,0,0,0,56.054,60l-7.635-7.635a1.527,1.527,0,0,0-2.159,0L38.624,60a1.527,1.527,0,0,0,1.08,2.607h3.054V67.19H21.379V62.609h3.054A1.527,1.527,0,0,0,25.513,60l-7.635-7.635a1.527,1.527,0,0,0-2.159,0L8.083,60a1.527,1.527,0,0,0,1.08,2.607h3.054V67.19H3.054V3.054H88.569V39.7h3.054V1.527A1.527,1.527,0,0,0,90.1,0H1.527A1.527,1.527,0,0,0,0,1.527v67.19a1.527,1.527,0,0,0,1.527,1.527H12.216v9.162a1.527,1.527,0,0,0,1.527,1.527h6.108a1.527,1.527,0,0,0,1.527-1.527V70.245H42.758v9.162a1.527,1.527,0,0,0,1.527,1.527h6.108a1.527,1.527,0,0,0,1.527-1.527V70.245H67.19V67.19H51.92Zm-33.6-1.527v16.8H15.271v-16.8a1.527,1.527,0,0,0-1.527-1.527h-.895L16.8,55.606l3.949,3.949h-.895a1.527,1.527,0,0,0-1.527,1.527m30.541,0v16.8H45.812v-16.8a1.527,1.527,0,0,0-1.527-1.527H43.39l3.949-3.949,3.949,3.949h-.895a1.527,1.527,0,0,0-1.527,1.527" transform="translate(0.279 0.323)"/>
        </g>
      </g>
    </g>
  </g>
</svg>
