<svg xmlns="http://www.w3.org/2000/svg" xmlns:xlink="http://www.w3.org/1999/xlink" width="95" height="95" viewBox="0 0 95 95">
  <defs>
    <clipPath id="clip-path">
      <rect id="Rectangle_413661" data-name="Rectangle 413661" width="93.428" height="93.428" fill="none"/>
    </clipPath>
  </defs>
  <g id="Group_1222741" data-name="Group 1222741" transform="translate(-19045 9915)">
    <rect id="Rectangle_413710" data-name="Rectangle 413710" width="95" height="95" transform="translate(19045 -9915)" fill="none"/>
    <g id="Group_1222712" data-name="Group 1222712" transform="translate(19045.785 -9914.214)">
      <g id="Group_1222711" data-name="Group 1222711" clip-path="url(#clip-path)">
        <path id="Path_1285487" data-name="Path 1285487" d="M203.67,224H191.245c-1.056,0-1.912.606-1.912,1.354v5.416c0,.748.856,1.354,1.912,1.354H203.67c1.056,0,1.912-.606,1.912-1.354v-5.416c0-.748-.856-1.354-1.912-1.354" transform="translate(-153.282 -181.348)" fill="#5c6bc0"/>
        <path id="Path_1285488" data-name="Path 1285488" d="M21.326,0A21.35,21.35,0,0,0,0,21.326V91.4a2.031,2.031,0,0,0,2.031,2.031h38.59A2.031,2.031,0,0,0,42.652,91.4V21.326A21.35,21.35,0,0,0,21.326,0" fill="#9fa8da"/>
        <path id="Path_1285489" data-name="Path 1285489" d="M47.233,37.334A15.233,15.233,0,1,1,32,52.567,15.233,15.233,0,0,1,47.233,37.334" transform="translate(-25.907 -30.225)" fill="#5c6bc0"/>
        <path id="Path_1285490" data-name="Path 1285490" d="M77.457,74.667a8.124,8.124,0,1,1-8.124,8.124,8.124,8.124,0,0,1,8.124-8.124" transform="translate(-56.131 -60.45)" fill="#ffee58"/>
        <path id="Path_1285491" data-name="Path 1285491" d="M61.705,405.334H41.4a4.067,4.067,0,0,0-4.062,4.062v2.031a4.067,4.067,0,0,0,4.062,4.062h20.31a4.067,4.067,0,0,0,4.062-4.062V409.4a4.067,4.067,0,0,0-4.062-4.062" transform="translate(-30.224 -328.155)" fill="#5c6bc0"/>
        <path id="Path_1285492" data-name="Path 1285492" d="M281.381,149.334H236.7a2.031,2.031,0,0,0-2.031,2.031v32.5a2.031,2.031,0,0,0,2.031,2.031h44.683a2.031,2.031,0,0,0,2.031-2.031v-32.5a2.031,2.031,0,0,0-2.031-2.031" transform="translate(-189.984 -120.899)" fill="#9fa8da"/>
        <path id="Path_1285493" data-name="Path 1285493" d="M301.195,181.334H268.7a2.031,2.031,0,0,0-2.031,2.031v20.31a2.031,2.031,0,0,0,2.031,2.031h32.5a2.031,2.031,0,0,0,2.031-2.031v-20.31a2.031,2.031,0,0,0-2.031-2.031" transform="translate(-215.891 -146.806)" fill="#ffee58"/>
        <path id="Path_1285494" data-name="Path 1285494" d="M342.824,213.334l-9.14-5.078a2.031,2.031,0,0,0-3.017,1.776v10.155a2.031,2.031,0,0,0,3.017,1.776l9.14-5.078a2.031,2.031,0,0,0,0-3.551" transform="translate(-267.705 -168.396)" fill="#e53935"/>
        <path id="Path_1285495" data-name="Path 1285495" d="M21.326,37.575A15.233,15.233,0,1,0,6.093,22.342,15.25,15.25,0,0,0,21.326,37.575m0-26.4A11.171,11.171,0,1,1,10.155,22.342,11.183,11.183,0,0,1,21.326,11.172m0,20.746a9.575,9.575,0,1,0-9.575-9.575,9.585,9.585,0,0,0,9.575,9.575m0-15.088a5.513,5.513,0,1,1-5.513,5.513,5.519,5.519,0,0,1,5.513-5.513M31.481,77.18H11.171a4.067,4.067,0,0,0-4.062,4.062v2.031a4.067,4.067,0,0,0,4.062,4.062h20.31a4.067,4.067,0,0,0,4.062-4.062V81.242a4.067,4.067,0,0,0-4.062-4.062m-20.31,6.093V81.242h20.31l0,2.031Zm8.124-10.155a2.031,2.031,0,1,1,2.031,2.031,2.031,2.031,0,0,1-2.031-2.031m8.124,0a2.031,2.031,0,1,1,2.031,2.031,2.031,2.031,0,0,1-2.031-2.031m-16.248,0A2.031,2.031,0,1,1,13.2,75.149a2.031,2.031,0,0,1-2.031-2.031M91.4,28.435H46.714a2.031,2.031,0,0,0-2.031,2.031V40.622H42.652V21.327A21.326,21.326,0,1,0,0,21.327V91.4a2.031,2.031,0,0,0,2.031,2.031h38.59A2.031,2.031,0,0,0,42.652,91.4V52.808h2.031V62.963a2.031,2.031,0,0,0,2.031,2.031H91.4a2.031,2.031,0,0,0,2.031-2.031v-32.5A2.031,2.031,0,0,0,91.4,28.435M4.062,62.963H38.59v2.031H4.062Zm17.264-58.9A17.283,17.283,0,0,1,38.59,21.327V58.9H4.062V21.327A17.283,17.283,0,0,1,21.326,4.063M4.062,69.056H38.59v20.31H4.062Zm38.59-24.372h2.031v4.062H42.652ZM89.366,60.932H48.745V32.5H89.366ZM52.807,58.9H85.3a2.031,2.031,0,0,0,2.031-2.031V36.56A2.031,2.031,0,0,0,85.3,34.529h-32.5a2.031,2.031,0,0,0-2.031,2.031V56.87A2.031,2.031,0,0,0,52.807,58.9m2.031-20.31H83.272V54.839H54.838Zm20.281,6.348-9.14-5.077a2.031,2.031,0,0,0-3.017,1.776V51.792a2.031,2.031,0,0,0,3.017,1.776l9.14-5.078a2.031,2.031,0,0,0,0-3.551m-8.095,3.4V45.089l2.927,1.626Z" transform="translate(0 -0.001)"/>
      </g>
    </g>
  </g>
</svg>
