<svg xmlns="http://www.w3.org/2000/svg" xmlns:xlink="http://www.w3.org/1999/xlink" width="95.001" height="95" viewBox="0 0 95.001 95">
  <defs>
    <clipPath id="clip-path">
      <rect id="Rectangle_413986" data-name="Rectangle 413986" width="84.624" height="85.679" fill="none"/>
    </clipPath>
  </defs>
  <g id="Group_1222978" data-name="Group 1222978" transform="translate(-13572 10357)">
    <rect id="Rectangle_414061" data-name="Rectangle 414061" width="95" height="95" transform="translate(13572 -10357)" fill="none"/>
    <g id="Group_1222972" data-name="Group 1222972" transform="translate(601.564 -19.152)">
      <ellipse id="Ellipse_12935" data-name="Ellipse 12935" cx="27.416" cy="27.416" rx="27.416" ry="27.416" transform="translate(13010.604 -10302.149)" fill="#7fe5cf"/>
      <ellipse id="Ellipse_12936" data-name="Ellipse 12936" cx="19.939" cy="19.939" rx="19.939" ry="19.939" transform="translate(12970.436 -10333.479)" fill="#7fe5cf"/>
    </g>
    <g id="Group_1222956" data-name="Group 1222956" transform="translate(13577.188 -10351.803)">
      <path id="Path_1286319" data-name="Path 1286319" d="M27.079,49.275H4.459V60.457h24.43V49.275Z" transform="translate(2.188 24.18)" fill="#57606f"/>
      <path id="Path_1286320" data-name="Path 1286320" d="M27.079,49.275H4.459V60.457H6.118V51.213H28.889V49.275Z" transform="translate(2.188 24.18)" fill="#414a56"/>
      <path id="Path_1286321" data-name="Path 1286321" d="M56.681,49.275H36.02V60.457H60.6V49.275Z" transform="translate(17.676 24.18)" fill="#57606f"/>
      <path id="Path_1286322" data-name="Path 1286322" d="M56.681,49.275H36.02V60.457h1.659V51.064H60.6V49.275Z" transform="translate(17.676 24.18)" fill="#414a56"/>
      <g id="Group_1222955" data-name="Group 1222955" transform="translate(0 0)">
        <g id="Group_1222954" data-name="Group 1222954" clip-path="url(#clip-path)">
          <path id="Path_1286323" data-name="Path 1286323" d="M54.247,36.576c-1.659-4.174-3.168-11.628-2.413-16.1.453-2.236,2.564-5.814,5.429-5.068C61.937,16.6,66.612,39.26,65.1,45.073c-2.412,9.392-9.047,9.69-9.2,21.019H37.357a86.3,86.3,0,0,1,.152-8.944c.6-5.218,8.594-22.361,15.079-21.317a.561.561,0,0,1,.453.149,1.869,1.869,0,0,1,1.206.6" transform="translate(18.301 7.512)" fill="#ffd8a8"/>
          <path id="Path_1286324" data-name="Path 1286324" d="M39.317,58.836c.6-5.218,8.6-22.361,15.079-21.317a.56.56,0,0,1,.453.149,3.051,3.051,0,0,1,1.207.6c-1.661-4.174-3.168-11.628-2.415-16.1.453-2.236,2.564-5.814,5.429-5.068.152,0,.152,0,.3.149a5.007,5.007,0,0,0-2.112-1.938c-2.865-.745-4.976,2.981-5.428,5.068-.9,4.472.6,11.926,2.413,16.1a3.041,3.041,0,0,0-1.207-.6.561.561,0,0,1-.453-.149C46.1,34.537,38.11,51.681,37.507,57.047a85.96,85.96,0,0,0-.151,8.944h1.658c0-2.385.151-6.112.3-7.155" transform="translate(18.301 7.464)" fill="#eabd8c"/>
          <path id="Path_1286325" data-name="Path 1286325" d="M11.919,36.575a3.044,3.044,0,0,1,1.206-.6.555.555,0,0,0,.452-.149c6.486-1.193,14.478,15.951,15.082,21.317a86.374,86.374,0,0,1,.151,8.944h-18.7C9.957,54.762,3.323,54.464.91,45.072-.6,39.258,4.228,16.6,8.752,15.407c2.865-.745,4.976,2.981,5.428,5.068.9,4.472-.6,11.926-2.261,16.1" transform="translate(0.308 7.513)" fill="#ffd8a8"/>
          <path id="Path_1286326" data-name="Path 1286326" d="M26.678,57.048c-.6-5.218-8.6-22.361-15.08-21.317a.557.557,0,0,0-.452.149,3.051,3.051,0,0,0-1.207.6C11.6,32.3,13.1,24.849,12.352,20.376c-.452-2.236-2.564-5.814-5.429-5.068-.754.149-1.509.894-2.263,2.087.152-.149.3-.149.605-.3,2.865-.745,4.976,2.981,5.428,5.068.9,4.472-.6,11.926-2.412,16.1a3.035,3.035,0,0,1,1.206-.6.557.557,0,0,0,.452-.149C16.423,36.327,24.415,53.47,25.02,58.837c.149.894.3,4.621.3,7.006h1.658a85.415,85.415,0,0,0-.3-8.8" transform="translate(2.287 7.463)" fill="#eabd8c"/>
          <path id="Path_1286327" data-name="Path 1286327" d="M32.453,38.737C24.913,34.265,20.24,27.408,20.24,19.656S24.913,5.047,32.453.575C40,5.047,44.668,11.9,44.668,19.656c0,7.6-4.673,14.46-12.215,19.081" transform="translate(9.932 0.282)" fill="#80af52"/>
          <path id="Path_1286328" data-name="Path 1286328" d="M21.6,22.489c0-7.752,4.675-14.609,12.215-19.081a27.559,27.559,0,0,1,9.8,9.69C41.8,8.029,37.883,3.706,32.453.575,24.915,5.047,20.24,11.9,20.24,19.656A18.692,18.692,0,0,0,22.8,29.048,16.317,16.317,0,0,1,21.6,22.489" transform="translate(9.932 0.282)" fill="#70993f"/>
          <path id="Path_1286329" data-name="Path 1286329" d="M41.252,29.7c.906,3.876.3,7.6-2.261,10.137s-6.334,3.131-10.253,2.236a9.882,9.882,0,0,1-.3-2.087V37.754A9.36,9.36,0,0,1,31,31.94c2.564-2.534,6.334-3.131,10.255-2.236" transform="translate(13.953 14.384)" fill="#80af52"/>
          <path id="Path_1286330" data-name="Path 1286330" d="M30.093,41.182h0V38.946a9.352,9.352,0,0,1,2.564-5.814A9.851,9.851,0,0,1,41.251,30.6c0-.3-.149-.6-.149-.894-3.922-.894-7.691-.3-10.106,2.236a9.013,9.013,0,0,0-2.563,5.814V39.99a9.879,9.879,0,0,0,.3,2.087c.452.149,1.055.149,1.507.3,0-.447-.151-.894-.151-1.193" transform="translate(13.953 14.384)" fill="#70993f"/>
          <path id="Path_1286331" data-name="Path 1286331" d="M32.733,37.6h0v2.236a9.973,9.973,0,0,1-.3,2.087c-3.921.894-7.691.149-10.1-2.236-2.563-2.534-3.166-6.261-2.261-9.988,3.921-.894,7.691-.3,10.255,2.236A9.658,9.658,0,0,1,32.733,37.6" transform="translate(9.653 14.384)" fill="#80af52"/>
          <path id="Path_1286332" data-name="Path 1286332" d="M21.328,31.94c3.921-.894,7.691-.3,10.255,2.236a3.3,3.3,0,0,1,.6.745,9.32,9.32,0,0,0-1.96-2.981c-2.564-2.534-6.333-3.131-10.253-2.236A10.638,10.638,0,0,0,21.629,39.1a11.472,11.472,0,0,1-.3-7.155" transform="translate(9.598 14.384)" fill="#70993f"/>
          <path id="Path_1286333" data-name="Path 1286333" d="M45.324,45.528a.558.558,0,0,1-.453-.149.964.964,0,0,1-.3-1.342c.151-.149.151-.3.3-.447,4.073-6.112,5.882-10.286,5.277-12.224a1.781,1.781,0,0,0-1.055-1.044c-.149,0-.452-.149-.6-.149-.453-.149-.9-.6-.754-1.044s.6-.894,1.055-.745a1.639,1.639,0,0,1,.906.3,3.469,3.469,0,0,1,2.111,2.236c1.055,3.429-2.564,9.541-5.58,13.864-.151.149-.3.3-.3.447s-.3.3-.6.3" transform="translate(21.794 13.915)"/>
          <path id="Path_1286334" data-name="Path 1286334" d="M37.552,67.287a.865.865,0,0,1-.9-.894A89.313,89.313,0,0,1,36.8,57.3c.6-4.472,5.881-16.547,11.462-20.721a5.888,5.888,0,0,1,4.673-1.342c-1.507-4.472-2.412-10.584-1.658-14.609a8.526,8.526,0,0,1,3.318-5.218,4.1,4.1,0,0,1,3.166-.6c3.317.894,5.729,8.944,6.936,13.715,1.357,5.814,2.564,13.566,1.659,16.994C65.3,49.7,63.34,52.081,61.531,54.467c-2.413,2.981-4.374,5.665-4.374,11.777a.9.9,0,0,1-1.808,0c0-6.857,2.412-9.839,4.824-12.969,1.659-2.236,3.469-4.472,4.372-8.2.605-2.683,0-9.392-1.658-16.1-1.96-8.05-4.222-12.075-5.58-12.373a2.623,2.623,0,0,0-1.81.3,7.209,7.209,0,0,0-2.564,4.025c-.753,4.174.605,11.329,2.263,15.5a.849.849,0,0,1-.3,1.044c-.3.3-.906.149-1.207,0a2.46,2.46,0,0,0-.9-.447c-.152,0-.3,0-.3-.149a4.554,4.554,0,0,0-3.317,1.043C44.188,41.646,38.91,52.976,38.457,57.3a81.392,81.392,0,0,0-.151,8.646c.3.745,0,1.193-.754,1.342.152-.149.152,0,0,0" transform="translate(17.953 7.212)"/>
          <path id="Path_1286335" data-name="Path 1286335" d="M60.9,61.744H36.317a.968.968,0,0,1-.9-.894V49.669a.968.968,0,0,1,.9-.894H60.9a.968.968,0,0,1,.9.894V60.85a.968.968,0,0,1-.9.894M37.224,59.806h22.62V50.415H37.224Z" transform="translate(17.378 23.935)"/>
          <path id="Path_1286336" data-name="Path 1286336" d="M13.987,45.577a.83.83,0,0,1-.754-.447c-.151-.149-.151-.3-.3-.447C10.065,40.359,6.3,34.248,7.352,30.819a3.469,3.469,0,0,1,2.111-2.236c.3-.149.6-.149.9-.3a.907.907,0,1,1,.3,1.789c-.3,0-.452.149-.6.149a1.485,1.485,0,0,0-1.055,1.043c-.6,1.938,1.207,6.112,5.279,12.224.151.149.3.3.3.447a.965.965,0,0,1-.3,1.342c0,.3-.151.3-.3.3" transform="translate(3.519 13.866)"/>
          <path id="Path_1286337" data-name="Path 1286337" d="M29.266,67.2c-.151,0-.151-.149,0,0a.894.894,0,0,1-.9-1.044,80.623,80.623,0,0,0-.152-8.646c-.452-4.323-5.73-15.653-10.706-19.379a4.38,4.38,0,0,0-3.317-1.044c-.152,0-.3,0-.3.149a2.483,2.483,0,0,0-.9.447.919.919,0,0,1-1.206,0,.979.979,0,0,1-.3-1.044c1.659-4.174,3.016-11.329,2.263-15.5a6.506,6.506,0,0,0-2.566-4.025,2.618,2.618,0,0,0-1.808-.3c-1.357.3-3.619,4.323-5.581,12.373C2.123,35.892,1.519,42.6,2.123,45.284a19.18,19.18,0,0,0,4.374,8.2c2.261,2.981,4.673,6.112,4.824,12.969a.966.966,0,0,1-.9.894.968.968,0,0,1-.9-.894c0-6.112-2.111-8.8-4.374-11.777A25,25,0,0,1,.313,45.731c-.9-3.429.3-11.18,1.659-16.994,1.206-4.77,3.618-12.969,6.936-13.715a3.486,3.486,0,0,1,3.168.6,7.93,7.93,0,0,1,3.315,5.218c.756,3.876-.148,9.988-1.656,14.609a5.885,5.885,0,0,1,4.673,1.342c5.58,4.025,11.009,16.1,11.461,20.721A90.1,90.1,0,0,1,30.02,66.6a.822.822,0,0,1-.754.6" transform="translate(0 7.301)"/>
          <path id="Path_1286338" data-name="Path 1286338" d="M29.185,61.744H4.757a.967.967,0,0,1-.9-.894V49.669a.967.967,0,0,1,.9-.894H29.185a.968.968,0,0,1,.906.894V60.85a.968.968,0,0,1-.906.894M5.662,59.806h22.62V50.415H5.662Z" transform="translate(1.89 23.935)"/>
          <path id="Path_1286339" data-name="Path 1286339" d="M28.73,68.075a.967.967,0,0,1-.9-.894V36.769a.9.9,0,0,1,1.808,0V67.18a.967.967,0,0,1-.9.894" transform="translate(13.655 17.605)"/>
          <path id="Path_1286340" data-name="Path 1286340" d="M28.73,49.1a.967.967,0,0,1-.9-.894V13.469a.9.9,0,0,1,1.808,0V48.2a.967.967,0,0,1-.9.894" transform="translate(13.655 6.171)"/>
          <path id="Path_1286341" data-name="Path 1286341" d="M32.752,39.914a.557.557,0,0,1-.452-.149C24.308,34.846,19.632,27.69,19.632,19.938S24.308,4.882,32.3.112a1.3,1.3,0,0,1,1.055,0C41.5,5.031,46.022,12.187,46.022,19.938S41.349,34.995,33.356,39.765a1.149,1.149,0,0,1-.6.149m0-38.013c-7.237,4.472-11.31,11.031-11.31,18.038s4.073,13.416,11.31,18.038c7.239-4.472,11.31-11.031,11.31-18.038S39.991,6.373,32.752,1.9" transform="translate(9.634 0)"/>
          <path id="Path_1286342" data-name="Path 1286342" d="M32.35,43.631a13.842,13.842,0,0,1-3.467-.447,1.237,1.237,0,0,1-.754-.745,11.4,11.4,0,0,1-.3-2.236V37.817a10.128,10.128,0,0,1,2.865-6.261,10.409,10.409,0,0,1,7.539-2.981,14.8,14.8,0,0,1,3.47.447,1.231,1.231,0,0,1,.753.745c1.055,4.323.151,8.348-2.563,10.882a9.846,9.846,0,0,1-7.542,2.981m-2.412-2.087a15.211,15.211,0,0,0,2.412.3,8.577,8.577,0,0,0,6.334-2.385c2.111-2.087,2.865-5.218,2.111-8.646a15.17,15.17,0,0,0-2.412-.3A9.22,9.22,0,0,0,32.049,32.9a8.9,8.9,0,0,0-2.412,5.218V40.2c.149.447.149.894.3,1.342" transform="translate(13.655 14.022)"/>
          <path id="Path_1286343" data-name="Path 1286343" d="M29.472,43.631a10.169,10.169,0,0,1-7.54-2.981c-2.715-2.683-3.618-6.559-2.563-10.882a1.229,1.229,0,0,1,.754-.745,14.767,14.767,0,0,1,3.467-.447,10.167,10.167,0,0,1,7.54,2.981A9.711,9.711,0,0,1,34,37.817V40.2a11.4,11.4,0,0,1-.3,2.236,1.233,1.233,0,0,1-.754.745,13.836,13.836,0,0,1-3.469.447m-8.445-12.82a9.469,9.469,0,0,0,2.112,8.646,8.948,8.948,0,0,0,6.333,2.385,13.351,13.351,0,0,0,2.413-.3,4.05,4.05,0,0,0,.152-1.342V38.116A8.1,8.1,0,0,0,29.626,32.9a8.851,8.851,0,0,0-6.185-2.385,15.207,15.207,0,0,0-2.413.3" transform="translate(9.294 14.022)"/>
        </g>
      </g>
    </g>
  </g>
</svg>
