<svg xmlns="http://www.w3.org/2000/svg" xmlns:xlink="http://www.w3.org/1999/xlink" width="95.001" height="95" viewBox="0 0 95.001 95">
  <defs>
    <clipPath id="clip-path">
      <rect id="Rectangle_413992" data-name="Rectangle 413992" width="90.519" height="89.594" fill="none"/>
    </clipPath>
  </defs>
  <g id="Group_1222979" data-name="Group 1222979" transform="translate(-13692.999 10357)">
    <rect id="Rectangle_414062" data-name="Rectangle 414062" width="95" height="95" transform="translate(13693 -10357)" fill="none"/>
    <g id="Group_1222973" data-name="Group 1222973" transform="translate(722.563 -20.067)">
      <ellipse id="Ellipse_12935" data-name="Ellipse 12935" cx="27.416" cy="27.416" rx="27.416" ry="27.416" transform="translate(13010.604 -10302.149)" fill="#7fe5cf"/>
      <ellipse id="Ellipse_12936" data-name="Ellipse 12936" cx="19.939" cy="19.939" rx="19.939" ry="19.939" transform="translate(12970.436 -10333.479)" fill="#7fe5cf"/>
    </g>
    <g id="Group_1222963" data-name="Group 1222963" transform="translate(13695.24 -10353.547)">
      <path id="Path_1286387" data-name="Path 1286387" d="M.607,19.316v9.4l11.315-3.878,1.961-.6L44.962,13.8,76.04,24.239l13.276,4.474v-9.4L74.23,13.053l-9.5-4.027L44.962.675Z" transform="translate(0.298 0.332)" fill="#ff7979"/>
      <path id="Path_1286388" data-name="Path 1286388" d="M.607,19.316v2.537L44.962,3.21l19.764,8.353,9.5,3.876,15.087,6.413V19.316L74.23,13.053l-9.5-4.027L44.962.675Z" transform="translate(0.298 0.332)" fill="#d65b5b"/>
      <g id="Group_1222962" data-name="Group 1222962" transform="translate(0 0)">
        <g id="Group_1222961" data-name="Group 1222961" clip-path="url(#clip-path)">
          <path id="Path_1286389" data-name="Path 1286389" d="M40.588,9.475l31.079,10.44v51H39.532l16.6-17.151L43.153,51.979l4.675-10.889H35.006L25.35,63.312H36.665l-3.621,7.606H9.509v-51Zm8.449,16.7a7.544,7.544,0,1,0-7.543,7.457,7.428,7.428,0,0,0,7.543-7.457" transform="translate(4.672 4.656)" fill="#f0f1f1"/>
          <path id="Path_1286390" data-name="Path 1286390" d="M10.867,22.152l31.079-10.44L71.666,21.7V19.915L40.587,9.475,9.508,19.915v51h1.359Z" transform="translate(4.672 4.656)" fill="#dee0e0"/>
          <path id="Path_1286391" data-name="Path 1286391" d="M50.756,43.351,34.312,60.5,21.789,73.627,27.825,60.5,31.294,52.9H20.131l9.655-22.221H42.609L37.932,41.563Z" transform="translate(9.892 15.073)" fill="#57606f"/>
          <path id="Path_1286392" data-name="Path 1286392" d="M31.446,32.911H41.7l.905-2.237H29.786L20.131,52.9H22.7Z" transform="translate(9.892 15.073)" fill="#414a56"/>
          <path id="Path_1286393" data-name="Path 1286393" d="M53.1.674v12.38L43.6,9.027V.674Z" transform="translate(21.424 0.332)" fill="#f0f1f1"/>
          <path id="Path_1286394" data-name="Path 1286394" d="M45.258,2.464H53.1V.675H43.6V9.026l1.658.746Z" transform="translate(21.424 0.332)" fill="#dee0e0"/>
          <path id="Path_1286395" data-name="Path 1286395" d="M33.44,15.674A7.457,7.457,0,1,1,25.9,23.131a7.5,7.5,0,0,1,7.543-7.457" transform="translate(12.725 7.702)" fill="#57606f"/>
          <path id="Path_1286396" data-name="Path 1286396" d="M27.054,25.965A7.428,7.428,0,0,1,34.6,18.509a7.881,7.881,0,0,1,6.337,3.281,7.576,7.576,0,0,0-7.393-6.115A7.428,7.428,0,0,0,26,23.132,7.947,7.947,0,0,0,27.2,27.308a4.09,4.09,0,0,1-.151-1.342" transform="translate(12.775 7.703)" fill="#414a56"/>
          <path id="Path_1286397" data-name="Path 1286397" d="M53.4,14.243a.967.967,0,0,1-.905-.895V2.014H44.954V9.471a.968.968,0,0,1-.9.895,1.128,1.128,0,0,1-1.057-1.044V.97A.967.967,0,0,1,43.9.075h9.5a.967.967,0,0,1,.905.895V13.2a1,1,0,0,1-.905,1.044" transform="translate(21.126 0.037)"/>
          <path id="Path_1286398" data-name="Path 1286398" d="M89.615,29.939h-.3L76.038,25.465a1.014,1.014,0,0,1-.605-1.193,1.031,1.031,0,0,1,1.208-.6L88.558,27.7V20.245L45.26,2.051,1.961,20.245V27.7L13.88,23.676a1.029,1.029,0,0,1,1.207.6,1.011,1.011,0,0,1-.6,1.193L1.359,29.939a1.007,1.007,0,0,1-.905-.149A.818.818,0,0,1,0,29.044v-9.4a.818.818,0,0,1,.6-.895L44.959.112a.692.692,0,0,1,.755,0l44.2,18.642a1.007,1.007,0,0,1,.6.895v9.4a.819.819,0,0,1-.452.746.557.557,0,0,1-.452.149" transform="translate(0 0)"/>
          <path id="Path_1286399" data-name="Path 1286399" d="M71.965,72.258H39.829a.895.895,0,1,1,0-1.79H71.058V20.806L40.884,10.665,10.713,20.806V70.32h22.63a.895.895,0,1,1,0,1.79H9.806a.967.967,0,0,1-.9-.895v-51a1.009,1.009,0,0,1,.6-.9l31.08-10.44h.6l31.079,10.44a.819.819,0,0,1,.6.9v51a.841.841,0,0,1-.9,1.044" transform="translate(4.374 4.361)"/>
          <path id="Path_1286400" data-name="Path 1286400" d="M22.088,74.865a1.148,1.148,0,0,1-.6-.149.93.93,0,0,1-.3-1.195l9.053-19.388H20.429a.827.827,0,0,1-.755-.447,1.869,1.869,0,0,1-.151-.893L29.179,30.57a1.016,1.016,0,0,1,.905-.6H42.907a.832.832,0,0,1,.755.447,1.853,1.853,0,0,1,.152.893L39.589,41.01l11.767,1.642a1,1,0,0,1,.755.6.908.908,0,0,1-.151.9L22.692,74.566a1.138,1.138,0,0,1-.6.3m-.3-22.52h9.806a.83.83,0,0,1,.755.447.931.931,0,0,1,0,.893L25.106,69.2,49.244,44.292,38.08,42.8a.833.833,0,0,1-.755-.447.945.945,0,0,1,0-.9L41.4,31.914H30.536Z" transform="translate(9.594 14.729)"/>
          <path id="Path_1286401" data-name="Path 1286401" d="M12.939,51.965h-9.5a.895.895,0,1,1,0-1.79h9.5a.895.895,0,1,1,0,1.79" transform="translate(1.243 24.655)"/>
          <path id="Path_1286402" data-name="Path 1286402" d="M60.99,51.965h-9.5a.895.895,0,1,1,0-1.79h9.5a.895.895,0,1,1,0,1.79" transform="translate(24.854 24.655)"/>
          <path id="Path_1286403" data-name="Path 1286403" d="M33.739,31.878a8.352,8.352,0,1,1,8.447-8.352,8.387,8.387,0,0,1-8.447,8.352m0-14.914a6.562,6.562,0,1,0,6.638,6.562,6.562,6.562,0,0,0-6.638-6.562" transform="translate(12.427 7.457)"/>
        </g>
      </g>
    </g>
  </g>
</svg>
