<svg xmlns="http://www.w3.org/2000/svg" xmlns:xlink="http://www.w3.org/1999/xlink" width="95.001" height="95" viewBox="0 0 95.001 95">
  <defs>
    <clipPath id="clip-path">
      <rect id="Rectangle_413808" data-name="Rectangle 413808" width="95" height="86" transform="translate(0 0)" fill="none"/>
    </clipPath>
  </defs>
  <g id="Group_1222926" data-name="Group 1222926" transform="translate(-437.301 -3371)">
    <g id="Group_1222921" data-name="Group 1222921" transform="translate(-1008 -3606.048)">
      <ellipse id="Ellipse_12931" data-name="Ellipse 12931" cx="27.416" cy="27.416" rx="27.416" ry="27.416" transform="translate(1485.469 7017.216)" fill="#7fe5cf"/>
      <ellipse id="Ellipse_12932" data-name="Ellipse 12932" cx="19.939" cy="19.939" rx="19.939" ry="19.939" transform="translate(1445.301 6985.886)" fill="#7fe5cf"/>
    </g>
    <g id="Group_1222856" data-name="Group 1222856" transform="translate(-22726.699 11222)">
      <rect id="Rectangle_413757" data-name="Rectangle 413757" width="95" height="95" transform="translate(23164 -7851)" fill="none"/>
      <g id="Group_1222840" data-name="Group 1222840" transform="translate(23164 -7846.592)">
        <path id="Path_1285769" data-name="Path 1285769" d="M138.927,15.938,150.04,14.35V9.588L138.927,8H104v7.938Z" transform="translate(-83.361 -6.388)" fill="#8098ab"/>
        <g id="Group_1222839" data-name="Group 1222839" transform="translate(0 -0.408)">
          <g id="Group_1222838" data-name="Group 1222838" transform="translate(0 0)" clip-path="url(#clip-path)">
            <path id="Path_1285770" data-name="Path 1285770" d="M96,112h51.6v7.938H127.283A26.53,26.53,0,0,0,102.35,137.4H96Z" transform="translate(-76.949 -89.341)" fill="#556c80"/>
            <path id="Path_1285771" data-name="Path 1285771" d="M17.526,82.8,8,89.154V32l9.526,6.35Z" transform="translate(-6.412 -25.217)" fill="#8098ab"/>
            <rect id="Rectangle_413806" data-name="Rectangle 413806" width="9" height="37" transform="translate(11 17)" fill="#718799"/>
            <path id="Path_1285772" data-name="Path 1285772" d="M255.814,112h0a23.814,23.814,0,0,1,23.814,23.814v3.175H232v-3.175A23.814,23.814,0,0,1,255.814,112" transform="translate(-185.96 -89.341)" fill="#62798c"/>
            <path id="Path_1285773" data-name="Path 1285773" d="M279.628,248v11.113a23.814,23.814,0,1,1-47.628,0V248Z" transform="translate(-185.96 -198.352)" fill="#8098ab"/>
            <path id="Path_1285774" data-name="Path 1285774" d="M433.526,248v11.113A23.779,23.779,0,0,1,424,278.166V248Z" transform="translate(-339.857 -198.352)" fill="#718799"/>
            <path id="Path_1285775" data-name="Path 1285775" d="M326.35,296a6.35,6.35,0,1,1-6.35,6.35,6.35,6.35,0,0,1,6.35-6.35" transform="translate(-256.496 -236.826)" fill="#08d175"/>
            <rect id="Rectangle_413807" data-name="Rectangle 413807" width="7" height="5" transform="translate(25 17)" fill="#ffc431"/>
            <path id="Path_1285776" data-name="Path 1285776" d="M134.35,35.175,131.175,32,128,35.175v6.35h6.35Z" transform="translate(-102.598 -25.217)" fill="#718799"/>
            <path id="Path_1285777" data-name="Path 1285777" d="M241.526,248v30.166A23.779,23.779,0,0,1,232,259.113V248Z" transform="translate(-185.959 -198.352)" fill="#718799"/>
            <path id="Path_1285778" data-name="Path 1285778" d="M70.648,20.653v-.014H33.34V11.113H55.566a1.576,1.576,0,0,0,.225-.016L66.9,9.51a1.587,1.587,0,0,0,1.363-1.572V3.175A1.587,1.587,0,0,0,66.9,1.6L55.791.016A1.576,1.576,0,0,0,55.566,0H20.639a1.588,1.588,0,0,0-1.588,1.588V9.526a1.588,1.588,0,0,0,1.588,1.588h3.175v9.526H20.639V15.876a1.588,1.588,0,0,0-1.588-1.588H12.7V12.7a1.587,1.587,0,0,0-.707-1.321L2.468,5.03A1.588,1.588,0,0,0,0,6.35V63.5a1.588,1.588,0,0,0,2.468,1.321l9.526-6.35a1.587,1.587,0,0,0,.707-1.321V55.566h6.35a1.588,1.588,0,0,0,1.588-1.588V49.216H25.4a1.588,1.588,0,0,0,1.492-1.045A25.023,25.023,0,0,1,48.828,31.8,25.256,25.256,0,0,0,44.453,46.04V60.329a25.4,25.4,0,1,0,50.8,0V46.04A25.431,25.431,0,0,0,70.648,20.653M9.526,56.3l-6.35,4.234V9.317l6.35,4.234Zm7.938-3.913H12.7V17.464h4.763ZM65.092,6.561,57.154,7.7V3.418l7.938,1.134ZM22.226,3.175H53.978V7.938H32.41L29.7,5.228a1.588,1.588,0,0,0-2.245,0l-2.71,2.71H22.226Zm4.763,7.008L28.577,8.6l1.588,1.588v4.105H26.989Zm0,7.281h3.175v3.175H26.989ZM50.335,28.577A28.21,28.21,0,0,0,24.314,46.04H20.639V23.814h36.93a25.561,25.561,0,0,0-6.144,4.763ZM47.628,60.329V50.8h6.35V75.867a22.151,22.151,0,0,1-6.35-15.538m9.526,18.229V50.8h25.4V78.558a22.177,22.177,0,0,1-25.4,0M92.081,60.329a22.151,22.151,0,0,1-6.35,15.538V50.8h6.35Zm0-12.7H47.628V46.04a22.226,22.226,0,0,1,44.453,0Z" transform="translate(0 0.433)"/>
            <path id="Path_1285779" data-name="Path 1285779" d="M319.938,288a7.938,7.938,0,1,0,7.938,7.938A7.938,7.938,0,0,0,319.938,288m0,12.7a4.763,4.763,0,1,1,4.763-4.763,4.763,4.763,0,0,1-4.763,4.763" transform="translate(-250.084 -230.414)"/>
            <path id="Path_1285780" data-name="Path 1285780" d="M345.588,384A1.588,1.588,0,1,1,344,385.588,1.588,1.588,0,0,1,345.588,384" transform="translate(-275.733 -307.362)"/>
          </g>
        </g>
      </g>
    </g>
  </g>
</svg>
