<svg xmlns="http://www.w3.org/2000/svg" xmlns:xlink="http://www.w3.org/1999/xlink" width="95" height="95" viewBox="0 0 95 95">
  <defs>
    <clipPath id="clip-path">
      <rect id="Rectangle_413658" data-name="Rectangle 413658" width="95" height="78.586" fill="none"/>
    </clipPath>
    <clipPath id="clip-path-3">
      <rect id="Rectangle_413645" data-name="Rectangle 413645" width="89.069" height="3.707" fill="none"/>
    </clipPath>
    <clipPath id="clip-path-4">
      <rect id="Rectangle_413647" data-name="Rectangle 413647" width="89.069" height="1.483" fill="none"/>
    </clipPath>
    <clipPath id="clip-path-7">
      <rect id="Rectangle_413651" data-name="Rectangle 413651" width="14.842" height="8.022" fill="none"/>
    </clipPath>
    <clipPath id="clip-path-8">
      <rect id="Rectangle_413652" data-name="Rectangle 413652" width="14.842" height="8.146" fill="none"/>
    </clipPath>
    <clipPath id="clip-path-10">
      <rect id="Rectangle_413654" data-name="Rectangle 413654" width="14.842" height="8.148" fill="none"/>
    </clipPath>
    <clipPath id="clip-path-11">
      <rect id="Rectangle_413655" data-name="Rectangle 413655" width="26.719" height="2.966" fill="none"/>
    </clipPath>
  </defs>
  <g id="Group_1222743" data-name="Group 1222743" transform="translate(-19361 9915)">
    <rect id="Rectangle_413711" data-name="Rectangle 413711" width="95" height="95" transform="translate(19361 -9915)" fill="none"/>
    <g id="Group_1222708" data-name="Group 1222708" transform="translate(19361 -9906.793)">
      <g id="Group_1222707" data-name="Group 1222707" clip-path="url(#clip-path)">
        <g id="Group_1222706" data-name="Group 1222706">
          <g id="Group_1222705" data-name="Group 1222705" clip-path="url(#clip-path)">
            <path id="Path_1285444" data-name="Path 1285444" d="M93.069,97v.741a2.972,2.972,0,0,1-2.973,2.965H6.973A2.966,2.966,0,0,1,4,97.747V97Z" transform="translate(-1.034 -25.086)" fill="#81d9e3"/>
            <path id="Path_1285445" data-name="Path 1285445" d="M93.069,6.966v.741H4V6.966A2.966,2.966,0,0,1,6.967,4H90.1a2.972,2.972,0,0,1,2.973,2.966" transform="translate(-1.034 -1.034)" fill="#81d9e3"/>
            <path id="Path_1285446" data-name="Path 1285446" d="M4,72.31H93.069V13H4Zm11.877-13.6v9.156a1.486,1.486,0,1,1-2.973,0V58.706a4.441,4.441,0,0,1,0-8.378V48.586a1.486,1.486,0,1,1,2.973,0v1.742a4.441,4.441,0,0,1,0,8.378M8.456,28.569a10.39,10.39,0,1,1,10.4,10.379h-.015A10.4,10.4,0,0,1,8.456,28.569m19.3,36.068v3.225a1.486,1.486,0,1,1-2.973,0V64.637a4.441,4.441,0,0,1,0-8.378V48.586a1.486,1.486,0,1,1,2.973,0v7.673a4.441,4.441,0,0,1,0,8.378m11.869-5.931v9.156a1.483,1.483,0,1,1-2.966,0V58.706a4.441,4.441,0,0,1,0-8.378V48.586a1.483,1.483,0,0,1,2.966,0v1.742a4.437,4.437,0,0,1,0,8.378M32.2,28.569A10.394,10.394,0,1,1,42.611,38.948H42.6A10.4,10.4,0,0,1,32.2,28.569M52.99,69.345a5.931,5.931,0,1,1,5.931-5.931,5.931,5.931,0,0,1-5.931,5.931m14.842,0a5.931,5.931,0,1,1,5.938-5.931,5.931,5.931,0,0,1-5.938,5.931M86.871,67.61a5.924,5.924,0,1,1,1.742-4.2,5.924,5.924,0,0,1-1.742,4.2m1.742-32.369a4.458,4.458,0,0,1-4.456,4.448H60.411a4.453,4.453,0,0,1-4.456-4.448V21.9a4.453,4.453,0,0,1,4.456-4.448H84.158A4.458,4.458,0,0,1,88.613,21.9Z" transform="translate(-1.034 -3.362)" fill="#e1ebf4"/>
            <path id="Path_1285447" data-name="Path 1285447" d="M17.948,62.224V60.481a1.486,1.486,0,1,0-2.973,0v1.742a4.441,4.441,0,0,0,0,8.378v9.156a1.486,1.486,0,0,0,2.973,0V70.6a4.441,4.441,0,0,0,0-8.378M16.465,67.9a1.483,1.483,0,1,1,1.483-1.483A1.482,1.482,0,0,1,16.465,67.9" transform="translate(-3.106 -15.257)"/>
            <path id="Path_1285448" data-name="Path 1285448" d="M18.983,68.483A1.486,1.486,0,1,1,17.493,67H17.5a1.487,1.487,0,0,1,1.483,1.483" transform="translate(-4.141 -17.328)" fill="#81d9e3"/>
            <path id="Path_1285449" data-name="Path 1285449" d="M33.968,68.155V60.481a1.486,1.486,0,1,0-2.973,0v7.673a4.441,4.441,0,0,0,0,8.378v3.225a1.486,1.486,0,0,0,2.973,0V76.532a4.441,4.441,0,0,0,0-8.378m-1.49,5.672a1.483,1.483,0,1,1,1.49-1.483,1.483,1.483,0,0,1-1.49,1.483" transform="translate(-7.249 -15.257)"/>
            <path id="Path_1285450" data-name="Path 1285450" d="M35,76.483A1.486,1.486,0,1,1,33.513,75,1.487,1.487,0,0,1,35,76.483" transform="translate(-8.284 -19.397)" fill="#ffdb80"/>
            <path id="Path_1285451" data-name="Path 1285451" d="M49.981,62.225V60.483a1.483,1.483,0,0,0-2.966,0v1.742a4.441,4.441,0,0,0,0,8.378v9.156a1.483,1.483,0,1,0,2.966,0V70.6a4.437,4.437,0,0,0,0-8.378M48.5,67.9a1.483,1.483,0,1,1,1.483-1.483A1.482,1.482,0,0,1,48.5,67.9" transform="translate(-11.392 -15.259)"/>
            <path id="Path_1285452" data-name="Path 1285452" d="M51.016,68.483A1.483,1.483,0,1,1,49.533,67a1.482,1.482,0,0,1,1.483,1.483Z" transform="translate(-12.427 -17.328)" fill="#81d9e3"/>
            <path id="Path_1285453" data-name="Path 1285453" d="M88.034,73a5.931,5.931,0,1,0,5.938,5.931A5.931,5.931,0,0,0,88.034,73m1.483,7.414h1.075a2.965,2.965,0,1,1,0-2.965H89.516a1.483,1.483,0,1,0,0,2.965" transform="translate(-21.236 -18.88)"/>
            <path id="Path_1285454" data-name="Path 1285454" d="M90.544,81.448h1.075a2.965,2.965,0,1,1,0-2.966H90.544a1.483,1.483,0,1,0,0,2.966" transform="translate(-22.264 -19.914)" fill="#ffdb80"/>
            <path id="Path_1285455" data-name="Path 1285455" d="M112.254,74.737a5.924,5.924,0,1,0,1.742,4.2,5.924,5.924,0,0,0-1.742-4.2m-2.1,6.294a3.03,3.03,0,0,1-2.839.741l.741-.741a1.484,1.484,0,1,0-2.1-2.1l-.764.756a3.216,3.216,0,0,1-.1-.756,2.939,2.939,0,0,1,.867-2.1,2.967,2.967,0,1,1,4.2,4.2" transform="translate(-26.418 -18.882)"/>
            <path id="Path_1285456" data-name="Path 1285456" d="M112.051,79.966a2.936,2.936,0,0,1-.867,2.1,3.03,3.03,0,0,1-2.839.741l.741-.741a1.484,1.484,0,0,0-2.1-2.1l-.764.756a3.216,3.216,0,0,1-.1-.756,2.939,2.939,0,0,1,.867-2.1,2.971,2.971,0,0,1,4.2,0,2.936,2.936,0,0,1,.867,2.1" transform="translate(-27.445 -19.914)" fill="#ffdb80"/>
            <path id="Path_1285457" data-name="Path 1285457" d="M68.011,73a5.931,5.931,0,1,0,5.931,5.931A5.931,5.931,0,0,0,68.011,73m0,8.9a2.954,2.954,0,0,1-1.49-5.516v1.068a1.486,1.486,0,0,0,2.973,0V76.381A2.954,2.954,0,0,1,68.011,81.9" transform="translate(-16.055 -18.88)"/>
            <path id="Path_1285458" data-name="Path 1285458" d="M72.008,80.11a2.969,2.969,0,1,1-4.456-2.55v1.068a1.486,1.486,0,0,0,2.973,0V77.56a2.951,2.951,0,0,1,1.483,2.55" transform="translate(-17.087 -20.059)" fill="#ffdb80"/>
            <path id="Path_1285459" data-name="Path 1285459" d="M64.553,67.965h37.11a1.483,1.483,0,1,0,0-2.965H64.553a1.483,1.483,0,1,0,0,2.965" transform="translate(-16.311 -16.811)"/>
            <path id="Path_1285460" data-name="Path 1285460" d="M64.553,59.966h37.11a1.483,1.483,0,0,0,0-2.966H64.553a1.483,1.483,0,1,0,0,2.966" transform="translate(-16.311 -14.742)"/>
            <path id="Path_1285461" data-name="Path 1285461" d="M28.856,31.413a7.427,7.427,0,0,1-5.931,7.265V37.344a1.486,1.486,0,0,0-2.973,0v1.334a7.415,7.415,0,1,1,8.9-7.265" transform="translate(-3.627 -6.207)" fill="#fc785e"/>
            <path id="Path_1285462" data-name="Path 1285462" d="M60.9,31.413a7.425,7.425,0,0,1-5.938,7.265V37.344a1.483,1.483,0,1,0-2.966,0v1.334a7.415,7.415,0,1,1,8.9-7.265" transform="translate(-11.913 -6.207)" fill="#fc785e"/>
            <path id="Path_1285463" data-name="Path 1285463" d="M104.8,24.483V37.828a1.483,1.483,0,0,1-1.482,1.483h-1.483V27.448a1.483,1.483,0,1,0-2.966,0V39.31H95.9V33.379a1.483,1.483,0,1,0-2.966,0V39.31H89.957v-8.9a1.483,1.483,0,1,0-2.965,0v8.9H84.018V36.345a1.483,1.483,0,1,0-2.966,0V39.31H79.57a1.488,1.488,0,0,1-1.49-1.483V24.483A1.488,1.488,0,0,1,79.57,23h23.746a1.483,1.483,0,0,1,1.483,1.482h0" transform="translate(-20.193 -5.948)" fill="#81d9e3"/>
            <g id="Group_1222677" data-name="Group 1222677" transform="translate(2.966 2.966)" opacity="0.4" style="isolation: isolate">
              <g id="Group_1222676" data-name="Group 1222676">
                <g id="Group_1222675" data-name="Group 1222675" clip-path="url(#clip-path-3)">
                  <path id="Path_1285464" data-name="Path 1285464" d="M93.069,6.966v.741h-.1A2.974,2.974,0,0,0,90.1,5.483H6.973A2.962,2.962,0,0,0,4.1,7.707H4V6.966A2.966,2.966,0,0,1,6.967,4H90.1a2.972,2.972,0,0,1,2.973,2.966" transform="translate(-4 -4)" fill="#e8fbfc"/>
                </g>
              </g>
            </g>
            <g id="Group_1222680" data-name="Group 1222680" transform="translate(2.966 9.638)" opacity="0.5" style="isolation: isolate">
              <g id="Group_1222679" data-name="Group 1222679">
                <g id="Group_1222678" data-name="Group 1222678" clip-path="url(#clip-path-4)">
                  <rect id="Rectangle_413646" data-name="Rectangle 413646" width="89.069" height="1.483" fill="#fff"/>
                </g>
              </g>
            </g>
            <g id="Group_1222683" data-name="Group 1222683" transform="translate(2.966 67.465)" opacity="0.5" style="isolation: isolate">
              <g id="Group_1222682" data-name="Group 1222682">
                <g id="Group_1222681" data-name="Group 1222681" clip-path="url(#clip-path-4)">
                  <rect id="Rectangle_413648" data-name="Rectangle 413648" width="89.069" height="1.483" fill="#9fa5aa"/>
                </g>
              </g>
            </g>
            <g id="Group_1222686" data-name="Group 1222686" transform="translate(2.966 71.914)" opacity="0.3" style="isolation: isolate">
              <g id="Group_1222685" data-name="Group 1222685">
                <g id="Group_1222684" data-name="Group 1222684" clip-path="url(#clip-path-3)">
                  <path id="Path_1285465" data-name="Path 1285465" d="M93.069,97v.741a2.972,2.972,0,0,1-2.973,2.965H6.973A2.966,2.966,0,0,1,4,97.747V97h.1a2.962,2.962,0,0,0,2.877,2.224H90.1A2.974,2.974,0,0,0,92.973,97Z" transform="translate(-4 -97)" fill="#0f423c"/>
                </g>
              </g>
            </g>
            <g id="Group_1222689" data-name="Group 1222689" transform="translate(10.387 24.451)" opacity="0.5" style="isolation: isolate">
              <g id="Group_1222688" data-name="Group 1222688">
                <g id="Group_1222687" data-name="Group 1222687" clip-path="url(#clip-path-7)">
                  <path id="Path_1285466" data-name="Path 1285466" d="M28.852,33.736A7.427,7.427,0,0,1,22.921,41V39.667a1.486,1.486,0,1,0-2.973,0V41a7.433,7.433,0,0,1-5.938-7.265c0-.252.015-.512.037-.756a7.438,7.438,0,0,0,5.9,6.539V38.184a1.486,1.486,0,1,1,2.973,0v1.334a7.421,7.421,0,0,0,5.894-6.539c.022.245.037.5.037.756" transform="translate(-14.01 -32.98)" fill="#a54b3f"/>
                </g>
              </g>
            </g>
            <g id="Group_1222692" data-name="Group 1222692" transform="translate(10.387 17.788)" opacity="0.3" style="isolation: isolate">
              <g id="Group_1222691" data-name="Group 1222691">
                <g id="Group_1222690" data-name="Group 1222690" clip-path="url(#clip-path-8)">
                  <path id="Path_1285467" data-name="Path 1285467" d="M28.852,31.412c0,.245-.015.489-.037.727a7.424,7.424,0,0,0-14.768,0c-.022-.237-.037-.482-.037-.727a7.421,7.421,0,0,1,14.842,0" transform="translate(-14.01 -23.993)" fill="#f9dbd7"/>
                </g>
              </g>
            </g>
            <g id="Group_1222695" data-name="Group 1222695" transform="translate(34.14 24.451)" opacity="0.5" style="isolation: isolate">
              <g id="Group_1222694" data-name="Group 1222694">
                <g id="Group_1222693" data-name="Group 1222693" clip-path="url(#clip-path-7)">
                  <path id="Path_1285468" data-name="Path 1285468" d="M60.892,33.736A7.425,7.425,0,0,1,54.954,41V39.667a1.483,1.483,0,0,0-2.966,0V41a7.425,7.425,0,0,1-5.938-7.265c0-.252.015-.512.037-.756a7.421,7.421,0,0,0,5.9,6.539V38.184a1.483,1.483,0,0,1,2.966,0v1.334a7.421,7.421,0,0,0,5.9-6.539c.022.245.037.5.037.756" transform="translate(-46.05 -32.98)" fill="#a54b3f"/>
                </g>
              </g>
            </g>
            <g id="Group_1222698" data-name="Group 1222698" transform="translate(34.14 17.786)" opacity="0.3" style="isolation: isolate">
              <g id="Group_1222697" data-name="Group 1222697">
                <g id="Group_1222696" data-name="Group 1222696" clip-path="url(#clip-path-10)">
                  <path id="Path_1285469" data-name="Path 1285469" d="M60.892,31.411c0,.245-.015.489-.037.727a7.424,7.424,0,0,0-14.768,0c-.022-.237-.037-.482-.037-.727a7.421,7.421,0,1,1,14.842,0" transform="translate(-46.05 -23.99)" fill="#f9dbd7"/>
                </g>
              </g>
            </g>
            <g id="Group_1222701" data-name="Group 1222701" transform="translate(57.887 30.396)" opacity="0.3" style="isolation: isolate">
              <g id="Group_1222700" data-name="Group 1222700">
                <g id="Group_1222699" data-name="Group 1222699" clip-path="url(#clip-path-11)">
                  <path id="Path_1285470" data-name="Path 1285470" d="M103.316,42.483H79.57A1.488,1.488,0,0,1,78.08,41v1.483a1.488,1.488,0,0,0,1.49,1.483h23.746a1.483,1.483,0,0,0,1.483-1.482h0V41a1.483,1.483,0,0,1-1.482,1.483Z" transform="translate(-78.08 -41)" fill="#0f423c"/>
                </g>
              </g>
            </g>
            <g id="Group_1222704" data-name="Group 1222704" transform="translate(57.887 17.052)" opacity="0.4" style="isolation: isolate">
              <g id="Group_1222703" data-name="Group 1222703">
                <g id="Group_1222702" data-name="Group 1222702" clip-path="url(#clip-path-11)">
                  <path id="Path_1285471" data-name="Path 1285471" d="M104.8,24.483v1.483a1.482,1.482,0,0,0-1.482-1.483H79.57a1.488,1.488,0,0,0-1.49,1.483V24.483A1.488,1.488,0,0,1,79.57,23h23.746a1.482,1.482,0,0,1,1.483,1.482Z" transform="translate(-78.08 -23)" fill="#e8fbfc"/>
                </g>
              </g>
            </g>
            <path id="Path_1285472" data-name="Path 1285472" d="M89.062,0H5.938A5.941,5.941,0,0,0,0,5.931V72.655a5.941,5.941,0,0,0,5.938,5.931H89.062A5.941,5.941,0,0,0,95,72.655V5.931A5.941,5.941,0,0,0,89.062,0m2.973,72.655a2.972,2.972,0,0,1-2.973,2.965H5.938a2.966,2.966,0,0,1-2.973-2.96v-.747H92.034Zm0-3.707H2.966V9.638H92.034Zm0-62.276H2.966V5.931A2.966,2.966,0,0,1,5.932,2.966H89.062a2.972,2.972,0,0,1,2.973,2.966Z"/>
            <path id="Path_1285473" data-name="Path 1285473" d="M20.4,20A10.379,10.379,0,1,0,30.8,30.379,10.379,10.379,0,0,0,20.4,20m1.49,17.645V36.31a1.486,1.486,0,0,0-2.973,0v1.334a7.417,7.417,0,1,1,2.973,0" transform="translate(-2.597 -5.172)"/>
            <path id="Path_1285474" data-name="Path 1285474" d="M52.444,20A10.379,10.379,0,1,0,62.839,30.379,10.379,10.379,0,0,0,52.444,20m1.483,17.645V36.31a1.483,1.483,0,1,0-2.966,0v1.334a7.421,7.421,0,1,1,2.966,0" transform="translate(-10.883 -5.172)"/>
            <path id="Path_1285475" data-name="Path 1285475" d="M102.282,19H78.536a4.453,4.453,0,0,0-4.456,4.448V36.793a4.453,4.453,0,0,0,4.456,4.448h23.746a4.458,4.458,0,0,0,4.456-4.448V23.448A4.458,4.458,0,0,0,102.282,19m1.483,17.793a1.483,1.483,0,0,1-1.482,1.483H100.8V26.414a1.483,1.483,0,1,0-2.966,0V38.276H94.861V32.345a1.483,1.483,0,1,0-2.966,0v5.931H88.922v-8.9a1.483,1.483,0,1,0-2.965,0v8.9H82.984V35.31a1.483,1.483,0,1,0-2.965,0v2.966H78.536a1.488,1.488,0,0,1-1.49-1.483V23.448a1.488,1.488,0,0,1,1.49-1.483h23.746a1.483,1.483,0,0,1,1.483,1.482h0Z" transform="translate(-19.159 -4.914)"/>
          </g>
        </g>
      </g>
    </g>
  </g>
</svg>
