<svg xmlns="http://www.w3.org/2000/svg" xmlns:xlink="http://www.w3.org/1999/xlink" width="95" height="95" viewBox="0 0 95 95">
  <defs>
    <clipPath id="clip-path">
      <rect id="Rectangle_413852" data-name="Rectangle 413852" width="71.37" height="94.207" fill="none" stroke="#000" stroke-width="2"/>
    </clipPath>
  </defs>
  <g id="Group_1222880" data-name="Group 1222880" transform="translate(-380 9191)">
    <rect id="Rectangle_413865" data-name="Rectangle 413865" width="95" height="95" transform="translate(380 -9191)" fill="none"/>
    <g id="Group_1222867" data-name="Group 1222867" transform="translate(391.815 -9190.998)">
      <path id="Path_1285868" data-name="Path 1285868" d="M81.822,671.122h4.36v68.316h32.012v4.355H49.81v-4.355H81.822Z" transform="translate(-48.316 -651)" fill="#161f25" stroke="#000" stroke-width="2" fill-rule="evenodd"/>
      <g id="Group_1222866" data-name="Group 1222866" transform="translate(0 -0.002)">
        <g id="Group_1222865" data-name="Group 1222865" transform="translate(0 0)" clip-path="url(#clip-path)">
          <path id="Path_1285869" data-name="Path 1285869" d="M1.816,0H69.554A1.808,1.808,0,0,1,71.37,1.813V18.307a1.808,1.808,0,0,1-1.817,1.815H1.816A1.808,1.808,0,0,1,0,18.307V1.813A1.808,1.808,0,0,1,1.816,0" transform="translate(0 0.002)" fill="#2c3439" stroke="#000" stroke-width="2" fill-rule="evenodd"/>
          <rect id="Rectangle_413850" data-name="Rectangle 413850" width="71.37" height="15.284" transform="translate(0 2.42)" fill="#40494c" stroke="#000" stroke-width="2"/>
          <path id="Path_1285870" data-name="Path 1285870" d="M128.7,278.4h24.059a.8.8,0,0,1,.807.766v1.855a.809.809,0,0,1-.807.807H128.7a.809.809,0,0,1-.807-.807v-1.855a.8.8,0,0,1,.807-.766m59.785,0h2.745a.356.356,0,0,1,.363.323v2.742a.362.362,0,0,1-.363.363h-2.745a.362.362,0,0,1-.363-.363V278.72a.356.356,0,0,1,.363-.323m-22.687,0h2.745a.356.356,0,0,1,.363.323v2.742a.362.362,0,0,1-.363.363H165.8a.362.362,0,0,1-.363-.363V278.72a.356.356,0,0,1,.363-.323m15.138,0h2.745a.356.356,0,0,1,.363.323v2.742a.362.362,0,0,1-.363.363h-2.745a.362.362,0,0,1-.363-.363V278.72a.356.356,0,0,1,.363-.323m-7.589,0H176.1a.356.356,0,0,1,.363.323v2.742a.362.362,0,0,1-.363.363H173.35a.362.362,0,0,1-.363-.363V278.72a.356.356,0,0,1,.363-.323" transform="translate(-124.061 -270.049)" fill="#3166e6" stroke="#000" stroke-width="2" fill-rule="evenodd"/>
          <path id="Path_1285871" data-name="Path 1285871" d="M1.816,929.356H69.554a1.8,1.8,0,0,1,1.817,1.774v16.535a1.8,1.8,0,0,1-1.817,1.774H1.816A1.8,1.8,0,0,1,0,947.665V931.13a1.8,1.8,0,0,1,1.816-1.774" transform="translate(0 -901.489)" fill="#2c3439" stroke="#000" stroke-width="2" fill-rule="evenodd"/>
          <path id="Path_1285872" data-name="Path 1285872" d="M0,1008.7H71.37v15.325H0V1008.7" transform="translate(0 -978.457)" fill="#40494c" stroke="#000" stroke-width="2" fill-rule="evenodd"/>
          <path id="Path_1285873" data-name="Path 1285873" d="M128.7,1206.412h24.059a.809.809,0,0,1,.807.807v1.855a.809.809,0,0,1-.807.807H128.7a.809.809,0,0,1-.807-.807v-1.855a.809.809,0,0,1,.807-.807m59.785,0h2.745a.361.361,0,0,1,.363.363v2.742a.361.361,0,0,1-.363.363h-2.745a.362.362,0,0,1-.363-.363v-2.742a.362.362,0,0,1,.363-.363m-22.687,0h2.745a.362.362,0,0,1,.363.363v2.742a.361.361,0,0,1-.363.363H165.8a.361.361,0,0,1-.363-.363v-2.742a.361.361,0,0,1,.363-.363m15.138,0h2.745a.362.362,0,0,1,.363.363v2.742a.362.362,0,0,1-.363.363h-2.745a.361.361,0,0,1-.363-.363v-2.742a.362.362,0,0,1,.363-.363m-7.589,0H176.1a.362.362,0,0,1,.363.363v2.742a.361.361,0,0,1-.363.363H173.35a.362.362,0,0,1-.363-.363v-2.742a.362.362,0,0,1,.363-.363" transform="translate(-124.061 -1170.237)" fill="#3166e6" stroke="#000" stroke-width="2" fill-rule="evenodd"/>
          <path id="Path_1285874" data-name="Path 1285874" d="M1.816,1857.364H69.554a1.808,1.808,0,0,1,1.817,1.815v16.494a1.808,1.808,0,0,1-1.817,1.815H1.816A1.808,1.808,0,0,1,0,1875.673v-16.494a1.808,1.808,0,0,1,1.816-1.815" transform="translate(0 -1801.671)" fill="#2c3439" stroke="#000" stroke-width="2" fill-rule="evenodd"/>
          <rect id="Rectangle_413851" data-name="Rectangle 413851" width="71.37" height="15.285" transform="translate(0 58.113)" fill="#40494c" stroke="#000" stroke-width="2"/>
          <path id="Path_1285875" data-name="Path 1285875" d="M128.7,2134.42h24.059a.809.809,0,0,1,.807.807v1.855a.809.809,0,0,1-.807.806H128.7a.809.809,0,0,1-.807-.806v-1.855a.809.809,0,0,1,.807-.807m59.785,0h2.745a.362.362,0,0,1,.363.363v2.742a.361.361,0,0,1-.363.363h-2.745a.361.361,0,0,1-.363-.363v-2.742a.362.362,0,0,1,.363-.363m-22.687,0h2.745a.362.362,0,0,1,.363.363v2.742a.361.361,0,0,1-.363.363H165.8a.361.361,0,0,1-.363-.363v-2.742a.361.361,0,0,1,.363-.363m15.138,0h2.745a.362.362,0,0,1,.363.363v2.742a.362.362,0,0,1-.363.363h-2.745a.361.361,0,0,1-.363-.363v-2.742a.361.361,0,0,1,.363-.363m-7.589,0H176.1a.362.362,0,0,1,.363.363v2.742a.361.361,0,0,1-.363.363H173.35a.361.361,0,0,1-.363-.363v-2.742a.362.362,0,0,1,.363-.363" transform="translate(-124.061 -2070.419)" fill="#3166e6" stroke="#000" stroke-width="2" fill-rule="evenodd"/>
          <path id="Path_1285876" data-name="Path 1285876" d="M909,2773.226h5.208v7.178h-17.6v-7.178h5.207v-3.992H909Z" transform="translate(-869.72 -2686.197)" fill="#40494c" stroke="#000" stroke-width="2" fill-rule="evenodd"/>
        </g>
      </g>
    </g>
  </g>
</svg>
