<svg xmlns="http://www.w3.org/2000/svg" xmlns:xlink="http://www.w3.org/1999/xlink" width="95.001" height="95" viewBox="0 0 95.001 95">
  <defs>
    <clipPath id="clip-path">
      <rect id="Rectangle_413805" data-name="Rectangle 413805" width="95" height="52.741" fill="none"/>
    </clipPath>
  </defs>
  <g id="Group_1222927" data-name="Group 1222927" transform="translate(-752.301 -3371)">
    <g id="Group_1222922" data-name="Group 1222922" transform="translate(-693 -3606.048)">
      <ellipse id="Ellipse_12931" data-name="Ellipse 12931" cx="27.416" cy="27.416" rx="27.416" ry="27.416" transform="translate(1485.469 7017.216)" fill="#7fe5cf"/>
      <ellipse id="Ellipse_12932" data-name="Ellipse 12932" cx="19.939" cy="19.939" rx="19.939" ry="19.939" transform="translate(1445.301 6985.886)" fill="#7fe5cf"/>
    </g>
    <g id="Group_1222857" data-name="Group 1222857" transform="translate(-22569.699 11222)">
      <rect id="Rectangle_413761" data-name="Rectangle 413761" width="95" height="95" transform="translate(23322 -7851)" fill="none"/>
      <g id="Group_1222837" data-name="Group 1222837" transform="translate(23322 -7829.87)">
        <g id="Group_1222836" data-name="Group 1222836" clip-path="url(#clip-path)">
          <path id="Path_1285740" data-name="Path 1285740" d="M97.967,108.836H9.25a1.75,1.75,0,0,0-1.75,1.75v17.159a1.75,1.75,0,0,0,1.75,1.75h7.094V115.845H38.007v13.649h59.96a1.75,1.75,0,0,0,1.75-1.75V110.586a1.75,1.75,0,0,0-1.75-1.75" transform="translate(-6.108 -88.642)" fill="#5f6c75"/>
          <path id="Path_1285741" data-name="Path 1285741" d="M16.344,125.784v3.711H9.25a1.75,1.75,0,0,1-1.75-1.75v-1.961Zm81.623-16.948H92.295v3.829a13.119,13.119,0,0,1-13.119,13.119H38.007v3.711h59.96a1.75,1.75,0,0,0,1.75-1.75V110.586a1.75,1.75,0,0,0-1.75-1.75" transform="translate(-6.108 -88.642)" fill="#4e5a61"/>
          <path id="Path_1285742" data-name="Path 1285742" d="M99.294,26.3a1.749,1.749,0,0,1,1.447.766L89.937,9.2a3.532,3.532,0,0,0-3.022-1.7H22.955a3.532,3.532,0,0,0-3.022,1.7L9.129,27.069a1.747,1.747,0,0,1,1.447-.767Z" transform="translate(-7.435 -6.108)" fill="#5f6c75"/>
          <path id="Path_1285743" data-name="Path 1285743" d="M89.938,9.2a3.533,3.533,0,0,0-3.023-1.7H83.729l2.708,4.478a6.994,6.994,0,0,1-5.985,10.614H11.837L9.129,27.069a1.748,1.748,0,0,1,1.447-.767H99.294a1.75,1.75,0,0,1,1.447.767Z" transform="translate(-7.435 -6.108)" fill="#4e5a61"/>
          <path id="Path_1285744" data-name="Path 1285744" d="M63.721,245.94H36.767a.943.943,0,0,1-.943-.944v-5.131a.943.943,0,0,1,.943-.943H63.721a.942.942,0,0,1,.943.943V245a.943.943,0,0,1-.943.944" transform="translate(-29.177 -194.591)" fill="#dadee4"/>
          <path id="Path_1285745" data-name="Path 1285745" d="M63.721,238.922H57.242v2.363a.944.944,0,0,1-.943.944H35.824V245a.943.943,0,0,0,.943.943H63.721a.944.944,0,0,0,.944-.943v-5.131a.944.944,0,0,0-.944-.944" transform="translate(-29.177 -194.591)" fill="#b4bcc9"/>
          <rect id="Rectangle_413804" data-name="Rectangle 413804" width="21.663" height="17.127" transform="translate(10.236 27.204)" fill="#8f9bae"/>
          <path id="Path_1285746" data-name="Path 1285746" d="M69.405,146.614v5.41A8.007,8.007,0,0,1,61.4,160.03H55.164v3.711H76.827V146.613H69.405Z" transform="translate(-44.928 -119.409)" fill="#5f6c75"/>
          <path id="Path_1285747" data-name="Path 1285747" d="M88.548,171.561c0-2.669-3.3-4.831-7.374-4.831s-7.373,2.163-7.373,4.831,3.3,4.831,7.373,4.831,7.374-2.163,7.374-4.831" transform="translate(-60.107 -135.794)" fill="#f7b735"/>
          <path id="Path_1285748" data-name="Path 1285748" d="M35.824,147.538v4.76a.943.943,0,0,0,.943.943h2.646V146.6l.047,0H36.767a.944.944,0,0,0-.943.944" transform="translate(-29.177 -119.394)" fill="#4e5a61"/>
          <path id="Path_1285749" data-name="Path 1285749" d="M174.564,146.594h-2.646v6.647h2.646a.942.942,0,0,0,.943-.943v-4.76a.943.943,0,0,0-.943-.944" transform="translate(-140.019 -119.394)" fill="#4e5a61"/>
          <path id="Path_1285750" data-name="Path 1285750" d="M7.5,182.418h8.844v7.006H9.25a1.75,1.75,0,0,1-1.75-1.75Zm30.507,0v7.006h59.96a1.75,1.75,0,0,0,1.75-1.75v-5.256Z" transform="translate(-6.108 -148.571)" fill="#dadee4"/>
          <path id="Path_1285751" data-name="Path 1285751" d="M7.5,202.137a1.749,1.749,0,0,0,1.75,1.75h7.094v-3.711H7.5Z" transform="translate(-6.108 -163.034)" fill="#b4bcc9"/>
          <path id="Path_1285752" data-name="Path 1285752" d="M213.086,185.713H171.918v3.711h59.96a1.75,1.75,0,0,0,1.75-1.75v-5.256h-11.85a13.067,13.067,0,0,1-8.691,3.295" transform="translate(-140.019 -148.571)" fill="#b4bcc9"/>
          <path id="Path_1285753" data-name="Path 1285753" d="M367.1,136.318H342.481a.79.79,0,0,1-.79-.789v-3.915a.79.79,0,0,1,.79-.789H367.1a.789.789,0,0,1,.789.789v3.915a.789.789,0,0,1-.789.789" transform="translate(-278.291 -106.551)" fill="#d4e6f1"/>
          <path id="Path_1285754" data-name="Path 1285754" d="M367.1,130.824h-6.632a2.71,2.71,0,0,1-2.71,2.71H341.691v1.994a.789.789,0,0,0,.79.789H367.1a.789.789,0,0,0,.789-.789v-3.914a.789.789,0,0,0-.789-.79" transform="translate(-278.291 -106.55)" fill="#a9cce3"/>
          <path id="Path_1285755" data-name="Path 1285755" d="M288.276,136.318h4.557a.467.467,0,0,0,.468-.468v-4.558a.467.467,0,0,0-.468-.467h-4.557a.467.467,0,0,0-.468.467v4.558a.467.467,0,0,0,.468.468" transform="translate(-234.406 -106.551)" fill="#f2385a"/>
          <path id="Path_1285756" data-name="Path 1285756" d="M117.029,35.084a1.391,1.391,0,0,0-1.786.826l-2.134,5.814a1.392,1.392,0,0,0,2.613.96l2.134-5.814a1.391,1.391,0,0,0-.827-1.786" transform="translate(-92.052 -28.504)"/>
          <path id="Path_1285757" data-name="Path 1285757" d="M375.166,35.91a1.392,1.392,0,0,0-2.613.96l2.134,5.814a1.392,1.392,0,0,0,2.613-.96Z" transform="translate(-303.357 -28.504)"/>
          <path id="Path_1285758" data-name="Path 1285758" d="M204.19,35.011a1.393,1.393,0,0,0-1.555,1.207l-.734,5.814a1.392,1.392,0,1,0,2.761.349l.734-5.814a1.392,1.392,0,0,0-1.206-1.555" transform="translate(-164.429 -28.506)"/>
          <path id="Path_1285759" data-name="Path 1285759" d="M293.924,36.217a1.392,1.392,0,1,0-2.761.349l.734,5.814a1.392,1.392,0,0,0,2.762-.348Z" transform="translate(-237.129 -28.505)"/>
          <path id="Path_1285760" data-name="Path 1285760" d="M75.066,159.231c-4.915,0-8.765,2.733-8.765,6.223s3.85,6.223,8.765,6.223,8.766-2.734,8.766-6.223-3.85-6.223-8.766-6.223m0,9.663c-3.186,0-5.982-1.608-5.982-3.44s2.8-3.44,5.982-3.44,5.982,1.608,5.982,3.44-2.8,3.44-5.982,3.44" transform="translate(-53.999 -129.686)"/>
          <path id="Path_1285761" data-name="Path 1285761" d="M108.756,186.036a1.392,1.392,0,1,1-1.392-1.392,1.392,1.392,0,0,1,1.392,1.392" transform="translate(-86.31 -150.384)"/>
          <path id="Path_1285762" data-name="Path 1285762" d="M94.495,20.238,83.693,2.376A4.95,4.95,0,0,0,79.48,0H15.52a4.951,4.951,0,0,0-4.213,2.376L.509,20.232A3.121,3.121,0,0,0,0,21.944V39.1a3.145,3.145,0,0,0,3.141,3.141h5.7v.7H7.59a2.337,2.337,0,0,0-2.335,2.335v5.131A2.337,2.337,0,0,0,7.59,52.741H34.544a2.337,2.337,0,0,0,2.335-2.335V45.274a2.337,2.337,0,0,0-2.335-2.335H33.29v-.7H91.859A3.145,3.145,0,0,0,95,39.1V21.944a3.119,3.119,0,0,0-.505-1.706M3.141,39.461a.358.358,0,0,1-.358-.358V35.239H8.844v4.223Zm5.7-7.006H8.039V28.592h.805ZM19.2,42.94a1.392,1.392,0,0,0,0,2.783H34.1v4.235H8.039V45.723H12.7a1.392,1.392,0,1,0,0-2.783H11.627V28.6h18.88V42.94ZM34.1,32.455H33.29V28.592H34.1Zm57.763,7.006H33.29V35.239h5.525a1.392,1.392,0,0,0,0-2.783H36.879V28.144a2.337,2.337,0,0,0-2.335-2.335H7.59a2.337,2.337,0,0,0-2.335,2.335v4.312H2.783V21.944a.358.358,0,0,1,.358-.358H81.578a1.392,1.392,0,0,0,0-2.783H4.625L13.688,3.816A2.153,2.153,0,0,1,15.52,2.783H79.48a2.152,2.152,0,0,1,1.832,1.033L90.374,18.8h-2.3a1.392,1.392,0,0,0,0,2.783h3.787a.359.359,0,0,1,.358.358V32.455H45.31a1.392,1.392,0,0,0,0,2.783H92.217V39.1a.358.358,0,0,1-.358.358"/>
          <path id="Path_1285763" data-name="Path 1285763" d="M140.7,253.115h4.164a1.392,1.392,0,0,0,0-2.783H140.7a1.392,1.392,0,0,0,0,2.783" transform="translate(-113.464 -203.884)"/>
          <path id="Path_1285764" data-name="Path 1285764" d="M336.373,131.6h24.615a2.184,2.184,0,0,0,2.182-2.181V125.5a2.184,2.184,0,0,0-2.182-2.181H336.373a2.184,2.184,0,0,0-2.182,2.181v3.915a2.184,2.184,0,0,0,2.182,2.181m.6-5.493h23.412v2.71H336.974Z" transform="translate(-272.183 -100.442)"/>
          <path id="Path_1285765" data-name="Path 1285765" d="M282.164,131.6h4.558a1.862,1.862,0,0,0,1.859-1.859v-4.558a1.861,1.861,0,0,0-1.859-1.859h-4.558a1.861,1.861,0,0,0-1.859,1.859v4.558a1.862,1.862,0,0,0,1.859,1.859m.925-5.493H285.8v2.71h-2.709Z" transform="translate(-228.295 -100.442)"/>
          <path id="Path_1285766" data-name="Path 1285766" d="M452.943,195.189a1.392,1.392,0,1,1-1.392-1.392,1.391,1.391,0,0,1,1.392,1.392" transform="translate(-366.634 -157.839)"/>
          <path id="Path_1285767" data-name="Path 1285767" d="M429.943,195.189a1.392,1.392,0,1,1-1.392-1.392,1.391,1.391,0,0,1,1.392,1.392" transform="translate(-347.902 -157.839)"/>
          <path id="Path_1285768" data-name="Path 1285768" d="M475.943,195.189a1.392,1.392,0,1,1-1.392-1.392,1.391,1.391,0,0,1,1.392,1.392" transform="translate(-385.367 -157.839)"/>
        </g>
      </g>
    </g>
  </g>
</svg>
