<svg xmlns="http://www.w3.org/2000/svg" xmlns:xlink="http://www.w3.org/1999/xlink" width="95.001" height="95" viewBox="0 0 95.001 95">
  <defs>
    <clipPath id="clip-path">
      <rect id="Rectangle_414093" data-name="Rectangle 414093" width="60.594" height="60" fill="none"/>
    </clipPath>
  </defs>
  <g id="Group_1223087" data-name="Group 1223087" transform="translate(-8131.999 4656)">
    <rect id="Rectangle_414066" data-name="Rectangle 414066" width="95" height="95" transform="translate(8132 -4656)" fill="none"/>
    <g id="Group_1222983" data-name="Group 1222983" transform="translate(-4838.437 5681.898)">
      <ellipse id="Ellipse_12935" data-name="Ellipse 12935" cx="27.416" cy="27.416" rx="27.416" ry="27.416" transform="translate(13010.604 -10302.149)" fill="#ffc94a"/>
      <ellipse id="Ellipse_12936" data-name="Ellipse 12936" cx="19.939" cy="19.939" rx="19.939" ry="19.939" transform="translate(12970.436 -10333.479)" fill="#ffc94a"/>
    </g>
    <g id="Group_1223000" data-name="Group 1223000" transform="translate(8149.203 -4640.664)">
      <path id="Path_1286593" data-name="Path 1286593" d="M29.741,44.4H1.315V58.7H55.637V44.4Z" fill="#57606f"/>
      <path id="Path_1286594" data-name="Path 1286594" d="M1.315,24.1V38.4H55.738V24.1Z" fill="#57606f"/>
      <g id="Group_1222999" data-name="Group 1222999">
        <g id="Group_1222998" data-name="Group 1222998" clip-path="url(#clip-path)">
          <path id="Path_1286595" data-name="Path 1286595" d="M48.354,49.2a2.4,2.4,0,1,1-2.428,2.4,2.383,2.383,0,0,1,2.428-2.4" fill="#80af52"/>
          <path id="Path_1286596" data-name="Path 1286596" d="M39.958,49.2a2.4,2.4,0,1,1-2.429,2.4,2.383,2.383,0,0,1,2.429-2.4" fill="#80af52"/>
          <path id="Path_1286597" data-name="Path 1286597" d="M48.354,28.9a2.4,2.4,0,1,1-2.428,2.4,2.383,2.383,0,0,1,2.428-2.4" fill="#80af52"/>
          <path id="Path_1286598" data-name="Path 1286598" d="M39.958,28.9a2.4,2.4,0,1,1-2.429,2.4,2.383,2.383,0,0,1,2.429-2.4" fill="#80af52"/>
          <path id="Path_1286599" data-name="Path 1286599" d="M12.645,15h2.529V7.5H12.645ZM8.9,15H11.43V7.5H8.9ZM7.587,7.5H5.058V15H7.587ZM24.075,15H26.6V7.5H24.075Zm-3.843,0h2.529V7.5H20.232ZM19.017,7.5H16.488V15h2.529ZM41.07,3.8A10.2,10.2,0,0,0,39.755,5a9.74,9.74,0,0,0-1.113,1.5,8.528,8.528,0,0,0-1.113,2.4,11.123,11.123,0,0,0-.606,3.8,12.484,12.484,0,0,0,1.618,6.1H1.315V3.8Z" fill="#57606f"/>
          <rect id="Rectangle_414075" data-name="Rectangle 414075" width="2.529" height="7.5" transform="translate(24.076 47.5)"/>
          <rect id="Rectangle_414076" data-name="Rectangle 414076" width="2.529" height="7.5" transform="translate(24.076 27.5)"/>
          <rect id="Rectangle_414077" data-name="Rectangle 414077" width="2.529" height="7.5" transform="translate(24.076 7.5)"/>
          <rect id="Rectangle_414078" data-name="Rectangle 414078" width="2.529" height="7.5" transform="translate(20.232 47.5)"/>
          <rect id="Rectangle_414079" data-name="Rectangle 414079" width="2.529" height="7.5" transform="translate(20.232 27.5)"/>
          <rect id="Rectangle_414080" data-name="Rectangle 414080" width="2.529" height="7.5" transform="translate(20.232 7.5)"/>
          <rect id="Rectangle_414081" data-name="Rectangle 414081" width="2.529" height="7.5" transform="translate(16.489 47.5)"/>
          <rect id="Rectangle_414082" data-name="Rectangle 414082" width="2.529" height="7.5" transform="translate(16.489 27.5)"/>
          <rect id="Rectangle_414083" data-name="Rectangle 414083" width="2.529" height="7.5" transform="translate(16.489 7.5)"/>
          <rect id="Rectangle_414084" data-name="Rectangle 414084" width="2.529" height="7.5" transform="translate(12.645 47.5)"/>
          <rect id="Rectangle_414085" data-name="Rectangle 414085" width="2.529" height="7.5" transform="translate(12.645 27.5)"/>
          <rect id="Rectangle_414086" data-name="Rectangle 414086" width="2.529" height="7.5" transform="translate(12.645 7.5)"/>
          <rect id="Rectangle_414087" data-name="Rectangle 414087" width="2.529" height="7.5" transform="translate(8.902 47.5)"/>
          <rect id="Rectangle_414088" data-name="Rectangle 414088" width="2.529" height="7.5" transform="translate(8.902 27.5)"/>
          <rect id="Rectangle_414089" data-name="Rectangle 414089" width="2.529" height="7.5" transform="translate(8.902 7.5)"/>
          <rect id="Rectangle_414090" data-name="Rectangle 414090" width="2.529" height="7.5" transform="translate(5.058 47.5)"/>
          <rect id="Rectangle_414091" data-name="Rectangle 414091" width="2.529" height="7.5" transform="translate(5.058 27.5)"/>
          <rect id="Rectangle_414092" data-name="Rectangle 414092" width="2.529" height="7.5" transform="translate(5.058 7.5)"/>
          <path id="Path_1286600" data-name="Path 1286600" d="M29.741,25.3A1.331,1.331,0,0,1,28.426,24V18.7a1.315,1.315,0,0,1,2.63,0V24a1.268,1.268,0,0,1-1.315,1.3"/>
          <path id="Path_1286601" data-name="Path 1286601" d="M25.391,25.3A1.331,1.331,0,0,1,24.076,24V18.7a1.315,1.315,0,0,1,2.63,0V24a1.268,1.268,0,0,1-1.315,1.3"/>
          <path id="Path_1286602" data-name="Path 1286602" d="M29.741,45.6a1.331,1.331,0,0,1-1.315-1.3v-6a1.315,1.315,0,0,1,2.63,0v6a1.268,1.268,0,0,1-1.315,1.3"/>
          <path id="Path_1286603" data-name="Path 1286603" d="M25.391,45.6a1.331,1.331,0,0,1-1.315-1.3v-6a1.315,1.315,0,0,1,2.63,0v6a1.268,1.268,0,0,1-1.315,1.3"/>
          <path id="Path_1286604" data-name="Path 1286604" d="M55.637,39.7H1.315A1.331,1.331,0,0,1,0,38.4V24.1a1.331,1.331,0,0,1,1.315-1.3H55.738a1.332,1.332,0,0,1,1.316,1.3V38.4a1.5,1.5,0,0,1-1.417,1.3M2.529,37.2H54.424V25.3H2.529Z"/>
          <path id="Path_1286605" data-name="Path 1286605" d="M48.354,34.9A3.6,3.6,0,1,1,52,31.3a3.606,3.606,0,0,1-3.642,3.6m0-4.8a1.1,1.1,0,1,0,1.113,1.1,1.055,1.055,0,0,0-1.113-1.1"/>
          <path id="Path_1286606" data-name="Path 1286606" d="M39.958,34.9A3.6,3.6,0,1,1,43.6,31.3a3.607,3.607,0,0,1-3.641,3.6m0-4.8a1.1,1.1,0,1,0,1.112,1.1,1.117,1.117,0,0,0-1.112-1.1"/>
          <path id="Path_1286607" data-name="Path 1286607" d="M55.637,60H1.315A1.331,1.331,0,0,1,0,58.7V44.4a1.331,1.331,0,0,1,1.315-1.3H55.738a1.332,1.332,0,0,1,1.316,1.3V58.7A1.5,1.5,0,0,1,55.637,60M2.529,57.5H54.424V45.6H2.529Z"/>
          <path id="Path_1286608" data-name="Path 1286608" d="M48.354,55.2A3.6,3.6,0,1,1,52.1,51.6a3.694,3.694,0,0,1-3.743,3.6m0-4.8a1.1,1.1,0,1,0,1.113,1.1,1,1,0,0,0-1.113-1.1"/>
          <path id="Path_1286609" data-name="Path 1286609" d="M39.958,55.2A3.6,3.6,0,1,1,43.6,51.6a3.607,3.607,0,0,1-3.641,3.6m0-4.8a1.1,1.1,0,1,0,1.112,1.1,1.117,1.117,0,0,0-1.112-1.1"/>
          <path id="Path_1286610" data-name="Path 1286610" d="M48.151,1.3A11.1,11.1,0,1,1,36.922,11.8a12.4,12.4,0,0,1,.506-2.9,4.681,4.681,0,0,0,.2-.5,10.473,10.473,0,0,1,2.732-4,7.837,7.837,0,0,1,.708-.6,10.9,10.9,0,0,1,7.081-2.5" fill="#ff7979"/>
          <path id="Path_1286611" data-name="Path 1286611" d="M38.44,20H1.314A1.331,1.331,0,0,1,0,18.7V3.7A1.331,1.331,0,0,1,1.314,2.4H41.07a1.331,1.331,0,0,1,1.315,1.3A1.331,1.331,0,0,1,41.07,5H2.528V17.5h33.99a18.376,18.376,0,0,1-.911-5.5,1.266,1.266,0,0,1,2.529.1,11.431,11.431,0,0,0,1.417,6,1.47,1.47,0,0,1,0,1.3,1.166,1.166,0,0,1-1.113.6"/>
          <path id="Path_1286612" data-name="Path 1286612" d="M48.152,24.8A12.467,12.467,0,0,1,35.608,12.1a13.268,13.268,0,0,1,1.517-5.7,17.3,17.3,0,0,1,1.417-2c.4-.5,1.214-1.2,1.619-1.6A12.537,12.537,0,0,1,60.6,12.4,12.448,12.448,0,0,1,48.152,24.8M38.643,9.4h0a10.381,10.381,0,0,0-.506,3A10.016,10.016,0,1,0,48.152,2.5a9.725,9.725,0,0,0-6.474,2.4,5.123,5.123,0,0,1-1.012.9c-.1.2-.4.5-1.011,1.3a8.953,8.953,0,0,0-.708,1.4,9.353,9.353,0,0,1-.3.9"/>
          <path id="Path_1286613" data-name="Path 1286613" d="M52.7,12.9a1.293,1.293,0,0,0-1.821,0l-1.517,1.5V1.3a1.315,1.315,0,0,0-2.63,0V14.6l-1.72-1.7a1.293,1.293,0,0,0-1.821,0,1.257,1.257,0,0,0,0,1.8l3.743,3.8a1.293,1.293,0,0,0,1.821,0L52.6,14.7a1.183,1.183,0,0,0,.1-1.8"/>
        </g>
      </g>
    </g>
  </g>
</svg>
