<svg xmlns="http://www.w3.org/2000/svg" xmlns:xlink="http://www.w3.org/1999/xlink" width="95" height="95" viewBox="0 0 95 95">
  <defs>
    <clipPath id="clip-path">
      <rect id="Rectangle_414244" data-name="Rectangle 414244" width="87.139" height="63.18" fill="none" stroke="#000" stroke-width="1" stroke-dasharray="90 3"/>
    </clipPath>
  </defs>
  <g id="Group_1223144" data-name="Group 1223144" transform="translate(3153 11284)">
    <rect id="Rectangle_414275" data-name="Rectangle 414275" width="95" height="95" transform="translate(-3153 -11284)" fill="none"/>
    <g id="Group_1223132" data-name="Group 1223132" transform="translate(654.774 -237.197)">
      <ellipse id="Ellipse_12937" data-name="Ellipse 12937" cx="28.658" cy="28.658" rx="28.658" ry="28.658" transform="translate(-3770.09 -11011.514)" fill="#ffc94a"/>
      <ellipse id="Ellipse_12938" data-name="Ellipse 12938" cx="20.842" cy="20.842" rx="20.842" ry="20.842" transform="translate(-3806.617 -11044.803)" fill="#ffc94a"/>
    </g>
    <g id="Group_1223100" data-name="Group 1223100" transform="translate(-3148.491 -11269)">
      <g id="Group_1223099" data-name="Group 1223099" clip-path="url(#clip-path)">
        <path id="Path_1287105" data-name="Path 1287105" d="M90.665,85.856c-3.216-3.7-3.717-8.88-2.435-13.606,2.883,2.162,4.97,4.625,8.515,4.934-.776-6.017.137-12.65,5.729-16.251.985,2.29-.112,4.107.64,6.79,1.478-1.7,3.541-3.543,3.759-5.959l.9-10c2.121,1.937,4.019,3.866,5.016,6.43,1.906,4.9,1.379,14.23-2.613,18.235,2.558.211,3.971-1.727,7.211-2.324C118.5,81.943,112.874,89.76,104.93,90.7c-5.383.639-10.651-.693-14.265-4.846" transform="translate(-53.854 -31.833)" fill="#fefefe" stroke="#000" stroke-width="1" stroke-dasharray="90 3"/>
        <path id="Path_1287106" data-name="Path 1287106" d="M75.562,50.456l.047-9.726c-1.247-.825-4.506.145-4.809-.756a2.084,2.084,0,0,1,.132-1.621l15.116-.142c.689-.007.971-.913.965-1.464l-.081-8.493a1.549,1.549,0,0,0-1.617-1.522l-23.524-.015A41.347,41.347,0,0,0,51.346,11.861a13.55,13.55,0,0,1-4.3-7.279c-2.09,1.182-2.758,3.459-3.126,5.779-1.038,6.525,3.01,12.647.275,13.9C41.958,25.29,38.8,20.008,38.765,17.4c-2.962,1.047-2.918,6.836-2.677,9.309l-12.549.152-.084,11.076c1.2.673,2.361.09,3.685.5-.067.287-.213,1.935-.815,1.935L1.683,40.4A1.539,1.539,0,0,0,.145,42.1l.023,6.957a1.483,1.483,0,0,0,1.654,1.578l26,.11c.575,0,.876,1.8.425,2l-11.276.259-.152,10.675c-.012.8.183,1.918,1.358,1.913l20.567-.1c1.816-.009,3.35.119,5.124.275,7.845.69,14.658-.439,21.85-.163,3.238.124,1.285-5.822,2.046-11.142.179-1.253,1.348-2.454,1.431-3.829,2.318-.085,4.177.291,6.369-.18m-24.4,11.231c-5.383.639-10.651-.693-14.265-4.846-3.216-3.7-3.717-8.88-2.435-13.606,2.883,2.161,4.97,4.624,8.515,4.934-.776-6.017.137-12.651,5.729-16.251.985,2.29-.112,4.107.64,6.79,1.478-1.7,3.541-3.542,3.759-5.959l.9-10c2.121,1.936,4.019,3.866,5.016,6.43,1.906,4.9,1.379,14.23-2.613,18.235,2.558.211,3.971-1.727,7.211-2.324,1.117,7.834-4.512,15.651-12.455,16.594" transform="translate(-0.089 -2.818)" fill="#d73242" stroke="#000" stroke-width="1" stroke-dasharray="90 3"/>
        <rect id="Rectangle_414242" data-name="Rectangle 414242" width="21.416" height="11.571" transform="translate(0 23.907)" fill="#d73242" stroke="#000" stroke-width="1" stroke-dasharray="90 3"/>
        <rect id="Rectangle_414243" data-name="Rectangle 414243" width="12.767" height="17.562" transform="matrix(0.001, -1, 1, 0.001, 69.445, 62.768)" fill="#d73242" stroke="#000" stroke-width="1" stroke-dasharray="90 3"/>
        <path id="Path_1287107" data-name="Path 1287107" d="M1.467,129.9c-.914-.005-1.263.769-1.26,1.568l.026,9.27a1.723,1.723,0,0,0,1.646,1.85l11.689.038a1.3,1.3,0,0,0,1.289-1.17c.1-3.857.132-7.519-.043-11.478Z" transform="translate(-0.127 -79.883)" fill="#d73242" stroke="#000" stroke-width="1" stroke-dasharray="90 3"/>
        <path id="Path_1287108" data-name="Path 1287108" d="M209.1,97.44c-2.64.122-5.109-.107-7.686.166l.032,10.027a55.9,55.9,0,0,0,8.419.059c1.631-.065,1.047-6.92.945-8.714A1.505,1.505,0,0,0,209.1,97.44" transform="translate(-123.857 -59.918)" fill="#d73242" stroke="#000" stroke-width="1" stroke-dasharray="90 3"/>
        <path id="Path_1287109" data-name="Path 1287109" d="M102.081,22.141a69.232,69.232,0,0,1,2.255,10.639c1.214-1.049,3.933-7.44,6.018-4.427,13.476,41.333-56.887,41.008-41.818,1.231,3.214-7.848,6.987,7.833,7.921,2.357.5-6.428-2.777-14.058,2.6-19.243.348,2.76,2.943,7.866,5.287,6.876C87.181,14.765,80.413,3.857,87.313,0c2.759,8.531,12.464,13.15,14.768,22.142" transform="translate(-40.837 0.001)" fill="#fe9c15" stroke="#000" stroke-width="1" stroke-dasharray="90 3"/>
        <path id="Path_1287110" data-name="Path 1287110" d="M85.877,75.263a14.07,14.07,0,0,1-2.1-13.554c2.685,2.559,5.114,4.749,8.3,5.025-.709-6.246.251-12.428,5.521-16.115,1.446,1.07-.035,5,.965,6.751,1.451-1.962,3.535-3.757,3.736-6.3l.772-9.772a18.347,18.347,0,0,1,4.957,6.229c2.079,4.958,1.532,14.4-2.479,18.508,1.795.172,2.946-.728,4.329-1.356l2.893-1.314c1.115,8.115-4.427,15.951-12.5,16.932-5.424.66-10.84-.755-14.4-5.033" transform="translate(-50.987 -25.395)" fill="#fed22f" stroke="#000" stroke-width="1" stroke-dasharray="90 3"/>
      </g>
    </g>
  </g>
</svg>
